<svg id="add_circle_outlined" xmlns="http://www.w3.org/2000/svg" width="35" height="35" viewBox="0 0 35 35">
  <rect id="Bounding_box" data-name="Bounding box" width="35" height="35" fill="rgba(255,255,255,0)"/>
  <path id="Icon_color" data-name="Icon color" d="M14.5,29A14.5,14.5,0,1,1,29,14.5,14.516,14.516,0,0,1,14.5,29Zm0-26.1A11.6,11.6,0,1,0,26.1,14.5,11.613,11.613,0,0,0,14.5,2.9Zm.726,17.4h-1.45a.726.726,0,0,1-.726-.726V15.95H9.425a.725.725,0,0,1-.724-.724v-1.45a.726.726,0,0,1,.724-.726H13.05V9.425a.726.726,0,0,1,.726-.724h1.45a.725.725,0,0,1,.724.724V13.05h3.625a.726.726,0,0,1,.726.726v1.45a.726.726,0,0,1-.726.724H15.95v3.625A.726.726,0,0,1,15.226,20.3Z" transform="translate(3 3)" fill="#6598CB"/>
</svg>
