<svg xmlns="http://www.w3.org/2000/svg" width="18" height="18" viewBox="3 3 18 18"><path d="M12 21c-4.963 0-9-4.038-9-9 0-4.963 4.037-9 9-9a8.96 8.96 0 0 1 3.444.685 8.952 8.952 0 0 1 2.92 1.95 8.952 8.952 0 0 1 1.95 2.92A8.945 8.945 0 0 1 21 12c0 4.962-4.038 9-9 9Zm0-16.2c-3.97 0-7.2 3.23-7.2 7.2s3.23 7.2 7.2 7.2a7.156 7.156 0 0 0 5.092-2.108A7.156 7.156 0 0 0 19.2 12c0-3.97-3.23-7.2-7.2-7.2Zm.45 10.8h-.9a.45.45 0 0 1-.45-.45V12.9H8.85a.45.45 0 0 1-.45-.45v-.9a.45.45 0 0 1 .45-.45h2.25V8.85a.45.45 0 0 1 .45-.45h.9a.45.45 0 0 1 .45.45v2.25h2.25a.45.45 0 0 1 .45.45v.9a.45.45 0 0 1-.45.45H12.9v2.25a.45.45 0 0 1-.45.45Z" fill="#f88c6e" fill-rule="evenodd" data-name="Icon color"/></svg>