<svg id="briefcase_outlined" xmlns="http://www.w3.org/2000/svg" width="35" height="35" viewBox="0 0 35 35">
  <rect id="Bounding_box" data-name="Bounding box" width="35" height="35" fill="rgba(255,255,255,0)"/>
  <path id="Icon_color" data-name="Icon color" d="M26.1,27H2.9A2.954,2.954,0,0,1,0,24V9A2.955,2.955,0,0,1,2.9,6H7.251V3a2.954,2.954,0,0,1,2.9-3h8.7a2.955,2.955,0,0,1,2.9,3V6H26.1A2.955,2.955,0,0,1,29,9V24A2.954,2.954,0,0,1,26.1,27ZM2.9,9V24H26.1V9ZM10.15,3V6h8.7V3Zm5.8,15h-2.9a1.477,1.477,0,0,1-1.45-1.5V15.75A.739.739,0,0,1,12.325,15h4.351a.739.739,0,0,1,.724.751V16.5A1.477,1.477,0,0,1,15.95,18Z" transform="translate(3 4)" fill="#6598CB"/>
</svg>
