<svg xmlns="http://www.w3.org/2000/svg" width="18" height="16" viewBox="3 4 18 16"><path d="M19.2 20H4.8A1.79 1.79 0 0 1 3 18.222V9.334c0-.981.807-1.779 1.8-1.779h2.7V5.778C7.5 4.798 8.308 4 9.3 4h5.4c.992 0 1.8.797 1.8 1.778v1.777h2.7c.992 0 1.8.798 1.8 1.779v8.888A1.79 1.79 0 0 1 19.2 20ZM4.8 9.334v8.888h14.4V9.334H4.8Zm4.5-3.556v1.777h5.4V5.778H9.3Zm3.6 8.888h-1.8a.895.895 0 0 1-.9-.888v-.444c0-.246.202-.445.45-.445h2.7c.248 0 .45.2.45.445v.444c0 .49-.404.888-.9.888Z" fill="#242424" fill-rule="evenodd" data-name="Icon color"/></svg>