<svg id="credit_card_add" xmlns="http://www.w3.org/2000/svg" width="35" height="35" viewBox="0 0 35 35">
  <rect id="Bounding_box" data-name="Bounding box" width="35" height="35" fill="rgba(255,255,255,0)"/>
  <path id="Icon_color" data-name="Icon color" d="M26.35,27H3.1A3.25,3.25,0,0,1,0,23.625V5.062A3.25,3.25,0,0,1,3.1,1.687H18.6A7.315,7.315,0,0,1,23.219,0h.032C27.524,0,31,3.785,31,8.438A8.885,8.885,0,0,1,29.45,13.5V23.625A3.25,3.25,0,0,1,26.35,27ZM3.1,15.187h0v8.438H26.35v-7.46a7.072,7.072,0,0,1-3.117.724,7.29,7.29,0,0,1-4.633-1.7H3.1ZM19.375,6.953A.812.812,0,0,0,18.6,7.8V9.079a.812.812,0,0,0,.776.843h2.511v2.734a.813.813,0,0,0,.774.844h1.179a.813.813,0,0,0,.774-.844V9.922h2.511a.812.812,0,0,0,.776-.843V7.8a.812.812,0,0,0-.776-.843H24.614V4.219a.813.813,0,0,0-.774-.844H22.661a.813.813,0,0,0-.774.844V6.953ZM3.1,5.062h0v5.063H15.655A10.08,10.08,0,0,1,15.5,8.438a8.907,8.907,0,0,1,.651-3.376H3.1Z" transform="translate(2 4)" fill="#656565"/>
</svg>
