<?xml version="1.0" encoding="UTF-8" standalone="no"?>
<svg
   id="credit_card_add"
   width="35"
   height="35"
   viewBox="0 0 35 35"
   version="1.1"
   sodipodi:docname="credit_card_add_primary.svg"
   inkscape:version="1.2.2 (b0a8486541, 2022-12-01)"
   xmlns:inkscape="http://www.inkscape.org/namespaces/inkscape"
   xmlns:sodipodi="http://sodipodi.sourceforge.net/DTD/sodipodi-0.dtd"
   xmlns="http://www.w3.org/2000/svg"
   xmlns:svg="http://www.w3.org/2000/svg">
  <defs
     id="defs1831" />
  <sodipodi:namedview
     id="namedview1829"
     pagecolor="#ffffff"
     bordercolor="#000000"
     borderopacity="0.25"
     inkscape:showpageshadow="2"
     inkscape:pageopacity="0.0"
     inkscape:pagecheckerboard="0"
     inkscape:deskcolor="#d1d1d1"
     showgrid="false"
     inkscape:zoom="21.228571"
     inkscape:cx="17.5"
     inkscape:cy="17.5"
     inkscape:window-width="1920"
     inkscape:window-height="1008"
     inkscape:window-x="0"
     inkscape:window-y="0"
     inkscape:window-maximized="1"
     inkscape:current-layer="credit_card_add" />
  <rect
     id="Bounding_box"
     data-name="Bounding box"
     width="35"
     height="35"
     fill="rgba(255,255,255,0)" />
  <path
     id="Icon_color"
     data-name="Icon color"
     d="M26.35,27H3.1A3.25,3.25,0,0,1,0,23.625V5.062A3.25,3.25,0,0,1,3.1,1.687H18.6A7.315,7.315,0,0,1,23.219,0h.032C27.524,0,31,3.785,31,8.438A8.885,8.885,0,0,1,29.45,13.5V23.625A3.25,3.25,0,0,1,26.35,27ZM3.1,15.187h0v8.438H26.35v-7.46a7.072,7.072,0,0,1-3.117.724,7.29,7.29,0,0,1-4.633-1.7H3.1ZM19.375,6.953A.812.812,0,0,0,18.6,7.8V9.079a.812.812,0,0,0,.776.843h2.511v2.734a.813.813,0,0,0,.774.844h1.179a.813.813,0,0,0,.774-.844V9.922h2.511a.812.812,0,0,0,.776-.843V7.8a.812.812,0,0,0-.776-.843H24.614V4.219a.813.813,0,0,0-.774-.844H22.661a.813.813,0,0,0-.774.844V6.953ZM3.1,5.062h0v5.063H15.655A10.08,10.08,0,0,1,15.5,8.438a8.907,8.907,0,0,1,.651-3.376H3.1Z"
     transform="translate(2 4)"
     fill="#656565" />
  <path
     style="fill:#6598cb;stroke-width:0.0471063"
     d="M 4.5457604,30.899575 C 4.3773553,30.863384 4.039106,30.73468 3.7940953,30.613567 2.8359522,30.139941 2.1920342,29.218776 2.0465609,28.11361 2.014333,27.868774 2.0028158,24.513935 2.0121457,18.088829 2.0278946,7.2432536 1.9915858,8.274795 2.3859336,7.4694228 2.539126,7.1565595 2.6617037,6.9913208 2.9625179,6.6921685 3.3867443,6.2702856 3.7083163,6.0614803 4.2238073,5.8731797 l 0.3455063,-0.126208 8.0316284,-0.023553 8.031629,-0.023553 0.288103,-0.2223253 c 0.799736,-0.6171433 1.823577,-1.0733513 2.959188,-1.3185686 0.393036,-0.08487 0.627156,-0.1023764 1.369129,-0.1023764 0.741972,0 0.976092,0.017506 1.369128,0.1023764 2.034772,0.4393771 3.695281,1.5836645 4.888773,3.3689443 1.483224,2.2186736 1.867379,5.1362779 1.017187,7.7253999 -0.203135,0.618617 -0.589731,1.448848 -0.887876,1.906753 l -0.192731,0.296003 -0.0016,5.23899 c -0.0013,4.208564 -0.01425,5.308477 -0.06574,5.592287 -0.217613,1.199382 -1.010133,2.116997 -2.189176,2.534727 l -0.357837,0.12678 -11.98856,0.0083 c -10.1083971,0.007 -12.0365793,-0.0021 -12.2947506,-0.05754 z M 28.381561,23.877867 c 0,-2.982121 -0.01206,-3.744797 -0.05888,-3.724621 -0.582703,0.251075 -0.781029,0.326247 -1.119282,0.424246 -0.757185,0.219373 -1.291146,0.281328 -2.181984,0.253177 -0.860125,-0.02718 -1.208111,-0.08491 -1.962866,-0.325626 -0.79753,-0.25436 -1.672883,-0.718419 -2.279357,-1.208378 L 20.596063,19.148721 H 12.829997 5.06393 v 4.23957 4.239569 h 11.658816 11.658815 z m -2.088498,-6.507738 c 0.08198,-0.05847 0.193268,-0.197654 0.247308,-0.309287 0.09304,-0.192203 0.09826,-0.279465 0.09826,-1.645115 v -1.442145 l 1.330754,-0.01506 c 1.289054,-0.01458 1.336683,-0.01845 1.519988,-0.123554 0.104079,-0.05967 0.241865,-0.18524 0.306191,-0.279033 0.111794,-0.163007 0.117656,-0.207061 0.132798,-0.998046 0.01721,-0.898943 -0.0128,-1.086894 -0.211133,-1.322604 -0.234422,-0.278595 -0.261826,-0.283069 -1.733728,-0.283069 h -1.34487 V 9.4757803 c 0,-1.454305 -0.0016,-1.4795525 -0.109523,-1.6840509 C 26.460826,7.6623018 26.349953,7.5444962 26.23469,7.4789041 26.063632,7.3815623 25.990188,7.3736318 25.253129,7.3729149 24.488846,7.3721715 24.448338,7.3769049 24.256644,7.48924 24.12341,7.567321 24.023927,7.6743035 23.958091,7.8103037 c -0.09377,0.1937114 -0.09874,0.2778024 -0.09874,1.6729402 v 1.4689771 h -1.34487 c -1.471398,0 -1.499378,0.0046 -1.733173,0.282409 -0.181076,0.215196 -0.218875,0.422681 -0.218875,1.20144 0,0.786733 0.04375,1.020702 0.227619,1.217194 0.266835,0.285158 0.287871,0.288852 1.738545,0.305263 l 1.330754,0.01506 v 1.449609 c 0,1.426224 0.0018,1.452958 0.109523,1.65722 0.06757,0.128082 0.180349,0.248521 0.294415,0.314409 0.176068,0.101701 0.225353,0.106197 1.032805,0.09421 0.793942,-0.01178 0.857401,-0.01935 0.996966,-0.118903 z m -8.624258,-3.344221 c -0.08402,-0.401541 -0.124316,-0.919247 -0.124316,-1.597182 0,-1.095835 0.134116,-1.92263 0.473938,-2.9217391 0.07758,-0.228103 0.141062,-0.4307963 0.141062,-0.4504293 0,-0.019633 -2.946501,-0.035696 -6.54778,-0.035696 H 5.06393 v 2.5672944 2.567295 h 6.315991 6.31599 z"
     id="path1833" />
</svg>
