<?xml version="1.0" encoding="UTF-8" standalone="no"?>
<svg
   id="credit_card_add"
   width="35"
   height="35"
   viewBox="0 0 35 35"
   version="1.1"
   sodipodi:docname="credit_card_add.svg"
   inkscape:version="1.2.2 (b0a8486541, 2022-12-01)"
   xmlns:inkscape="http://www.inkscape.org/namespaces/inkscape"
   xmlns:sodipodi="http://sodipodi.sourceforge.net/DTD/sodipodi-0.dtd"
   xmlns="http://www.w3.org/2000/svg"
   xmlns:svg="http://www.w3.org/2000/svg">
  <defs
     id="defs1831" />
  <sodipodi:namedview
     id="namedview1829"
     pagecolor="#ffffff"
     bordercolor="#000000"
     borderopacity="0.25"
     inkscape:showpageshadow="2"
     inkscape:pageopacity="0.0"
     inkscape:pagecheckerboard="0"
     inkscape:deskcolor="#d1d1d1"
     showgrid="false"
     inkscape:zoom="21.228571"
     inkscape:cx="17.547107"
     inkscape:cy="17.547107"
     inkscape:window-width="1920"
     inkscape:window-height="1008"
     inkscape:window-x="0"
     inkscape:window-y="0"
     inkscape:window-maximized="1"
     inkscape:current-layer="credit_card_add" />
  <rect
     id="Bounding_box"
     data-name="Bounding box"
     width="35"
     height="35"
     fill="rgba(255,255,255,0)" />
  <path
     id="Icon_color"
     data-name="Icon color"
     d="M26.35,27H3.1A3.25,3.25,0,0,1,0,23.625V5.062A3.25,3.25,0,0,1,3.1,1.687H18.6A7.315,7.315,0,0,1,23.219,0h.032C27.524,0,31,3.785,31,8.438A8.885,8.885,0,0,1,29.45,13.5V23.625A3.25,3.25,0,0,1,26.35,27ZM3.1,15.187h0v8.438H26.35v-7.46a7.072,7.072,0,0,1-3.117.724,7.29,7.29,0,0,1-4.633-1.7H3.1ZM19.375,6.953A.812.812,0,0,0,18.6,7.8V9.079a.812.812,0,0,0,.776.843h2.511v2.734a.813.813,0,0,0,.774.844h1.179a.813.813,0,0,0,.774-.844V9.922h2.511a.812.812,0,0,0,.776-.843V7.8a.812.812,0,0,0-.776-.843H24.614V4.219a.813.813,0,0,0-.774-.844H22.661a.813.813,0,0,0-.774.844V6.953ZM3.1,5.062h0v5.063H15.655A10.08,10.08,0,0,1,15.5,8.438a8.907,8.907,0,0,1,.651-3.376H3.1Z"
     transform="translate(2 4)"
     fill="#656565" />
  <path
     style="fill:#6598cb;stroke-width:0.0471063"
     d="M 4.5457604,30.899575 C 4.3773553,30.863384 4.039106,30.73468 3.7940953,30.613567 2.8359522,30.139941 2.1920342,29.218776 2.0465609,28.11361 2.014333,27.868774 2.0028158,24.513935 2.0121457,18.088829 2.0278946,7.2432536 1.9915858,8.274795 2.3859336,7.4694228 2.539126,7.1565595 2.6617037,6.9913208 2.9625179,6.6921685 3.3867443,6.2702856 3.7083163,6.0614803 4.2238073,5.8731797 l 0.3455063,-0.126208 8.0316284,-0.023553 8.031629,-0.023553 0.288103,-0.2223253 c 0.799736,-0.6171433 1.823577,-1.0733513 2.959188,-1.3185686 0.393036,-0.08487 0.627156,-0.1023764 1.369129,-0.1023764 0.741972,0 0.976092,0.017506 1.369128,0.1023764 2.034772,0.4393771 3.695281,1.5836645 4.888773,3.3689443 1.483224,2.2186736 1.867379,5.1362779 1.017187,7.7253999 -0.203135,0.618617 -0.589731,1.448848 -0.887876,1.906753 l -0.192731,0.296003 -0.0016,5.23899 c -0.0013,4.208564 -0.01425,5.308477 -0.06574,5.592287 -0.217613,1.199382 -1.010133,2.116997 -2.189176,2.534727 l -0.357837,0.12678 -11.98856,0.0083 c -10.1083971,0.007 -12.0365793,-0.0021 -12.2947506,-0.05754 z M 28.381561,23.877867 c 0,-2.982121 -0.01206,-3.744797 -0.05888,-3.724621 -0.582703,0.251075 -0.781029,0.326247 -1.119282,0.424246 -0.757185,0.219373 -1.291146,0.281328 -2.181984,0.253177 -0.860125,-0.02718 -1.208111,-0.08491 -1.962866,-0.325626 -0.79753,-0.25436 -1.672883,-0.718419 -2.279357,-1.208378 L 20.596063,19.148721 H 12.829997 5.06393 v 4.23957 4.239569 h 11.658816 11.658815 z m -2.088498,-6.507738 c 0.08198,-0.05847 0.193268,-0.197654 0.247308,-0.309287 0.09304,-0.192203 0.09826,-0.279465 0.09826,-1.645115 v -1.442145 l 1.330754,-0.01506 c 1.289054,-0.01458 1.336683,-0.01845 1.519988,-0.123554 0.104079,-0.05967 0.241865,-0.18524 0.306191,-0.279033 0.111794,-0.163007 0.117656,-0.207061 0.132798,-0.998046 0.01721,-0.898943 -0.0128,-1.086894 -0.211133,-1.322604 -0.234422,-0.278595 -0.261826,-0.283069 -1.733728,-0.283069 h -1.34487 V 9.4757803 c 0,-1.454305 -0.0016,-1.4795525 -0.109523,-1.6840509 C 26.460826,7.6623018 26.349953,7.5444962 26.23469,7.4789041 26.063632,7.3815623 25.990188,7.3736318 25.253129,7.3729149 24.488846,7.3721715 24.448338,7.3769049 24.256644,7.48924 24.12341,7.567321 24.023927,7.6743035 23.958091,7.8103037 c -0.09377,0.1937114 -0.09874,0.2778024 -0.09874,1.6729402 v 1.4689771 h -1.34487 c -1.471398,0 -1.499378,0.0046 -1.733173,0.282409 -0.181076,0.215196 -0.218875,0.422681 -0.218875,1.20144 0,0.786733 0.04375,1.020702 0.227619,1.217194 0.266835,0.285158 0.287871,0.288852 1.738545,0.305263 l 1.330754,0.01506 v 1.449609 c 0,1.426224 0.0018,1.452958 0.109523,1.65722 0.06757,0.128082 0.180349,0.248521 0.294415,0.314409 0.176068,0.101701 0.225353,0.106197 1.032805,0.09421 0.793942,-0.01178 0.857401,-0.01935 0.996966,-0.118903 z m -8.624258,-3.344221 c -0.08402,-0.401541 -0.124316,-0.919247 -0.124316,-1.597182 0,-1.095835 0.134116,-1.92263 0.473938,-2.9217391 0.07758,-0.228103 0.141062,-0.4307963 0.141062,-0.4504293 0,-0.019633 -2.946501,-0.035696 -6.54778,-0.035696 H 5.06393 v 2.5672944 2.567295 h 6.315991 6.31599 z"
     id="path1833" />
  <path
     style="fill:#242424;stroke:#241f1c;stroke-width:0.0471063;fill-opacity:1"
     d="M 4.6635263,30.87811 C 4.5210297,30.858947 4.2608274,30.785068 4.085299,30.713935 3.0995556,30.314456 2.425715,29.541891 2.1331505,28.475774 2.0537528,28.186446 2.0492674,27.639041 2.0517064,18.53634 2.0535641,11.602944 2.0694527,8.7710737 2.1083982,8.4320325 2.1810811,7.7992869 2.4176302,7.3197775 2.9157946,6.7953563 3.3338799,6.355235 3.6916892,6.1076064 4.1812556,5.9195705 L 4.5457605,5.779569 12.598533,5.7449029 20.651306,5.7102369 20.98346,5.4652446 c 0.742477,-0.5476428 1.601171,-0.9475586 2.609587,-1.2153525 0.535766,-0.1422774 0.574958,-0.1458405 1.632391,-0.1484026 1.028002,-0.00249 1.10928,0.00392 1.588304,0.1253317 1.452106,0.3680381 2.542138,0.9858583 3.594805,2.0375031 0.724835,0.724132 1.125617,1.2717105 1.570583,2.1458538 0.704966,1.3849179 0.985584,2.6998829 0.934054,4.3769469 -0.02969,0.966379 -0.144537,1.649249 -0.413622,2.45942 -0.167567,0.504516 -0.651492,1.538872 -0.906384,1.937332 l -0.173258,0.270846 -0.0023,4.862814 c -0.0013,2.674547 -0.02036,5.148984 -0.04242,5.498749 -0.05382,0.853442 -0.217709,1.318173 -0.672797,1.907806 -0.356945,0.462474 -0.979959,0.888775 -1.62144,1.109477 -0.261682,0.09003 -0.488431,0.09162 -12.212488,0.08556 C 10.298246,30.91573 4.806023,30.897272 4.6635263,30.87811 Z M 28.395707,23.910359 c -0.0078,-2.044625 -0.0274,-3.730739 -0.04359,-3.746919 -0.01619,-0.01618 -0.247251,0.05735 -0.513457,0.16341 -0.861322,0.34315 -1.312762,0.432505 -2.314488,0.458117 -1.279523,0.03271 -1.91349,-0.07145 -2.927751,-0.481021 C 21.999147,20.062757 21.419085,19.7415 20.957086,19.39603 L 20.626359,19.148722 H 12.833368 5.040377 v 4.239569 4.23957 h 11.684737 11.684738 z m -2.081575,-6.530795 c 0.07128,-0.05329 0.173456,-0.180473 0.227051,-0.282638 0.09131,-0.174053 0.09838,-0.277006 0.112289,-1.634274 0.0082,-0.796686 0.02936,-1.450547 0.04711,-1.453026 0.01774,-0.0025 0.629133,-0.01838 1.358643,-0.03533 l 1.326381,-0.03082 0.177973,-0.144046 c 0.374938,-0.303463 0.372495,-0.294728 0.372495,-1.331456 0,-1.018956 -0.012,-1.072128 -0.305004,-1.350878 l -0.148542,-0.141319 -1.410172,-0.01436 -1.410172,-0.01436 V 9.5573098 c 0,-0.8511549 -0.02,-1.4691749 -0.05161,-1.5946935 -0.05467,-0.217123 -0.272262,-0.4784514 -0.456788,-0.548608 -0.06057,-0.023027 -0.474404,-0.041789 -0.919639,-0.041692 -0.736148,1.602e-4 -0.824048,0.00903 -0.969834,0.097912 C 23.865355,7.7134496 23.8358,7.8593648 23.8358,9.5858756 V 10.94706 l -1.416637,0.01436 -1.416637,0.01436 -0.180195,0.193251 c -0.246587,0.264452 -0.301162,0.549716 -0.273712,1.43069 0.02328,0.747273 0.06991,0.923461 0.301905,1.140819 0.196641,0.184236 0.452974,0.224012 1.454321,0.225675 0.492261,8.2e-4 1.038105,0.015 1.212988,0.03152 l 0.317967,0.03003 v 1.338412 c 0,0.813946 0.02022,1.418721 0.05161,1.543356 0.05228,0.207628 0.267315,0.473777 0.442315,0.547457 0.0522,0.02198 0.490885,0.03535 0.974856,0.02971 0.805569,-0.0094 0.890904,-0.01844 1.009554,-0.107129 z m -8.618931,-3.331655 c -0.06698,-0.266868 -0.123801,-1.008834 -0.124155,-1.621203 -6.12e-4,-1.060841 0.152827,-1.989698 0.492002,-2.9783616 0.066,-0.1923747 0.119994,-0.3672569 0.119994,-0.3886272 0,-0.021371 -2.9571,-0.038856 -6.571332,-0.038856 H 5.040377 v 2.5672948 2.567295 h 6.340908 6.340907 z"
     id="path304" />
</svg>
