<?xml version="1.0" encoding="UTF-8" standalone="no"?>
<svg
   id="credit_card_add"
   width="35"
   height="35"
   viewBox="0 0 35 35"
   version="1.1"
   sodipodi:docname="credit_card_add.svg"
   inkscape:version="1.2.2 (b0a8486541, 2022-12-01)"
   xmlns:inkscape="http://www.inkscape.org/namespaces/inkscape"
   xmlns:sodipodi="http://sodipodi.sourceforge.net/DTD/sodipodi-0.dtd"
   xmlns="http://www.w3.org/2000/svg"
   xmlns:svg="http://www.w3.org/2000/svg">
  <defs
     id="defs7" />
  <sodipodi:namedview
     id="namedview5"
     pagecolor="#ffffff"
     bordercolor="#000000"
     borderopacity="0.25"
     inkscape:showpageshadow="2"
     inkscape:pageopacity="0.0"
     inkscape:pagecheckerboard="0"
     inkscape:deskcolor="#d1d1d1"
     showgrid="false"
     inkscape:zoom="21.228571"
     inkscape:cx="17.5"
     inkscape:cy="17.5"
     inkscape:window-width="1920"
     inkscape:window-height="1008"
     inkscape:window-x="0"
     inkscape:window-y="0"
     inkscape:window-maximized="1"
     inkscape:current-layer="credit_card_add" />
  <rect
     id="Bounding_box"
     data-name="Bounding box"
     width="35"
     height="35"
     fill="rgba(255,255,255,0)" />
  <path
     id="Icon_color"
     data-name="Icon color"
     d="M26.35,27H3.1A3.25,3.25,0,0,1,0,23.625V5.062A3.25,3.25,0,0,1,3.1,1.687H18.6A7.315,7.315,0,0,1,23.219,0h.032C27.524,0,31,3.785,31,8.438A8.885,8.885,0,0,1,29.45,13.5V23.625A3.25,3.25,0,0,1,26.35,27ZM3.1,15.187h0v8.438H26.35v-7.46a7.072,7.072,0,0,1-3.117.724,7.29,7.29,0,0,1-4.633-1.7H3.1ZM19.375,6.953A.812.812,0,0,0,18.6,7.8V9.079a.812.812,0,0,0,.776.843h2.511v2.734a.813.813,0,0,0,.774.844h1.179a.813.813,0,0,0,.774-.844V9.922h2.511a.812.812,0,0,0,.776-.843V7.8a.812.812,0,0,0-.776-.843H24.614V4.219a.813.813,0,0,0-.774-.844H22.661a.813.813,0,0,0-.774.844V6.953ZM3.1,5.062h0v5.063H15.655A10.08,10.08,0,0,1,15.5,8.438a8.907,8.907,0,0,1,.651-3.376H3.1Z"
     transform="translate(2 4)"
     fill="#656565" />
  <path
     style="fill:#000000;stroke-width:0.0471063"
     d="M 4.4855998,30.881261 C 3.8828383,30.733185 3.4690381,30.492244 2.9900219,30.010436 2.5040131,29.521596 2.2746647,29.123606 2.1185939,28.498241 2.0255295,28.125338 2.0244387,27.988248 2.0366992,18.205509 L 2.0491252,8.2907133 2.1594225,7.9845222 C 2.5669537,6.8531937 3.3740746,6.0932024 4.4640986,5.8144213 4.8087752,5.7262678 5.066835,5.7234186 12.706268,5.7234186 h 7.886352 l 0.267284,-0.2054597 c 0.850131,-0.6534926 1.977814,-1.1560874 3.095372,-1.3795711 0.592084,-0.118402 1.995345,-0.118402 2.58743,0 3.07852,0.615627 5.481605,3.0705183 6.214301,6.3482722 0.499776,2.235774 0.109922,4.637061 -1.069039,6.584685 l -0.268049,0.442811 -8.19e-4,5.30416 c -9.1e-4,5.907181 0.01263,5.64328 -0.325044,6.334454 -0.330626,0.676745 -0.820542,1.166838 -1.487732,1.488265 -0.74445,0.358649 0.31416,0.331775 -12.916433,0.327906 -11.2259933,-0.0033 -11.8798586,-0.008 -12.2042912,-0.08768 z M 28.358008,23.882275 V 20.13669 l -0.176649,0.07951 c -0.424186,0.190939 -1.299144,0.459795 -1.75471,0.539186 -0.687068,0.119735 -1.66198,0.117504 -2.381179,-0.0054 -1.059309,-0.181098 -2.193421,-0.663182 -3.048411,-1.295807 L 20.584292,19.148721 H 12.835888 5.0874832 v 4.23957 4.239569 H 16.722746 28.358008 Z M 26.241913,17.39289 c 0.08742,-0.05891 0.20714,-0.178634 0.266051,-0.266051 0.105829,-0.15704 0.10711,-0.176852 0.10711,-1.656143 v -1.497202 l 1.354307,-0.01501 c 1.51188,-0.01676 1.534719,-0.02126 1.787605,-0.352815 l 0.131978,-0.173032 V 12.43607 11.439504 L 29.76208,11.27315 C 29.525201,10.962586 29.46707,10.952221 27.962262,10.952221 H 26.615074 V 9.4282312 c 0,-1.5071541 -0.0012,-1.5257449 -0.10711,-1.68293 C 26.449053,7.6578837 26.32933,7.5381608 26.241913,7.4792502 26.091458,7.3778592 26.038441,7.37214 25.248991,7.37214 c -0.787323,0 -0.842694,0.00593 -0.989712,0.1059892 -0.08565,0.058294 -0.200076,0.1658013 -0.254275,0.238905 -0.09459,0.1275838 -0.09909,0.195141 -0.112149,1.6840511 l -0.01361,1.5511357 h -1.345359 c -1.502788,0 -1.56115,0.01042 -1.79799,0.320929 l -0.126884,0.166354 v 0.996566 0.996566 l 0.131978,0.173032 c 0.252886,0.33155 0.275725,0.336058 1.787605,0.352815 l 1.354307,0.01501 v 1.497202 c 0,1.479291 0.0013,1.499103 0.10711,1.656143 0.05891,0.08742 0.178634,0.20714 0.266051,0.266051 0.150455,0.101391 0.203472,0.10711 0.992923,0.10711 0.78945,0 0.842467,-0.0057 0.992922,-0.10711 z m -8.598176,-3.484747 c -0.174311,-1.295633 -0.155173,-2.185237 0.07105,-3.302501 0.07986,-0.394418 0.299173,-1.1338633 0.445584,-1.5023446 0.0311,-0.078272 -0.298211,-0.082436 -6.520065,-0.082436 H 5.0874832 v 2.5672946 2.567295 h 6.2947628 6.294764 z"
     id="path305" />
</svg>
