<?xml version="1.0" encoding="UTF-8" standalone="no"?>
<svg
   id="document_text_outlined"
   width="35"
   height="35"
   viewBox="0 0 35 35"
   version="1.1"
   sodipodi:docname="doc.svg"
   inkscape:version="1.2.2 (b0a8486541, 2022-12-01)"
   xmlns:inkscape="http://www.inkscape.org/namespaces/inkscape"
   xmlns:sodipodi="http://sodipodi.sourceforge.net/DTD/sodipodi-0.dtd"
   xmlns="http://www.w3.org/2000/svg"
   xmlns:svg="http://www.w3.org/2000/svg">
  <defs
     id="defs7" />
  <sodipodi:namedview
     id="namedview5"
     pagecolor="#ffffff"
     bordercolor="#000000"
     borderopacity="0.25"
     inkscape:showpageshadow="2"
     inkscape:pageopacity="0.0"
     inkscape:pagecheckerboard="0"
     inkscape:deskcolor="#d1d1d1"
     showgrid="false"
     inkscape:zoom="21.228571"
     inkscape:cx="17.547107"
     inkscape:cy="17.547107"
     inkscape:window-width="1920"
     inkscape:window-height="1008"
     inkscape:window-x="0"
     inkscape:window-y="0"
     inkscape:window-maximized="1"
     inkscape:current-layer="document_text_outlined" />
  <rect
     id="Bounding_box"
     data-name="Bounding box"
     width="35"
     height="35"
     fill="rgba(255,255,255,0)" />
  <path
     id="Icon_color"
     data-name="Icon color"
     d="M13.687,29H3.125A3.022,3.022,0,0,1,0,26.1V2.9A3.022,3.022,0,0,1,3.125,0H21.875A3.022,3.022,0,0,1,25,2.9V18.5a4.173,4.173,0,0,1-1.375,3.073L17,27.724A4.844,4.844,0,0,1,13.687,29ZM3.125,2.9V26.1H12.5V18.85a1.511,1.511,0,0,1,1.562-1.45h7.813V2.9ZM13.281,14.5H7.031a.755.755,0,0,1-.781-.724v-1.45a.756.756,0,0,1,.781-.725h6.251a.756.756,0,0,1,.781.725v1.45A.755.755,0,0,1,13.281,14.5Zm4.687-5.8H7.031a.756.756,0,0,1-.781-.725V6.525A.756.756,0,0,1,7.031,5.8H17.969a.756.756,0,0,1,.781.725v1.45A.756.756,0,0,1,17.969,8.7Z"
     transform="translate(5 3)"
     fill="#656565" />
  <path
     style="fill:#000000;stroke-width:0.0471063"
     d="M 7.3014805,31.886825 C 6.4374802,31.654431 5.7372502,31.088712 5.3419157,30.303683 5.0191734,29.662802 5.0417694,30.626705 5.0417694,17.5 5.0417694,4.2323382 5.0127722,5.3323489 5.3811862,4.6242106 5.6710457,4.0670642 6.13042,3.6232751 6.7003091,3.3498419 6.9402737,3.2347068 7.2489404,3.1175221 7.3862352,3.0894316 7.5609086,3.0536935 10.602483,3.038358 17.515975,3.038358 c 10.847732,0 10.087491,-0.019864 10.732738,0.2804321 0.610479,0.2841148 1.099467,0.7621399 1.409615,1.3780109 0.322713,0.6408215 0.304183,0.050924 0.290042,9.233765 l -0.01279,8.30362 -0.107989,0.353297 c -0.161532,0.528474 -0.445997,1.069031 -0.775199,1.473084 -0.433212,0.531711 -7.156894,6.753766 -7.668672,7.096542 -0.438001,0.293364 -0.930812,0.516496 -1.49659,0.677618 l -0.361561,0.102965 -5.982503,0.0094 c -5.1532728,0.0081 -6.0184153,-2.49e-4 -6.2415885,-0.06028 z M 17.534251,25.331427 c 0.01281,-3.790501 0.01321,-3.804612 0.115078,-4.025064 0.130517,-0.282462 0.444541,-0.596438 0.745691,-0.745576 l 0.235532,-0.116642 4.13358,-0.01277 4.13358,-0.01278 V 13.141666 5.8647376 H 17.5 8.102288 V 17.5 29.135262 h 4.709554 4.709554 z"
     id="path305" />
  <path
     style="fill:#000000;stroke-width:0.0471063"
     d="m 11.634783,11.552826 c -0.336504,-0.229023 -0.351277,-0.278459 -0.366972,-1.228083 -0.01348,-0.8155617 -0.009,-0.8664551 0.09421,-1.0679698 0.0596,-0.116379 0.180394,-0.2594645 0.268428,-0.3179677 L 11.790514,8.8324361 H 17.5 23.209486 l 0.160062,0.1063694 c 0.08803,0.058503 0.208827,0.2015887 0.268428,0.3179677 0.103202,0.2015147 0.107692,0.2524081 0.09421,1.0679698 -0.0157,0.949624 -0.03047,0.99906 -0.366972,1.228083 l -0.155731,0.10599 H 17.5 11.790514 Z"
     id="path307" />
  <path
     style="fill:#000000;stroke-width:0.0471063"
     d="m 11.831161,17.453916 c -0.205916,-0.0497 -0.467439,-0.306877 -0.525841,-0.517102 -0.02551,-0.09183 -0.04603,-0.506128 -0.04561,-0.920663 8.77e-4,-0.856386 0.05318,-1.052169 0.334735,-1.252978 l 0.158584,-0.113106 3.371571,-0.01268 3.371571,-0.01268 0.160283,0.108014 c 0.08816,0.05941 0.209672,0.181304 0.270038,0.270881 0.107103,0.15893 0.109407,0.185291 0.09533,1.090798 -0.01607,1.033931 -0.03137,1.08682 -0.372643,1.287835 -0.155419,0.09154 -0.251991,0.09443 -3.410285,0.101943 -1.787685,0.0043 -3.321166,-0.0094 -3.407735,-0.03026 z"
     id="path309" />
  <path
     style="fill:#242424;stroke:#241f1c;stroke-width:0.0471063;fill-opacity:1"
     d="M 7.3721401,31.866494 C 6.4281845,31.67753 5.4831403,30.820304 5.1920213,29.888964 5.1163296,29.646813 5.1110364,28.840157 5.1110364,17.547107 c 0,-9.6796957 0.01205,-12.1350757 0.060587,-12.345753 C 5.3205083,4.5551063 5.963305,3.7707391 6.6256164,3.4271308 7.3617062,3.0452462 6.3715594,3.0782044 17.278278,3.072545 c 6.952281,-0.00361 9.861146,0.010102 10.170563,0.047935 1.20444,0.1472667 2.285697,1.2061143 2.417513,2.3674073 0.02747,0.2419964 0.04559,3.6366913 0.04581,8.5807177 l 3.77e-4,8.180315 -0.154181,0.442523 c -0.265558,0.762196 -0.497735,1.115047 -1.18745,1.804626 -1.197352,1.197118 -5.487006,5.171459 -6.784303,6.285621 -0.54151,0.465067 -1.082018,0.764846 -1.778735,0.986529 l -0.459869,0.146317 -5.993717,-0.0052 c -3.296544,-0.0028 -6.078508,-0.02214 -6.1821419,-0.04288 z M 17.529633,29.123486 c 0.0033,-0.0065 0.01924,-1.728802 0.03533,-3.827389 0.02774,-3.617918 0.03388,-3.824927 0.118543,-3.995398 0.122172,-0.245987 0.46448,-0.578116 0.739434,-0.717446 l 0.228034,-0.115554 h 3.267905 c 1.797347,0 3.652863,-0.01394 4.123369,-0.03099 l 0.855466,-0.03099 V 13.135231 5.8647377 H 17.5 8.1022882 V 17.5 29.135263 h 4.7106328 c 2.590848,0 4.713368,-0.0053 4.716712,-0.01178 z"
     id="path1000" />
  <path
     style="fill:#242424;fill-opacity:1;stroke:#241f1c;stroke-width:0.0471063"
     d="m 11.681295,17.347546 c -0.08886,-0.05988 -0.209756,-0.180396 -0.268666,-0.267813 -0.10163,-0.150808 -0.106975,-0.201368 -0.104452,-0.988112 0.003,-0.936198 0.03604,-1.087332 0.279979,-1.280604 l 0.164873,-0.13063 3.369639,-0.01388 3.36964,-0.01388 0.149684,0.106585 c 0.327092,0.23291 0.341886,0.285621 0.341595,1.217109 -3.3e-4,0.982207 -0.03291,1.142575 -0.268862,1.322584 l -0.17098,0.13044 -3.350447,0.01354 -3.350447,0.01354 z"
     id="path1347" />
  <path
     style="fill:#242424;fill-opacity:1;stroke:#241f1c;stroke-width:0.0471063"
     d="m 11.638706,11.514576 c -0.301733,-0.218575 -0.333188,-0.338947 -0.333188,-1.275075 0,-0.778197 0.0046,-0.8178105 0.117349,-1.0101994 0.06454,-0.1101325 0.188932,-0.2444814 0.276422,-0.2985531 0.158965,-0.098246 0.162872,-0.098312 5.800711,-0.098312 5.63784,0 5.641747,6.65e-5 5.800712,0.098312 0.08749,0.054072 0.211879,0.1884206 0.276421,0.2985531 0.112747,0.1923889 0.117349,0.2320024 0.117349,1.0101994 0,0.936128 -0.03145,1.0565 -0.333188,1.275075 l -0.199117,0.14424 H 17.5 11.837824 Z"
     id="path1349" />
  <path
     style="fill:#242424;fill-opacity:1;stroke:#241f1c;stroke-width:0.0471063"
     d="M 11.683099,17.306706 C 11.35179,17.066673 11.3437,17.034418 11.360847,16.021924 c 0.01302,-0.768497 0.02788,-0.924401 0.09842,-1.031916 0.183455,-0.279624 0.0042,-0.264974 3.667192,-0.299712 l 3.368731,-0.03195 0.220775,0.21154 0.220775,0.21154 -2.82e-4,0.867765 c -2.83e-4,0.991992 -0.03398,1.170529 -0.252231,1.336995 l -0.154328,0.117727 -3.338768,0.01271 -3.338767,0.01271 z"
     id="path1351" />
  <path
     style="fill:#242424;fill-opacity:1;stroke:#241f1c;stroke-width:0.0471063"
     d="M 7.3275312,31.817361 C 6.6230125,31.69949 5.7431926,30.98669 5.3635896,30.226242 5.2211899,29.940976 5.2042162,29.861239 5.1764763,29.347242 5.1596972,29.03634 5.1490305,23.482504 5.1527723,17.005384 L 5.1595758,5.2288023 5.2656384,4.9777462 C 5.5152237,4.3869642 6.0894614,3.7578164 6.6754792,3.4330928 6.8513749,3.3356257 7.0058884,3.2440337 7.0188427,3.229555 7.0535517,3.190761 7.1748246,3.184823 8.9266489,3.136129 10.776709,3.084705 23.870567,3.07887 26.144011,3.128459 c 1.407749,0.030705 1.553444,0.041647 1.810398,0.1359693 0.91956,0.3375519 1.656212,1.1465949 1.841913,2.0229168 0.05706,0.2692771 0.06758,1.6032255 0.06827,8.6596559 l 8.18e-4,8.341345 -0.113046,0.326219 c -0.366125,1.056529 -0.589573,1.322613 -3.043506,3.624233 -1.229602,1.153282 -3.608489,3.341131 -4.427566,4.072008 -0.920226,0.821133 -1.373943,1.108051 -2.229528,1.40989 l -0.415934,0.146736 -6.037633,-0.0055 C 10.2775,31.858842 7.4557,31.838804 7.3275312,31.817361 Z M 17.541284,29.130976 c 0.0094,-0.0106 0.03094,-1.630302 0.04796,-3.599347 0.03178,-3.67586 0.04512,-4.060059 0.148031,-4.263765 0.07655,-0.151529 0.526916,-0.578464 0.707586,-0.670779 0.118448,-0.06052 0.716984,-0.07577 4.11907,-0.104908 2.189267,-0.01875 3.986593,-0.05026 3.994058,-0.07001 0.0075,-0.01975 0.09762,-0.0262 0.200351,-0.01433 l 0.186778,0.02158 -0.01193,-7.294113 -0.01193,-7.2941135 H 17.5 8.078735 L 8.066665,17.4529 c -0.00664,6.38644 -8.71e-4,11.64116 0.012816,11.677155 0.02109,0.05546 0.7433034,0.06199 4.73484,0.04282 2.590474,-0.01244 4.717607,-0.0313 4.726962,-0.04189 z"
     id="path1353" />
</svg>
