<?xml version="1.0" encoding="UTF-8" standalone="no"?>
<svg
   id="document_text_outlined"
   width="35"
   height="35"
   viewBox="0 0 35 35"
   version="1.1"
   sodipodi:docname="doc.svg"
   inkscape:version="1.2.2 (b0a8486541, 2022-12-01)"
   xmlns:inkscape="http://www.inkscape.org/namespaces/inkscape"
   xmlns:sodipodi="http://sodipodi.sourceforge.net/DTD/sodipodi-0.dtd"
   xmlns="http://www.w3.org/2000/svg"
   xmlns:svg="http://www.w3.org/2000/svg">
  <defs
     id="defs7" />
  <sodipodi:namedview
     id="namedview5"
     pagecolor="#ffffff"
     bordercolor="#000000"
     borderopacity="0.25"
     inkscape:showpageshadow="2"
     inkscape:pageopacity="0.0"
     inkscape:pagecheckerboard="0"
     inkscape:deskcolor="#d1d1d1"
     showgrid="false"
     inkscape:zoom="21.228571"
     inkscape:cx="17.5"
     inkscape:cy="17.5"
     inkscape:window-width="1920"
     inkscape:window-height="1008"
     inkscape:window-x="0"
     inkscape:window-y="0"
     inkscape:window-maximized="1"
     inkscape:current-layer="document_text_outlined" />
  <rect
     id="Bounding_box"
     data-name="Bounding box"
     width="35"
     height="35"
     fill="rgba(255,255,255,0)" />
  <path
     id="Icon_color"
     data-name="Icon color"
     d="M13.687,29H3.125A3.022,3.022,0,0,1,0,26.1V2.9A3.022,3.022,0,0,1,3.125,0H21.875A3.022,3.022,0,0,1,25,2.9V18.5a4.173,4.173,0,0,1-1.375,3.073L17,27.724A4.844,4.844,0,0,1,13.687,29ZM3.125,2.9V26.1H12.5V18.85a1.511,1.511,0,0,1,1.562-1.45h7.813V2.9ZM13.281,14.5H7.031a.755.755,0,0,1-.781-.724v-1.45a.756.756,0,0,1,.781-.725h6.251a.756.756,0,0,1,.781.725v1.45A.755.755,0,0,1,13.281,14.5Zm4.687-5.8H7.031a.756.756,0,0,1-.781-.725V6.525A.756.756,0,0,1,7.031,5.8H17.969a.756.756,0,0,1,.781.725v1.45A.756.756,0,0,1,17.969,8.7Z"
     transform="translate(5 3)"
     fill="#656565" />
  <path
     style="fill:#000000;stroke-width:0.0471063"
     d="M 7.3014805,31.886825 C 6.4374802,31.654431 5.7372502,31.088712 5.3419157,30.303683 5.0191734,29.662802 5.0417694,30.626705 5.0417694,17.5 5.0417694,4.2323382 5.0127722,5.3323489 5.3811862,4.6242106 5.6710457,4.0670642 6.13042,3.6232751 6.7003091,3.3498419 6.9402737,3.2347068 7.2489404,3.1175221 7.3862352,3.0894316 7.5609086,3.0536935 10.602483,3.038358 17.515975,3.038358 c 10.847732,0 10.087491,-0.019864 10.732738,0.2804321 0.610479,0.2841148 1.099467,0.7621399 1.409615,1.3780109 0.322713,0.6408215 0.304183,0.050924 0.290042,9.233765 l -0.01279,8.30362 -0.107989,0.353297 c -0.161532,0.528474 -0.445997,1.069031 -0.775199,1.473084 -0.433212,0.531711 -7.156894,6.753766 -7.668672,7.096542 -0.438001,0.293364 -0.930812,0.516496 -1.49659,0.677618 l -0.361561,0.102965 -5.982503,0.0094 c -5.1532728,0.0081 -6.0184153,-2.49e-4 -6.2415885,-0.06028 z M 17.534251,25.331427 c 0.01281,-3.790501 0.01321,-3.804612 0.115078,-4.025064 0.130517,-0.282462 0.444541,-0.596438 0.745691,-0.745576 l 0.235532,-0.116642 4.13358,-0.01277 4.13358,-0.01278 V 13.141666 5.8647376 H 17.5 8.102288 V 17.5 29.135262 h 4.709554 4.709554 z"
     id="path305" />
  <path
     style="fill:#000000;stroke-width:0.0471063"
     d="m 11.634783,11.552826 c -0.336504,-0.229023 -0.351277,-0.278459 -0.366972,-1.228083 -0.01348,-0.8155617 -0.009,-0.8664551 0.09421,-1.0679698 0.0596,-0.116379 0.180394,-0.2594645 0.268428,-0.3179677 L 11.790514,8.8324361 H 17.5 23.209486 l 0.160062,0.1063694 c 0.08803,0.058503 0.208827,0.2015887 0.268428,0.3179677 0.103202,0.2015147 0.107692,0.2524081 0.09421,1.0679698 -0.0157,0.949624 -0.03047,0.99906 -0.366972,1.228083 l -0.155731,0.10599 H 17.5 11.790514 Z"
     id="path307" />
  <path
     style="fill:#000000;stroke-width:0.0471063"
     d="m 11.831161,17.453916 c -0.205916,-0.0497 -0.467439,-0.306877 -0.525841,-0.517102 -0.02551,-0.09183 -0.04603,-0.506128 -0.04561,-0.920663 8.77e-4,-0.856386 0.05318,-1.052169 0.334735,-1.252978 l 0.158584,-0.113106 3.371571,-0.01268 3.371571,-0.01268 0.160283,0.108014 c 0.08816,0.05941 0.209672,0.181304 0.270038,0.270881 0.107103,0.15893 0.109407,0.185291 0.09533,1.090798 -0.01607,1.033931 -0.03137,1.08682 -0.372643,1.287835 -0.155419,0.09154 -0.251991,0.09443 -3.410285,0.101943 -1.787685,0.0043 -3.321166,-0.0094 -3.407735,-0.03026 z"
     id="path309" />
</svg>
