<svg id="document_text_outlined" xmlns="http://www.w3.org/2000/svg" width="35" height="35" viewBox="0 0 35 35">
  <rect id="Bounding_box" data-name="Bounding box" width="35" height="35" fill="rgba(255,255,255,0)"/>
  <path id="Icon_color" data-name="Icon color" d="M13.687,29H3.125A3.022,3.022,0,0,1,0,26.1V2.9A3.022,3.022,0,0,1,3.125,0H21.875A3.022,3.022,0,0,1,25,2.9V18.5a4.173,4.173,0,0,1-1.375,3.073L17,27.724A4.844,4.844,0,0,1,13.687,29ZM3.125,2.9V26.1H12.5V18.85a1.511,1.511,0,0,1,1.562-1.45h7.813V2.9ZM13.281,14.5H7.031a.755.755,0,0,1-.781-.724v-1.45a.756.756,0,0,1,.781-.725h6.251a.756.756,0,0,1,.781.725v1.45A.755.755,0,0,1,13.281,14.5Zm4.687-5.8H7.031a.756.756,0,0,1-.781-.725V6.525A.756.756,0,0,1,7.031,5.8H17.969a.756.756,0,0,1,.781.725v1.45A.756.756,0,0,1,17.969,8.7Z" transform="translate(5 3)" fill="#656565"/>
</svg>
