<?xml version="1.0" encoding="UTF-8" standalone="no"?>
<svg
   id="document_text_outlined"
   width="35"
   height="35"
   viewBox="0 0 35 35"
   version="1.1"
   sodipodi:docname="doc_primary.svg"
   inkscape:export-filename="doc.png"
   inkscape:export-xdpi="96"
   inkscape:export-ydpi="96"
   inkscape:version="1.2.2 (b0a8486541, 2022-12-01)"
   xmlns:inkscape="http://www.inkscape.org/namespaces/inkscape"
   xmlns:sodipodi="http://sodipodi.sourceforge.net/DTD/sodipodi-0.dtd"
   xmlns="http://www.w3.org/2000/svg"
   xmlns:svg="http://www.w3.org/2000/svg">
  <defs
     id="defs7" />
  <sodipodi:namedview
     id="namedview5"
     pagecolor="#ffffff"
     bordercolor="#000000"
     borderopacity="0.25"
     inkscape:showpageshadow="2"
     inkscape:pageopacity="0.0"
     inkscape:pagecheckerboard="0"
     inkscape:deskcolor="#d1d1d1"
     showgrid="false"
     inkscape:zoom="21.228571"
     inkscape:cx="7.0423957"
     inkscape:cy="17.5"
     inkscape:window-width="1920"
     inkscape:window-height="1008"
     inkscape:window-x="0"
     inkscape:window-y="0"
     inkscape:window-maximized="1"
     inkscape:current-layer="document_text_outlined" />
  <rect
     id="Bounding_box"
     data-name="Bounding box"
     width="35"
     height="35"
     fill="rgba(255,255,255,0)" />
  <path
     id="Icon_color"
     data-name="Icon color"
     d="M13.687,29H3.125A3.022,3.022,0,0,1,0,26.1V2.9A3.022,3.022,0,0,1,3.125,0H21.875A3.022,3.022,0,0,1,25,2.9V18.5a4.173,4.173,0,0,1-1.375,3.073L17,27.724A4.844,4.844,0,0,1,13.687,29ZM3.125,2.9V26.1H12.5V18.85a1.511,1.511,0,0,1,1.562-1.45h7.813V2.9ZM13.281,14.5H7.031a.755.755,0,0,1-.781-.724v-1.45a.756.756,0,0,1,.781-.725h6.251a.756.756,0,0,1,.781.725v1.45A.755.755,0,0,1,13.281,14.5Zm4.687-5.8H7.031a.756.756,0,0,1-.781-.725V6.525A.756.756,0,0,1,7.031,5.8H17.969a.756.756,0,0,1,.781.725v1.45A.756.756,0,0,1,17.969,8.7Z"
     transform="translate(5 3)"
     fill="#656565" />
  <path
     style="fill:#6598cb;stroke-width:0.0471063;fill-opacity:1"
     d="M 7.2409292,31.87081 C 6.4278363,31.63686 5.711107,31.045599 5.3524496,30.312921 4.992047,29.576677 5.0184596,30.589946 5.0184596,17.5 c 0,-10.1394741 0.00947,-11.7982983 0.068993,-12.0827725 C 5.3101488,4.3528779 6.1814951,3.424913 7.2298742,3.1355951 7.5807153,3.0387746 7.6246797,3.038358 17.492254,3.038358 c 11.011227,0 10.133474,-0.025911 10.842201,0.3200627 0.516586,0.2521783 1.050647,0.79255 1.31314,1.3286587 0.360698,0.736679 0.33932,0.1237298 0.323322,9.2700796 -0.01419,8.114572 -0.01513,8.185564 -0.111761,8.512558 -0.160173,0.541986 -0.381378,1.014514 -0.656241,1.40183 -0.240854,0.339392 -1.781679,1.796249 -7.178341,6.787155 -0.576274,0.532947 -1.331757,0.953494 -2.111597,1.175443 l -0.363852,0.103556 -6.006056,0.0091 c -5.6692628,0.0086 -6.02266,0.0044 -6.3021398,-0.07604 z M 17.510723,25.378533 c 0.01305,-3.518781 0.01944,-3.771008 0.100817,-3.982157 0.120208,-0.311898 0.489215,-0.702147 0.794309,-0.840033 l 0.248256,-0.112198 4.121803,-0.02355 4.121804,-0.02355 V 13.142665 5.8882907 H 17.5 8.102288 L 8.090218,17.452894 c -0.00664,6.360531 -0.002,11.5911 0.010298,11.623486 0.017687,0.04656 1.0030919,0.05888 4.70932,0.05888 h 4.68695 z"
     id="path1001" />
  <path
     style="fill:#6598cb;fill-opacity:1;stroke-width:0.0471063"
     d="m 11.853026,17.452796 c -0.211728,-0.04999 -0.37759,-0.179407 -0.483846,-0.377534 -0.07594,-0.141591 -0.08722,-0.276039 -0.08722,-1.039634 0,-0.834208 0.0052,-0.884769 0.10711,-1.035953 0.05891,-0.08742 0.179238,-0.207547 0.267393,-0.266955 l 0.160283,-0.108014 3.37157,0.01268 3.371571,0.01268 0.158585,0.113106 c 0.281554,0.200809 0.333857,0.396592 0.334734,1.252978 4.24e-4,0.414535 -0.0201,0.828834 -0.04561,0.920663 -0.0612,0.22031 -0.320667,0.465888 -0.547942,0.518619 -0.224344,0.05205 -6.38542,0.04959 -6.606632,-0.0026 z"
     id="path1798" />
  <path
     style="fill:#6598cb;fill-opacity:1;stroke-width:0.0471063"
     d="m 11.605823,11.543926 c -0.291406,-0.198015 -0.323858,-0.328183 -0.323858,-1.299006 0,-0.7806642 0.0088,-0.8733605 0.0974,-1.0292196 0.05357,-0.094207 0.15426,-0.2136816 0.223755,-0.2654985 0.124511,-0.092838 0.209743,-0.094393 5.842367,-0.1065467 5.71343,-0.012329 5.716091,-0.01229 5.888291,0.085624 0.345016,0.196179 0.358969,0.2428886 0.375267,1.2562468 0.01652,1.027006 -0.0127,1.153074 -0.314869,1.3584 l -0.169075,0.11489 H 17.5 11.774898 Z"
     id="path1800" />
</svg>
