<svg id="document_text_outlined" xmlns="http://www.w3.org/2000/svg" width="24" height="24" viewBox="0 0 24 24">
  <rect id="Bounding_box" data-name="Bounding box" width="24" height="24" fill="rgba(255,255,255,0)"/>
  <path id="Icon_color" data-name="Icon color" d="M7.665,18H1.75A1.777,1.777,0,0,1,0,16.2V1.8A1.777,1.777,0,0,1,1.75,0h10.5A1.777,1.777,0,0,1,14,1.8v9.684a2.721,2.721,0,0,1-.77,1.908L9.52,17.208A2.573,2.573,0,0,1,7.665,18ZM1.75,1.8V16.2H7V11.7a.889.889,0,0,1,.875-.9H12.25v-9ZM7.437,9h-3.5A.444.444,0,0,1,3.5,8.55v-.9a.444.444,0,0,1,.438-.45h3.5a.444.444,0,0,1,.438.45v.9A.444.444,0,0,1,7.437,9Zm2.626-3.6H3.938A.445.445,0,0,1,3.5,4.95v-.9a.445.445,0,0,1,.438-.45h6.125a.444.444,0,0,1,.437.45v.9A.444.444,0,0,1,10.063,5.4Z" transform="translate(5 3)" fill="#656565"/>
</svg>
