<?xml version="1.0" encoding="UTF-8" standalone="no"?>
<svg
   width="20.292"
   height="20.292"
   viewBox="336 120 20.292 20.292"
   version="1.1"
   id="svg16"
   sodipodi:docname="home_search.svg"
   inkscape:version="1.2.2 (b0a8486541, 2022-12-01)"
   xmlns:inkscape="http://www.inkscape.org/namespaces/inkscape"
   xmlns:sodipodi="http://sodipodi.sourceforge.net/DTD/sodipodi-0.dtd"
   xmlns="http://www.w3.org/2000/svg"
   xmlns:svg="http://www.w3.org/2000/svg">
  <defs
     id="defs20" />
  <sodipodi:namedview
     id="namedview18"
     pagecolor="#ffffff"
     bordercolor="#000000"
     borderopacity="0.25"
     inkscape:showpageshadow="2"
     inkscape:pageopacity="0.0"
     inkscape:pagecheckerboard="0"
     inkscape:deskcolor="#d1d1d1"
     showgrid="false"
     inkscape:zoom="36.615415"
     inkscape:cx="10.173311"
     inkscape:cy="10.173311"
     inkscape:window-width="1920"
     inkscape:window-height="1008"
     inkscape:window-x="0"
     inkscape:window-y="0"
     inkscape:window-maximized="1"
     inkscape:current-layer="svg16" />
  <g
     data-name="search"
     id="g14">
    <g
       data-name="Path 62238"
       id="g6">
      <path
         d="m356.044 138.848-2.147-2.147a4.2 4.2 0 0 0 .704-2.328 4.232 4.232 0 0 0-4.228-4.227 4.232 4.232 0 0 0-4.227 4.227 4.232 4.232 0 0 0 4.227 4.228 4.2 4.2 0 0 0 2.328-.705l2.148 2.148a.845.845 0 1 0 1.195-1.196Zm-5.67-1.938a2.54 2.54 0 0 1-2.537-2.537 2.54 2.54 0 0 1 2.536-2.536 2.54 2.54 0 0 1 2.537 2.536 2.54 2.54 0 0 1-2.537 2.537Z"
         fill="#6598cb"
         fill-rule="evenodd"
         id="path2" />
      <path
         d="m356.044 138.848-2.147-2.147a4.2 4.2 0 0 0 .704-2.328 4.232 4.232 0 0 0-4.228-4.227 4.232 4.232 0 0 0-4.227 4.227 4.232 4.232 0 0 0 4.227 4.228 4.2 4.2 0 0 0 2.328-.705l2.148 2.148a.845.845 0 1 0 1.195-1.196Zm-5.67-1.938a2.54 2.54 0 0 1-2.537-2.537 2.54 2.54 0 0 1 2.536-2.536 2.54 2.54 0 0 1 2.537 2.536 2.54 2.54 0 0 1-2.537 2.537Z"
         stroke-linejoin="round"
         stroke-linecap="round"
         stroke-width=".2"
         stroke="#6598cb"
         fill="transparent"
         id="path4" />
    </g>
    <g
       data-name="Path 62239"
       id="g12">
      <path
         d="m353.374 127.971-3-2.934c-3.826-3.793.147.759-1.692-1.653l-3.213-3.143a.845.845 0 0 0-1.182 0l-7.906 7.73a1.27 1.27 0 0 0 .887 2.175h1.269v4.65c0 1.165.947 2.114 2.113 2.114h2.96a.845.845 0 1 0 0-1.691h-2.96a.423.423 0 0 1-.422-.423V129.3a.845.845 0 0 0-.846-.845h-1.076l6.572-6.427 7.313 7.152c.335.328.871.32 1.196-.014a.844.844 0 0 0-.013-1.195Z"
         fill="#6598cb"
         fill-rule="evenodd"
         id="path8" />
      <path
         d="m353.374 127.971-3-2.934c-3.826-3.793.147.759-1.692-1.653l-3.213-3.143a.845.845 0 0 0-1.182 0l-7.906 7.73a1.27 1.27 0 0 0 .887 2.175h1.269v4.65c0 1.165.947 2.114 2.113 2.114h2.96a.845.845 0 1 0 0-1.691h-2.96a.423.423 0 0 1-.422-.423V129.3a.845.845 0 0 0-.846-.845h-1.076l6.572-6.427 7.313 7.152c.335.328.871.32 1.196-.014a.844.844 0 0 0-.013-1.195Z"
         stroke-linejoin="round"
         stroke-linecap="round"
         stroke-width=".2"
         stroke="#6598cb"
         fill="transparent"
         id="path10" />
    </g>
  </g>
  <path
     style="fill:#000000;stroke-width:0.0273109"
     d="M 4.4335095,16.782545 C 3.6407204,16.696201 3.000409,16.158044 2.7275206,15.348727 l -0.064462,-0.191177 -0.0079,-2.524604 C 2.6498936,10.950731 2.6378611,10.097019 2.6190973,10.07441 2.5982049,10.049236 2.3887578,10.038062 1.8075481,10.031113 1.0658798,10.022245 1.0157924,10.018404 0.86706418,9.9589904 0.56632817,9.838853 0.3074456,9.57714 0.18755435,9.2720511 0.11760234,9.0940432 0.10375571,8.7209501 0.16069418,8.5483122 0.2563609,8.2582499 0.2870779,8.2267711 4.3806372,4.2236877 6.5872043,2.0658905 8.4301819,0.27263723 8.4761434,0.23868062 8.6653883,0.09886516 8.9831787,0.08101978 9.2005118,0.19800404 c 0.098844,0.0532047 0.6054496,0.53156551 1.7373612,1.64049616 1.287047,1.2609171 1.597831,1.5789664 1.597831,1.6351859 0,0.087466 0.18735,0.3524267 0.418005,0.591168 0.178226,0.1844728 0.255218,0.218346 0.319698,0.1406525 0.04132,-0.049792 -0.104692,-0.1873768 2.318506,2.1846274 1.961103,1.919671 1.913841,1.8657011 1.913841,2.1854891 0,0.526127 -0.551326,0.8810655 -1.023625,0.659 C 16.374268,9.1839092 15.894654,8.7291677 14.199635,7.070501 9.0809428,2.0615858 8.954413,1.9391815 8.8861931,1.9303057 8.8297363,1.9229604 8.6494813,2.0874034 7.7754683,2.9435968 7.2016362,3.5057297 5.71822,4.9568478 4.4789878,6.1683042 3.2397557,7.3797604 2.2148735,8.3952029 2.2014718,8.4248434 c -0.055164,0.1220057 -0.0044,0.1322683 0.7018985,0.141899 0.6544132,0.00892 0.6620021,0.0097 0.7972569,0.081503 0.1615904,0.085785 0.2572348,0.18295 0.3452092,0.3506965 l 0.064454,0.1228991 0.013655,2.940228 0.013655,2.940228 0.084828,0.104938 c 0.046656,0.05771 0.1265401,0.129517 0.1775208,0.159559 0.089229,0.05258 0.1549394,0.05513 1.7586577,0.06828 1.5262471,0.01251 1.673378,0.01771 1.7543567,0.06196 0.2708026,0.14799 0.4161521,0.383023 0.4165931,0.67364 4.425e-4,0.291387 -0.162496,0.541858 -0.4342662,0.66756 -0.1228316,0.05681 -0.1567742,0.05805 -1.6957173,0.0618 -0.8637072,0.0021 -1.6584364,-0.0058 -1.7660651,-0.01749 z"
     id="path318"
     transform="translate(336,120)" />
  <path
     style="fill:#000000;stroke-width:0.0273109"
     d="M 4.4330064,16.782502 C 3.6392765,16.696102 3.0002486,16.15884 2.7276529,15.348727 L 2.6633238,15.15755 2.6494129,12.631292 c -0.00765,-1.389442 -0.023854,-2.541621 -0.036006,-2.560397 -0.016751,-0.02588 -0.195364,-0.03414 -0.7384841,-0.03414 -0.9429965,0 -1.09938498,-0.038968 -1.41115219,-0.3516224 C 0.10612878,9.3264735 0.01890798,8.8246518 0.23549228,8.3717417 0.3248845,8.1848093 0.37269718,8.1369439 4.3697442,4.2329322 6.0445853,2.5970747 7.648418,1.0294561 7.9338169,0.74933524 8.2192158,0.4692144 8.4957387,0.21774117 8.5483122,0.19050586 c 0.057765,-0.0299249 0.176637,-0.0541243 0.3004199,-0.0611581 0.1852337,-0.0105258 0.2185582,-0.004205 0.3482959,0.066061 0.1986521,0.10759011 3.338629,3.18094854 3.338778,3.26794134 5.5e-5,0.032866 0.02614,0.102771 0.05797,0.1553444 0.106939,0.1766481 0.443875,0.552038 0.53411,0.595068 0.08189,0.039051 0.09363,0.038793 0.13989,-0.00307 0.04818,-0.0436 0.143871,0.045665 2.085354,1.945249 2.236075,2.1878192 2.153445,2.0947562 2.152891,2.4247416 -8.77e-4,0.5212995 -0.553769,0.8745215 -1.023892,0.6541247 C 16.372991,9.1836457 15.682106,8.522145 13.040955,5.9399938 11.223415,4.1630545 9.5557704,2.5328452 9.3350789,2.3173067 9.0766607,2.0649226 8.9134158,1.9254186 8.8764988,1.9254186 c -0.037679,0 -0.2464522,0.1850343 -0.6092458,0.539972 C 3.9089574,6.7293119 2.6523463,7.9574831 2.4520822,8.1489503 2.2081454,8.382172 2.1558641,8.4618893 2.2107531,8.5169227 c 0.020957,0.021012 0.2498414,0.03647 0.6923133,0.046757 0.7239726,0.016831 0.7715482,0.026413 0.9621633,0.1937755 0.054097,0.047498 0.1313668,0.1489159 0.1717099,0.2253731 l 0.073351,0.139013 0.013655,2.9402277 0.013655,2.940228 0.084828,0.104938 c 0.046656,0.05771 0.1265401,0.129517 0.1775208,0.159559 0.089229,0.05258 0.1549394,0.05513 1.7586577,0.06828 1.642795,0.01347 1.6674843,0.01448 1.7752086,0.07271 0.2525474,0.136525 0.3948086,0.37603 0.3948086,0.664683 0,0.295765 -0.1579087,0.538373 -0.4333336,0.665765 -0.1228316,0.05681 -0.1567742,0.05805 -1.6957173,0.0618 -0.8637072,0.0021 -1.6586628,-0.0058 -1.7665682,-0.01753 z"
     id="path320"
     transform="translate(336,120)" />
  <path
     style="fill:#000000;stroke-width:0.0273109"
     d="M 4.2514645,16.957984 C 3.5414275,16.828045 2.8984423,16.306243 2.6218528,15.635506 2.4561256,15.233614 2.4579811,15.267617 2.4579811,12.632443 v -2.40451 H 1.7809466 c -0.5198286,0 -0.7143142,-0.0097 -0.83758562,-0.04182 C 0.22257688,9.9983738 -0.22395715,9.2552669 -0.04011447,8.5494469 0.04427292,8.2254621 0.13224452,8.1092498 0.77532823,7.4722321 1.107458,7.1432351 2.9400185,5.3484711 4.847685,3.4838679 c 3.8927299,-3.80485639 3.6183274,-3.56220707 4.028358,-3.56220707 0.3948831,0 0.3391916,-0.04482922 2.198624,1.76979257 0.901206,0.8794887 1.681572,1.6523413 1.734146,1.7174499 0.05257,0.065109 0.163182,0.178542 0.245798,0.2520742 0.336111,0.299157 3.997756,3.8558079 4.347928,4.2232567 0.177797,0.1865676 0.255702,0.3301533 0.295272,0.5442077 C 17.809598,9.0331536 17.235772,9.604977 16.632049,9.4904834 16.355008,9.4379435 16.264784,9.3712609 15.635491,8.7539493 12.420646,5.6003115 8.9008738,2.1712167 8.8786875,2.1712167 c -0.015129,0 -1.4501441,1.3918318 -3.1889219,3.0929596 L 2.5283513,8.3571359 3.073523,8.3708779 c 0.4847606,0.012219 0.5594474,0.020328 0.6740033,0.073173 0.1805534,0.083291 0.3895091,0.2883398 0.4785033,0.4695566 l 0.075437,0.1536113 0.013655,2.9222672 c 0.014678,3.14108 0.00727,2.994957 0.1567551,3.092959 0.066811,0.0438 0.2121549,0.04894 1.7401089,0.06145 l 1.6672087,0.01365 0.1365545,0.07305 c 0.2645872,0.141541 0.4210852,0.338496 0.4931707,0.620664 0.1101637,0.43122 -0.1062596,0.865056 -0.5308595,1.064148 l -0.1534875,0.07197 -1.6796205,0.0049 c -1.3566955,0.0039 -1.7207389,-0.0027 -1.8934883,-0.03427 z M 7.9201614,16.753093 C 8.266642,16.596436 8.4364104,16.208795 8.3285793,15.82053 8.2863774,15.668573 8.1436321,15.501381 7.9747832,15.406142 l -0.1502099,-0.08473 -1.6683402,-0.01366 -1.66834,-0.01365 -0.1074413,-0.07448 c -0.059093,-0.04097 -0.1317634,-0.114706 -0.1614905,-0.163865 -0.05273,-0.0872 -0.054382,-0.1607 -0.067704,-3.011647 L 4.1376016,9.1218411 4.0611013,8.966057 C 3.9757498,8.7922488 3.8697316,8.6901847 3.6869717,8.6058814 3.5770576,8.5551803 3.4962616,8.5477012 2.9222665,8.5350959 2.3194437,8.5218575 2.212183,8.5096481 2.212183,8.4542684 c 0,-0.012398 0.7957714,-0.8007922 1.7683809,-1.7519861 C 4.9531734,5.7510881 6.2897006,4.4437999 6.9506244,3.7971969 8.7340861,2.0523793 8.8383859,1.9527295 8.8811627,1.9527295 c 0.021617,0 0.4625268,0.4136297 0.9798007,0.9191773 0.5172736,0.5055475 2.1787816,2.1308875 3.6922386,3.6118667 1.863368,1.8233812 2.792683,2.7143983 2.878562,2.7599327 0.394511,0.209178 0.922866,0.00686 1.059958,-0.4058886 0.06179,-0.186043 0.04772,-0.4365203 -0.03399,-0.6049581 -0.04565,-0.094095 -0.54867,-0.6014532 -2.071281,-2.0891228 -1.106047,-1.0806656 -2.034026,-1.9809782 -2.062175,-2.0006948 -0.04298,-0.030107 -0.05118,-0.029507 -0.05118,0.00374 0,0.053181 -0.07436,0.078721 -0.134888,0.046329 -0.147469,-0.078923 -0.575195,-0.626558 -0.575195,-0.7364456 0,-0.0593 -0.07766,-0.1500193 -0.389181,-0.4546383 C 11.959785,2.7927259 11.235376,2.0836323 10.564035,1.426268 9.2088449,0.09929082 9.2048231,0.09612175 8.876043,0.09612175 8.7473939,0.09612175 8.6608629,0.1136588 8.5617292,0.1598229 8.4515901,0.21111204 7.6719944,0.95909968 4.5606821,3.9986511 2.4353423,6.0749708 0.6062889,7.8659283 0.49611889,7.978556 0.07692225,8.407105 -0.01960772,8.8947204 0.21535416,9.3968223 c 0.14655557,0.313182 0.46586103,0.5619554 0.81697664,0.6365127 0.085998,0.01826 0.4323272,0.03073 0.8534657,0.03073 0.3898065,0 0.7112263,0.0031 0.7142663,0.0068 0.00304,0.0038 0.012964,1.149789 0.022053,2.546741 0.018472,2.83904 0.00499,2.649737 0.2198531,3.086132 0.2481667,0.504028 0.7437971,0.908404 1.2882454,1.051058 0.1850261,0.04848 0.3167985,0.05209 1.9328058,0.05293 1.6866183,8.8e-4 1.7376171,-6.22e-4 1.8571413,-0.05466 z"
     id="path322"
     transform="translate(336,120)" />
  <path
     style="fill:#000000;stroke-width:0.0273109"
     d="m 19.24053,20.350344 c -0.07511,-0.01919 -0.179569,-0.05683 -0.232143,-0.08365 -0.05257,-0.02681 -0.594723,-0.546388 -1.204777,-1.154609 l -1.10919,-1.105855 -0.219577,0.124592 c -1.254673,0.711928 -2.778951,0.737764 -4.075694,0.06908 -1.712891,-0.883274 -2.634581,-2.804489 -2.250755,-4.691584 0.303336,-1.491362 1.42911,-2.753126 2.878341,-3.226035 0.502947,-0.164121 0.779535,-0.204811 1.379766,-0.202988 0.57164,0.0017 0.855398,0.04547 1.33583,0.205855 1.25335,0.418425 2.298814,1.463888 2.717239,2.717239 0.166053,0.497396 0.205244,0.760294 0.205244,1.376797 0,0.475574 -0.0091,0.601602 -0.0603,0.837018 -0.08636,0.396904 -0.230876,0.794286 -0.42337,1.164182 l -0.16735,0.321581 1.107949,1.112242 c 1.265671,1.270574 1.238538,1.23484 1.238538,1.631149 0,0.213301 -0.01,0.266168 -0.07566,0.399873 -0.188141,0.383113 -0.648998,0.606067 -1.044083,0.505109 z m 0.518907,-0.218338 c 0.185138,-0.0866 0.354079,-0.275848 0.407836,-0.456865 0.05401,-0.181885 0.05386,-0.277763 -7.51e-4,-0.463793 -0.04163,-0.141803 -0.09457,-0.199539 -1.20168,-1.31039 -0.636974,-0.639128 -1.158134,-1.172131 -1.158134,-1.184451 0,-0.01232 0.04165,-0.0916 0.09255,-0.176184 0.741779,-1.232594 0.813337,-2.701294 0.193957,-3.980911 -0.355151,-0.73373 -0.99961,-1.412576 -1.717677,-1.809329 -1.898609,-1.0490381 -4.284916,-0.449577 -5.477353,1.375957 -0.265265,0.4061 -0.454673,0.863991 -0.576162,1.392856 -0.08305,0.361527 -0.102734,1.076493 -0.04054,1.472449 0.138776,0.883533 0.509385,1.62521 1.131696,2.264792 0.58536,0.601605 1.271937,0.982453 2.108986,1.169868 0.246285,0.05514 0.356996,0.06348 0.843374,0.06348 0.612049,0 0.790947,-0.02547 1.280509,-0.182288 0.312179,-0.1 0.582049,-0.220987 0.83205,-0.373022 0.102927,-0.06259 0.207447,-0.113807 0.232267,-0.113807 0.02482,0 0.548958,0.505145 1.16475,1.122544 1.241623,1.244864 1.251783,1.252971 1.570252,1.252971 0.128958,0 0.214877,-0.01747 0.314075,-0.06387 z"
     id="path324"
     transform="translate(336,120)" />
  <path
     style="fill:#000000;stroke-width:0.0273109"
     d="m 14.106081,16.98421 c -0.475586,-0.0721 -0.817318,-0.195846 -1.153969,-0.417855 -0.990788,-0.653389 -1.428034,-1.854672 -1.079401,-2.965526 0.267529,-0.852431 0.914472,-1.483042 1.796395,-1.751047 0.224821,-0.06832 0.284258,-0.07473 0.696428,-0.07513 0.535017,-5.16e-4 0.727709,0.0417 1.160714,0.254299 0.658303,0.323216 1.149614,0.907639 1.368775,1.628182 0.06733,0.221348 0.07446,0.286141 0.07648,0.694745 0.0019,0.38872 -0.0063,0.481909 -0.06002,0.67831 -0.254555,0.931035 -1.002455,1.666486 -1.920699,1.888728 -0.222543,0.05386 -0.71861,0.09047 -0.884695,0.06529 z m 0.865526,-0.239806 c 0.455711,-0.115601 0.837307,-0.340721 1.172268,-0.691572 0.471087,-0.493436 0.708447,-1.129451 0.670465,-1.796541 -0.06149,-1.079987 -0.790834,-1.977296 -1.834311,-2.256748 -0.297681,-0.07972 -0.836353,-0.08629 -1.145002,-0.01396 -0.446545,0.104643 -0.8069,0.299047 -1.145011,0.617709 -0.318076,0.29978 -0.54664,0.674439 -0.6758,1.107762 -0.07362,0.246977 -0.09979,0.778976 -0.0527,1.071271 0.141022,0.875401 0.792949,1.636124 1.64119,1.915075 0.271336,0.08923 0.390125,0.106203 0.766155,0.109467 0.280703,0.0024 0.392626,-0.0092 0.602747,-0.06246 z"
     id="path326"
     transform="translate(336,120)" />
  <path
     style="fill:#000000;stroke-width:0.0273109"
     d="m 19.172253,20.122351 c -0.103982,-0.03591 -0.29961,-0.218435 -1.270966,-1.185868 -0.675332,-0.672605 -1.168671,-1.143431 -1.198107,-1.143431 -0.02752,0 -0.119242,0.04166 -0.203823,0.09258 -0.394592,0.237544 -0.767621,0.388741 -1.232563,0.499585 -0.395134,0.0942 -1.08622,0.117632 -1.509924,0.05119 -1.518779,-0.238159 -2.768484,-1.282303 -3.27118,-2.733109 -0.167528,-0.483497 -0.201494,-0.705932 -0.202192,-1.324106 -6.99e-4,-0.61885 0.02464,-0.791688 0.190451,-1.299149 0.300534,-0.919769 0.983671,-1.760977 1.835743,-2.260512 0.701232,-0.411105 1.62481,-0.61936 2.40181,-0.541578 0.587803,0.05884 0.951421,0.161065 1.470207,0.413313 0.180252,0.08764 0.437974,0.237394 0.572716,0.332779 0.303209,0.214644 0.740891,0.649194 0.951553,0.944742 0.951692,1.335179 1.035356,3.075283 0.214885,4.469299 -0.07781,0.132195 -0.141466,0.254369 -0.141466,0.271496 0,0.01713 0.508785,0.541365 1.130634,1.164974 0.766057,0.768226 1.150806,1.173463 1.193195,1.256733 0.0472,0.09271 0.06278,0.170038 0.06346,0.314826 7.7e-4,0.164626 -0.01105,0.213188 -0.08307,0.341387 -0.18549,0.330165 -0.543741,0.461793 -0.911363,0.334851 z M 15.03115,16.934428 c 0.923898,-0.234695 1.660528,-0.964337 1.904186,-1.886121 0.08215,-0.310782 0.101325,-0.858219 0.04056,-1.158086 -0.115089,-0.56799 -0.343712,-0.992873 -0.750887,-1.395483 -0.310825,-0.307341 -0.5936,-0.48567 -0.978361,-0.616993 -0.361514,-0.123388 -0.608738,-0.157697 -1.004017,-0.139336 -0.384328,0.01785 -0.664184,0.08521 -0.992574,0.238881 -1.630454,0.762994 -2.03639,2.898897 -0.800226,4.21053 0.407331,0.432199 0.983431,0.732177 1.560658,0.812642 0.282134,0.03933 0.716517,0.01123 1.020657,-0.06603 z"
     id="path313"
     transform="translate(336,120)" />
  <path
     style="fill:#000000;stroke-width:0.0273109"
     d="m 19.22528,20.143204 c -0.03843,-0.01166 -0.09988,-0.0368 -0.136555,-0.05586 -0.03667,-0.01906 -0.57761,-0.543074 -1.202079,-1.164474 -0.650652,-0.647455 -1.15634,-1.129819 -1.184452,-1.129819 -0.02698,0 -0.118256,0.04166 -0.202837,0.09258 -0.394758,0.237644 -0.767939,0.388874 -1.232563,0.499492 -0.351495,0.08368 -1.051974,0.115755 -1.429881,0.06546 -1.542086,-0.205214 -2.84984,-1.282478 -3.360591,-2.768293 -0.156663,-0.455743 -0.192125,-0.695199 -0.19298,-1.303103 -6.87e-4,-0.488227 0.0073,-0.596153 0.06269,-0.843375 0.301052,-1.344587 1.205662,-2.436041 2.449913,-2.955935 0.596983,-0.249441 1.299901,-0.361044 1.90415,-0.302323 0.600461,0.05835 0.962949,0.159365 1.481616,0.412874 1.150178,0.562171 1.957071,1.6109 2.228758,2.896743 0.08815,0.417209 0.08929,1.118663 0.0025,1.550244 -0.09777,0.486288 -0.281851,0.964987 -0.519906,1.35202 -0.06253,0.101656 -0.113684,0.199495 -0.113684,0.217419 0,0.01792 0.508731,0.543101 1.130514,1.16706 0.765753,0.768433 1.150686,1.174124 1.193034,1.25737 0.04663,0.09167 0.06298,0.171476 0.06434,0.314075 0.0016,0.165235 -0.0097,0.211559 -0.08291,0.341386 -0.09524,0.168849 -0.262431,0.311594 -0.414387,0.353796 -0.116699,0.03241 -0.342219,0.03376 -0.444708,0.0027 z m -4.237224,-3.19689 c 0.77727,-0.186216 1.427893,-0.714078 1.772061,-1.437704 0.199583,-0.419632 0.237889,-0.604079 0.237396,-1.143076 -3.9e-4,-0.427235 -0.0064,-0.4839 -0.07519,-0.710083 -0.24608,-0.809017 -0.809873,-1.436607 -1.559576,-1.736053 -0.356457,-0.142376 -0.679835,-0.196897 -1.079145,-0.181944 -0.428281,0.01604 -0.714858,0.0867 -1.078781,0.265979 -1.442523,0.710647 -1.919838,2.508238 -1.022045,3.849068 0.609637,0.910477 1.736519,1.349862 2.80528,1.093813 z"
     id="path315"
     transform="translate(336,120)" />
</svg>
