<svg xmlns="http://www.w3.org/2000/svg" width="17" height="17" viewBox="4 4 17 17"><path d="M16.277 21H8.723A4.728 4.728 0 0 1 4 16.277V8.723A4.728 4.728 0 0 1 8.723 4h7.554A4.728 4.728 0 0 1 21 8.723v7.554A4.728 4.728 0 0 1 16.277 21ZM8.723 5.652a3.09 3.09 0 0 0-3.07 3.07v7.555a3.09 3.09 0 0 0 3.07 3.07h7.554a3.09 3.09 0 0 0 3.07-3.07V8.723a3.09 3.09 0 0 0-3.07-3.07H8.723ZM12.5 16.75a4.255 4.255 0 0 1-4.25-4.25 4.255 4.255 0 0 1 4.25-4.25h.01c1.131 0 2.196.441 2.998 1.242A4.215 4.215 0 0 1 16.75 12.5a4.255 4.255 0 0 1-4.25 4.25Zm0-6.848A2.6 2.6 0 0 0 9.902 12.5a2.6 2.6 0 0 0 2.598 2.598 2.6 2.6 0 0 0 2.598-2.598A2.6 2.6 0 0 0 12.5 9.902Zm4.486-.944a.945.945 0 0 1 0-1.889.945.945 0 0 1 0 1.889Z" fill="#8996a6" fill-rule="evenodd" data-name="Icon color"/></svg>