<?xml version="1.0" encoding="UTF-8" standalone="no"?>
<svg
   width="19.995"
   height="20"
   viewBox="2.006 2 19.995 20"
   version="1.1"
   id="svg4"
   sodipodi:docname="register-icon-primary.svg"
   inkscape:version="1.2.2 (b0a8486541, 2022-12-01)"
   xmlns:inkscape="http://www.inkscape.org/namespaces/inkscape"
   xmlns:sodipodi="http://sodipodi.sourceforge.net/DTD/sodipodi-0.dtd"
   xmlns="http://www.w3.org/2000/svg"
   xmlns:svg="http://www.w3.org/2000/svg">
  <defs
     id="defs8" />
  <sodipodi:namedview
     id="namedview6"
     pagecolor="#ffffff"
     bordercolor="#000000"
     borderopacity="0.25"
     inkscape:showpageshadow="2"
     inkscape:pageopacity="0.0"
     inkscape:pagecheckerboard="0"
     inkscape:deskcolor="#d1d1d1"
     showgrid="false"
     inkscape:zoom="37.15"
     inkscape:cx="10"
     inkscape:cy="10"
     inkscape:window-width="1920"
     inkscape:window-height="1008"
     inkscape:window-x="0"
     inkscape:window-y="0"
     inkscape:window-maximized="1"
     inkscape:current-layer="svg4" />
  <path
     d="M21.003 22h-18a1 1 0 0 1-.89-1.45l1.89-3.79A4.974 4.974 0 0 1 8.472 14h7.062a4.974 4.974 0 0 1 4.469 2.76l1.89 3.79a1 1 0 0 1-.89 1.45ZM8.472 16a2.984 2.984 0 0 0-2.681 1.66L4.621 20h14.765l-1.171-2.34a2.983 2.983 0 0 0-2.68-1.66H8.472Zm3.531-4a5 5 0 1 1 0-10 5 5 0 0 1 0 10Zm0-8a3 3 0 1 0 0 6 3 3 0 0 0 0-6Z"
     fill="#242424"
     fill-rule="evenodd"
     data-name="Icon color"
     id="path2" />
  <path
     style="fill:#6598cb;stroke-width:0.0269179"
     d="M 9.6769852,9.9697182 C 8.36001,9.9011287 7.04372,9.2334485 6.1780727,8.1949157 4.5127602,6.1970102 4.6487208,3.2962046 6.4935685,1.4636137 7.7820304,0.18371188 9.6329634,-0.2871151 11.392479,0.21746411 c 0.770661,0.22100364 1.455844,0.6224672 2.063026,1.20877109 0.588977,0.5687257 1.013517,1.2379558 1.26388,1.9923382 0.897206,2.7034236 -0.624338,5.5851458 -3.367144,6.3771886 -0.509135,0.1470235 -1.071383,0.205407 -1.6752558,0.1739562 z M 10.753701,7.9165236 c 0.909102,-0.2369747 1.689151,-0.917986 2.031877,-1.7739031 0.17125,-0.4276751 0.201386,-0.6009758 0.199867,-1.14935 -0.0013,-0.452748 -0.0079,-0.5223741 -0.07349,-0.7665281 C 12.771287,3.7028735 12.458634,3.1799857 12.06277,2.8065472 11.315559,2.1016669 10.243319,1.8281391 9.2357847,2.0853854 8.0070086,2.3991198 7.1109898,3.4624904 7.0013456,4.7371567 6.9236322,5.6406116 7.23547,6.496414 7.8750813,7.1350221 8.3160124,7.5752619 8.8403284,7.847635 9.4814226,7.9694886 c 0.3160027,0.060063 0.9380084,0.034169 1.2722784,-0.052965 z"
     id="path306"
     transform="translate(2.006,2)" />
  <path
     style="fill:#6598cb;stroke-width:0.0269179"
     d="M 0.73448288,19.94759 C 0.4684962,19.864228 0.2104682,19.64161 0.09872038,19.399076 0.05137121,19.296311 0.0406982,19.22265 0.04055376,18.997637 l -1.7691e-4,-0.27558 1.09604695,-2.187408 c 1.1947504,-2.384393 1.2384259,-2.459839 1.7129539,-2.959018 0.8026557,-0.844351 1.8237835,-1.366529 2.9669644,-1.517229 0.270368,-0.03564 0.8442092,-0.03982 4.3337819,-0.03157 4.390587,0.01039 4.072449,-7.95e-4 4.695376,0.165004 1.143927,0.304468 2.176902,1.057116 2.847359,2.074649 0.08779,0.133244 0.633733,1.190632 1.213196,2.349752 l 1.053568,2.107492 v 0.261284 c 0,0.226678 -0.0095,0.281517 -0.07161,0.414047 -0.100262,0.213878 -0.265666,0.382825 -0.476336,0.486539 l -0.177698,0.08748 -9.193031,0.005 c -7.5523849,0.0041 -9.21327474,-0.0013 -9.30646212,-0.03052 z M 17.388964,18.005803 c 0,-0.04432 -1.28836,-2.578275 -1.381139,-2.716436 -0.16203,-0.241283 -0.542246,-0.618732 -0.785752,-0.780034 -0.278511,-0.184488 -0.443648,-0.266045 -0.73915,-0.365048 -0.485814,-0.162762 -0.411648,-0.160103 -4.47017,-0.160277 -2.3802628,-1.02e-4 -3.7808771,0.0097 -3.9230803,0.02757 -0.8470054,0.106205 -1.6522501,0.599275 -2.1114137,1.292867 -0.1373834,0.207525 -1.3672227,2.627271 -1.3672227,2.690051 0,0.01804 2.4596095,0.02703 7.3889637,0.02703 4.06393,0 7.388964,-0.0071 7.388964,-0.01573 z"
     id="path308"
     transform="translate(2.006,2)" />
</svg>
