<svg xmlns="http://www.w3.org/2000/svg" width="17.131" height="18.237" viewBox="3.435 2.881 17.131 18.237"><path d="M13.067 21.119h-2.119a.912.912 0 0 1-.9-.767l-.155-.912a1.838 1.838 0 0 0-.967-1.33 5.033 5.033 0 0 1-.675-.392 1.813 1.813 0 0 0-.985-.293H7.26c-.216 0-.43.04-.632.118l-.912.33a.77.77 0 0 1-.308.063h-.011a.912.912 0 0 1-.784-.456l-1.057-1.823a.912.912 0 0 1 .218-1.163l.73-.603c.44-.369.684-.923.656-1.498v-.786a1.833 1.833 0 0 0-.657-1.497l-.73-.603a.912.912 0 0 1-.218-1.162l1.038-1.823a.918.918 0 0 1 .785-.456h.011a.77.77 0 0 1 .309.063l.912.33c.2.078.412.118.626.118h.012c.35 0 .691-.102.985-.292.214-.149.44-.28.674-.394.5-.275.843-.765.93-1.328l.156-.912a.912.912 0 0 1 .9-.77h2.118c.448 0 .83.326.9.768l.155.912c.095.572.455 1.064.97 1.33.235.113.46.244.675.393.293.19.635.291.985.291h.013c.214 0 .426-.04.626-.118l.912-.33a.782.782 0 0 1 .307-.063h.012a.912.912 0 0 1 .784.456l1.058 1.823a.912.912 0 0 1-.21 1.161l-.73.603a1.833 1.833 0 0 0-.656 1.497v.786c-.028.575.215 1.13.657 1.499l.72.602c.366.266.482.76.273 1.161l-1.058 1.824a.918.918 0 0 1-.784.456h-.012a.789.789 0 0 1-.307-.064l-.912-.33a1.733 1.733 0 0 0-.632-.118h-.007c-.35 0-.692.102-.985.293-.215.148-.44.279-.675.392-.512.266-.87.756-.967 1.325l-.154.912a.912.912 0 0 1-.902.777ZM11.981 6.975a5.028 5.028 0 1 0-.028 10.056 5.028 5.028 0 0 0 .028-10.056Zm0 6.849a1.824 1.824 0 1 1 0-3.648 1.824 1.824 0 0 1 0 3.648Z" fill="#8996a6" fill-rule="evenodd" data-name="Icon color"/></svg>