<svg xmlns="http://www.w3.org/2000/svg" width="18" height="18" viewBox="3 3 18 18"><path d="M19 21h-5.5a.5.5 0 0 1-.5-.5v-1a.5.5 0 0 1 .5-.5H19V5h-5.5a.5.5 0 0 1-.5-.5v-1a.5.5 0 0 1 .5-.5H19a2 2 0 0 1 2 2v14a2 2 0 0 1-2 2Zm-7.715-3a.5.5 0 0 1-.356-.148l-.71-.7a.5.5 0 0 1 0-.71L13.67 13H3.5a.5.5 0 0 1-.5-.5v-1a.5.5 0 0 1 .5-.5h10.17l-3.45-3.44a.491.491 0 0 1 0-.7l.71-.71a.5.5 0 0 1 .71-.002l5.14 5.13c.14.142.218.332.22.53v.38a.76.76 0 0 1-.22.53l-5.14 5.132a.5.5 0 0 1-.355.15Z" fill="#242424" fill-rule="evenodd" data-name="Icon color"/></svg>