<svg xmlns="http://www.w3.org/2000/svg" width="20.01" height="16.377" viewBox="114.064 504.857 20.01 16.377"><g data-name="twitter"><path d="M134.324 507.295c-1.259.058-1.232.053-1.374.065l.746-2.129s-2.327.856-2.917 1.01c-1.55-1.393-3.852-1.455-5.498-.443-1.349.829-2.072 2.252-1.83 3.916-2.625-.364-4.835-1.608-6.58-3.705l-.553-.663-.412.758a4.578 4.578 0 0 0-.488 3.081c.085.423.23.826.429 1.203l-.474-.183-.056.791c-.057.804.21 1.742.716 2.51.142.216.326.453.558.687l-.245-.037.299.906c.392 1.192 1.207 2.113 2.265 2.626-1.056.448-1.91.734-3.313 1.196l-1.283.422 1.185.648c.452.247 2.05 1.072 3.628 1.32 3.508.55 7.458.102 10.117-2.293 2.24-2.017 2.975-4.886 2.822-7.872-.023-.452.1-.884.349-1.215.496-.663 1.906-2.595 1.909-2.6Zm-2.847 1.897a3.038 3.038 0 0 0-.58 1.977c.153 3.012-.666 5.347-2.437 6.942-2.068 1.863-5.404 2.594-9.152 2.006-.678-.107-1.38-.345-1.96-.583 1.176-.405 2.084-.765 3.551-1.46l2.048-.969-2.26-.145c-1.084-.069-1.986-.594-2.54-1.446.294-.017.578-.065.86-.144l2.157-.6-2.174-.533a3.239 3.239 0 0 1-1.978-1.375 3.317 3.317 0 0 1-.43-.946c.219.058.473.1.883.14l2.013.2-1.595-1.244c-1.149-.897-1.61-2.243-1.272-3.537 3.586 3.719 7.796 3.44 8.22 3.538-.093-.906-.096-.908-.12-.995-.543-1.918.646-2.892 1.183-3.222 1.12-.689 2.9-.793 4.131.342.266.245.626.341.963.258.302-.076.55-.155.793-.242l-.506 1.444h.646l-.444.594Zm0 0" fill="#8996a6" fill-rule="evenodd"/><path d="M134.324 507.295c-1.259.058-1.232.053-1.374.065l.746-2.129s-2.327.856-2.917 1.01c-1.55-1.393-3.852-1.455-5.498-.443-1.349.829-2.072 2.252-1.83 3.916-2.625-.364-4.835-1.608-6.58-3.705l-.553-.663-.412.758a4.578 4.578 0 0 0-.488 3.081c.085.423.23.826.429 1.203l-.474-.183-.056.791c-.057.804.21 1.742.716 2.51.142.216.326.453.558.687l-.245-.037.299.906c.392 1.192 1.207 2.113 2.265 2.626-1.056.448-1.91.734-3.313 1.196l-1.283.422 1.185.648c.452.247 2.05 1.072 3.628 1.32 3.508.55 7.458.102 10.117-2.293 2.24-2.017 2.975-4.886 2.822-7.872-.023-.452.1-.884.349-1.215.496-.663 1.906-2.595 1.909-2.6Zm-2.847 1.897a3.038 3.038 0 0 0-.58 1.977c.153 3.012-.666 5.347-2.437 6.942-2.068 1.863-5.404 2.594-9.152 2.006-.678-.107-1.38-.345-1.96-.583 1.176-.405 2.084-.765 3.551-1.46l2.048-.969-2.26-.145c-1.084-.069-1.986-.594-2.54-1.446.294-.017.578-.065.86-.144l2.157-.6-2.174-.533a3.239 3.239 0 0 1-1.978-1.375 3.317 3.317 0 0 1-.43-.946c.219.058.473.1.883.14l2.013.2-1.595-1.244c-1.149-.897-1.61-2.243-1.272-3.537 3.586 3.719 7.796 3.44 8.22 3.538-.093-.906-.096-.908-.12-.995-.543-1.918.646-2.892 1.183-3.222 1.12-.689 2.9-.793 4.131.342.266.245.626.341.963.258.302-.076.55-.155.793-.242l-.506 1.444h.646l-.444.594Zm0 0" stroke-linejoin="round" stroke-linecap="round" stroke-width=".5" stroke="#8996a6" fill="transparent"/></g></svg>