<svg xmlns="http://www.w3.org/2000/svg" xmlns:xlink="http://www.w3.org/1999/xlink" width="1530" height="800" xmlns:v="https://vecta.io/nano"><style><![CDATA[.B{stroke-width:3}.C{stroke-linecap:round}.D{stroke:#6598cb}.E{stroke-linejoin:round}]]></style><defs><clipPath id="A"><path d="M0 0h1530v800H0z"/></clipPath><path id="B" d="M1196.047 486.2c-6.7-1.04-23.151-2.726-59.394-2.726s-52.695 1.686-59.394 2.726a1.59 1.59 0 0 0-.611 2.913c11.25 7.155 46.38 31.122 46.38 51.443v87.505h27.25v-87.505c0-20.321 35.13-44.288 46.38-51.443a1.59 1.59 0 0 0-.611-2.913z"/><path id="C" d="M1281.056 454.126c-8.212-1.275-28.385-3.342-72.821-3.342s-64.61 2.068-72.823 3.342a1.95 1.95 0 0 0-.749 3.573c13.793 8.771 56.867 38.154 56.867 63.074v107.288h33.41V520.773c0-24.918 43.073-54.3 56.865-63.074a1.95 1.95 0 0 0-.749-3.573z"/><path id="D" d="M1351.091 392.215h4.643v4.643h-4.643z"/><path id="E" d="M639.671 155.556a4.85 4.85 0 0 0-4.849-4.848 4.85 4.85 0 0 0-4.849 4.849 4.85 4.85 0 0 0 4.848 4.849h14.051"/><path id="F" d="M1141.062 244.768a4.85 4.85 0 0 0-4.85-4.848 4.85 4.85 0 0 0-4.848 4.849 4.85 4.85 0 0 0 4.849 4.849h14.05"/><path id="G" d="M104.562 346.994a2.75 2.75 0 0 1-2.749 2.749 2.75 2.75 0 0 1-2.749-2.748 2.75 2.75 0 0 1 4.692-1.945 2.75 2.75 0 0 1 .806 1.944z"/><path id="H" d="M98.964 113.749a2.75 2.75 0 0 1-4.693 1.943A2.75 2.75 0 0 1 96.216 111a2.75 2.75 0 0 1 2.748 2.749z"/><path id="I" d="M337.846 147.958a2.75 2.75 0 0 1-4.693 1.944 2.75 2.75 0 0 1 1.944-4.693 2.75 2.75 0 0 1 2.749 2.749z"/><path id="J" d="M414.49 304.191a2.75 2.75 0 0 1-2.75 2.748 2.75 2.75 0 0 1-2.748-2.749 2.75 2.75 0 0 1 4.693-1.943 2.75 2.75 0 0 1 .805 1.944z"/><path id="K" d="M1001.558 225.83a2.75 2.75 0 0 1-2.749 2.749 2.75 2.75 0 0 1-2.749-2.749 2.75 2.75 0 0 1 4.693-1.944 2.75 2.75 0 0 1 .805 1.944z"/><path id="L" d="M704.624 379.85a2.75 2.75 0 0 1-4.694 1.944 2.75 2.75 0 0 1 1.949-4.692 2.75 2.75 0 0 1 2.745 2.748z"/><path id="M" d="M945.387 562.375a2.75 2.75 0 0 1-2.749 2.747 2.75 2.75 0 0 1-2.747-2.748 2.75 2.75 0 0 1 4.691-1.942 2.75 2.75 0 0 1 .805 1.944z"/><path id="N" d="M1119.316 383.092a2.75 2.75 0 0 1-2.751 2.746 2.75 2.75 0 0 1-2.747-2.75 2.75 2.75 0 0 1 4.694-1.942 2.75 2.75 0 0 1 .804 1.946z"/><path id="O" d="M1452.428 459.147a2.75 2.75 0 1 1-5.5.002 2.75 2.75 0 0 1 4.694-1.946 2.75 2.75 0 0 1 .806 1.944z"/><path id="P" d="M79.11 500.033c-2.6 0-2.607 4.046 0 4.046s2.609-4.046 0-4.046z"/></defs><g clip-path="url(#A)"><path fill="rgba(255,255,255, 0)" d="M0 0h1530v800H0z"/><g fill="none" class="D B"><g class="E"><path d="M82.007 628.06h1360.891" class="C"/><path d="M1315.773 498.961c-6.1-.946-21.068-2.48-54.05-2.48s-47.955 1.535-54.052 2.48a1.45 1.45 0 0 0-.556 2.653c10.238 6.51 42.207 28.32 42.207 46.814v79.632h24.8v-79.632c0-18.494 31.969-40.3 42.207-46.814.51-.323.766-.929.642-1.519s-.601-1.043-1.198-1.134z"/><path d="M1315.773 498.964l-8.1-.949c-13.268 9.963-35.982 29.495-35.982 46.463v83.586h2.428v-79.636c0-18.494 31.968-40.3 42.207-46.814a1.45 1.45 0 0 0-.553-2.65zm-108.101 0l8.1-.949c13.267 9.963 35.981 29.495 35.981 46.463v83.586h-2.433v-79.636c0-18.494-31.969-40.3-42.207-46.814a1.45 1.45 0 0 1 .559-2.65zm29.872-2.152c6.253 11.448 18.294 35.16 18.294 47.983v83.266h3.635V496.484l-21.929.328zm48.356 0c-6.179-.188-13.433-.309-21.929-.328v131.577h3.635v-83.266c0-12.826 12.041-36.535 18.294-47.983z"/></g><use xlink:href="#B"/><g class="E"><use xlink:href="#B"/><path d="M1196.048 486.2l-8.9-1.044c-14.58 10.948-39.538 32.411-39.538 51.056v91.849h2.672v-87.5c0-20.321 35.13-44.288 46.38-51.443a1.59 1.59 0 0 0-.614-2.918zm-118.788 0l8.9-1.044c14.579 10.948 39.538 32.411 39.538 51.056v91.849h-2.669v-87.5c0-20.321-35.13-44.288-46.38-51.443a1.59 1.59 0 0 1 .611-2.918zm32.825-2.363c6.87 12.581 20.1 38.635 20.1 52.727v91.5h3.993V483.477l-24.093.36zm53.138 0c-6.79-.207-14.762-.34-24.1-.36v144.584h3.993v-91.5c.003-14.088 13.236-40.143 20.107-52.724z"/></g><use xlink:href="#C"/><g class="E"><use xlink:href="#C"/><path d="M1281.056 454.126c-2.456-.382-5.993-.834-10.917-1.28-17.876 13.422-48.477 39.739-48.477 62.6v112.615h3.278V520.773c0-24.917 43.072-54.3 56.865-63.074a1.95 1.95 0 0 0-.749-3.573zm-145.644 0c2.456-.382 5.992-.834 10.916-1.28 17.876 13.422 48.477 39.739 48.477 62.6v112.615h-3.276V520.773c0-24.917-43.074-54.3-56.866-63.074a1.95 1.95 0 0 1 .749-3.573zm40.247-2.898c8.424 15.425 24.648 47.373 24.648 64.648v112.185h4.9V450.788l-29.548.44zm65.152 0c-8.326-.251-18.1-.415-29.546-.44v177.273h4.9V515.876c-.004-17.276 16.22-49.222 24.646-64.648zm-190.712 176.831c0-166.992-54.529-347.616-54.529-347.616h-13.631s24.5 65.5-23.856 92.016c0 0 25.322 218.408 41.65 255.6z"/><g class="C"><path d="M995.571 280.443s53.783 77.639 52.185 99.364-10.187 94.342-9.637 98.141M999.732 628.06h-27.591V481.733m12.347-192.775h13.547m-11.442 10.011h14.285m-13.053 10.011h15.663m-15.372 10.011h17.97m-18.777 10.012h21.3m-21.986 10.01h24.437m-22.055 10.012h24.635m-22.32 10.011h24.436m-22.188 10.011h24.437m-22.254 10.011h24.437m-22.321 10.011h24.437m-22.386 10.011h24.437m-22.453 10.011h24.436m-22.518 10.011h24.437m-22.588 10.011h24.437m-22.656 10.011h24.296m-22.585 10.01h24.437m-22.797 10.011h24.437m-22.694 10.011h24.261m-22.69 10.011h24.004m-22.842 10.011h24.437m-23.098 10.011h24.437m-23.178 10.012h24.437m-23.261 10.011h24.437m-23.345 10.01h24.436m-23.352 10.012h24.357m-23.524 10.011h24.437m-23.617 10.011h24.437m-23.715 10.01h24.189m-23.567 10.012h24.437m-23.921 10.01h24.437m-24.03 10.012h24.437m-23.922 10.011h24.183m-24.183 10.01h24.437"/></g><path d="M840.545 628.06H702.703l31.713-242.549h74.417z"/><path d="M800.737 605.411L780.983 454.33h-18.72l-22.715 173.73" class="C"/><path d="M791.41 588.944h-46.748l1.581-12.087h45.168z"/><path d="M768.036 576.857h23.374v12.087h-23.374zm36.094 51.204h-64.582l2.962-22.649h67.293z"/><g class="C"><path d="M752.938 525.644l7.956 51.212m-.039-92.705l14.402 92.706"/><path d="M779.85 454.33l-19.034 122.526m11.982 12.087l-2.561 16.482m-4.907-.014l-2.558-16.468m-4.786 0l-2.558 16.468m-4.909 0l-2.558-16.468m39.647 0l-2.558 16.468m-4.91 0l-2.558-16.468m16.393 16.468l-2.565-16.468"/><path d="M770.585 454.33l19.034 122.526"/><path d="M787.03 500.572l-11.851 76.285m18.414-26.083l-4.052 26.083M765.48 454.33l-4.664 30.025m-27.309-91.9h10.413m-11.321 6.944h10.413m-11.321 6.944h10.413m-11.321 6.945h10.413m-11.321 6.944h10.413m-11.321 6.944h10.413m-11.321 6.944h10.413m-11.321 6.945h10.413m-11.321 6.944h10.413m-11.321 6.944h10.413m-11.321 6.944h10.413m-11.321 6.945h10.413m-11.321 6.944h10.413m-11.321 6.944h10.413m-11.321 6.944h10.413m-11.321 6.944H730.3m-11.321 6.945h10.413m-11.321 6.944h10.413m-11.321 6.944h10.413m-11.321 6.944h10.413m-11.321 6.945h10.413m-11.321 6.944h10.413m-11.32 6.944h10.413m-11.321 6.944h10.413m-11.321 6.944h10.413m-11.321 6.945h10.413m-11.321 6.944h10.413m-11.321 6.944h10.413m-11.321 6.944h10.413m-11.321 6.945h10.413m-11.321 6.944h10.413m-11.321 6.944h10.413m-11.321 6.944h10.413m-11.321 6.944h10.413m95.783-229.159h-10.413m11.321 6.944h-10.413m11.321 6.944h-10.413m11.321 6.945h-10.413m11.321 6.944h-10.413m11.321 6.944h-10.413m11.321 6.944h-10.413m11.321 6.945h-10.413m11.321 6.944h-10.413m11.321 6.944h-10.413m11.32 6.944h-10.413m11.321 6.945h-10.413m11.321 6.944h-10.413m11.321 6.944H811.13m11.321 6.944h-10.413m11.321 6.944h-10.413m11.321 6.945h-10.413m11.321 6.944h-10.413m11.321 6.944H815.67m11.321 6.944h-10.413m11.321 6.945h-10.413m11.321 6.944h-10.413m11.321 6.944h-10.413m11.321 6.944H820.21m11.321 6.944h-10.413m11.321 6.945h-10.413m11.321 6.944h-10.413m11.321 6.944h-10.413m11.321 6.944H824.75m11.321 6.945h-10.413m11.321 6.944h-10.413m11.321 6.944h-10.413m11.321 6.944h-10.413m11.321 6.944H829.29M591.587 470.779c0-51.106 33.869-190.986 33.869-190.986s-33.869-16.3-33.869-5.287v353.555h70.4V239.775l-15.4-17.769v22.762l-38.292 28.179"/><path d="M604.891 374.294V628.06m26.13.001s30.965-157.386 30.965-212.185"/><path d="M646.584 244.768v297.268m-13.627-267.015v4.993m6.097 3.328v4.993m-9.959 8.366v4.993m5.405 0v4.993m6.795 10.198v4.993m-16.348 0v4.993m9.553 2.156v4.993m-13.255 10.477v4.993m9.76 2.387v4.993m8.049 10.228v4.993m-19.85-8.17v4.993m7.584 5.943v4.993m-12.915 7.333v4.993m8.78 6.7v4.993m14.874-16.686v4.993m-4.973 16.242v4.993m-17.348 4.86v4.993m7.447 8.7v4.993m16.401-12.823v4.993m-5.615 15.206v4.993m-19.566 8.082v4.993m11.865 9.793v4.993m13.316-14.786v4.993m-4.592 11.269v4.993m-20.589 3.132v4.993m7.372 7.603v4.993m16.282-9.986v4.993m-7.199 11.666v4.993m10.594 5.926v4.993m-30.112-12.268v4.993m9.355 2.282v4.993m-5.051 10.081v4.993m14.12-9.986v4.993m6.584 6.749v4.993m-10.08 1.278v4.993m-14.928 1.497v4.993m8.027 7.994v4.993m13.622-14.655v4.993m-3.984 15.975v4.993m-17.665-.821v4.993m10.435 3.942v4.993m-7.372 5.091v4.993m10.83 5.796v4.993m-12.819-1.612v4.993"/></g><path d="M534.648 429.088c0 6.053-3.646 11.51-9.238 13.826s-12.029 1.036-16.309-3.244-5.56-10.717-3.243-16.309 7.774-9.238 13.827-9.237c3.969-.002 7.777 1.574 10.584 4.381s4.383 6.614 4.38 10.584z"/><g class="C"><path d="M523.268 443.621a14.97 14.97 0 0 1 0-29.065m-10.558 1.292h7.172"/><path d="M508.801 418.822h7.362m-9.547 2.975h7.172m-8.435 2.975h7.173m-7.756 2.974h7.212m-7.173 2.975h7.173m-6.538 2.975h7.171m-5.834 2.974h7.171m-4.872 2.975h7.172m-3.433 2.975h7.644m27.65 60.471c1.788 11.113-3.165 22.231-12.621 28.335s-21.628 6.039-31.018-.166-14.223-17.376-12.317-28.468"/><path d="M493.406 498.038c4.065-11.315 14.819-18.84 26.842-18.782s22.704 7.687 26.658 19.041"/><path d="M507.806 496.037a28.41 28.41 0 0 1 20.181-16.2m-1.081 55.326a28.4 28.4 0 0 1-20.683-34.587"/><path d="M506.893 482.525h13.593m-21.003 5.638h13.953m-18.094 5.638h13.593m-17.091 11.276h13.668m-13.594 5.638h13.594m-12.39 5.637h13.591m-11.057 5.638h13.592m-9.236 5.638h13.593m-6.506 5.638h14.487"/></g><path d="M469.745 628.061l5.726-178.34 5.726 178.34z"/><g class="C"><path d="M533.745 532.494c-3.603 2.128-5.755 6.056-5.608 10.238l3.383 85.328h-23.669l3.4-85.7c.143-4.21-2.004-8.168-5.611-10.345m45.233-26.815v-4.4c0-2.83-13.965-5.125-31.189-5.125s-31.189 2.3-31.189 5.125v4.4"/><path d="M548.392 507.207c1.6-.616 2.482-1.295 2.482-2.007 0-2.831-13.965-5.125-31.189-5.125s-31.189 2.294-31.189 5.125c0 .828 1.194 1.61 3.312 2.3m18.627-66.65a11.7 11.7 0 0 1 4.483 8.869h0l-.949 23.953c-.119 3-.919 6.075-5.208 7.947m20.173-40.769a11.7 11.7 0 0 0-4.484 8.869h0l.95 23.953c0 2.672 1.047 5.538 5.163 7.573m-17.887-65.38c2.466-1.637 3.7-3.008 3.8-5.522l3.206-80.843 3.2 80.843c.1 2.514 1.337 3.884 3.8 5.522"/><path d="M518.255 365.536h2.865m-47.504 141.966h3.71m-34.785-68.377h3.653m9.347 96.652a11.11 11.11 0 0 0-4.614 9.8l3.666 82.482h-20.45l3.666-82.482a11.11 11.11 0 0 0-4.614-9.8"/><path d="M436.918 496.993c2.016-.933 3.3-2.96 3.281-5.181l4.169-93.782 4.169 93.782c-.019 2.222 1.265 4.248 3.281 5.181"/></g><path d="M465.976 517.282c0 11.934-9.674 21.608-21.608 21.608s-21.608-9.674-21.608-21.608 9.674-21.608 21.608-21.608a21.6 21.6 0 0 1 21.608 21.608z"/><g class="C"><path d="M449.545 538.265c-9.803-2.422-16.623-11.309-16.425-21.405s7.359-18.71 17.249-20.746"/><path d="M434.299 498.164h10.356m-16.001 4.295h10.63m-13.785 4.295h10.355m-12.178 4.295h10.357m-11.199 4.295h10.413m-10.357 4.296h10.356m-9.438 4.295h10.354m-8.424 4.295h10.355m-7.036 4.295h10.356m-4.957 4.295h11.037"/></g><path d="M913.087 451.965c-17.639-5.222-37.107 0-37.838 0l.011-29.352s-1.081-5.944 18.909-5.944 18.908 5.944 18.908 5.944z"/><g class="C"><path d="M875.249 451.965c0 8.825 10.455 8.1 10.455 16.749v11.344m27.384-28.093c0 8.825-10.456 8.1-10.456 16.749v11.344m-17.954-15.448s9.491-4.181 18.981 0m9.424-27.462c2.937-.521 4.676-1.165 4.676-1.864 0-1.722-10.562-3.118-23.59-3.118s-23.592 1.4-23.592 3.118c0 .7 1.738 1.343 4.676 1.864m28.734-28.763c1.524-.456 2.426-1.021 2.426-1.633 0-1.509-5.482-2.734-12.245-2.734s-12.246 1.225-12.246 2.734c0 .612.9 1.177 2.428 1.633m28.733 34.846c2.937-.519 4.676-1.165 4.676-1.864 0-1.722-10.562-3.118-23.59-3.118s-23.592 1.4-23.592 3.118c0 .7 1.738 1.345 4.676 1.864m37.83 6.083c2.937-.519 4.676-1.164 4.676-1.864 0-1.721-10.562-3.117-23.59-3.117s-23.592 1.4-23.592 3.117c0 .7 1.738 1.345 4.676 1.864"/></g><path d="M904.26 628.06h-20.184l1.628-121.5h16.928z"/><g class="C"><path d="M902.631 506.564c0-3.485 8.492-7.177 13.6-9.754 4.456-2.251 3.633-5.087 3.633-5.087 0-1.864-11.5-3.376-25.695-3.376s-25.695 1.512-25.695 3.376c0 0-.821 2.836 3.635 5.087 5.105 2.577 13.6 6.269 13.6 9.754"/><path d="M919.862 491.722c0-6.437-17.23-6.528-17.23-11.66m-34.159 11.66c0-6.437 17.231-6.528 17.231-11.66m18.283-74.941v12.303m-19.638-12.303v12.194m4.047-12.974l5.772-181.26 5.772 181.26"/><path d="M888.65 396.363c-3.372-.379-5.647-1.1-5.647-1.915 0-1.216 5-2.2 11.166-2.2s11.165.986 11.165 2.2c0 .82-2.274 1.536-5.647 1.915m-10.674-11.366c-3.1-.352-5.193-1.013-5.193-1.769 0-1.128 4.633-2.042 10.349-2.042s10.348.914 10.348 2.042c0 .757-2.089 1.418-5.193 1.769"/></g><path d="M1397.907 628.064h-28.02v-332.33l28.02 28.02z"/><path d="M1397.907 323.753l-28.02-28.02v-26.227l28.02 28.02z"/><path d="M1397.907 616.983l-28.02-29.323 28.02-29.323-28.02-29.323 28.02-29.323-28.02-29.323 28.02-29.323-28.02-29.323 28.02-29.323-28.02-29.323 28.02-29.323" class="C"/><path d="M1338.176 331.79h31.707v296.27h-31.707z"/><g class="C"><path d="M1342.735 355.684v-31.061m5.647 31.061v-31.061m5.648 31.061v-31.061m5.647 31.061v-31.061m5.647 31.061v-31.061"/></g><path d="M1346.208 384.965h23.676V628.06h-23.676z"/><use xlink:href="#D"/><path d="M1360.356 392.215h4.643v4.643h-4.643zm-9.265 8.715h4.643v4.643h-4.643zm9.265 0h4.643v4.643h-4.643zm-9.265 8.716h4.643v4.643h-4.643zm9.265 0h4.643v4.643h-4.643zm-9.265 8.715h4.643v4.643h-4.643zm9.265 0h4.643v4.643h-4.643zm-9.265 8.716h4.643v4.643h-4.643zm9.265 0h4.643v4.643h-4.643zm-9.265 8.715h4.643v4.643h-4.643zm9.265 0h4.643v4.643h-4.643zm-9.265 8.715h4.643v4.643h-4.643zm9.265 0h4.643v4.643h-4.643zm-9.265 8.716h4.643v4.643h-4.643zm9.265 0h4.643v4.643h-4.643zm-9.265 8.715h4.643v4.643h-4.643zm9.265 0h4.643v4.643h-4.643zm-9.265 8.716h4.643v4.643h-4.643zm9.265 0h4.643v4.643h-4.643zm-9.265 8.715h4.643v4.643h-4.643zm9.265 0h4.643v4.643h-4.643zm-9.265 8.716h4.643v4.643h-4.643zm9.265 0h4.643v4.643h-4.643zm-9.265 8.715h4.643v4.643h-4.643zm9.265 0h4.643v4.643h-4.643zm-9.265 8.715h4.643v4.643h-4.643zm9.265 0h4.643v4.643h-4.643zm-9.265 8.716h4.643v4.643h-4.643zm9.265 0h4.643v4.643h-4.643zm-9.265 8.715h4.643v4.643h-4.643zm9.265 0h4.643v4.643h-4.643zm-9.265 8.716h4.643v4.643h-4.643zm9.265 0h4.643v4.643h-4.643zm-9.265 8.715h4.643v4.643h-4.643zm9.265 0h4.643v4.643h-4.643zm-9.265 8.715h4.643v4.643h-4.643zm9.265 0h4.643v4.643h-4.643zm-9.265 8.716h4.643v4.643h-4.643zm9.265 0h4.643v4.643h-4.643zm-9.265 8.715h4.643v4.643h-4.643zm9.265 0h4.643v4.643h-4.643zm-9.265 8.716h4.643v4.643h-4.643zm9.265 0h4.643v4.643h-4.643zm-9.265 8.715h4.643v4.643h-4.643zm9.265 0h4.643v4.643h-4.643zm-9.265 8.716h4.643v4.643h-4.643zm9.265 0h4.643v4.643h-4.643zm-9.265 8.715h4.643v4.643h-4.643zm9.265 0h4.643v4.643h-4.643zm-9.265 8.715h4.643v4.643h-4.643zm9.265 0h4.643v4.643h-4.643zm-9.265 8.716h4.643v4.643h-4.643zm9.265 0h4.643v4.643h-4.643zm-9.265-318.358h18.792v31.332h-18.792z"/><path d="M1355.734 294.92h14.149v5.539h-14.149zm19.579-19.984l-5.43-5.43v-42.192h5.43zM192.915 628.061s14.005-97.514 15.406-203.518-41.187-204.339-59.873-186.885c-31.862 29.761-18.795 367.294-18.795 390.403z"/><g class="C"><path d="M153 235.636s64.724 52.441 25.858 392.425M153 235.636s49.375 52.789 18.829 392.425M153 235.636s36.4 41.573 11.8 392.425M153 235.636s17.322 48.933 4.775 392.425"/><path d="M153.001 235.636s-30.321 24.737-16.316 392.425m16.314-392.425s-15.221 29.781-9.281 392.425m9.281-392.425l-2.256 392.425m19.146-362.21h8.329m-3.26 15.574h9.721m-5.757 15.573h11.082m-7.923 15.574h12.405m-9.877 15.574h13.649m-11.636 15.573h14.775m-13.198 15.574h15.743m-14.539 15.573h16.508M190.28 390.44h17.029m-16.475 15.574h17.293m-16.844 15.573h17.492m-17.492 15.574h16.844m-16.97 15.573h16.504m-16.827 15.574h16.232m-16.738 15.574h15.988m-16.662 15.573h15.769m-16.658 15.574h15.626m-16.549 15.574h15.384m-16.502 15.573h15.207m-16.455 15.574h15.033m-16.405 15.573h15.068m-16.556 15.574h14.661m-16.26 15.574h14.439m-16.142 15.573h14.155"/></g><path d="M254.171 373.834h34.051V627.88h-34.051z"/><path d="M261.214 382.837h19.964v5.895h-19.964zm0 13.516h19.964v24.209h-19.964z"/><g class="C"><path d="M261.214 420.562h19.964m-19.964 9.431h19.964m-19.964 9.432h19.964m-19.964 9.431h19.964m-19.964 9.431h19.964m-19.964 9.431h19.964m-19.964 9.431h19.964m-19.964 9.432h19.964m-19.964 9.431h19.964m-19.964 9.431h19.964m-19.964 9.431h19.964m-19.964 9.432h19.964m-19.964 9.431h19.964m-19.964 9.431h19.964m-19.964 9.431h19.964m-19.964 9.432h19.964m-19.964 9.431h19.964m-19.964 9.431h19.964m-19.964 9.431h19.964m-19.964 9.432h19.964m-19.964 9.431h19.964m-19.964 9.431h19.964"/></g><path d="M352.097 382.837h19.964v5.895h-19.964zm0 13.516h19.964v24.209h-19.964z"/><g class="C"><path d="M352.097 420.562h19.964m-19.964 9.431h19.964m-19.964 9.432h19.964m-19.964 9.431h19.964m-19.964 9.431h19.964m-19.964 9.431h19.964m-19.964 9.431h19.964m-19.964 9.432h19.964m-19.964 9.431h19.964m-19.964 9.431h19.964m-19.964 9.431h19.964m-19.964 9.432h19.964m-19.964 9.431h19.964m-19.964 9.431h19.964m-19.964 9.431h19.964m-19.964 9.432h19.964m-19.964 9.431h19.964m-19.964 9.431h19.964m-19.964 9.431h19.964m-19.964 9.432h19.964m-19.964 9.431h19.964m-19.964 9.431h19.964"/></g><path d="M345.054 373.834h34.051V627.88h-34.051z"/><path d="M288.222 556.951h56.832v70.929h-56.832zm0-60.939h56.832v47.156h-56.832z"/><path d="M288.222 439.18h56.832v56.832h-56.832z"/><path d="M288.222 373.834h56.832v65.345h-56.832z"/><g class="C"><path d="M306.51 373.834v21.006m6.752-21.006v21.006m6.752-21.006v21.006m6.752-21.006v21.006m-13.504-59.481v38.475m6.752-38.475v38.475"/></g><path d="M306.51 335.359h20.256v38.475H306.51z"/><path d="M326.766 343.719h18.288v30.116h-18.288zm-38.544 0h18.288v30.116h-18.288z"/><g class="C"><path d="M180.565 651.575H536.05m299.718 0h211.518m-454.363 32.218h327.599M315.13 710.642h171.946m523.953 0h333.312m-1232.83-514.07a4.85 4.85 0 1 0-4.85 4.85h14.05m123.732-80.075a4.85 4.85 0 0 0-4.849-4.849 4.85 4.85 0 0 0-4.849 4.848 4.85 4.85 0 0 0 4.848 4.85h14.051m234.283 101.119a4.85 4.85 0 0 0-4.849-4.849 4.85 4.85 0 0 0-4.849 4.848 4.85 4.85 0 0 0 4.848 4.85h14.05"/><use xlink:href="#E"/><path d="M849.087 303.819a4.85 4.85 0 0 0-4.849-4.849 4.85 4.85 0 0 0-4.849 4.848 4.85 4.85 0 0 0 4.848 4.85h14.049m112.421-150.884a4.85 4.85 0 1 0-4.85 4.849h14.05"/><use xlink:href="#F"/><path d="M1250.288 361.023a4.85 4.85 0 0 0-4.849-4.848 4.85 4.85 0 0 0-4.849 4.849 4.85 4.85 0 0 0 4.848 4.849h14.051m24.925-237.33a4.85 4.85 0 0 0-4.85-4.848 4.85 4.85 0 0 0-4.848 4.85 4.85 4.85 0 0 0 4.85 4.848h14.049m138.412 78.95a4.85 4.85 0 0 0-4.85-4.848 4.85 4.85 0 0 0-4.848 4.849 4.85 4.85 0 0 0 4.849 4.849h14.05"/></g><use xlink:href="#G"/><use xlink:href="#G"/><use xlink:href="#H"/><use xlink:href="#H"/><use xlink:href="#I"/><use xlink:href="#I"/><use xlink:href="#J"/><use xlink:href="#J"/><path d="M759.472 219.984a2.75 2.75 0 0 1-2.749 2.749 2.75 2.75 0 0 1-2.749-2.748 2.75 2.75 0 0 1 4.692-1.945 2.75 2.75 0 0 1 .806 1.944z"/><path d="M759.472 219.984a2.75 2.75 0 0 1-2.749 2.749 2.75 2.75 0 0 1-2.749-2.748 2.75 2.75 0 0 1 4.692-1.945 2.75 2.75 0 0 1 .806 1.944z"/><use xlink:href="#K"/><use xlink:href="#K"/><use xlink:href="#L"/><use xlink:href="#L"/><use xlink:href="#M"/><use xlink:href="#M"/><use xlink:href="#N"/><use xlink:href="#N"/><circle cx="1196.911" cy="136.141" r="2.749"/><circle cx="1196.911" cy="136.141" r="2.749"/><circle cx="1379.113" cy="119.267" r="2.749"/><circle cx="1379.113" cy="119.267" r="2.749"/><use xlink:href="#O"/><use xlink:href="#O"/></g></g><g fill="#3d5184" class="B D"><path d="M289.487 237.896c-2.6 0-2.608 4.046 0 4.046s2.608-4.046 0-4.046z"/><use xlink:href="#P"/><path d="M457.458 126.52c-2.6 0-2.608 4.046 0 4.046s2.608-4.046 0-4.046zm304.611-7.252c-2.6 0-2.607 4.046 0 4.046s2.608-4.046 0-4.046zm127.694 93.075c-2.6 0-2.607 4.046 0 4.046s2.606-4.046 0-4.046zm140.655-99.119c-2.6 0-2.608 4.046 0 4.046s2.613-4.046 0-4.046zm59.559 448.568c-2.6 0-2.609 4.046 0 4.046s2.607-4.046 0-4.046zm194.188-341.809c-2.6 0-2.607 4.046 0 4.046s2.609-4.046 0-4.046zm158.732 104.272c-2.6 0-2.607 4.046 0 4.046s2.609-4.046 0-4.046zm-18.615 230.673c-2.6 0-2.607 4.046 0 4.046s2.609-4.046 0-4.046zm-642.873 11.587c-2.6 0-2.607 4.046 0 4.046s2.609-4.046 0-4.046zM407.001 425.724c-2.6 0-2.607 4.046 0 4.046s2.609-4.046 0-4.046zM226.212 572.51c-2.6 0-2.608 4.046 0 4.046s2.607-4.046 0-4.046zm347.26-219.937c-2.6 0-2.608 4.046 0 4.046s2.608-4.046 0-4.046zm284.814 42.262c-2.6 0-2.607 4.046 0 4.046s2.609-4.046 0-4.046z"/></g></g></svg>