<svg xmlns="http://www.w3.org/2000/svg" width="20" height="17" viewBox="2 4 20 17"><path d="M21.546 21H2.455A.465.465 0 0 1 2 20.527v-.944c0-.26.204-.472.455-.472h3.181V4.944c0-.52.408-.944.91-.944h10.909c.5 0 .909.424.909.944v14.167h3.182c.25 0 .454.212.454.472v.944c0 .261-.204.473-.454.473ZM7.909 17.223a.464.464 0 0 0-.454.471v1.417h9.09v-1.417a.464.464 0 0 0-.454-.471H7.909Zm7.273-3.779a.464.464 0 0 0-.454.473v.944c0 .26.203.472.454.472h.909c.25 0 .455-.212.455-.472v-.944a.465.465 0 0 0-.455-.473h-.91Zm-3.636 0a.465.465 0 0 0-.455.473v.944c0 .26.204.472.455.472h.909c.25 0 .454-.212.454-.472v-.944a.464.464 0 0 0-.454-.473h-.91Zm-3.637 0a.464.464 0 0 0-.454.473v.944c0 .26.204.472.454.472h.909c.25 0 .455-.212.455-.472v-.944a.465.465 0 0 0-.455-.473h-.91Zm7.273-3.777a.464.464 0 0 0-.454.472v.944c0 .26.203.473.454.473h.909c.25 0 .455-.212.455-.473v-.944a.464.464 0 0 0-.455-.472h-.91Zm-3.636 0a.464.464 0 0 0-.455.472v.944c0 .26.204.473.455.473h.909c.25 0 .454-.212.454-.473v-.944a.464.464 0 0 0-.454-.472h-.91Zm-3.637 0a.464.464 0 0 0-.454.472v.944c0 .26.204.473.454.473h.909c.25 0 .455-.212.455-.473v-.944a.464.464 0 0 0-.455-.472h-.91Zm7.273-3.778a.464.464 0 0 0-.454.472v.945c0 .26.203.471.454.471h.909c.25 0 .455-.211.455-.471V6.36a.465.465 0 0 0-.455-.472h-.91Zm-3.636 0a.465.465 0 0 0-.455.472v.945c0 .26.204.471.455.471h.909c.25 0 .454-.211.454-.471V6.36a.464.464 0 0 0-.454-.472h-.91Zm-3.637 0a.464.464 0 0 0-.454.472v.945c0 .26.204.471.454.471h.909c.25 0 .455-.211.455-.471V6.36a.465.465 0 0 0-.455-.472h-.91Z" fill="#242424" fill-rule="evenodd" data-name="Icon color"/></svg>