<svg id="call" xmlns="http://www.w3.org/2000/svg" width="32" height="32" viewBox="0 0 32 32">
  <rect id="Bounding_box" data-name="Bounding box" width="32" height="32" fill="rgba(255,255,255,0)"/>
  <path id="Icon_color" data-name="Icon color" d="M18.387,23.643a13.226,13.226,0,0,1-6.225-1.563l-.591-.328a23.641,23.641,0,0,1-9.627-9.627l-.328-.591A13.226,13.226,0,0,1,0,5.256v-.88A2.627,2.627,0,0,1,.775,2.511L2.995.291a.985.985,0,0,1,1.55.2L7.5,5.558a1.313,1.313,0,0,1-.21,1.589L4.807,9.629a.657.657,0,0,0-.118.775l.46.867a17.77,17.77,0,0,0,7.224,7.211l.867.473a.657.657,0,0,0,.775-.118L16.5,16.354a1.313,1.313,0,0,1,1.589-.21l5.07,2.955a.985.985,0,0,1,.2,1.55l-2.22,2.22a2.627,2.627,0,0,1-1.865.775Z" transform="translate(3.94 3.938)" fill="#fff"/>
</svg>
