<svg id="checkmark_circle" xmlns="http://www.w3.org/2000/svg" width="42" height="42" viewBox="0 0 42 42">
  <rect id="Bounding_box" data-name="Bounding box" width="42" height="42" fill="rgba(255,255,255,0)"/>
  <path id="Icon_color" data-name="Icon color" d="M16,32A16,16,0,1,1,32,16,16.018,16.018,0,0,1,16,32ZM10.449,15.374a.769.769,0,0,0-.56.242l-.848.848a.8.8,0,0,0,0,1.136l3.807,3.76a.766.766,0,0,0,1.12,0l8.991-8.991a.8.8,0,0,0,0-1.1l-.847-.848a.8.8,0,0,0-1.12,0L13.408,18l-2.4-2.385A.767.767,0,0,0,10.449,15.374Z" transform="translate(5 5)" fill="#2dbf33"/>
</svg>
