<?xml version="1.0" encoding="UTF-8" standalone="no"?>
<svg
   width="20"
   height="16"
   viewBox="0 0 20 16"
   version="1.1"
   id="svg3"
   sodipodi:docname="email-white.svg"
   inkscape:version="1.2.2 (b0a8486541, 2022-12-01)"
   xmlns:inkscape="http://www.inkscape.org/namespaces/inkscape"
   xmlns:sodipodi="http://sodipodi.sourceforge.net/DTD/sodipodi-0.dtd"
   xmlns="http://www.w3.org/2000/svg"
   xmlns:svg="http://www.w3.org/2000/svg">
  <defs
     id="defs7" />
  <sodipodi:namedview
     id="namedview5"
     pagecolor="#ffffff"
     bordercolor="#000000"
     borderopacity="0.25"
     inkscape:showpageshadow="2"
     inkscape:pageopacity="0.0"
     inkscape:pagecheckerboard="0"
     inkscape:deskcolor="#d1d1d1"
     showgrid="false"
     inkscape:zoom="46.4375"
     inkscape:cx="10.002692"
     inkscape:cy="8"
     inkscape:window-width="1920"
     inkscape:window-height="1008"
     inkscape:window-x="0"
     inkscape:window-y="0"
     inkscape:window-maximized="1"
     inkscape:current-layer="svg3" />
  <path
     id="Icon_color"
     data-name="Icon color"
     d="M18,16H2a2,2,0,0,1-2-2V2A2,2,0,0,1,2,0H18a2,2,0,0,1,2,2V14A2,2,0,0,1,18,16ZM2,7v7H18V7l-6.35,4.44a2.878,2.878,0,0,1-3.3,0ZM2,2V4.9L9.35,10.05a1.14,1.14,0,0,0,1.3,0L18,4.9V2Z"
     fill="#9c9eae" />
  <path
     style="fill:#ffffff;stroke:#241f1c;stroke-width:0.0215343"
     d="M 1.6821182,15.964935 C 1.5115449,15.936608 1.1926226,15.824996 1.0420267,15.740925 0.66435829,15.530087 0.37864426,15.219356 0.19464332,14.819344 0.08849475,14.588581 0.04580871,14.424725 0.02144705,14.154507 c -0.02662624,-0.295336 -0.02662624,-12.0136778 0,-12.3090144 C 0.04580871,1.5752749 0.08849475,1.4114188 0.19464332,1.1806557 0.44604012,0.63412815 0.88267947,0.26044899 1.4830781,0.07800367 L 1.6689098,0.02153432 9.9231619,0.01595841 c 8.0070851,-0.0054089 8.2601881,-0.0043631 8.4525081,0.03492515 0.748863,0.15298276 1.314575,0.67468278 1.548423,1.42795654 l 0.04898,0.1577682 0.0056,6.2835752 c 0.0055,6.0806675 0.0043,6.2899845 -0.03491,6.4820465 -0.139006,0.680445 -0.643155,1.25133 -1.306637,1.479601 -0.331254,0.113969 0.193743,0.107605 -8.6530068,0.104884 -4.699761,-0.0014 -8.2354477,-0.01072 -8.302044,-0.02178 z M 18.002692,10.496515 V 6.9849542 l -0.05922,0.041507 c -0.811655,0.5688893 -6.255778,4.3715208 -6.347241,4.4334448 -0.310946,0.210525 -0.745635,0.383031 -1.136504,0.451022 -0.298579,0.05194 -0.834214,0.03142 -1.1309862,-0.04333 C 9.0643045,11.800997 8.7880101,11.690694 8.5814266,11.569254 8.4985195,11.520517 6.9848904,10.469772 5.2178063,9.2342643 3.4507224,7.9987568 1.9995784,6.9878869 1.9930419,6.9878869 c -0.00654,0 -0.011884,1.5795424 -0.011884,3.5100941 v 3.510094 h 8.0107671 8.010767 z m -7.722756,-0.269411 c 0.07445,-0.0187 0.199216,-0.06958 0.277268,-0.113056 0.07805,-0.04348 1.785218,-1.2313898 3.793701,-2.6397994 L 18.002692,4.9135037 V 3.4527143 1.9919246 H 9.9917741 1.9808565 l 0.00553,1.4583143 0.00553,1.4583145 3.693136,2.5886252 C 7.7162853,8.9209225 9.4286432,10.1108 9.4903001,10.14135 9.731343,10.260784 10.020737,10.292212 10.279936,10.2271 Z"
     id="path305" />
</svg>
