<svg xmlns="http://www.w3.org/2000/svg" width="22.001" height="16" viewBox="0 0 22.001 16">
  <g id="visible_outlined" transform="translate(0.001)">
    <path id="Icon_color" data-name="Icon color" d="M11.061,15h-.129a11.876,11.876,0,0,1-6.56-1.959A11.432,11.432,0,0,1,.066,7.833.84.84,0,0,1,0,7.5a1.029,1.029,0,0,1,.066-.353A11.436,11.436,0,0,1,4.375,1.954,11.882,11.882,0,0,1,10.925,0h.191a11.875,11.875,0,0,1,6.564,1.963,11.427,11.427,0,0,1,4.307,5.216.971.971,0,0,1,0,.321.841.841,0,0,1-.066.354,11.432,11.432,0,0,1-4.308,5.193A11.877,11.877,0,0,1,11.061,15ZM10.993,2.145A9.834,9.834,0,0,0,5.841,3.6,9.48,9.48,0,0,0,2.276,7.5a9.531,9.531,0,0,0,3.568,3.9,9.834,9.834,0,0,0,10.3,0,9.518,9.518,0,0,0,3.568-3.9,9.495,9.495,0,0,0-3.566-3.9A9.834,9.834,0,0,0,10.993,2.145Zm0,8.569A3.261,3.261,0,0,1,7.7,7.5a3.3,3.3,0,0,1,6.6,0A3.261,3.261,0,0,1,10.993,10.715Z" transform="translate(-0.001 0)" fill="#ececec"/>
  </g>
</svg>
