<svg xmlns="http://www.w3.org/2000/svg" width="19" height="14" viewBox="0 0 19 14">
  <g id="visible_outlined" transform="translate(0 0)">
    <path id="Icon_color" data-name="Icon color" d="M9.553,13H9.442a10.231,10.231,0,0,1-5.665-1.7A9.9,9.9,0,0,1,.057,6.788.73.73,0,0,1,0,6.5a.9.9,0,0,1,.057-.306,9.9,9.9,0,0,1,3.721-4.5A10.236,10.236,0,0,1,9.435,0H9.6a10.23,10.23,0,0,1,5.669,1.7,9.9,9.9,0,0,1,3.72,4.52.845.845,0,0,1,0,.278.731.731,0,0,1-.057.307,9.9,9.9,0,0,1-3.721,4.5A10.232,10.232,0,0,1,9.553,13ZM9.494,1.859A8.471,8.471,0,0,0,5.044,3.116,8.206,8.206,0,0,0,1.966,6.5,8.25,8.25,0,0,0,5.047,9.881a8.467,8.467,0,0,0,8.894,0A8.239,8.239,0,0,0,17.023,6.5a8.218,8.218,0,0,0-3.08-3.384A8.471,8.471,0,0,0,9.494,1.859Zm0,7.427A2.821,2.821,0,0,1,6.646,6.5a2.849,2.849,0,0,1,5.7,0A2.821,2.821,0,0,1,9.494,9.286Z" transform="translate(0 0)" fill="#9b9b9b"/>
  </g>
</svg>
