<svg xmlns="http://www.w3.org/2000/svg" width="10.732" height="19.318" viewBox="0 0 10.732 19.318">
  <path id="Icon_color" data-name="Icon color" d="M10.2,3.22H6.976A1.073,1.073,0,0,0,5.9,4.293v3.22H10.2a.376.376,0,0,1,.365.494l-.794,2.361a.537.537,0,0,1-.5.365H5.9v8.049a.537.537,0,0,1-.537.537H2.683a.537.537,0,0,1-.537-.537V10.732H.537A.537.537,0,0,1,0,10.2V8.049a.537.537,0,0,1,.537-.537h1.61V4.293A4.293,4.293,0,0,1,6.439,0H10.2a.537.537,0,0,1,.537.537V2.683A.537.537,0,0,1,10.2,3.22Z" fill="#656565"/>
</svg>
