<svg id="filter_outlined" xmlns="http://www.w3.org/2000/svg" width="24" height="24" viewBox="0 0 24 24">
  <rect id="Bounding_box" data-name="Bounding box" width="24" height="24" fill="rgba(255,255,255,0)"/>
  <path id="Icon_color" data-name="Icon color" d="M6.667,16a.447.447,0,0,1-.2-.047.442.442,0,0,1-.246-.4V9.626A1.789,1.789,0,0,0,5.7,8.365L.525,3.191A1.793,1.793,0,0,1,0,1.929V.889A.89.89,0,0,1,.889,0H15.111A.89.89,0,0,1,16,.889v1.04a1.793,1.793,0,0,1-.525,1.262L10.3,8.365a1.789,1.789,0,0,0-.525,1.262v3.262a1.786,1.786,0,0,1-.711,1.422l-2.133,1.6A.443.443,0,0,1,6.667,16ZM1.778,1.778v.151L4.294,4.445h7.413l2.516-2.516V1.778Z" transform="translate(4 4)" fill="rgba(36, 36, 36, 1)"/>
</svg>
