<svg xmlns="http://www.w3.org/2000/svg" width="25.847" height="25.849" viewBox="0 0 25.847 25.849">
  <g id="global" transform="translate(0.1 0.1)">
    <g id="Group_14248" data-name="Group 14248" transform="translate(0 0)">
      <path id="Path_62322" data-name="Path 62322" d="M23.293,5.42a.214.214,0,0,0,0-.025c-.032-.046-.071-.085-.1-.13q-.359-.489-.76-.942c-.073-.082-.147-.164-.222-.245q-.413-.443-.867-.844c-.056-.05-.108-.1-.164-.149a12.842,12.842,0,0,0-2.432-1.642c-.035-.018-.071-.034-.107-.052A12.743,12.743,0,0,0,17.442.861C17.351.828,17.267.8,17.18.769q-.542-.2-1.1-.342c-.11-.029-.22-.06-.332-.085-.367-.085-.733-.15-1.108-.2C14.528.122,14.416.1,14.3.086a12.046,12.046,0,0,0-2.906,0c-.115.014-.226.036-.34.052-.375.053-.745.118-1.108.2C9.835.368,9.725.4,9.615.427q-.562.147-1.1.342C8.424.8,8.341.831,8.254.861a12.735,12.735,0,0,0-1.191.531c-.036.018-.072.034-.107.052a12.845,12.845,0,0,0-2.44,1.642c-.056.049-.108.1-.164.149a11.917,11.917,0,0,0-.867.844c-.075.081-.148.162-.222.245q-.4.452-.76.942c-.033.045-.072.084-.1.13a.208.208,0,0,0-.011.025,12.745,12.745,0,0,0,0,14.805.2.2,0,0,0,.011.025c.032.046.071.085.1.13q.358.489.76.942c.073.082.147.164.222.245q.414.443.867.844c.056.049.108.1.164.149A12.842,12.842,0,0,0,6.947,24.2c.035.018.071.034.107.052a12.745,12.745,0,0,0,1.191.531c.092.033.175.064.262.092q.541.2,1.1.342c.11.029.22.06.332.085.367.085.733.15,1.108.2.114.016.225.038.34.052a12.046,12.046,0,0,0,2.906,0c.115-.014.226-.036.34-.052.375-.053.745-.118,1.108-.2.112-.026.222-.056.332-.085q.563-.147,1.1-.342c.092-.031.175-.062.262-.092a12.737,12.737,0,0,0,1.191-.531c.036-.018.072-.034.107-.052a12.844,12.844,0,0,0,2.432-1.642c.056-.049.108-.1.164-.149a11.666,11.666,0,0,0,.867-.844c.075-.081.148-.162.222-.245q.4-.453.76-.942c.033-.045.072-.084.1-.13a.208.208,0,0,0,.011-.025A12.744,12.744,0,0,0,23.293,5.42ZM22.247,7.154a10.9,10.9,0,0,1,1.546,4.753H18.3a17.1,17.1,0,0,0-.513-3.234A16.465,16.465,0,0,0,22.247,7.154ZM15.175,2.08c.051.012.1.028.152.04A9.86,9.86,0,0,1,16.3,2.4c.049.016.1.036.144.053q.473.165.93.367c.053.025.105.052.159.077q.437.208.854.45l.183.111q.4.242.77.518c.064.047.128.092.192.143a8.36,8.36,0,0,1,.7.589c.059.053.119.105.177.16.235.223.458.458.674.7.027.032.057.061.084.092a15.37,15.37,0,0,1-3.908,1.255,23.3,23.3,0,0,0-2.467-4.895C14.92,2.04,15.05,2.053,15.175,2.08ZM9.212,11.906a15.288,15.288,0,0,1,.5-2.932,26.256,26.256,0,0,0,3.128.183,26.316,26.316,0,0,0,3.131-.188,15.26,15.26,0,0,1,.5,2.937Zm7.264,1.833a15.288,15.288,0,0,1-.5,2.932,26.818,26.818,0,0,0-6.259,0,15.264,15.264,0,0,1-.5-2.932ZM12.844,2.425A22.13,22.13,0,0,1,15.4,7.189a24.251,24.251,0,0,1-2.554.136,24.435,24.435,0,0,1-2.551-.137A22.3,22.3,0,0,1,12.844,2.425ZM4.607,5.564c.215-.244.44-.479.674-.7.058-.055.118-.107.177-.16q.339-.309.7-.589c.063-.049.127-.092.192-.143q.374-.275.77-.518L7.3,3.341q.417-.244.854-.45c.053-.025.105-.052.159-.077q.456-.206.93-.367c.048-.017.092-.037.144-.053.318-.106.641-.194.971-.275.051-.012.1-.028.153-.039.126-.027.256-.04.383-.063a23.3,23.3,0,0,0-2.468,4.9A15.369,15.369,0,0,1,4.523,5.657C4.55,5.625,4.58,5.6,4.607,5.564ZM3.442,7.154A16.462,16.462,0,0,0,7.9,8.673a17.1,17.1,0,0,0-.512,3.234H1.9A10.9,10.9,0,0,1,3.442,7.154Zm0,11.338A10.9,10.9,0,0,1,1.9,13.739H7.384A17.1,17.1,0,0,0,7.9,16.972,16.462,16.462,0,0,0,3.442,18.492Zm7.072,5.073c-.051-.012-.1-.028-.152-.04a9.861,9.861,0,0,1-.971-.275c-.049-.016-.1-.036-.144-.053q-.473-.165-.93-.367c-.053-.025-.105-.052-.159-.077q-.437-.208-.854-.45l-.183-.111q-.4-.242-.77-.518c-.064-.047-.128-.092-.192-.143a8.36,8.36,0,0,1-.7-.589c-.059-.053-.119-.105-.177-.16-.235-.223-.458-.458-.674-.7-.027-.032-.057-.061-.084-.092A15.369,15.369,0,0,1,8.43,18.733,23.3,23.3,0,0,0,10.9,23.628C10.769,23.605,10.639,23.593,10.513,23.565Zm2.331-.345a22.131,22.131,0,0,1-2.554-4.765,23.854,23.854,0,0,1,5.105,0h0A22.3,22.3,0,0,1,12.844,23.221Zm8.237-3.139c-.215.244-.44.479-.674.7-.058.055-.118.107-.177.16q-.339.31-.7.589c-.063.049-.127.1-.192.143q-.374.275-.77.518l-.183.111q-.416.243-.854.45c-.053.025-.105.052-.159.077q-.456.206-.93.367c-.048.017-.092.037-.144.053-.318.106-.641.194-.971.275-.051.012-.1.028-.153.039-.126.027-.256.04-.383.063a23.3,23.3,0,0,0,2.467-4.895,15.369,15.369,0,0,1,3.908,1.255C21.139,20.02,21.109,20.049,21.082,20.081Zm1.166-1.59a16.462,16.462,0,0,0-4.455-1.519,17.1,17.1,0,0,0,.512-3.234h5.488A10.9,10.9,0,0,1,22.247,18.492Z" transform="translate(-0.016 0.002)" fill="#656565" stroke="#656565" stroke-width="0.2"/>
    </g>
  </g>
</svg>
