<svg xmlns="http://www.w3.org/2000/svg" width="21" height="21" viewBox="0 0 21 21">
  <path id="Icon_color" data-name="Icon color" d="M15.166,21H5.834A5.84,5.84,0,0,1,0,15.166V5.834A5.84,5.84,0,0,1,5.834,0h9.332A5.84,5.84,0,0,1,21,5.834v9.332A5.84,5.84,0,0,1,15.166,21ZM5.834,2.041A3.816,3.816,0,0,0,2.041,5.834v9.332a3.816,3.816,0,0,0,3.793,3.793h9.332a3.816,3.816,0,0,0,3.793-3.793V5.834a3.816,3.816,0,0,0-3.793-3.793ZM10.5,15.75a5.25,5.25,0,0,1,0-10.5h.012a5.25,5.25,0,0,1-.012,10.5Zm0-8.459A3.209,3.209,0,1,0,13.709,10.5,3.212,3.212,0,0,0,10.5,7.291Zm5.542-1.167a1.167,1.167,0,1,1,1.167-1.167A1.168,1.168,0,0,1,16.042,6.125Z" fill="#656565"/>
</svg>
