<svg xmlns="http://www.w3.org/2000/svg" width="18" height="18" viewBox="0 0 18 18">
  <path id="Icon_color" data-name="Icon color" d="M13,18H5a5.006,5.006,0,0,1-5-5V5A5.006,5.006,0,0,1,5,0h8a5.006,5.006,0,0,1,5,5v8A5.006,5.006,0,0,1,13,18ZM5,1.75A3.271,3.271,0,0,0,1.75,5v8A3.271,3.271,0,0,0,5,16.25h8A3.271,3.271,0,0,0,16.25,13V5A3.271,3.271,0,0,0,13,1.75ZM9,13.5a4.5,4.5,0,0,1,0-9h.01a4.5,4.5,0,0,1-.01,9ZM9,6.25A2.75,2.75,0,1,0,11.75,9,2.754,2.754,0,0,0,9,6.25Zm4.75-1a1,1,0,1,1,1-1A1,1,0,0,1,13.75,5.25Z" fill="#ececec"/>
</svg>
