<svg id="instagram" xmlns="http://www.w3.org/2000/svg" width="21.52" height="21.52" viewBox="0 0 21.52 21.52">
  <path id="Path_62138" data-name="Path 62138" d="M15.694,0H5.824A5.832,5.832,0,0,0,0,5.825v9.869A5.832,5.832,0,0,0,5.824,21.52h9.869a5.832,5.832,0,0,0,5.825-5.825V5.825A5.832,5.832,0,0,0,15.693,0ZM10.759,16.644a5.884,5.884,0,1,1,5.884-5.884A5.891,5.891,0,0,1,10.759,16.644ZM16.784,6.263a1.739,1.739,0,1,1,1.739-1.739A1.741,1.741,0,0,1,16.784,6.263Zm0,0" transform="translate(0.001 0)" fill="#9c9eae"/>
  <path id="Path_62139" data-name="Path 62139" d="M150.643,146.02a4.623,4.623,0,1,0,4.623,4.623A4.628,4.628,0,0,0,150.643,146.02Zm0,0" transform="translate(-139.883 -139.883)" fill="#9c9eae"/>
  <path id="Path_62140" data-name="Path 62140" d="M388.47,96.3a.477.477,0,1,0,.477.477A.478.478,0,0,0,388.47,96.3Zm0,0" transform="translate(-371.685 -92.253)" fill="#9c9eae"/>
</svg>
