<svg id="Layer_2" data-name="Layer 2" xmlns="http://www.w3.org/2000/svg" xmlns:xlink="http://www.w3.org/1999/xlink" viewBox="0 0 1443.96 450"><defs><style>.cls-1{fill:#6598cb;}.cls-2{fill:#111;}.cls-3{clip-path:url(#clip-path);}.cls-4{fill:#050505;}.cls-5{fill:#fcfdff;}.cls-6{fill:#fff;}.cls-7{fill:#dbbaa5;}.cls-8{fill:#333;}.cls-9{fill:#d5d4d4;}.cls-10{fill:#dbbaa4;}.cls-11{fill:#dab8a2;}.cls-12{fill:#d6ae96;}.cls-13{fill:#d7b199;}.cls-14{fill:#d0a991;}.cls-15{fill:#e4e4e3;}.cls-16{fill:#640a34;}</style><clipPath id="clip-path"><rect class="cls-1" x="24.66" y="20.71" width="410.33" height="410.33" rx="50"/></clipPath></defs><title>Artboard 1 copy 6</title><path class="cls-2" d="M630.05,116V231.85q0,14.79-5.71,26a55.9,55.9,0,0,1-15,18.55,64,64,0,0,1-21.15,11.09,81.81,81.81,0,0,1-48.65,0,64.06,64.06,0,0,1-21.14-11.09A55.13,55.13,0,0,1,503.5,257.8q-5.64-11.16-5.65-26v-94h33.22v94a22.68,22.68,0,0,0,2.79,11.42,25.48,25.48,0,0,0,7.39,8.24,32.72,32.72,0,0,0,10.51,4.93,46.22,46.22,0,0,0,24.26,0,32.82,32.82,0,0,0,10.51-4.93,26.28,26.28,0,0,0,7.46-8.24,22.41,22.41,0,0,0,2.85-11.42V116Zm-82.9-29.32A16.67,16.67,0,0,1,552,74.81a17.55,17.55,0,0,1,5.32-3.63,16.45,16.45,0,0,1,13.1,0,17.36,17.36,0,0,1,8.95,8.95,16.45,16.45,0,0,1,0,13.1,17.55,17.55,0,0,1-3.63,5.32,16.73,16.73,0,0,1-28.61-11.87Z"/><path class="cls-2" d="M712.56,116v95.87h41.52v-142h33.08V211.87h24V245H657.29V211.87h22.19V116Z"/><path class="cls-2" d="M800.26,211.87H825a48.19,48.19,0,0,1-.52-4.93c-.09-1.64-.13-3.32-.13-5.06V175.29a58.43,58.43,0,0,1,4.54-23,60.32,60.32,0,0,1,12.46-18.88,59,59,0,0,1,18.42-12.78A55,55,0,0,1,882.38,116,53.51,53.51,0,0,1,905,120.87a60.73,60.73,0,0,1,18.56,13A61.36,61.36,0,0,1,936,152.78a57,57,0,0,1,4.54,22.51V202a47.19,47.19,0,0,1,0,5,30.49,30.49,0,0,1-.65,4.8H964.5V245H922.34a57.41,57.41,0,0,1-18,12.06,55.62,55.62,0,0,1-21.93,4.28q-24,0-40-16.34H800.26Zm82.12-62.66a23.19,23.19,0,0,0-9.73,2.08,26.33,26.33,0,0,0-8,5.58,25.4,25.4,0,0,0-5.38,8.24,26.44,26.44,0,0,0-1.95,10.18v26.59a26.91,26.91,0,0,0,1.95,10.25,25.29,25.29,0,0,0,5.38,8.31,26.48,26.48,0,0,0,8,5.57,23.8,23.8,0,0,0,19.46,0,25.35,25.35,0,0,0,8-5.7,27,27,0,0,0,5.38-8.31,25.63,25.63,0,0,0,1.95-10V175.29a25.76,25.76,0,0,0-1.95-9.92,26.82,26.82,0,0,0-5.38-8.37,25.38,25.38,0,0,0-8-5.71A23.19,23.19,0,0,0,882.38,149.21Z"/><path class="cls-2" d="M1083.59,116v95.87h9.73a10.24,10.24,0,0,0,7.27-2.78,9,9,0,0,0,3-6.82V116h33.22v86.27a40.67,40.67,0,0,1-3.44,16.61,43.21,43.21,0,0,1-9.34,13.56,44.51,44.51,0,0,1-13.82,9.14,42.57,42.57,0,0,1-16.87,3.38H953.6V211.87h43.85V116h33v95.87h20.11V116ZM1030.4,86.68a16.67,16.67,0,0,1,4.87-11.87,17.68,17.68,0,0,1,5.32-3.63,16.45,16.45,0,0,1,13.1,0,17.68,17.68,0,0,1,5.32,3.63,16.93,16.93,0,0,1,3.57,5.32,16.72,16.72,0,0,1-8.89,22,16.72,16.72,0,0,1-22-8.89A16.61,16.61,0,0,1,1030.4,86.68Zm19.72-32.43a15.82,15.82,0,0,1,1.37-6.55,17.32,17.32,0,0,1,3.63-5.32,17.68,17.68,0,0,1,5.32-3.63,15.81,15.81,0,0,1,6.55-1.36,15.36,15.36,0,0,1,6.48,1.36,17.91,17.91,0,0,1,5.26,3.63,16.81,16.81,0,0,1,3.57,5.32,16.8,16.8,0,0,1-8.83,22A16.13,16.13,0,0,1,1067,71a16.67,16.67,0,0,1-11.87-4.87,17.2,17.2,0,0,1-3.63-5.32A15.82,15.82,0,0,1,1050.12,54.25Zm20.11,32.43a15.85,15.85,0,0,1,1.37-6.55,17.36,17.36,0,0,1,9-8.95,15.81,15.81,0,0,1,6.55-1.36,15.47,15.47,0,0,1,6.49,1.36,18,18,0,0,1,5.25,3.63,16.93,16.93,0,0,1,3.57,5.32,16.81,16.81,0,0,1-8.82,22,16.08,16.08,0,0,1-6.49,1.3,16.67,16.67,0,0,1-11.87-4.87,17.2,17.2,0,0,1-3.63-5.32A15.82,15.82,0,0,1,1070.23,86.68Z"/><path class="cls-2" d="M1223.45,258.06H1265a26,26,0,0,0,13.23-3.37,22.24,22.24,0,0,0,9-9.73h-38.27a41.27,41.27,0,0,1-16.6-3.38,42.84,42.84,0,0,1-22.71-22.7,41.28,41.28,0,0,1-3.37-16.61v-26.2a59.36,59.36,0,0,1,4.61-23.35,60.65,60.65,0,0,1,12.58-19.07A59.74,59.74,0,0,1,1242,120.74a56.5,56.5,0,0,1,45.6.13,61,61,0,0,1,31.26,32,56.82,56.82,0,0,1,4.61,22.57v36.45h24V245H1322.3a56.88,56.88,0,0,1-7.59,18.16,61.94,61.94,0,0,1-13,14.66,60.41,60.41,0,0,1-17,9.79,55.25,55.25,0,0,1-19.78,3.57h-41.51Zm66.94-46.19V175.42a26.3,26.3,0,0,0-2-10,25.46,25.46,0,0,0-5.45-8.37,27,27,0,0,0-8.24-5.71,24.21,24.21,0,0,0-10-2.14,23.86,23.86,0,0,0-9.92,2.08,25.23,25.23,0,0,0-8,5.71,27.29,27.29,0,0,0-5.45,8.56,27.58,27.58,0,0,0-2,10.51v26.2a9.51,9.51,0,0,0,9.6,9.6Z"/><path class="cls-2" d="M1409.74,116v85.88a42.05,42.05,0,0,1-3.37,16.8,43,43,0,0,1-22.9,22.9A41.75,41.75,0,0,1,1366.8,245h-30.23V211.87h30.23a9.49,9.49,0,0,0,6.94-2.91,9.64,9.64,0,0,0,2.92-7.08V116Zm-33.6,158.15a16,16,0,0,1,1.3-6.49,16.78,16.78,0,0,1,3.57-5.26,17,17,0,0,1,18.42-3.56,16.73,16.73,0,0,1,5.32,3.56,17.13,17.13,0,0,1,3.57,5.26,16.17,16.17,0,0,1,1.29,6.49,16.68,16.68,0,0,1-1.29,6.55,16.93,16.93,0,0,1-3.57,5.32,17.8,17.8,0,0,1-5.32,3.63,16.45,16.45,0,0,1-13.1,0A17.55,17.55,0,0,1,1381,286a16.67,16.67,0,0,1-4.87-11.87Z"/><rect class="cls-1" x="24.66" y="20.71" width="410.33" height="410.33" rx="50"/><g class="cls-3"><path class="cls-4" d="M328.56,127.3c-.14-1.62-.82-2-2.24-2a100.81,100.81,0,0,0-23.25,2.09c-22.68,4.37-44.35,11.94-65.66,20.65a7.93,7.93,0,0,1-6.52,0c-22.11-9.07-44.61-16.89-68.22-21.13A87.2,87.2,0,0,0,140,125.45c-.76.06-1.66-.12-1.79,1.1-.24,2.31-.55,4.62-.85,7.07,2.32-1.23,2.3-1.18,4.57-.05,1.24.62,2.48,1.41,4,1.09,2.25.34,4.51.65,6.76,1,9.29,1.58,18.09,4.93,26.93,8,10,3.49,19.86,7.66,30.43,9.38,3.41.55,6.5,2,9.78,2.94l.72.37c2.48,1.18,2.67,2,.92,4a12.44,12.44,0,0,0-2.18,3.36c-2.89,7.07-5.7,14.17-8.73,21.17a24.1,24.1,0,0,1-4.28,7.25c-3.86,4.06-7.66,8.19-12.75,10.81l-.77.07a3.52,3.52,0,0,0-2.08.63l-.74.14c-.39,0-.79.06-1.17.14-3.72.74-7.3,2.38-11.23,1.64-2.23-.42-4.47-.88-6.71-1.24-3.71-.6-7.44-.93-11-2.19-5.3-1.84-10.31-4.1-13.25-9.21a86.86,86.86,0,0,1-9.91-23.87c.26-1.62.21-3.11-2-4V172a53.15,53.15,0,0,0-.09,7.25,72.55,72.55,0,0,0,0,11.7,44.76,44.76,0,0,0,.19,7.68,6.65,6.65,0,0,0,.21,2.84c0,1.73-.11,3.49.08,5.2,1.38,12,3.28,23.87,3.21,36-.1,7.33-1.69,14.66.07,22.54a82.62,82.62,0,0,1,6.41-12c.83-1,1.65-2.11,2.47-3.17l2.23-2.56c.8-1.27,2.11-2,3.2-2.94a89.37,89.37,0,0,1,16.87-11.65c8.43-4.55,17.65-6.74,26.89-8.8,1.31-.29,1.73-.78,2-2.15a19.38,19.38,0,0,1,9.26-13l.83,0,1.08.65c.61,1.5,0,2.58-1.15,3.52a22.16,22.16,0,0,0-5.09,6.46c-2.83,5,.84,7.52,4.47,7.76,1.38.09,2.65.07,1.8-2a1.76,1.76,0,0,1,1.16-2.44,2,2,0,0,1,2.49,1.18,8.61,8.61,0,0,1,1,2.4c.61,3.49,3.32,4.63,6.14,5.66.69.25,1.43.36,2.14.57,5.88,1.75,11.78,2.09,17.58-.19,4.13-1.62,8.15-3.5,8.4-8.88a1.06,1.06,0,0,1,.58-1,8,8,0,0,1,.77,3.84c-.2,2.55,1.39,3.58,3.8,2.47a18,18,0,0,0,3.25-2.36c3.62-2.79,3.76-6.05.39-9.09-1.74-1.56-3.78-2.79-5.18-4.73-.21-2,1.05-2,2.3-1.49a19.7,19.7,0,0,1,7.14,4.78,7.58,7.58,0,0,1,2.18,6.07c-.15,1.36.34,1.62,1.52,1.85A110.91,110.91,0,0,1,286,229.63a79.51,79.51,0,0,1,29,19.86c5.16,6.11,8.25,13.45,11.93,20.92a54.59,54.59,0,0,0,1.62-6.56c1.18-6.57.2-13.1-.14-19.64.17-1.6-.45-3.12-.39-4.74s.8-3,.5-4.55c-.55-2.87,0-5.77.46-8.52.62-3.83,1.09-7.68,1.63-11.52,1.51-10.87,1.51-21.83,1.73-32.78,0-1.56-.53-1.56-1.74-1.23a44.65,44.65,0,0,1-6.09,1.39c-2.08.27-3.51.8-3.34,3.3a4.37,4.37,0,0,1-.7,2.07,32.85,32.85,0,0,1-15.93,14.53c-5.28,2.39-11.08,2.56-16.8,2.85-3,.15-5.9-.72-8.82-.62-4.66.16-8.94-1.6-12.55-3.72s-6.31-3-9.87-1a2.4,2.4,0,0,1-.38.12c-3.83,1.13-4.56.58-4.71-3.35a54.49,54.49,0,0,0-1.33-12.2,19.32,19.32,0,0,1-.55-7.19c.24-2.32.85-4.61.46-7-.64-4-.39-4.33,3.32-5.83,3.89-.56,7.38-2.39,11.09-3.55,5.66-1.76,11.56-2.39,17.25-4,9.21-2.61,18.78-3.23,28.16-4.88,6.21-1.08,12.51-1.63,18.57-3.49,1.66,0,2.35-.69,2.14-2.49C329.77,139.61,329.1,133.46,328.56,127.3Z"/><path class="cls-4" d="M288.17,201.5c9.21-.3,17.85-2.06,24.49-9.27,2.28-2.47,4.56-4.86,5.32-8.39-9.2,1.17-17.37,5-26,7.18-2,.49-3.06,1.2-3.1,3.49a7.12,7.12,0,0,1-3.06,5.24c-.75.6-1.6,1.09-2.6,1.76C285.06,201.51,286.62,201.55,288.17,201.5Z"/><path class="cls-4" d="M332,241.38c0,1.54.29,1.82,1.77,1.18,3.88-1.68,6.09-4.8,8.1-8.33,3.34-5.84,5.61-11.7,4.51-18.73A73.25,73.25,0,0,0,343,201.65a19.37,19.37,0,0,0-7-9.09,3.28,3.28,0,0,0-.31,2,228.72,228.72,0,0,1-2,24.09A167.15,167.15,0,0,0,332,241.38Z"/><path class="cls-4" d="M166.08,175.71c-8-2.77-15.91-6-24.15-8.23-1.41-.37-2.14-.22-1.69,1.34,1.14,3.91,2,7.94,3.7,11.66,1.55,3.41,3.46,6.66,5.23,10a13.13,13.13,0,0,0,4.87,5.24,33.09,33.09,0,0,0,14.2,4.67c4.58.42,9,2.2,13.74,1.77-9.88-4.37-10.5-12.36-1.55-22.16a8.61,8.61,0,0,0-2.06-.64C174,179.19,170.1,177.09,166.08,175.71Z"/><path class="cls-4" d="M264.38,197.21c1,.86,1.7,1.65,3.07,1.29C266.58,197.7,266.08,196.41,264.38,197.21Z"/><path class="cls-4" d="M278.92,196.54c4,1.13,6.32-.1,7.4-4.39C283.36,193.54,282.19,196.87,278.92,196.54Z"/><path class="cls-4" d="M329.48,151.58c-7.71,2-15.63,2.93-23.48,4.21-6.21,1-12.48,1.6-18.64,2.93-.78.17-1.67.13-2.32.95-4.3,5.46-9.57,10-14.6,14.7-.84.79-1.83,1-2.65,0a1.71,1.71,0,0,1,.31-2.51c1.4-1.36,2.87-2.64,4.22-4,2.16-2.24,4.24-4.54,6.33-6.79a6.68,6.68,0,0,0-1.09,0c-8,1.12-15.55,3.91-23.19,6.39-1,.33-1.15,1-.94,1.88a13.45,13.45,0,0,1,0,5c-.42,3.18-.85,6.36.2,9.55.53,1.64.52,3.44.92,5.13.54,2.25.12,4.59.54,7,.88-1,1.58-1.79,2.31-2.57,2.67-2.85,6-4.92,8.9-7.53,2.19-2,4.51-3.81,6.83-5.63.92-.71,2.1-1.25,3,0s.09,2.12-.85,2.88c-1.61,1.3-3.24,2.59-4.85,3.9-2.58,2.11-5.14,4.23-7.71,6.35l.22.3c2.27-.5,4.52-1.15,6.82-1.49A190.82,190.82,0,0,0,290,187.91c6.24-1.61,12.19-4.13,18.41-5.78,8.08-2.15,16.37-3.41,24.46-5.61,2.08-.56,2.2-1.65,1.88-3.2a52.31,52.31,0,0,1-1.19-12.78,6.83,6.83,0,0,0-.79-3.5,9.51,9.51,0,0,1-1.1-4C331.58,151.28,330.89,151.21,329.48,151.58Z"/><path class="cls-4" d="M215.13,403.2c-3.14-1-5.6-3.12-8.08-5.21-8.68-7.3-16.75-15.32-26.56-21.26-8.35-5.07-15.32-12-23.29-17.66a2.26,2.26,0,0,0-2.79-.32c-3.9,2-7.58,4.37-11.47,6.28-12.78,6.31-25.56,12.6-37.51,20.38-16.89,11-33.56,22.34-49.23,35.07-3.8,3.09-7.46,6.38-11.16,9.6-.48.41-1.43.83-.16,1.57,8.7,5.1,16.15,11.83,23.79,18.3a4.18,4.18,0,0,0,2.94.94q35.52,0,71,0h71.43c1,0,2.08.44,2.08-1.44-.07-14.86,0-29.73,0-44.59C216.16,404,216.06,403.5,215.13,403.2Z"/><path class="cls-4" d="M125.84,298.72c-.26,1.36-1,2.93,1.46,3.07.33,0,.69.42,1,.71,5.58,6.26,10.63,12.83,12.88,21.14,3.26,12,5.11,24.19,3.46,37.17a61.06,61.06,0,0,1,9.32-4.08c.53-.17.58-.57.65-1.09,1-7.06,3.54-13.78,5.09-20.73.72-3.26,1.17-3.33,4.61-3.17.87,0,1.75,0,2.62.07s1.17-.37,1.27-1.17c1-7.64.83-15.16-2.17-22.42a9,9,0,0,1-1.07-3.64,1.9,1.9,0,0,0-1.26-2,80.87,80.87,0,0,1-11.81-7.7c-5.07-4-9.45-8.59-12-14.65-.42-1-.63-2.26-1.37-2.87s-1.94.48-3,.6a6.62,6.62,0,0,0-1.57.18c-.78.3-1.47.38-2-.33a1.86,1.86,0,0,1,.11-2.27c.84-1.21,1.73-2.4,2.66-3.54a3.84,3.84,0,0,0,.7-3.91,39.43,39.43,0,0,1-1.39-14c.11-1.75.24-3.49.33-5.24.07-1.42-2.72-3.77-4.08-3.49-.44.09-.42.45-.51.75-.73,2.7-1.44,5.22-.45,8.19,2.62,7.81,1.27,15.85.66,23.81C129.4,285.18,127.13,291.85,125.84,298.72Z"/><path class="cls-4" d="M355.68,166.88c-2.52-5.49-4.61-11.18-6.87-16.79a41,41,0,0,1-3.14-12.66,10.25,10.25,0,0,0-3.53-7,19.09,19.09,0,0,0-9-4.24c-1.09-.24-1.09.24-1,1,.69,6.62.9,13.33,2.16,19.85a235.46,235.46,0,0,1,3.61,23.6c.17,1.87.8,3.69.61,5.6-.08.9-.21,2-1,2.27-2,.67-1.64,2.17-1.63,3.62a30.18,30.18,0,0,1,0,3.43c-.2,1.61.51,2.54,1.73,3.51,3.49,2.78,6.85,5.8,8.5,10.06a62.93,62.93,0,0,1,4.27,22.26,16.62,16.62,0,0,1-1.48,6.85c-1.4,3.21-3.1,6.25-4.74,9.34a18.27,18.27,0,0,1-8.81,8.24c-3.63,1.66-3.21.74-2.87,4.85.58,6.91.35,13.71-2,20.31-.6,1.66-1.18,3.12.22,4.84a1.47,1.47,0,0,1-1.41,2.48c-1.45-.42-1.73.3-2.14,1.3a35.15,35.15,0,0,1-9.9,13.3,86,86,0,0,1-19.86,12.61,4.9,4.9,0,0,0-3,3.87,47.51,47.51,0,0,0,1.12,21.37,1.21,1.21,0,0,0,1.42,1c2-.07,4-.09,6.05-.1,1.06,0,2.07.13,2.28,1.45,1.15,7.46,4,14.52,5.24,21.94.16.9.57,1.18,1.37,1.42a57.33,57.33,0,0,1,10.51,4.59c2,1.1,4.09,2,6,3.22,1.47.88,1.85.24,2-1.08,0-.61,0-1.21,0-1.82-.3-12.39,0-24.76,2.53-36.95,1.8-8.75,4-17.51,11.31-23.51,3.81-3.13,4.7-7,5.2-11.41.08-.67.19-1.33.26-2,.63-5.39,1.48-10.76,1.6-16.22-1.61,2.64-3.15,5.23-4.83,7.74-.31.46-.68,1-1.26.61s0-.83.19-1.21c1.68-4.32,3.34-8.64,5.11-12.93,6-14.6,11.59-29.37,15.25-44.78,1.19-5,1.7-10.19,0-15.5-1.49,8.4-2.36,11-4.17,12.49a84.39,84.39,0,0,1,.35-11.92A73.31,73.31,0,0,0,355.68,166.88Z"/><path class="cls-4" d="M168.45,267.66c-.78.51-1.53,1.07-2.3,1.61l-.82,0c-.47-.81-1.07-.23-1.56-.1-3.85,1.08-7.68,2.21-11.52,3.29-3,.85-6.05,1.58-9,2.54-.48.15-2,0-1.4,1.45,3,7.31,8.08,12.9,14.47,17.4,12,8.46,25.48,13.76,39.25,18.45,1,.34,1.33,0,1.54-.89a24.47,24.47,0,0,1,5-9.74c1.94-2.38,2.13-2.44,4.63-.61,2.93,2.15,5.79,4.41,9.45,5.24,9.87,2.23,19.77,1.6,29.66.17,4.44-.64,8.15-3,11.77-5.48,1.11-.76,2.25-1,3.27.06,1.89,2.06,4,4,5.16,6.62A14.59,14.59,0,0,0,268,312a1.33,1.33,0,0,0,1.82.66c3.34-1.23,6.68-2.41,10-3.61,3.64-1.53,7.26-3.12,10.9-4.6,9.61-3.87,18.43-8.93,26-16a25.73,25.73,0,0,0,7.19-10.75c.52-1.33-.73-1.11-1.27-1.33-6.81-2.76-14-4.37-21-6.34a15.2,15.2,0,0,0-2.79-.34c-.63-.05-.95.26-.56.85,2,3,2.58,6.59,3.59,10-.31,2.24-1.62,1-2.48.61a341.78,341.78,0,0,0-31.75-13.32c-2.44-.87-4.77-2.2-7.48-2.18a15,15,0,0,0-5.12-1.73c-.44-.52-.94-.32-1.47-.16-5.47,1.59-10.92,3.27-16.43,4.7-2.6.68-5.14,1.66-8,.93-6.63-1.69-13.19-3.59-19.75-5.53a5.45,5.45,0,0,0-3.24.14c-1.64.48-3,2.06-5,1.33,1.17-1.61,3.44-1.34,4.88-2.79a18.88,18.88,0,0,1-1.83-1.34c-1.14-1-2.29-2.1-2.52-3.74-.07-.49-.25-1.2.41-1.41.86-.26.63.59.85,1a6.8,6.8,0,0,0,.93,1.29,12.65,12.65,0,0,0,6.65,3.54c5,1.26,10.08,2.28,15,3.78a19.9,19.9,0,0,0,12.58-.31c.7-.24,1.42-.41,2.13-.59,4.68-1.15,9.47-1.87,14-3.58,2.25-.84,4.28-1.94,5.48-4.15.23-.41,0-1.26.86-1,.64.21.41.91.4,1.42a3.64,3.64,0,0,1-.78,1.83c-.86,1.4-2.25,2.23-3.73,3.37a36.47,36.47,0,0,0,3.83,1.63,243.48,243.48,0,0,1,26.35,9.92c4.15,1.76,8.21,3.69,12.32,5.52.6.26,1.79.87,1.41-.49-1.15-4.14-1.7-8.68-6-11.19-.47-.28-1.25-.7-.86-1.37s1.09-.3,1.66-.11c9,3,18.43,4.82,27.37,8.17,1.37.52,2.65,1.35,4.19,1.35l.19.17-.17-.19a58.57,58.57,0,0,1-5.57-10.64,50.78,50.78,0,0,0-9.13-15.53c-6-6.65-13.29-11.51-21.07-15.65-8.29-4.42-17.4-6.59-26.43-9-1.05-.28-1.53.23-2,1.1a13,13,0,0,1-5.86,5.62c-2.18,1-2.18,1.26-.53,3.12a19.82,19.82,0,0,1,4.44,7.81c.2.69.73,1.55-.31,1.85-.75.22-1.13-.55-1.34-1.22a24,24,0,0,0-3.51-6.76c-1.23-1.75-2.19-3.92-5-3.64a4.74,4.74,0,0,1-2-.76c-.46-.2-.89-.41-1.29,0-1.05,1.14-2.7,1.55-3.57,2.91a.45.45,0,0,0-.26.23,3.47,3.47,0,0,0-.79.17c-8.11,3.77-16.22,2.46-24.28-.13a14,14,0,0,1-5.51-3.24c-1.67-1.63-3.28-1.75-5-.09a30.75,30.75,0,0,0-4.05,5,28.13,28.13,0,0,0-3.26,6.45c-.22.63-.57,1.37-1.41,1.06s-.47-1-.28-1.57a20.29,20.29,0,0,1,2.2-5,58.63,58.63,0,0,1,5.64-6.94,10.71,10.71,0,0,1-7.9-5.56c-.35-.65-.91-.31-1.43-.18-10.48,2.65-20.83,5.56-30.2,11.27-8.36,5.09-15.89,11-21.13,19.39-3.92,6.31-5.69,13.74-10,19.85l-.17.19.19-.17a13.71,13.71,0,0,0,1.94-.46c9.76-3.91,20.17-5.64,30.06-9.11.33-.11.7-.2.91.12S168.85,267.39,168.45,267.66Z"/><path class="cls-4" d="M171.61,337a72.54,72.54,0,0,0,10.23,6,203,203,0,0,1,24.4,14.06c2.74,1.88,5.75,3.37,8.64,5a130.22,130.22,0,0,0,14.22,8.3,7.28,7.28,0,0,0,7,0,95.21,95.21,0,0,0,10.09-5.81c2.58-1.51,5.17-3,7.72-4.55,10-6.1,19.69-12.6,30.31-17.57a52.89,52.89,0,0,0,9-5.34c.65-.48,1-.83.66-1.78A47.19,47.19,0,0,1,290.52,316a43.2,43.2,0,0,1,1.07-7.73,224.52,224.52,0,0,1-21.2,7.93c-1,.31-1,1-.87,1.71a18,18,0,0,1-.32,7c-1.87,6.81-5.57,12.6-9.9,18.06-.5.43-1,.88-1.52,1.29-8.28,6.65-17.48,11.18-28.31,10.76a42.9,42.9,0,0,1-21.35-6.36c-5.94-4.93-9.74-11.07-10.77-18.82-.27-2.05-.68-4.08-1-6.12a49.39,49.39,0,0,1-.27-5.82c.1-1.48-.46-1.93-1.73-2.34a200,200,0,0,1-22.31-8.7c-1.49-.69-3-1.4-5-2.37a47.59,47.59,0,0,1,3.67,8.38c1.76,7.19,1.38,14.38-.06,21.55A2.21,2.21,0,0,0,171.61,337Z"/><path class="cls-4" d="M260,305.33c-.86-.81-1.26-.9-2.1-.24a25.46,25.46,0,0,1-10,4.56c-7.2,1.68-14.51,1.77-21.81,1.5s-14.36-1.17-20.1-6.3a1.17,1.17,0,0,0-2,.26,24.37,24.37,0,0,0-4.26,15,89.45,89.45,0,0,0,1.52,10.52c1.34,7,4.8,12.5,11,16.08,5.7,3.31,12.13,4,18.22,4.93,3.7-.41,7.08-.69,10.31-2,5.22-2.14,10.54-4.13,14.69-8.14,4.44-4.26,7.25-9.61,9.58-15.22a14.58,14.58,0,0,0,.32-11C264,311.87,262.86,308.09,260,305.33Z"/><path class="cls-4" d="M255.89,394.92c6.92-6,13.35-12.65,21.06-17.51,10.12-6.37,19-14.35,28.67-21.21.54-.38,1.15-.76,1-1.6,0-.27-.08-.53-.14-.79-1.46-5.66-2.93-11.31-4.35-17-.24-1-.65-1-1.39-.58s-1.33.65-1.94,1.05c-3.15,2.05-6.17,4.3-9.42,6.22-6.32,3.71-13.26,6.29-19.35,10.36-6.94,4.63-14.1,8.87-21.23,13.18-4.31,2.59-8.5,5.43-13.25,7.2-1,.35-.6.8-.29,1.34,4.36,7.5,7.89,15.42,11.79,23.15.61,1.21,1.18,1.39,2.31.83A31.57,31.57,0,0,0,255.89,394.92Z"/><path class="cls-4" d="M230,374.86c-.14-1.06-1.91-.82-2.82-1.47-.44-.31-1-.5-1.42-.78q-10.5-6.19-21-12.4c-5.33-3.13-10.13-7.09-15.76-9.75a130.44,130.44,0,0,1-22-12.63c-.76-.55-1.6-1-2.4-1.49-1.06-.67-1.55-.53-1.85.84-.8,3.6-1.78,7.17-2.69,10.75q-.83,3.22-1.63,6.45c-.32,1.06.51,1.46,1.13,1.94,1.55,1.19,3.11,2.35,4.68,3.5,6.08,4.44,11.57,9.65,17.93,13.73,3.46,2.21,7.17,4.06,10.18,6.88,5.69,5.35,12.07,9.89,17.7,15.31a23.21,23.21,0,0,0,5.1,3.59c1.42.77,2.2.78,3-.95,3.31-6.91,6.81-13.72,10.26-20.56C229,376.8,230.11,375.76,230,374.86Z"/><path class="cls-4" d="M177.67,187.94c-.91,3-1.06,5.44.84,7.58,1.62,1.82,3.72,1.69,5.92,1.11-3.61-.46-5.47-2.34-5.6-6C178.81,189.86,178.19,189.1,177.67,187.94Z"/><path class="cls-4" d="M421,429.36c-17.95-16.4-38.16-29.73-58.31-43.13-16.48-11-34.7-18.82-52-28.38a1.26,1.26,0,0,0-1.62.16c-1.83,1.46-3.72,2.86-5.59,4.29-8.07,6.14-15.64,13-24.54,18a18.6,18.6,0,0,0-3.72,2.76c-5.64,5.3-12,9.81-17.56,15.15a20.29,20.29,0,0,1-6.8,4.61,2.42,2.42,0,0,0-1.87,2.74q.11,21.59,0,43.17c0,1.94.62,2.22,2.33,2.21q35.61-.07,71.22,0c23.61,0,47.21,0,70.81,0a6.7,6.7,0,0,0,4.68-1.75c7.27-6.17,14.4-12.56,22.69-17.39C422.25,430.91,422.27,430.51,421,429.36Z"/><path class="cls-4" d="M242,396.3c-3.37-5.87-6.15-12.07-9.4-18.55-.61,1-1,1.65-1.35,2.31-3.72,7.37-7.42,14.76-11.16,22.12a4.9,4.9,0,0,0-.41,2.34c0,14.79,0,29.59,0,44.38,0,1.48.24,2.05,1.91,2q11-.15,22,0c1.63,0,1.82-.52,1.81-1.92-.05-12.44-.2-24.89,0-37.32C245.56,406.18,244.81,401.18,242,396.3Z"/><path class="cls-4" d="M129.79,208.83A103.92,103.92,0,0,1,130.94,240a2.81,2.81,0,0,0,2.95,2.92c1.62-.1.69-1.61.7-2.37a119.05,119.05,0,0,0-1.11-17.5,256.17,256.17,0,0,1-2.55-30.3l-.67-.41c-1.06,1.19-2.1,2.42-3.2,3.58a1.48,1.48,0,0,0-.17,1.83A56.25,56.25,0,0,1,129.79,208.83Z"/><path class="cls-4" d="M206.56,187.77c-1.49-.14-2.75-.25-4-.4-.58-.07-.87.12-.92.72a16.61,16.61,0,0,1-2.9,7.54l-2.44,2.9a5.8,5.8,0,0,0,3-2.29A32.13,32.13,0,0,0,206.56,187.77Z"/><path class="cls-4" d="M131.09,156.42c-1.3,2.7-1.12,2.52,1.41,4,6.09,3.66,12.93,5.25,19.6,7.18,4.34,1.26,8.46,2.94,12.63,4.58a76.45,76.45,0,0,0,12.17,4,29.11,29.11,0,0,1,4.88,1.16c6.49,2.58,13.11,4.78,19.78,6.82a5.32,5.32,0,0,0,2.95.4c-2.59-3.64-3.3-7.82-4.75-11.71a18.79,18.79,0,0,1-1.38-6.25c0-.9.28-1.66,1.2-1.86s1.37.47,1.61,1.2c1.89,5.86,4.35,11.56,5.28,17.71.07.45,0,1,.63,1.06s.83-.38,1-.86c1-3.93,3.19-7.37,4.53-11.18a61.22,61.22,0,0,1,5.88-13c.47-.74.42-.92-.44-1.18a64.29,64.29,0,0,0-9.13-2.42,53.25,53.25,0,0,1-15.42-4.34,50.26,50.26,0,0,0-10.8-3.69,43.73,43.73,0,0,0,3.23,6.68c1.78,3.29,4.28,6.19,5.33,9.89.38,1.32.43,2.52-.95,3.08s-2.08-.45-2.64-1.56c-1-2-1.93-4.13-3.16-6.07a49.14,49.14,0,0,1-6.24-13.25c-.25-.9-.82-1.12-1.53-1.37-2.41-.82-5-1.16-7.29-2.29A31.38,31.38,0,0,0,163,141c-.39-.09-.85-.21-1.14.15s0,.74.17,1.1c.59,1.12,1.12,2.28,1.75,3.39a103.85,103.85,0,0,1,7.89,16c.55,1.53.83,3-1,3.7s-2.45-.76-3-2.19a80.43,80.43,0,0,0-6-12.72c-1.82-3.19-4-6.27-4-10.16a1,1,0,0,0-1.06-1c-2.56-.11-4.93-1.16-7.51-1.38-2.88-.24-6-.06-8.5-1.95-.33-.24-.79-.4-1,.16-1.44,3.92-3.92,7.39-5.18,11.33A67.47,67.47,0,0,1,131.09,156.42Z"/><path class="cls-4" d="M122.49,137.34a2.31,2.31,0,0,1-.38.92,25,25,0,0,0-3.28,14.54c.75,13.27,3.31,26.24,6.64,39.31a47,47,0,0,1,3.82-3.2,3.36,3.36,0,0,0,1.52-3.21c-.07-6.66.05-13.32.49-20,.11-1.66-.11-2.49-2-2.88-2.82-.58-3.59-3-2-5.38a12.1,12.1,0,0,0,1.08-1.93,54.84,54.84,0,0,0,5.1-19.31c.18-3.27.69-6.51,1.06-9.81C129.07,127.29,123.09,131.18,122.49,137.34Z"/><path d="M565.11-91.66q-337.84.06-675.7,0c-1.52,0-1.86.34-1.86,1.85q.06,179.63,0,359.25t0,359.24c0,1.52.34,1.86,1.86,1.86q337.85-.06,675.7,0c1.52,0,1.86-.35,1.86-1.86q-.06-359.25,0-718.49C567-91.32,566.62-91.66,565.11-91.66Zm-349,541.09c0,1.88-1.1,1.44-2.08,1.44H142.64q-35.52,0-71,0a4.18,4.18,0,0,1-2.94-.94c-7.64-6.47-15.09-13.2-23.79-18.3-1.27-.74-.32-1.16.16-1.57,3.7-3.22,7.36-6.51,11.16-9.6,15.67-12.73,32.34-24.06,49.23-35.07,11.95-7.78,24.73-14.07,37.51-20.38,3.89-1.91,7.57-4.31,11.47-6.28a2.26,2.26,0,0,1,2.79.32c8,5.62,14.94,12.59,23.29,17.66,9.81,5.94,17.88,14,26.56,21.26,2.48,2.09,4.94,4.19,8.08,5.21.93.3,1,.81,1,1.64C216.13,419.7,216.08,434.57,216.15,449.43ZM129.29,254.36c-1-3-.28-5.49.45-8.19.09-.3.07-.66.51-.75,1.36-.28,4.15,2.07,4.08,3.49-.09,1.75-.22,3.49-.33,5.24a39.43,39.43,0,0,0,1.39,14,3.84,3.84,0,0,1-.7,3.91c-.93,1.14-1.82,2.33-2.66,3.54a1.86,1.86,0,0,0-.11,2.27c.52.71,1.21.63,2,.33a6.62,6.62,0,0,1,1.57-.18c1-.12,2.08-1.35,3-.6s1,1.88,1.37,2.87c2.57,6.06,7,10.64,12,14.65a80.87,80.87,0,0,0,11.81,7.7,1.9,1.9,0,0,1,1.26,2,9,9,0,0,0,1.07,3.64c3,7.26,3.16,14.78,2.17,22.42-.1.8-.4,1.23-1.27,1.17s-1.75,0-2.62-.07c-3.44-.16-3.89-.09-4.61,3.17-1.55,6.95-4.05,13.67-5.09,20.73-.07.52-.12.92-.65,1.09a61.06,61.06,0,0,0-9.32,4.08c1.65-13-.2-25.13-3.46-37.17-2.25-8.31-7.3-14.88-12.88-21.14-.26-.29-.62-.69-1-.71-2.42-.14-1.72-1.71-1.46-3.07,1.29-6.87,3.56-13.54,4.11-20.55C130.56,270.21,131.91,262.17,129.29,254.36Zm232.24-36.61c1.81-1.47,2.68-4.09,4.17-12.49,1.68,5.31,1.17,10.45,0,15.5-3.66,15.41-9.21,30.18-15.25,44.78-1.77,4.29-3.43,8.61-5.11,12.93-.15.38-.78.83-.19,1.21s.95-.15,1.26-.61c1.68-2.51,3.22-5.1,4.83-7.74-.12,5.46-1,10.83-1.6,16.22-.07.67-.18,1.33-.26,2-.5,4.36-1.39,8.28-5.2,11.41-7.28,6-9.51,14.76-11.31,23.51-2.52,12.19-2.83,24.56-2.53,36.95,0,.61,0,1.21,0,1.82-.1,1.32-.48,2-2,1.08-2-1.17-4-2.12-6-3.22a57.33,57.33,0,0,0-10.51-4.59c-.8-.24-1.21-.52-1.37-1.42-1.27-7.42-4.09-14.48-5.24-21.94-.21-1.32-1.22-1.45-2.28-1.45-2,0-4,0-6.05.1a1.21,1.21,0,0,1-1.42-1,47.51,47.51,0,0,1-1.12-21.37,4.9,4.9,0,0,1,3-3.87,86,86,0,0,0,19.86-12.61,35.15,35.15,0,0,0,9.9-13.3c.41-1,.69-1.72,2.14-1.3a1.47,1.47,0,0,0,1.41-2.48c-1.4-1.72-.82-3.18-.22-4.84,2.35-6.6,2.58-13.4,2-20.31-.34-4.11-.76-3.19,2.87-4.85a18.27,18.27,0,0,0,8.81-8.24c1.64-3.09,3.34-6.13,4.74-9.34a16.62,16.62,0,0,0,1.48-6.85,62.93,62.93,0,0,0-4.27-22.26c-1.65-4.26-5-7.28-8.5-10.06-1.22-1-1.93-1.9-1.73-3.51a30.18,30.18,0,0,0,0-3.43c0-1.45-.36-2.95,1.63-3.62.83-.28,1-1.37,1-2.27.19-1.91-.44-3.73-.61-5.6a235.46,235.46,0,0,0-3.61-23.6c-1.26-6.52-1.47-13.23-2.16-19.85-.09-.81-.09-1.29,1-1a19.09,19.09,0,0,1,9,4.24,10.25,10.25,0,0,1,3.53,7,41,41,0,0,0,3.14,12.66c2.26,5.61,4.35,11.3,6.87,16.79a73.31,73.31,0,0,1,6.2,39A84.39,84.39,0,0,0,361.53,217.75ZM170.67,312.88A47.59,47.59,0,0,0,167,304.5c2.05,1,3.53,1.68,5,2.37a200,200,0,0,0,22.31,8.7c1.27.41,1.83.86,1.73,2.34a49.39,49.39,0,0,0,.27,5.82c.34,2,.75,4.07,1,6.12,1,7.75,4.83,13.89,10.77,18.82A42.9,42.9,0,0,0,229.47,355c10.83.42,20-4.11,28.31-10.76.52-.41,1-.86,1.52-1.29,4.33-5.46,8-11.25,9.9-18.06a18,18,0,0,0,.32-7c-.09-.76-.12-1.4.87-1.71a224.52,224.52,0,0,0,21.2-7.93,43.2,43.2,0,0,0-1.07,7.73,47.19,47.19,0,0,0,3.33,19.31c.38.95,0,1.3-.66,1.78a52.89,52.89,0,0,1-9,5.34c-10.62,5-20.35,11.47-30.31,17.57-2.55,1.56-5.14,3-7.72,4.55a95.21,95.21,0,0,1-10.09,5.81,7.28,7.28,0,0,1-7,0,130.22,130.22,0,0,1-14.22-8.3c-2.89-1.67-5.9-3.16-8.64-5A203,203,0,0,0,181.84,343a72.54,72.54,0,0,1-10.23-6,2.21,2.21,0,0,1-1-2.55C172.05,327.26,172.43,320.07,170.67,312.88Zm-1.92-46.22c-.21-.32-.58-.23-.91-.12-9.89,3.47-20.3,5.2-30.06,9.11a13.71,13.71,0,0,1-1.94.46l-.19.17.17-.19c4.35-6.11,6.12-13.54,10-19.85,5.24-8.4,12.77-14.3,21.13-19.39,9.37-5.71,19.72-8.62,30.2-11.27.52-.13,1.08-.47,1.43.18a10.71,10.71,0,0,0,7.9,5.56,58.63,58.63,0,0,0-5.64,6.94,20.29,20.29,0,0,0-2.2,5c-.19.61-.46,1.29.28,1.57s1.19-.43,1.41-1.06a28.13,28.13,0,0,1,3.26-6.45,30.75,30.75,0,0,1,4.05-5c1.71-1.66,3.32-1.54,5,.09a14,14,0,0,0,5.51,3.24c8.06,2.59,16.17,3.9,24.28.13a3.47,3.47,0,0,1,.79-.17.45.45,0,0,1,.26-.23c.87-1.36,2.52-1.77,3.57-2.91.4-.43.83-.22,1.29,0a4.74,4.74,0,0,0,2,.76c2.82-.28,3.78,1.89,5,3.64a24,24,0,0,1,3.51,6.76c.21.67.59,1.44,1.34,1.22,1-.3.51-1.16.31-1.85a19.82,19.82,0,0,0-4.44-7.81c-1.65-1.86-1.65-2.1.53-3.12a13,13,0,0,0,5.86-5.62c.5-.87,1-1.38,2-1.1,9,2.37,18.14,4.54,26.43,9,7.78,4.14,15.11,9,21.07,15.65a50.78,50.78,0,0,1,9.13,15.53,58.57,58.57,0,0,0,5.57,10.64l.17.19-.19-.17c-1.54,0-2.82-.83-4.19-1.35-8.94-3.35-18.33-5.17-27.37-8.17-.57-.19-1.32-.49-1.66.11s.39,1.09.86,1.37c4.27,2.51,4.82,7.05,6,11.19.38,1.36-.81.75-1.41.49-4.11-1.83-8.17-3.76-12.32-5.52a243.48,243.48,0,0,0-26.35-9.92,36.47,36.47,0,0,1-3.83-1.63c1.48-1.14,2.87-2,3.73-3.37a3.64,3.64,0,0,0,.78-1.83c0-.51.24-1.21-.4-1.42-.87-.28-.63.57-.86,1-1.2,2.21-3.23,3.31-5.48,4.15-4.55,1.71-9.34,2.43-14,3.58-.71.18-1.43.35-2.13.59a19.9,19.9,0,0,1-12.58.31c-4.93-1.5-10-2.52-15-3.78a12.65,12.65,0,0,1-6.65-3.54,6.8,6.8,0,0,1-.93-1.29c-.22-.42,0-1.27-.85-1-.66.21-.48.92-.41,1.41.23,1.64,1.38,2.7,2.52,3.74a18.88,18.88,0,0,0,1.83,1.34c-1.44,1.45-3.71,1.18-4.88,2.79,1.95.73,3.34-.85,5-1.33a5.45,5.45,0,0,1,3.24-.14c6.56,1.94,13.12,3.84,19.75,5.53,2.91.73,5.45-.25,8-.93,5.51-1.43,11-3.11,16.43-4.7.53-.16,1-.36,1.47.16a15,15,0,0,1,5.12,1.73c2.71,0,5,1.31,7.48,2.18a341.78,341.78,0,0,1,31.75,13.32c.86.4,2.17,1.63,2.48-.61-1-3.4-1.56-7-3.59-10-.39-.59-.07-.9.56-.85a15.2,15.2,0,0,1,2.79.34c7.05,2,14.21,3.58,21,6.34.54.22,1.79,0,1.27,1.33a25.73,25.73,0,0,1-7.19,10.75c-7.57,7.1-16.39,12.16-26,16-3.64,1.48-7.26,3.07-10.9,4.6-3.34,1.2-6.68,2.38-10,3.61A1.33,1.33,0,0,1,268,312a14.59,14.59,0,0,1-1.91-4.4c-1.19-2.62-3.27-4.56-5.16-6.62-1-1.11-2.16-.82-3.27-.06-3.62,2.49-7.33,4.84-11.77,5.48-9.89,1.43-19.79,2.06-29.66-.17-3.66-.83-6.52-3.09-9.45-5.24-2.5-1.83-2.69-1.77-4.63.61a24.47,24.47,0,0,0-5,9.74c-.21.88-.55,1.23-1.54.89-13.77-4.69-27.25-10-39.25-18.45-6.39-4.5-11.47-10.09-14.47-17.4-.59-1.43.92-1.3,1.4-1.45,3-1,6-1.69,9-2.54,3.84-1.08,7.67-2.21,11.52-3.29.49-.13,1.09-.71,1.56.1l.82,0c.77-.54,1.52-1.1,2.3-1.61C168.85,267.39,169,267.06,168.75,266.66ZM265,326.3c-2.33,5.61-5.14,11-9.58,15.22-4.15,4-9.47,6-14.69,8.14-3.23,1.31-6.61,1.59-10.31,2-6.09-.89-12.52-1.62-18.22-4.93-6.18-3.58-9.64-9.1-11-16.08a89.45,89.45,0,0,1-1.52-10.52,24.37,24.37,0,0,1,4.26-15,1.17,1.17,0,0,1,2-.26c5.74,5.13,12.88,6,20.1,6.3s14.61.18,21.81-1.5a25.46,25.46,0,0,0,10-4.56c.84-.66,1.24-.57,2.1.24,2.91,2.76,4,6.54,5.37,10A14.58,14.58,0,0,1,265,326.3Zm71-133.74a19.37,19.37,0,0,1,7,9.09,73.25,73.25,0,0,1,3.34,13.85c1.1,7-1.17,12.89-4.51,18.73-2,3.53-4.22,6.65-8.1,8.33-1.48.64-1.77.36-1.77-1.18a167.15,167.15,0,0,1,1.73-22.69,228.72,228.72,0,0,0,2-24.09A3.28,3.28,0,0,1,336,192.56ZM332.79,157a6.83,6.83,0,0,1,.79,3.5,52.31,52.31,0,0,0,1.19,12.78c.32,1.55.2,2.64-1.88,3.2-8.09,2.2-16.38,3.46-24.46,5.61-6.22,1.65-12.17,4.17-18.41,5.78a190.82,190.82,0,0,1-20.23,4.27c-2.3.34-4.55,1-6.82,1.49l-.22-.3c2.57-2.12,5.13-4.24,7.71-6.35,1.61-1.31,3.24-2.6,4.85-3.9.94-.76,1.8-1.65.85-2.88s-2.11-.67-3,0c-2.32,1.82-4.64,3.65-6.83,5.63-2.89,2.61-6.23,4.68-8.9,7.53-.73.78-1.43,1.59-2.31,2.57-.42-2.4,0-4.74-.54-7-.4-1.69-.39-3.49-.92-5.13-1-3.19-.62-6.37-.2-9.55a13.45,13.45,0,0,0,0-5c-.21-.89-.08-1.55.94-1.88,7.64-2.48,15.18-5.27,23.19-6.39a6.68,6.68,0,0,1,1.09,0c-2.09,2.25-4.17,4.55-6.33,6.79-1.35,1.4-2.82,2.68-4.22,4a1.71,1.71,0,0,0-.31,2.51c.82,1,1.81.74,2.65,0,5-4.73,10.3-9.24,14.6-14.7.65-.82,1.54-.78,2.32-.95,6.16-1.33,12.43-1.93,18.64-2.93,7.85-1.28,15.77-2.19,23.48-4.21,1.41-.37,2.1-.3,2.21,1.42A9.51,9.51,0,0,0,332.79,157Zm-47,42.71a7.12,7.12,0,0,0,3.06-5.24c0-2.29,1.14-3,3.1-3.49,8.62-2.18,16.79-6,26-7.18-.76,3.53-3,5.92-5.32,8.39-6.64,7.21-15.28,9-24.49,9.27-1.55.05-3.11,0-4.94,0C284.23,200.84,285.08,200.35,285.83,199.75Zm-6.91-3.21c3.27.33,4.44-3,7.4-4.39C285.24,196.44,283,197.67,278.92,196.54Zm-11.47,2c-1.37.36-2.1-.43-3.07-1.29C266.08,196.41,266.58,197.7,267.45,198.5Zm60.91-50.26c-6.06,1.86-12.36,2.41-18.57,3.49-9.38,1.65-19,2.27-28.16,4.88-5.69,1.61-11.59,2.24-17.25,4-3.71,1.16-7.2,3-11.09,3.55-3.71,1.5-4,1.8-3.32,5.83.39,2.4-.22,4.69-.46,7a19.32,19.32,0,0,0,.55,7.19,54.49,54.49,0,0,1,1.33,12.2c.15,3.93.88,4.48,4.71,3.35a2.4,2.4,0,0,0,.38-.12c3.56-2,6.33-1,9.87,1s7.89,3.88,12.55,3.72c2.92-.1,5.84.77,8.82.62,5.72-.29,11.52-.46,16.8-2.85a32.85,32.85,0,0,0,15.93-14.53,4.37,4.37,0,0,0,.7-2.07c-.17-2.5,1.26-3,3.34-3.3a44.65,44.65,0,0,0,6.09-1.39c1.21-.33,1.77-.33,1.74,1.23-.22,11-.22,21.91-1.73,32.78-.54,3.84-1,7.69-1.63,11.52-.43,2.75-1,5.65-.46,8.52.3,1.56-.45,3-.5,4.55s.56,3.14.39,4.74c.34,6.54,1.32,13.07.14,19.64a54.59,54.59,0,0,1-1.62,6.56c-3.68-7.47-6.77-14.81-11.93-20.92a79.51,79.51,0,0,0-29-19.86,110.91,110.91,0,0,0-20.73-5.71c-1.18-.23-1.67-.49-1.52-1.85a7.58,7.58,0,0,0-2.18-6.07,19.7,19.7,0,0,0-7.14-4.78c-1.25-.51-2.51-.5-2.3,1.49,1.4,1.94,3.44,3.17,5.18,4.73,3.37,3,3.23,6.3-.39,9.09a18,18,0,0,1-3.25,2.36c-2.41,1.11-4,.08-3.8-2.47a8,8,0,0,0-.77-3.84,1.06,1.06,0,0,0-.58,1c-.25,5.38-4.27,7.26-8.4,8.88-5.8,2.28-11.7,1.94-17.58.19-.71-.21-1.45-.32-2.14-.57-2.82-1-5.53-2.17-6.14-5.66a8.61,8.61,0,0,0-1-2.4,2,2,0,0,0-2.49-1.18,1.76,1.76,0,0,0-1.16,2.44c.85,2.09-.42,2.11-1.8,2-3.63-.24-7.3-2.77-4.47-7.76a22.16,22.16,0,0,1,5.09-6.46c1.15-.94,1.76-2,1.15-3.52l-1.08-.65-.83,0a19.38,19.38,0,0,0-9.26,13c-.28,1.37-.7,1.86-2,2.15-9.24,2.06-18.46,4.25-26.89,8.8a89.37,89.37,0,0,0-16.87,11.65c-1.09,1-2.4,1.67-3.2,2.94L147.21,250c-.82,1.06-1.64,2.12-2.47,3.17a82.62,82.62,0,0,0-6.41,12c-1.76-7.88-.17-15.21-.07-22.54.07-12.09-1.83-24-3.21-36-.19-1.71-.06-3.47-.08-5.2a6.65,6.65,0,0,1-.21-2.84,44.76,44.76,0,0,1-.19-7.68,72.55,72.55,0,0,1,0-11.7,53.15,53.15,0,0,1,.09-7.25v-6.84c2.17.9,2.22,2.39,2,4A86.86,86.86,0,0,0,146.53,193c2.94,5.11,7.95,7.37,13.25,9.21,3.59,1.26,7.32,1.59,11,2.19,2.24.36,4.48.82,6.71,1.24,3.93.74,7.51-.9,11.23-1.64.38-.08.78-.09,1.17-.14l.74-.14a3.52,3.52,0,0,1,2.08-.63l.77-.07c5.09-2.62,8.89-6.75,12.75-10.81a24.1,24.1,0,0,0,4.28-7.25c3-7,5.84-14.1,8.73-21.17a12.44,12.44,0,0,1,2.18-3.36c1.75-2.06,1.56-2.86-.92-4l-.72-.37c-3.28-.91-6.37-2.39-9.78-2.94-10.57-1.72-20.39-5.89-30.43-9.38-8.84-3.08-17.64-6.43-26.93-8-2.25-.38-4.51-.69-6.76-1-1.52.32-2.76-.47-4-1.09-2.27-1.13-2.25-1.18-4.57.05.3-2.45.61-4.76.85-7.07.13-1.22,1-1,1.79-1.1a87.2,87.2,0,0,1,22.69,1.48c23.61,4.24,46.11,12.06,68.22,21.13a7.93,7.93,0,0,0,6.52,0c21.31-8.71,43-16.28,65.66-20.65a100.81,100.81,0,0,1,23.25-2.09c1.42,0,2.1.39,2.24,2,.54,6.16,1.21,12.31,1.94,18.45C330.71,147.55,330,148.22,328.36,148.24ZM182,202.13c-4.75.43-9.16-1.35-13.74-1.77a33.09,33.09,0,0,1-14.2-4.67,13.13,13.13,0,0,1-4.87-5.24c-1.77-3.31-3.68-6.56-5.23-10-1.68-3.72-2.56-7.75-3.7-11.66-.45-1.56.28-1.71,1.69-1.34,8.24,2.19,16.11,5.46,24.15,8.23,4,1.38,7.88,3.48,12.29,3.62a8.61,8.61,0,0,1,2.06.64C171.48,189.77,172.1,197.76,182,202.13Zm2.45-5.5c-2.2.58-4.3.71-5.92-1.11-1.9-2.14-1.75-4.58-.84-7.58.52,1.16,1.14,1.92,1.16,2.7C179,194.29,180.82,196.17,184.43,196.63Zm11.87,1.9,2.44-2.9a16.61,16.61,0,0,0,2.9-7.54c.05-.6.34-.79.92-.72,1.25.15,2.51.26,4,.4a32.13,32.13,0,0,1-7.22,8.47A5.8,5.8,0,0,1,196.3,198.53Zm-56.78-62.4c.21-.56.67-.4,1-.16,2.54,1.89,5.62,1.71,8.5,1.95,2.58.22,4.95,1.27,7.51,1.38a1,1,0,0,1,1.06,1c.08,3.89,2.23,7,4,10.16a80.43,80.43,0,0,1,6,12.72c.51,1.43,1.15,2.84,3,2.19s1.57-2.17,1-3.7a103.85,103.85,0,0,0-7.89-16c-.63-1.11-1.16-2.27-1.75-3.39-.19-.36-.47-.73-.17-1.1s.75-.24,1.14-.15a31.38,31.38,0,0,1,6.43,2.29c2.32,1.13,4.88,1.47,7.29,2.29.71.25,1.28.47,1.53,1.37a49.14,49.14,0,0,0,6.24,13.25c1.23,1.94,2.13,4,3.16,6.07.56,1.11,1.32,2.09,2.64,1.56s1.33-1.76.95-3.08c-1-3.7-3.55-6.6-5.33-9.89a43.73,43.73,0,0,1-3.23-6.68h0l-.16-.11.17.09v0a50.26,50.26,0,0,1,10.8,3.69,53.25,53.25,0,0,0,15.42,4.34A64.29,64.29,0,0,1,218,158.6c.86.26.91.44.44,1.18a61.22,61.22,0,0,0-5.88,13c-1.34,3.81-3.53,7.25-4.53,11.18-.12.48-.38.9-1,.86s-.56-.61-.63-1.06c-.93-6.15-3.39-11.85-5.28-17.71-.24-.73-.73-1.4-1.61-1.2s-1.21,1-1.2,1.86a18.79,18.79,0,0,0,1.38,6.25c1.45,3.89,2.16,8.07,4.75,11.71a5.32,5.32,0,0,1-2.95-.4c-6.67-2-13.29-4.24-19.78-6.82a29.11,29.11,0,0,0-4.88-1.16,76.45,76.45,0,0,1-12.17-4c-4.17-1.64-8.29-3.32-12.63-4.58-6.67-1.93-13.51-3.52-19.6-7.18-2.53-1.52-2.71-1.34-1.41-4a67.47,67.47,0,0,0,3.25-9C135.6,143.52,138.08,140.05,139.52,136.13Zm-6,.1a54.84,54.84,0,0,1-5.1,19.31,12.1,12.1,0,0,1-1.08,1.93c-1.6,2.33-.83,4.8,2,5.38,1.87.39,2.09,1.22,2,2.88-.44,6.65-.56,13.31-.49,20a3.36,3.36,0,0,1-1.52,3.21,47,47,0,0,0-3.82,3.2c-3.33-13.07-5.89-26-6.64-39.31a25,25,0,0,1,3.28-14.54,2.31,2.31,0,0,0,.38-.92c.6-6.16,6.58-10,12.08-10.92C134.2,129.72,133.69,133,133.51,136.23Zm-6.45,59.66c1.1-1.16,2.14-2.39,3.2-3.58l.67.41a256.17,256.17,0,0,0,2.55,30.3,119.05,119.05,0,0,1,1.11,17.5c0,.76.92,2.27-.7,2.37a2.81,2.81,0,0,1-2.95-2.92,103.92,103.92,0,0,0-1.15-31.14,56.25,56.25,0,0,0-2.9-11.11A1.48,1.48,0,0,1,127.06,195.89Zm88.08,203.44a23.21,23.21,0,0,1-5.1-3.59c-5.63-5.42-12-10-17.7-15.31-3-2.82-6.72-4.67-10.18-6.88-6.36-4.08-11.85-9.29-17.93-13.73-1.57-1.15-3.13-2.31-4.68-3.5-.62-.48-1.45-.88-1.13-1.94q.81-3.22,1.63-6.45c.91-3.58,1.89-7.15,2.69-10.75.3-1.37.79-1.51,1.85-.84.8.51,1.64.94,2.4,1.49a130.44,130.44,0,0,0,22,12.63c5.63,2.66,10.43,6.62,15.76,9.75q10.51,6.18,21,12.4c.46.28,1,.47,1.42.78.91.65,2.68.41,2.82,1.47.12.9-1,1.94-1.56,3-3.45,6.84-7,13.65-10.26,20.56C217.34,400.11,216.56,400.1,215.14,399.33ZM245.4,449c0,1.4-.18,1.95-1.81,1.92q-11-.17-22,0c-1.67,0-1.91-.54-1.91-2,.05-14.79,0-29.59,0-44.38a4.9,4.9,0,0,1,.41-2.34c3.74-7.36,7.44-14.75,11.16-22.12.33-.66.74-1.27,1.35-2.31,3.25,6.48,6,12.68,9.4,18.55,2.79,4.88,3.54,9.88,3.43,15.38C245.2,424.11,245.35,436.56,245.4,449Zm1.65-50.25c-3.9-7.73-7.43-15.65-11.79-23.15-.31-.54-.66-1,.29-1.34,4.75-1.77,8.94-4.61,13.25-7.2,7.13-4.31,14.29-8.55,21.23-13.18,6.09-4.07,13-6.65,19.35-10.36,3.25-1.92,6.27-4.17,9.42-6.22.61-.4,1.3-.68,1.94-1.05s1.15-.4,1.39.58c1.42,5.67,2.89,11.32,4.35,17,.06.26.1.52.14.79.15.84-.46,1.22-1,1.6-9.71,6.86-18.55,14.84-28.67,21.21-7.71,4.86-14.14,11.54-21.06,17.51a31.57,31.57,0,0,1-6.53,4.66C248.23,400.14,247.66,400,247.05,398.75Zm146.34,52.17c-23.6-.07-47.2,0-70.81,0s-47.48,0-71.22,0c-1.71,0-2.35-.27-2.33-2.21q.14-21.58,0-43.17a2.42,2.42,0,0,1,1.87-2.74,20.29,20.29,0,0,0,6.8-4.61c5.6-5.34,11.92-9.85,17.56-15.15a18.6,18.6,0,0,1,3.72-2.76c8.9-5,16.47-11.83,24.54-18,1.87-1.43,3.76-2.83,5.59-4.29a1.26,1.26,0,0,1,1.62-.16c17.27,9.56,35.49,17.41,52,28.38,20.15,13.4,40.36,26.73,58.31,43.13,1.25,1.15,1.23,1.55-.26,2.42-8.29,4.83-15.42,11.22-22.69,17.39A6.7,6.7,0,0,1,393.39,450.92Zm69-2.59c0,1.95-.35,2.61-2.49,2.6-18.63-.1-37.27-.05-55.9-.05h-2c.9-1.77,2.52-2.56,3.78-3.64a193.37,193.37,0,0,1,16.42-12.67,22.93,22.93,0,0,0,3.34-2.9c1.1-1.1.46-2.1-.47-2.91q-5.15-4.51-10.35-9c-.45-.38-1-.63-1.23-1.26-2.66-1.58-4.83-3.79-7.34-5.56-19.89-14-39.41-28.56-60.84-40.21-3.48-1.9-7-3.67-10.62-5.33-1.25-.58-1.43-1.16-1.13-2.42.74-3,.38-6.16.35-9.24-.14-13.78,1.08-27.39,4.95-40.68A32.08,32.08,0,0,1,346,302.43c-1.1,6.4-3.94,12.51-2.94,19.21.72.2.77-.44.94-.78a14.77,14.77,0,0,0,1.31-2.94c2.37-9.23,5.81-18.19,6.94-27.72a4.19,4.19,0,0,1,.24-.76c.19-2.3.39-4.59.58-6.89.1-3,.22-5.91.29-8.87a4.81,4.81,0,0,0-.18-2.19c-1.25-2.43-.06-4.41.86-6.56,6.11-14.36,11.62-28.94,14.43-44.36,1.17-6.37,1.28-12.74-2.3-18.57a2.92,2.92,0,0,1-.29-1.76c.78-13-2.42-25.15-7.67-36.94-3.35-7.54-6.87-15.06-8.58-23.21-.3-1.43-.17-3-.49-4.38-1.5-6.61-6.09-10.18-12.2-12.22l-2.49-.79a11.84,11.84,0,0,1-3.28-.63c-14.49-1.46-28.52,1.32-42.43,4.83a387.56,387.56,0,0,0-52.64,17.81,4.78,4.78,0,0,1-4-.05c-21.76-8.81-43.86-16.59-67-20.92-9.47-1.76-19-3-28.68-1.44a25.63,25.63,0,0,0-11,4.13,17.77,17.77,0,0,0-5.49,6.82c-5,9.93-5.44,20.31-3.66,31.06,1.58,9.62,3.31,19.19,5.75,28.65,1.92,7.45,4.53,14.74,5.26,22.49,1.15,12.14,1.43,24.18-2.75,35.9a7.91,7.91,0,0,0-.5,3.76c.1.79-.07,2,1.43,1.05.9-.56.75.42.85.83a30.86,30.86,0,0,1,.85,7.79,114.72,114.72,0,0,1-3.87,28.91c-1.6,6.14-2,12.47-2.68,18.75a4.28,4.28,0,0,0,0,1c.12,1,.52,1.87,1.67,1.94a1.67,1.67,0,0,0,1.75-1.63c.36-2.46.62-4.94.91-7.41.07-.53.11-1.06.17-1.6.74-.09.87.58,1.21.93,8.28,8.55,12.29,19,14.08,30.61a91.85,91.85,0,0,1,.5,25.7c-.15,1.18-1,1.33-1.72,1.71-7.71,4-15.58,7.57-23.11,11.9-13.6,7.81-26.49,16.69-39.23,25.8-2.53,1.8-2.56,1.79-3.65-1.13-3.67-9.82-7.11-19.69-8.81-30.11a80,80,0,0,1,6-46.86c6.52-14.51,13.37-28.9,19-43.82,3.46-9.21,6.41-18.53,7.24-28.42.72-8.63-.75-16.49-7.6-22.56A9.54,9.54,0,0,0,83.44,226a1.5,1.5,0,0,0,.88,1.2,19.68,19.68,0,0,1,9.81,16.23c.65,9.31-1.3,18.29-4.69,26.95a115.13,115.13,0,0,1-5.06,13.77C78.26,299.25,70.85,313.82,64.76,329a67.74,67.74,0,0,0-5.15,27.3,121,121,0,0,0,8.36,40c.93,2.45,1.81,4.92,2.81,7.34A1.69,1.69,0,0,1,70,406,227.05,227.05,0,0,0,50.7,420.61c-3.25,2.7-6.47,5.44-9.51,8.4-1.25,1.22-1.21,2.17,0,3.38,3.47,3.42,7.78,5.73,11.5,8.81s7.42,6.13,11.18,9.23c-.67.69-1.31.43-1.86.43-18.63,0-37.26,0-55.9.06-1.88,0-2.32-.53-2.32-2.36Q3.86,221.64,3.8-5.3c0-2,.56-2.41,2.47-2.41q226.83.08,453.66,0c2.13,0,2.5.64,2.49,2.59Q462.36,221.61,462.42,448.33Z"/><path class="cls-4" d="M182.49,148l.16.11h0v0Z"/><path class="cls-5" d="M380,303.81l-3.08,3.68a10.71,10.71,0,0,1,.39-3.52,148.54,148.54,0,0,1,6.89-26.9c2.3-5.41,4.09-11,5.88-16.58l-.54-.2-5.88,15.38a41.15,41.15,0,0,0-2.19,5.54,118.34,118.34,0,0,0-7,31.32,147.91,147.91,0,0,0,.7,32.37c2.23,16.5,7.8,31.55,18.09,44.81,5.84,7.53,12.48,14.4,18.22,22,.13,2.43,2.12,4.31,2.05,6.81-2.66-1.58-4.83-3.79-7.34-5.56-19.89-14-39.41-28.56-60.84-40.21-3.48-1.9-7-3.67-10.62-5.33-1.25-.58-1.43-1.16-1.13-2.42.74-3,.38-6.16.35-9.24-.14-13.78,1.08-27.39,4.95-40.68A32.08,32.08,0,0,1,346,302.43c-1.1,6.4-3.94,12.51-2.94,19.21.72.2.77-.44.94-.78a14.77,14.77,0,0,0,1.31-2.94c2.37-9.23,5.81-18.19,6.94-27.72a4.19,4.19,0,0,1,.24-.76c.6-.16.75-.76,1-1.18,5.88-9.11,11.84-18.17,17.55-27.39,3.06-4.94,6-10,7.16-15.85.54-2.6,1.23-5.27-.13-8-.22.22-.37.3-.38.4-1.08,7.53-4.54,14.08-8.32,20.52-4.67,8-10.24,15.37-14.79,23.41a1.87,1.87,0,0,1-1.53,1.17c.1-3,.22-5.91.29-8.87a4.81,4.81,0,0,0-.18-2.19c-1.25-2.43-.05-4.41.86-6.56,6.11-14.36,11.62-28.94,14.43-44.36,1.17-6.37,1.28-12.74-2.3-18.57a2.92,2.92,0,0,1-.29-1.76c.78-13-2.42-25.15-7.67-36.94-3.35-7.54-6.87-15.06-8.58-23.21-.3-1.43-.17-3-.49-4.38-1.5-6.61-6.09-10.18-12.2-12.22l-2.49-.79c.11-.86.76-.78,1.37-.79a58.82,58.82,0,0,1,16.3,1.48c2,.51,3.91,1.13,6.2,1.9-2.25-3-6.84-5.21-9.08-4.65.75.72,2,.58,2.69,1.66a4.52,4.52,0,0,1-1-.07c-5-1.66-10.14-1.48-15.24-1-1.48.14-3.22-.31-4.57.86-14.49-1.46-28.52,1.32-42.43,4.83a387.56,387.56,0,0,0-52.64,17.81,4.78,4.78,0,0,1-4-.05c-21.76-8.81-43.86-16.59-67-20.92-9.47-1.76-19-3-28.68-1.44a25.63,25.63,0,0,0-11,4.13,17.77,17.77,0,0,0-5.49,6.82c-5,9.93-5.43,20.31-3.66,31.06,1.58,9.62,3.31,19.19,5.75,28.65,1.92,7.45,4.53,14.74,5.26,22.49,1.15,12.14,1.43,24.18-2.75,35.9a7.91,7.91,0,0,0-.5,3.76c.1.79-.07,2,1.43,1.05.9-.56.75.42.85.83a30.86,30.86,0,0,1,.85,7.79,114.72,114.72,0,0,1-3.87,28.91c-1.6,6.14-2,12.47-2.68,18.75a4.28,4.28,0,0,0,0,1c.12,1,.52,1.87,1.67,1.94a1.67,1.67,0,0,0,1.75-1.63c.36-2.46.62-4.94.91-7.41.07-.53.11-1.06.17-1.6.74-.09.87.58,1.21.93,8.28,8.55,12.29,19,14.08,30.61a91.85,91.85,0,0,1,.5,25.7c-.15,1.18-1,1.33-1.72,1.71-7.71,4-15.58,7.57-23.11,11.9-13.6,7.81-26.49,16.69-39.23,25.8-2.53,1.8-2.56,1.79-3.65-1.13-3.67-9.82-7.11-19.69-8.81-30.11a80,80,0,0,1,6-46.86c6.52-14.51,13.37-28.9,19-43.82,3.46-9.21,6.41-18.53,7.24-28.42.72-8.63-.75-16.49-7.6-22.56A9.54,9.54,0,0,0,83.44,226a1.5,1.5,0,0,0,.88,1.2,19.68,19.68,0,0,1,9.81,16.23c.65,9.31-1.3,18.29-4.69,26.95a44.6,44.6,0,0,0-2.87-5.14,22.74,22.74,0,0,0-2.67-6.49,127,127,0,0,1-14-40.56c-1.48-9.41-.91-18.92-.34-28.38.61-10.2,4.37-19.31,9.84-27.79.6-.92,1.35-1.74,2.3-3,.13,1.82,0,3.22.87,4.66a40.78,40.78,0,0,0,2.87-6.43c1.1-3.31,2-6.69,3.31-9.93,4.18-10.54,11.05-19.1,19.55-26.5,4.46-3.89,9.48-7.18,13.32-11.7,2.72-3.2,5.78-4.26,9.75-3.4,5.26,1.14,10.6,1.77,15.91,2.55,7.52,1.09,15.11,1.49,22.66,2.28,11.36,1.18,22.73,2.35,34.18,2.2,7.53-.09,15-.21,22.57.37,9.53.73,19.08.18,28.62.16,16.43,0,32.77-1.25,49.11-2.61,10.44-.87,20.94-1.18,31.19-3.64,2.73-.66,5.68-.78,7.75-3,.92-1,1.42-.78,2.19.08a44.25,44.25,0,0,0,13.1,10.53,1.84,1.84,0,0,0,.76,1.36c2.23,2.22,4.46,4.46,6.7,6.67.41.4.89,1.15,1.48.65s-.16-1-.39-1.54c-.75-1.67-2.71-2.46-3.15-4.35a28.61,28.61,0,0,1,6.64,4.87c5,4.46,8.9,9.88,13,15.09,5.22,6.6,10.22,13.39,12.9,21.49,4.15,12.51,4.29,25.36,3.06,38.31-.3,3.21-1,6.38-1,9.62,0,.75,0,1.87.87,2,.72.12,1-.92,1.39-1.55,1.16-2.05,1.41-4.39,2-6.77a4.25,4.25,0,0,1,1.27,2.63,52,52,0,0,1,1.68,12.54c.16,8-1,15.95-2,23.88-1.87,15.28-6,29.84-13.3,43.48C386.93,289.89,382.73,296.48,380,303.81Zm-277.7,74.6a77.41,77.41,0,0,0,5.28-11.17c2.91-8.16,4.53-16.64,6.5-25,1.81-7.74,4.21-15.39,3.64-23.5-.08-1.1,0-2.38-1.35-2.54s-1.53,1.16-1.75,2.09c-.68,2.79-1.14,5.64-1.89,8.41-3.9,14.52-8.12,29-10.14,43.92C102.22,373.13,101.76,375.71,102.27,378.41Zm8.27-110.12c-.48,4.13-.73,8.23-1.32,12.32A92.26,92.26,0,0,1,105,298.72c-3.16,8.76-6.47,17.47-9.52,26.27-3.9,11.26-7.4,22.67-11.58,33.84-.15.41-.66.91-.11,1.45.67-.26.76-.92,1-1.43a185.68,185.68,0,0,0,9.84-23.54q6.83-20,13.26-40.11c2.75-8.58,3.36-17.45,2.91-26.41A1.6,1.6,0,0,0,110.54,268.29ZM104.87,157.9l-.75-.55a10.63,10.63,0,0,1-.71,1.23c-5.13,6.83-7.35,14.68-7.92,23-.59,8.78,1.56,17.15,4.2,25.41,2.7,8.42,5.61,16.78,5.49,25.8,0,.32.06.69.73.55a87.64,87.64,0,0,0-.52-14.56c-1-6.85-3.47-13.33-5.2-20-2.63-10.11-2.9-20.16.36-30.2A57.1,57.1,0,0,1,104.87,157.9ZM393.2,251.36c-9.35,5.35-31.12,45.08-30.8,56.06a158.43,158.43,0,0,1,13.49-29C381.48,269.28,387,260.1,393.2,251.36Zm-17.79-82.93c7.74,14.72,10.12,30.63,11.51,46.88.95-.71.76-1.56.79-2.34a91.54,91.54,0,0,0-4.39-30A51.5,51.5,0,0,0,378,170.38,3.68,3.68,0,0,0,375.41,168.43Zm.49,191.91a4.79,4.79,0,0,0-1.23-2.2c-4.88-5.94-9.89-11.79-13.84-18.42a11,11,0,0,0-2-2.25c-.35-.34-.8-.62-1.22-.14a.75.75,0,0,0,.2,1.07,7.81,7.81,0,0,1,1.56,2.57c3.65,7.78,9.85,13.46,15.9,19.26C375.36,360.3,375.53,360.28,375.9,360.34ZM344,353.16c-1.3,8.36,11.15,21.74,16.16,23.92-2.38-4.27-5.88-7.62-9-11.26A35.3,35.3,0,0,1,344,353.16Zm-93.49-225c-5.81.61-11.08,2.3-14.7,7.28C240.25,132.1,245.67,130.73,250.5,128.16Zm-33.6,5.09c.55.45.68.63.84.67,4.32,1.22,8.6,2.51,12.38,5,.32.22.78.49,1.09.12.44-.53-.15-.87-.46-1.13A19,19,0,0,0,216.9,133.25ZM106.79,137.6c2-4.43,2.72-8.73,4.7-12.61C108.32,125.6,105.81,132,106.79,137.6Zm108.52-9.9c4.93,1.68,9.92,3.19,13.91,6.77.22.2.61.41.89.06s.08-.76-.19-1.08a12.61,12.61,0,0,0-4-2.7A23.69,23.69,0,0,0,215.31,127.7Zm21,11.4c4.15-2.84,8.59-4,12.76-5.81C246.17,132.47,237.58,136.3,236.34,139.1ZM393.65,250l-.14.33c.11.05.24.16.32.13a.32.32,0,0,0,.14-.31C393.94,250.09,393.77,250.06,393.65,250Z"/><path class="cls-6" d="M322.58,450.88q-35.61,0-71.22,0c-1.71,0-2.35-.27-2.33-2.21q.14-21.58,0-43.17a2.42,2.42,0,0,1,1.87-2.74,20.29,20.29,0,0,0,6.8-4.61c5.6-5.34,11.92-9.85,17.56-15.15a18.6,18.6,0,0,1,3.72-2.76c8.9-5,16.47-11.83,24.54-18,1.87-1.43,3.76-2.83,5.59-4.29a1.26,1.26,0,0,1,1.62-.16c17.27,9.56,35.49,17.41,52,28.38,20.15,13.4,40.36,26.73,58.31,43.13,1.25,1.15,1.23,1.55-.26,2.42-8.29,4.83-15.42,11.22-22.69,17.39a6.7,6.7,0,0,1-4.68,1.75C369.79,450.85,346.19,450.88,322.58,450.88Z"/><path class="cls-6" d="M142.64,450.88q-35.52,0-71,0a4.18,4.18,0,0,1-2.94-.94c-7.64-6.47-15.09-13.2-23.79-18.3-1.27-.74-.32-1.16.16-1.57,3.7-3.22,7.36-6.51,11.16-9.6,15.67-12.73,32.34-24.06,49.23-35.07,11.95-7.78,24.73-14.07,37.51-20.38,3.89-1.91,7.57-4.31,11.47-6.28a2.26,2.26,0,0,1,2.79.32c8,5.62,14.94,12.59,23.29,17.66,9.81,5.94,17.88,14,26.56,21.26,2.48,2.09,4.94,4.19,8.08,5.21.93.3,1,.81,1,1.64,0,14.86-.08,29.73,0,44.59,0,1.88-1.1,1.44-2.08,1.44Z"/><path class="cls-7" d="M134.57,179.21a53.15,53.15,0,0,1,.09-7.25c.74-.06.65-.67.84-1.15s.11-1.55,1.12-1.68A86.86,86.86,0,0,0,146.53,193c2.94,5.11,7.95,7.37,13.25,9.21,3.59,1.26,7.32,1.59,11,2.19,2.24.36,4.48.82,6.71,1.24,3.93.74,7.51-.9,11.23-1.64.38-.08.78-.09,1.17-.14-.44,1.28-.36,1.92,1.26,1.28s3.55-1.13,5.29-1.78c.65-.24,1.49-.38,1.81-1.36-1.76.09-3.14,1.18-4.77,1,5.09-2.62,8.89-6.75,12.75-10.81a24.1,24.1,0,0,0,4.28-7.25c3-7,5.84-14.1,8.73-21.17a12.44,12.44,0,0,1,2.18-3.36c1.75-2.06,1.56-2.86-.92-4l-.72-.37c-1.53-1.66-3.69-2-5.7-2.62-2.49-.72-5.18-.9-7.54-1.88-7.35-3.05-15-5.41-22-9.28a19.64,19.64,0,0,0-5.09-1.8c-4.69-1.1-9.6-1.84-13.8-4.15-5.36-2.94-10.94-3.35-16.73-3-1.05.06-2.53-.15-3,1.39-1.52.32-2.76-.47-4-1.09-2.27-1.13-2.25-1.18-4.57.05.3-2.45.61-4.76.85-7.07.13-1.22,1-1,1.79-1.1a87.2,87.2,0,0,1,22.69,1.48c23.61,4.24,46.11,12.06,68.22,21.13a7.93,7.93,0,0,0,6.52,0c21.31-8.71,43-16.28,65.66-20.65a100.81,100.81,0,0,1,23.25-2.09c1.42,0,2.1.39,2.24,2,.54,6.16,1.21,12.31,1.94,18.45.21,1.8-.48,2.47-2.14,2.49.15-1.94-1.24-1.92-2.42-1.67-8.75,1.86-17.77,1.82-26.51,4C293.29,152,287,152.76,280.76,154c-8,1.61-15.5,4.71-23,7.72-1.54.61-3.45.77-4.46,2.42-3.71,1.5-4,1.8-3.32,5.83.39,2.4-.22,4.69-.46,7a19.32,19.32,0,0,0,.55,7.19,54.49,54.49,0,0,1,1.33,12.2c.15,3.93.88,4.48,4.71,3.35a2.4,2.4,0,0,0,.38-.12c3.56-2,6.33-1,9.87,1s7.89,3.88,12.55,3.72c2.92-.1,5.84.77,8.82.62,5.72-.29,11.52-.46,16.8-2.85a32.85,32.85,0,0,0,15.93-14.53,4.37,4.37,0,0,0,.7-2.07c-.17-2.5,1.26-3,3.34-3.3a44.65,44.65,0,0,0,6.09-1.39c1.21-.33,1.77-.33,1.74,1.23-.22,11-.22,21.91-1.73,32.78-.54,3.84-1,7.69-1.63,11.52-.43,2.75-1,5.65-.46,8.52.3,1.56-.45,3-.5,4.55s.56,3.14.39,4.74c-1-.1-1-1-1.16-1.67-2.14-6.7-1.27-13.51-.6-20.3.25-2.58.64-5.16.92-7.74.11-1,.09-2.09-1-2.37s-1.61.77-1.95,1.46c-1.85,3.72-4.08,7.35-5.2,11.29a88.41,88.41,0,0,0-3.55,22.88c0,.7.24,1.56-.87,1.73a79.51,79.51,0,0,0-29-19.86,110.91,110.91,0,0,0-20.73-5.71c-1.18-.23-1.67-.49-1.52-1.85a7.58,7.58,0,0,0-2.18-6.07,19.7,19.7,0,0,0-7.14-4.78c-1.25-.51-2.51-.5-2.3,1.49-.57,0-.71.42-.94.87-.59,1.13-1.23,2.4-2.4,2.91-2.87,1.25-5.75,2.48-9,2.33a53.25,53.25,0,0,1-11.47-1.26c-2.71-.72-5.57-.85-8.15-2.05-1.23-.58-2.56-1.29-2.69-2.75-.16-2-.91-3.89-1.18-5.88-.07-.54.24-1.43-.48-1.59s-1.22.54-1.74,1.1c-1.25,1.35-2.44,2.85-4.45,3.15l-1.08-.65c-.05-.29-.16-.55-.49-.47-.14,0-.23.28-.34.43a19.38,19.38,0,0,0-9.26,13c-.28,1.37-.7,1.86-2,2.15-9.24,2.06-18.46,4.25-26.89,8.8a89.37,89.37,0,0,0-16.87,11.65c-1.09,1-2.4,1.67-3.2,2.94-.71-.13-.64-.53-.37-1l2.16-4.09c.91-1.71,2.32-3.33,2.64-5.15,1.42-8,.56-15.8-3.5-22.94A131.54,131.54,0,0,1,141.44,196c-2.06-5.43-5.25-10.43-6.09-16.32C135.29,179.34,134.91,179.26,134.57,179.21ZM265.76,205l-.25.78c4.6,2,9,4.57,14,5.46l.18-.48Zm-82.15,6c2.17.68,11.73-2.79,13.54-5C192.41,207.9,188,209.44,183.61,211Zm87.92-6.16c-1.48-1.33-3.37-1.81-5.15-2.49-.41-.16-1-.35-1.19.28s.47.71.91.85A19.16,19.16,0,0,0,271.53,204.83Z"/><path class="cls-8" d="M326.75,276.11c-1.54,0-2.82-.83-4.19-1.34-8.94-3.36-18.33-5.18-27.37-8.18-.57-.19-1.32-.49-1.66.11s.39,1.09.86,1.37c4.27,2.51,4.82,7.05,6,11.19.38,1.36-.81.75-1.41.49-4.11-1.83-8.17-3.76-12.32-5.52a243.48,243.48,0,0,0-26.35-9.92,36.47,36.47,0,0,1-3.83-1.63c1.48-1.14,2.87-2,3.73-3.37a3.64,3.64,0,0,0,.78-1.83c0-.51.24-1.21-.4-1.42-.87-.28-.63.57-.86,1-1.2,2.21-3.23,3.31-5.48,4.15-4.55,1.71-9.34,2.43-14,3.58-.71.18-1.43.35-2.13.59a19.9,19.9,0,0,1-12.58.31c-4.93-1.5-10-2.52-15-3.78a12.65,12.65,0,0,1-6.65-3.54,6.8,6.8,0,0,1-.93-1.29c-.22-.42,0-1.27-.85-1-.66.21-.48.92-.41,1.41.23,1.64,1.38,2.7,2.52,3.74a18.88,18.88,0,0,0,1.83,1.34c-1.44,1.45-3.71,1.18-4.88,2.79l-.05-.09a4.85,4.85,0,0,0-2.66.36c-.78.19-1.57.33-2.32.59a347.93,347.93,0,0,0-34,14.14c.79-2.84,1.3-5.58,2.58-8.09.5-1,1.52-1.72,1.53-3,.77-.54,1.52-1.1,2.3-1.61.4-.27.57-.6.3-1s-.58-.23-.91-.12c-9.89,3.47-20.3,5.2-30.06,9.11a13.71,13.71,0,0,1-1.94.46l0,0c4.35-6.11,6.12-13.54,10-19.85,5.24-8.4,12.77-14.3,21.13-19.39,9.37-5.71,19.72-8.62,30.2-11.27.52-.13,1.08-.47,1.43.18a10.71,10.71,0,0,0,7.9,5.56,58.63,58.63,0,0,0-5.64,6.94,20.29,20.29,0,0,0-2.2,5c-.19.61-.46,1.29.28,1.57s1.19-.43,1.41-1.06a28.13,28.13,0,0,1,3.26-6.45,30.75,30.75,0,0,1,4.05-5c1.71-1.66,3.32-1.54,5,.09a14,14,0,0,0,5.51,3.24c8.06,2.59,16.17,3.9,24.28.13a3.47,3.47,0,0,1,.79-.17c2.05,3.7,4.11,7.38,4.71,11.67.07.51-.08,1.42.85,1.29s.92-1,.8-1.6c-.81-4.5-2.3-8.65-6.1-11.59.88-1.36,2.52-1.77,3.57-2.91.4-.43.83-.22,1.29,0a4.74,4.74,0,0,0,2,.76c2.82-.28,3.78,1.89,5,3.64a24,24,0,0,1,3.51,6.76c.21.67.59,1.44,1.34,1.22,1-.3.51-1.16.31-1.85a19.82,19.82,0,0,0-4.44-7.81c-1.65-1.86-1.65-2.1.53-3.12a13,13,0,0,0,5.86-5.62c.5-.87,1-1.38,2-1.1,9,2.37,18.14,4.54,26.43,9,7.78,4.14,15.11,9,21.07,15.65a50.78,50.78,0,0,1,9.13,15.53,58.57,58.57,0,0,0,5.57,10.64ZM215.87,235.56c-2.54,1.48-3.75,4-4.82,6.54a13.76,13.76,0,0,0-1.31,5.21c0,.56.12,1.13.76,1.25.81.14.79-.55.86-1.05C212,243.22,213.93,239.42,215.87,235.56Z"/><path class="cls-9" d="M351.22,271.33c-.12,5.46-1,10.83-1.6,16.22-.07.67-.18,1.33-.26,2-.5,4.36-1.39,8.28-5.2,11.41-7.28,6-9.51,14.76-11.31,23.51-2.52,12.19-2.83,24.56-2.53,36.95,0,.61,0,1.21,0,1.82-.1,1.32-.48,2-2,1.08-2-1.17-4-2.12-6-3.22a57.33,57.33,0,0,0-10.51-4.59c-.8-.24-1.21-.52-1.37-1.42-1.27-7.42-4.09-14.48-5.24-21.94-.21-1.32-1.22-1.45-2.28-1.45-2,0-4,0-6.05.1a1.21,1.21,0,0,1-1.42-1,47.51,47.51,0,0,1-1.12-21.37,4.9,4.9,0,0,1,3-3.87,86,86,0,0,0,19.86-12.61,35.15,35.15,0,0,0,9.9-13.3c.41-1,.69-1.72,2.14-1.3a1.47,1.47,0,0,0,1.41-2.48c-1.4-1.72-.82-3.18-.22-4.84,2.35-6.6,2.58-13.4,2-20.31-.34-4.11-.76-3.19,2.87-4.85a18.27,18.27,0,0,0,8.81-8.24c1.64-3.09,3.34-6.13,4.74-9.34a16.62,16.62,0,0,0,1.48-6.85,62.93,62.93,0,0,0-4.27-22.26c-1.65-4.26-5-7.28-8.5-10.06-1.22-1-1.93-1.9-1.73-3.51a30.18,30.18,0,0,0,0-3.43c0-1.45-.36-2.95,1.63-3.62.83-.28,1-1.37,1-2.27.19-1.91-.44-3.73-.61-5.6a235.46,235.46,0,0,0-3.61-23.6c-1.26-6.52-1.47-13.23-2.16-19.85-.09-.81-.09-1.29,1-1a19.09,19.09,0,0,1,9,4.24,10.25,10.25,0,0,1,3.53,7,41,41,0,0,0,3.14,12.66c2.26,5.61,4.35,11.3,6.87,16.79a73.31,73.31,0,0,1,6.2,39,84.39,84.39,0,0,0-.35,11.92c1.81-1.47,2.68-4.09,4.17-12.49,1.68,5.31,1.17,10.45,0,15.5-3.66,15.41-9.21,30.18-15.25,44.78-1.77,4.29-3.43,8.61-5.11,12.93-.15.38-.78.83-.19,1.21s.95-.15,1.26-.61C348.07,276.56,349.61,274,351.22,271.33Z"/><path class="cls-10" d="M255,263.92a15,15,0,0,1,5.12,1.73,1.09,1.09,0,0,0,.7.9c5.82,2.89,11.55,6,17.49,8.63s12.07,4.77,18,7.49a10.51,10.51,0,0,0,5.13.66,1.51,1.51,0,0,0,1.43-1.22c.15-.64.3-1.39-.67-1.6-.38-1.36,1.47-1.9,1.16-3.26s-.44-2.48-.68-3.71c-.07-.4-.25-.83.05-1.15s.88,0,1.25.19a19,19,0,0,0,5.44,2c2.41.42,4.89.53,7.13,1.69a14.67,14.67,0,0,0,7.37,1.48,25.73,25.73,0,0,1-7.19,10.75c-7.57,7.1-16.39,12.16-26,16-3.64,1.48-7.26,3.07-10.9,4.6.13-.53.19-1.07.73-1.38,3.2-1.82,6.46-3.51,9.82-5,7.65-3.47,15.19-7.13,21.2-13.22.56-.57,1.42-1.14.92-2s-1.37-.12-2,.08a125.86,125.86,0,0,0-19.18,8.79c-6.64,3.55-13.9,5.68-20.55,9.2a34.85,34.85,0,0,1-4.73,2.14c-1.19-2.62-3.27-4.56-5.16-6.62-1-1.11-2.16-.82-3.27-.06-3.62,2.49-7.33,4.84-11.77,5.48-9.89,1.43-19.79,2.06-29.66-.17-3.66-.83-6.52-3.09-9.45-5.24-2.5-1.83-2.69-1.77-4.63.61a24.47,24.47,0,0,0-5,9.74c-.21.88-.55,1.23-1.54.89-13.77-4.69-27.25-10-39.25-18.45-6.39-4.5-11.47-10.09-14.47-17.4-.59-1.43.92-1.3,1.4-1.45,3-1,6-1.69,9-2.54,3.84-1.08,7.67-2.21,11.52-3.29.49-.13,1.09-.71,1.56.1-2.93,3.15-3.69,7.17-4.48,11.18-.19.95.28,1.38,1.22,1.36.18,1,1,.87,1.58.69a49.55,49.55,0,0,0,5.32-1.78c6.15-2.61,12.26-5.34,18.41-8,2.89-1.24,5.82-2.39,8.75-3.55,2.75-1.09,5.81-1.19,8.48-2.33a9.89,9.89,0,0,1,8.21,0c.05,0,.13,0,.2,0,2.44.65,5.17.41,7.36,1.75,4.37,2.68,9.2,2.05,13.84,2,3.07-.05,6.08-1.49,9.16-2.08C247.56,267.67,251.61,266.63,255,263.92Z"/><path class="cls-8" d="M230.42,351.66c-6.09-.89-12.52-1.62-18.22-4.93-6.18-3.58-9.64-9.1-11-16.08a89.45,89.45,0,0,1-1.52-10.52,24.37,24.37,0,0,1,4.26-15,1.17,1.17,0,0,1,2-.26c5.74,5.13,12.88,6,20.1,6.3s14.61.18,21.81-1.5a25.46,25.46,0,0,0,10-4.56c.84-.66,1.24-.57,2.1.24,2.91,2.76,4,6.54,5.37,10a14.58,14.58,0,0,1-.32,11c-2.33,5.61-5.14,11-9.58,15.23-4.15,4-9.47,6-14.69,8.13C237.5,351,234.12,351.25,230.42,351.66Zm3.11-13.6c-.12-2.18.33-4.88-.4-7.52-.15-.55,0-1.47-.82-1.31s-.38,1-.36,1.57a17.78,17.78,0,0,1,.3,2.57c-.51,4.73-.33,9.49-1.07,14.2-.11.73-.24,1.7.67,1.86,1.12.19,1.12-.89,1.24-1.65A61.58,61.58,0,0,0,233.53,338.06Zm-8.64-7.21-.54-.05c-1.15,4.45-1.92,8.92-.58,13.51.13.46.28,1.09.8,1,.75-.1.52-.86.47-1.33a80.27,80.27,0,0,1,0-12.21A5.06,5.06,0,0,0,224.89,330.85Zm13.84.76c.15,4.77.61,9.52.7,14.29C241.13,341.06,240.13,336.32,238.73,331.61Z"/><path class="cls-8" d="M182.65,148.15a50.07,50.07,0,0,1,10.82,3.69,53.25,53.25,0,0,0,15.42,4.34A64.29,64.29,0,0,1,218,158.6c.86.26.91.44.44,1.18a61.22,61.22,0,0,0-5.88,13c-1.34,3.81-3.53,7.25-4.53,11.18-.12.48-.38.9-1,.86s-.56-.61-.63-1.06c-.93-6.15-3.39-11.85-5.28-17.71-.24-.73-.73-1.4-1.61-1.2s-1.21,1-1.2,1.86a18.79,18.79,0,0,0,1.38,6.25c1.45,3.89,2.16,8.07,4.75,11.71a5.32,5.32,0,0,1-2.95-.4c-6.67-2-13.29-4.24-19.78-6.82a29.11,29.11,0,0,0-4.88-1.16,76.45,76.45,0,0,1-12.17-4c-4.17-1.64-8.29-3.32-12.63-4.58-6.67-1.93-13.51-3.52-19.6-7.18-2.53-1.52-2.71-1.34-1.41-4a67.47,67.47,0,0,0,3.25-9c1.26-3.94,3.74-7.41,5.18-11.33.21-.56.67-.4,1-.16,2.54,1.89,5.62,1.71,8.5,1.95,2.58.22,4.95,1.27,7.51,1.38a1,1,0,0,1,1.06,1c.08,3.89,2.23,7,4,10.16a80.12,80.12,0,0,1,6,12.73c.51,1.42,1.15,2.83,3,2.18s1.57-2.17,1-3.7a103.85,103.85,0,0,0-7.89-16c-.63-1.11-1.16-2.27-1.75-3.39-.19-.36-.47-.73-.17-1.1s.75-.25,1.14-.15a31.38,31.38,0,0,1,6.43,2.29c2.32,1.13,4.88,1.47,7.29,2.29.71.25,1.28.47,1.53,1.37a49.14,49.14,0,0,0,6.24,13.25c1.23,1.94,2.13,4,3.16,6.07.56,1.11,1.32,2.09,2.64,1.56s1.33-1.76.95-3.08c-1-3.7-3.55-6.6-5.33-9.89a44,44,0,0,1-3.24-6.7Z"/><path class="cls-8" d="M262.75,193.37c2.57-2.12,5.13-4.24,7.71-6.35,1.61-1.31,3.24-2.6,4.85-3.9.94-.76,1.8-1.65.85-2.88s-2.11-.67-3,0c-2.32,1.82-4.64,3.65-6.83,5.63-2.89,2.61-6.23,4.68-8.9,7.53-.73.78-1.43,1.59-2.31,2.57-.42-2.4,0-4.74-.54-7-.4-1.69-.39-3.49-.92-5.13-1-3.19-.62-6.37-.2-9.55a13.45,13.45,0,0,0,0-5c-.21-.89-.08-1.55.94-1.88,7.64-2.48,15.18-5.27,23.19-6.39a6.68,6.68,0,0,1,1.09,0c-2.09,2.25-4.17,4.55-6.33,6.79-1.35,1.4-2.82,2.68-4.22,4a1.71,1.71,0,0,0-.31,2.51c.82,1,1.81.74,2.65,0,5-4.73,10.3-9.24,14.6-14.7.65-.82,1.54-.78,2.32-.95,6.16-1.33,12.43-1.93,18.64-2.93,7.85-1.28,15.77-2.19,23.48-4.21,1.41-.37,2.1-.3,2.21,1.42a9.51,9.51,0,0,0,1.1,4,6.83,6.83,0,0,1,.79,3.5,52.31,52.31,0,0,0,1.19,12.78c.32,1.55.2,2.64-1.88,3.2-8.09,2.2-16.38,3.46-24.46,5.61-6.22,1.65-12.17,4.17-18.41,5.78a190.82,190.82,0,0,1-20.23,4.27c-2.3.34-4.55,1-6.82,1.49ZM319,159.48c.06-.66-.32-.83-.86-.84a3.62,3.62,0,0,0-2.19.89c-3.64,2.61-7,5.56-10.43,8.44-1.95,1.64-3.89,3.28-5.75,5-.73.68-1.32,1.67-.48,2.66s1.83.67,2.68,0c1.16-.9,2.25-1.89,3.34-2.87,3.93-3.54,8.2-6.67,11.91-10.45A7.62,7.62,0,0,0,319,159.48Z"/><path class="cls-9" d="M144.59,360.81c1.65-13-.2-25.13-3.46-37.17-2.25-8.31-7.3-14.88-12.88-21.14-.26-.29-.62-.69-1-.71-2.42-.14-1.72-1.71-1.46-3.07,1.29-6.87,3.56-13.54,4.11-20.55.61-8,2-16-.66-23.81-1-3-.28-5.49.45-8.19.09-.3.07-.66.51-.75,1.36-.28,4.15,2.07,4.08,3.49-.09,1.75-.22,3.49-.33,5.24a39.43,39.43,0,0,0,1.39,14,3.84,3.84,0,0,1-.7,3.91c-.93,1.14-1.82,2.33-2.66,3.54a1.86,1.86,0,0,0-.11,2.27c.52.71,1.21.63,2,.33a6.62,6.62,0,0,1,1.57-.18c1-.12,2.08-1.35,3-.6s1,1.88,1.37,2.87c2.57,6.06,7,10.64,12,14.65a80.87,80.87,0,0,0,11.81,7.7,1.9,1.9,0,0,1,1.26,2,9,9,0,0,0,1.07,3.64c3,7.26,3.16,14.78,2.17,22.42-.1.8-.4,1.23-1.27,1.17s-1.75,0-2.62-.07c-3.44-.16-3.89-.09-4.61,3.17-1.55,6.95-4.05,13.67-5.09,20.73-.07.52-.12.92-.65,1.09A61.06,61.06,0,0,0,144.59,360.81Z"/><path class="cls-5" d="M306.62,354.6c.15.84-.46,1.22-1,1.6-9.71,6.86-18.55,14.84-28.67,21.21-7.71,4.86-14.14,11.54-21.06,17.51a31.57,31.57,0,0,1-6.53,4.66c-1.13.56-1.7.38-2.31-.83-3.9-7.73-7.43-15.65-11.79-23.15-.31-.54-.66-1,.29-1.34,4.75-1.77,8.94-4.61,13.25-7.2,7.13-4.31,14.29-8.55,21.23-13.18,6.09-4.07,13-6.65,19.35-10.36,3.25-1.92,6.27-4.17,9.42-6.22.61-.4,1.3-.68,1.94-1.05s1.15-.4,1.39.58c1.42,5.67,2.89,11.32,4.35,17C306.54,354.07,306.58,354.33,306.62,354.6Z"/><path class="cls-5" d="M158.42,354.38q.81-3.22,1.63-6.45c.91-3.58,1.89-7.15,2.69-10.75.3-1.37.79-1.51,1.85-.84.8.51,1.64.94,2.4,1.49a130.44,130.44,0,0,0,22,12.63c5.63,2.66,10.43,6.62,15.76,9.75q10.51,6.18,21,12.4c.46.28,1,.47,1.42.78.91.65,2.68.41,2.82,1.47.12.9-1,1.94-1.56,3-3.45,6.84-7,13.65-10.26,20.56-.83,1.73-1.61,1.72-3,.95a23.21,23.21,0,0,1-5.1-3.59c-5.63-5.42-12-10-17.7-15.31-3-2.82-6.72-4.67-10.18-6.88-6.36-4.08-11.85-9.29-17.93-13.73-1.57-1.15-3.13-2.31-4.68-3.5C158.93,355.84,158.1,355.44,158.42,354.38Z"/><path class="cls-5" d="M232.62,377.75c3.25,6.48,6,12.68,9.4,18.55,2.79,4.88,3.54,9.88,3.43,15.38-.25,12.43-.1,24.88,0,37.32,0,1.4-.18,1.95-1.81,1.92q-11-.17-22,0c-1.67,0-1.91-.54-1.91-2,.05-14.79,0-29.59,0-44.38a4.9,4.9,0,0,1,.41-2.34c3.74-7.36,7.44-14.75,11.16-22.12C231.6,379.4,232,378.79,232.62,377.75Zm.29,22.14,1-.14c2.3-.3,4.12-1.29,4.85-3.64a6.07,6.07,0,0,0-2.33-6.07c-2-1.38-3.84-.37-5.68.46a6.48,6.48,0,0,0-1,.66c-2.43,1.8-3.5,3.9-2.91,5.73S229.72,399.93,232.91,399.89Zm-.19,39.57,1.28-.17c2.31-.32,4.15-1.33,4.77-3.71s-.53-4.4-2.27-5.9-3.68-.51-5.47.24a5.62,5.62,0,0,0-1.35.86c-1.8,1.42-3.43,3-2.87,5.56C227.22,438.21,229.39,439.34,232.72,439.46Z"/><path class="cls-11" d="M259.3,343c4.33-5.46,8-11.25,9.9-18.06a18,18,0,0,0,.32-7c-.09-.76-.12-1.4.87-1.71a224.52,224.52,0,0,0,21.2-7.93,43.2,43.2,0,0,0-1.07,7.73,47.19,47.19,0,0,0,3.33,19.31c.38.95,0,1.3-.66,1.78a52.89,52.89,0,0,1-9,5.34c-10.62,5-20.35,11.47-30.31,17.57-2.55,1.56-5.14,3-7.72,4.55-.9-.65-.14-1.21.16-1.69,1.69-2.73,3.45-5.41,5.16-8.12a15.9,15.9,0,0,1,2.85-3.29A16.4,16.4,0,0,0,259.3,343Z"/><path class="cls-11" d="M196.33,323.73c.34,2,.75,4.07,1,6.12,1,7.75,4.83,13.89,10.77,18.82a3.77,3.77,0,0,0,.77,2.85c2,3,3.64,6.26,6.19,8.89.58.6,1.29,1.31-.2,1.69-2.89-1.67-5.9-3.16-8.64-5A203,203,0,0,0,181.84,343a72.54,72.54,0,0,1-10.23-6,2.21,2.21,0,0,1-1-2.55c1.44-7.17,1.82-14.36.06-21.55a24.19,24.19,0,0,1,8.16,4.13A34.2,34.2,0,0,0,196.33,323.73Z"/><path class="cls-12" d="M209.58,209.54c2-.3,3.2-1.8,4.45-3.15.52-.56,1-1.29,1.74-1.1s.41,1.05.48,1.59c.27,2,1,3.86,1.18,5.88.13,1.46,1.46,2.17,2.69,2.75,2.58,1.2,5.44,1.33,8.15,2.05a53.25,53.25,0,0,0,11.47,1.26c3.3.15,6.18-1.08,9-2.33,1.17-.51,1.81-1.78,2.4-2.91.23-.45.37-.86.94-.87,1.4,1.94,3.44,3.17,5.18,4.73,3.37,3,3.23,6.3-.39,9.09a18,18,0,0,1-3.25,2.36c-2.41,1.11-4,.08-3.8-2.47a8,8,0,0,0-.77-3.84,1.06,1.06,0,0,0-.58,1c-.25,5.38-4.27,7.26-8.4,8.88-5.8,2.28-11.7,1.94-17.58.19-.71-.21-1.45-.32-2.14-.57-2.82-1-5.53-2.17-6.14-5.66a8.61,8.61,0,0,0-1-2.4,2,2,0,0,0-2.49-1.18,1.76,1.76,0,0,0-1.16,2.44c.85,2.09-.42,2.11-1.8,2-3.63-.24-7.3-2.77-4.47-7.76a22.16,22.16,0,0,1,5.09-6.46C209.58,212.12,210.19,211,209.58,209.54Z"/><path class="cls-5" d="M180.43,180c-9,9.8-8.33,17.79,1.55,22.16-4.75.43-9.16-1.35-13.74-1.77a33.09,33.09,0,0,1-14.2-4.67,13.13,13.13,0,0,1-4.87-5.24c-1.77-3.31-3.68-6.56-5.23-10-1.68-3.72-2.56-7.75-3.7-11.66-.45-1.56.28-1.71,1.69-1.34,8.24,2.19,16.11,5.46,24.15,8.23,4,1.38,7.88,3.48,12.29,3.62A8.61,8.61,0,0,1,180.43,180Z"/><path class="cls-13" d="M134.57,179.21c.34,0,.72.13.78.51.84,5.89,4,10.89,6.09,16.32a131.54,131.54,0,0,0,8.93,18.19c4.06,7.14,4.92,15,3.5,22.94-.32,1.82-1.73,3.44-2.64,5.15l-2.16,4.09c-.27.49-.34.89.37,1L147.21,250c-1.46-.39-2.79,1.32-2.47,3.17a82.62,82.62,0,0,0-6.41,12c-1.76-7.88-.17-15.21-.07-22.54.71-.07.79-.57.81-1.15a5.43,5.43,0,0,1,.34-2.76c2-3.49,1-7.24,1-10.91a84.49,84.49,0,0,0-1-8.53c-.26-2.4.49-4.88-.68-7.22-1.3-2.62-2.78-5.19-2.6-8.33a2.47,2.47,0,0,0-1.09-2.26,6.65,6.65,0,0,1-.21-2.84c1.24-1.39,1.25-6.28,0-7.63,0,0-.13,0-.2-.05A72.55,72.55,0,0,1,134.57,179.21Z"/><path class="cls-9" d="M125.47,192.11c-3.33-13.07-5.89-26-6.64-39.31a25,25,0,0,1,3.28-14.54,2.31,2.31,0,0,0,.38-.92c.6-6.16,6.58-10,12.08-10.92-.37,3.3-.88,6.54-1.06,9.81a54.84,54.84,0,0,1-5.1,19.31,12.1,12.1,0,0,1-1.08,1.93c-1.6,2.33-.83,4.8,2,5.38,1.87.39,2.09,1.22,2,2.88-.44,6.65-.56,13.31-.49,20a3.36,3.36,0,0,1-1.52,3.21A47,47,0,0,0,125.47,192.11Z"/><path class="cls-12" d="M214.88,362.1c1.49-.38.78-1.09.2-1.69-2.55-2.63-4.19-5.88-6.19-8.89a3.77,3.77,0,0,1-.77-2.85A42.9,42.9,0,0,0,229.47,355c10.83.42,20-4.11,28.31-10.76.52-.41,1-.86,1.52-1.29a16.4,16.4,0,0,1-5,8.48,15.9,15.9,0,0,0-2.85,3.29c-1.71,2.71-3.47,5.39-5.16,8.12-.3.48-1.06,1-.16,1.69a95.21,95.21,0,0,1-10.09,5.81,7.28,7.28,0,0,1-7,0A130.22,130.22,0,0,1,214.88,362.1Z"/><path class="cls-11" d="M336,192.56a19.37,19.37,0,0,1,7,9.09,73.25,73.25,0,0,1,3.34,13.85c1.1,7-1.17,12.89-4.51,18.73-2,3.53-4.22,6.65-8.1,8.33-1.48.64-1.77.36-1.77-1.18a167.15,167.15,0,0,1,1.73-22.69,228.72,228.72,0,0,0,2-24.09A3.28,3.28,0,0,1,336,192.56Z"/><path class="cls-12" d="M315,249.49c1.11-.17.87-1,.87-1.73a88.41,88.41,0,0,1,3.55-22.88c1.12-3.94,3.35-7.57,5.2-11.29.34-.69,1-1.72,1.95-1.46s1.11,1.41,1,2.37c-.28,2.58-.67,5.16-.92,7.74-.67,6.79-1.54,13.6.6,20.3.2.63.12,1.57,1.16,1.67.34,6.54,1.32,13.07.14,19.64a54.59,54.59,0,0,1-1.62,6.56C323.23,262.94,320.14,255.6,315,249.49Z"/><path class="cls-5" d="M318,183.84c-.76,3.53-3,5.92-5.32,8.39-6.64,7.21-15.28,9-24.49,9.27-1.55.05-3.11,0-4.94,0,1-.67,1.85-1.16,2.6-1.76a7.12,7.12,0,0,0,3.06-5.24c0-2.29,1.14-3,3.1-3.49C300.61,188.84,308.78,185,318,183.84Z"/><path class="cls-12" d="M266.07,307.64a34.85,34.85,0,0,0,4.73-2.14c6.65-3.52,13.91-5.65,20.55-9.2a125.86,125.86,0,0,1,19.18-8.79c.59-.2,1.42-1,2-.08s-.36,1.46-.92,2c-6,6.09-13.55,9.75-21.2,13.22-3.36,1.52-6.62,3.21-9.82,5-.54.31-.6.85-.73,1.38-3.34,1.2-6.68,2.38-10,3.61A1.33,1.33,0,0,1,268,312,14.59,14.59,0,0,1,266.07,307.64Z"/><path class="cls-13" d="M196.33,323.73a34.2,34.2,0,0,1-17.5-6.72,24.19,24.19,0,0,0-8.16-4.13A47.59,47.59,0,0,0,167,304.5c2.05,1,3.53,1.68,5,2.37a200,200,0,0,0,22.31,8.7c1.27.41,1.83.86,1.73,2.34A49.39,49.39,0,0,0,196.33,323.73Z"/><path class="cls-12" d="M253.29,164.16c1-1.65,2.92-1.81,4.46-2.42,7.51-3,15-6.11,23-7.72,6.2-1.26,12.53-2,18.67-3.49,8.74-2.14,17.76-2.1,26.51-4,1.18-.25,2.57-.27,2.42,1.67-6.06,1.86-12.36,2.41-18.57,3.49-9.38,1.65-19,2.27-28.16,4.88-5.69,1.61-11.59,2.24-17.25,4C260.67,161.77,257.18,163.6,253.29,164.16Z"/><path class="cls-14" d="M255,263.92c-3.42,2.71-7.47,3.75-11.65,4.54-3.08.59-6.09,2-9.16,2.08-4.64.09-9.47.72-13.84-2-2.19-1.34-4.92-1.1-7.36-1.75-.07,0-.15,0-.2,0a9.89,9.89,0,0,0-8.21,0c-2.67,1.14-5.73,1.24-8.48,2.33-2.93,1.16-5.86,2.31-8.75,3.55-6.15,2.63-12.26,5.36-18.41,8a49.55,49.55,0,0,1-5.32,1.78c-.61.18-1.4.32-1.58-.69,5.83-3,11.94-5.47,18-8.13,6.43-2.84,13.12-5,19.64-7.63.53-.15,1.22,0,1.4-.78l.05.09c1.95.73,3.34-.85,5-1.33a5.45,5.45,0,0,1,3.24-.14c6.56,1.94,13.12,3.84,19.75,5.53,2.91.73,5.45-.25,8-.93,5.51-1.43,11-3.11,16.43-4.7C254.09,263.6,254.59,263.4,255,263.92Z"/><path class="cls-14" d="M145.91,134.66c.5-1.54,2-1.33,3-1.39,5.79-.33,11.37.08,16.73,3,4.2,2.31,9.11,3.05,13.8,4.15a19.64,19.64,0,0,1,5.09,1.8c7,3.87,14.66,6.23,22,9.28,2.36,1,5.05,1.16,7.54,1.88,2,.58,4.17,1,5.7,2.62-3.28-.91-6.37-2.39-9.78-2.94-10.57-1.72-20.39-5.89-30.43-9.38-8.84-3.08-17.64-6.43-26.93-8C150.42,135.31,148.16,135,145.91,134.66Z"/><path class="cls-15" d="M353.05,282.55a1.87,1.87,0,0,0,1.53-1.17c4.55-8,10.12-15.44,14.79-23.41,3.78-6.44,7.24-13,8.32-20.52,0-.1.16-.18.38-.4,1.36,2.7.67,5.37.13,8-1.19,5.81-4.1,10.91-7.16,15.85-5.71,9.22-11.67,18.28-17.55,27.39-.27.42-.42,1-1,1.18C352.66,287.14,352.86,284.85,353.05,282.55Z"/><path class="cls-12" d="M130.93,192.72a256.17,256.17,0,0,0,2.55,30.3,119.05,119.05,0,0,1,1.11,17.5c0,.76.92,2.27-.7,2.37a2.81,2.81,0,0,1-2.95-2.92,103.92,103.92,0,0,0-1.15-31.14,56.25,56.25,0,0,0-2.9-11.11,1.48,1.48,0,0,1,.17-1.83c1.1-1.16,2.14-2.39,3.2-3.58Z"/><path class="cls-12" d="M302.19,280.51c1,.21.82,1,.67,1.6a1.51,1.51,0,0,1-1.43,1.22,10.51,10.51,0,0,1-5.13-.66c-5.89-2.72-12-4.85-18-7.49s-11.67-5.74-17.49-8.63a1.09,1.09,0,0,1-.7-.9c2.71,0,5,1.31,7.48,2.18a341.78,341.78,0,0,1,31.75,13.32c.86.4,2.17,1.63,2.48-.61Z"/><path class="cls-11" d="M135,201.43a2.47,2.47,0,0,1,1.09,2.26c-.18,3.14,1.3,5.71,2.6,8.33,1.17,2.34.42,4.82.68,7.22a84.49,84.49,0,0,1,1,8.53c0,3.67,1,7.42-1,10.91a5.43,5.43,0,0,0-.34,2.76c0,.58-.1,1.08-.81,1.15.07-12.09-1.83-24-3.21-36C134.86,204.92,135,203.16,135,201.43Z"/><path class="cls-14" d="M302.19,280.51l-.33,0c-1-3.4-1.56-7-3.59-10-.39-.59-.07-.9.56-.85a15.2,15.2,0,0,1,2.79.34c7.05,2,14.21,3.58,21,6.34.54.22,1.79,0,1.27,1.33a14.67,14.67,0,0,1-7.37-1.48c-2.24-1.16-4.72-1.27-7.13-1.69a19,19,0,0,1-5.44-2c-.37-.19-.8-.66-1.25-.19s-.12.75-.05,1.15c.24,1.23.41,2.48.68,3.71S301.81,279.15,302.19,280.51Z"/><path class="cls-2" d="M199.66,266c-6.52,2.61-13.21,4.79-19.64,7.63-6,2.66-12.12,5.09-18,8.13-.94,0-1.41-.41-1.22-1.36.79-4,1.55-8,4.48-11.18l.82,0c0,1.25-1,2-1.53,3-1.28,2.51-1.79,5.25-2.58,8.09a347.93,347.93,0,0,1,34-14.14c.75-.26,1.54-.4,2.32-.59C198.7,266.09,199.22,266,199.66,266Z"/><path class="cls-15" d="M331.15,122.07c1.35-1.17,3.09-.72,4.57-.86,5.1-.46,10.25-.64,15.24,1a4.52,4.52,0,0,0,1,.07c-.68-1.08-1.94-.94-2.69-1.66,2.24-.56,6.83,1.7,9.08,4.65-2.29-.77-4.24-1.39-6.2-1.9a58.82,58.82,0,0,0-16.3-1.48c-.61,0-1.26-.07-1.37.79A11.84,11.84,0,0,1,331.15,122.07Z"/><path class="cls-15" d="M198.73,195.63a16.64,16.64,0,0,0,2.92-7.54c0-.6.33-.79.91-.72,1.25.15,2.51.26,4,.4a32.13,32.13,0,0,1-7.22,8.47Z"/><path class="cls-4" d="M243.51,235.36c3.8,2.94,5.29,7.09,6.1,11.59.12.65.08,1.48-.8,1.6s-.78-.78-.85-1.29c-.6-4.29-2.66-8-4.71-11.67A.45.45,0,0,1,243.51,235.36Z"/><path class="cls-15" d="M184.43,196.63c-2.2.58-4.3.71-5.92-1.11-1.9-2.14-1.75-4.58-.84-7.58.52,1.16,1.14,1.92,1.16,2.7C179,194.29,180.82,196.17,184.43,196.63Z"/><path class="cls-15" d="M286.32,192.15c-1.08,4.29-3.36,5.52-7.4,4.39C282.19,196.87,283.36,193.54,286.32,192.15Z"/><path class="cls-13" d="M136.62,169.13c-1,.13-.87,1.06-1.12,1.68s-.1,1.09-.84,1.15v-6.84C136.83,166,136.88,167.51,136.62,169.13Z"/><path class="cls-14" d="M193.51,203c1.63.16,3-.93,4.77-1-.32,1-1.16,1.12-1.81,1.36-1.74.65-3.56,1.1-5.29,1.78s-1.7,0-1.26-1.28l.74-.14c1,.65,1.6.26,2.08-.63Z"/><path class="cls-11" d="M134.57,190.91c.07,0,.16,0,.2.05,1.24,1.35,1.23,6.24,0,7.63A44.76,44.76,0,0,1,134.57,190.91Z"/><path class="cls-7" d="M144.74,253.16c-.32-1.85,1-3.56,2.47-3.17Z"/><path class="cls-9" d="M198.73,195.63l.61.61a5.8,5.8,0,0,1-3,2.29Z"/><path class="cls-9" d="M267.45,198.5c-1.37.36-2.1-.43-3.07-1.29C266.08,196.41,266.58,197.7,267.45,198.5Z"/><path class="cls-7" d="M192.74,203.09c-.48.89-1.12,1.28-2.08.63A3.52,3.52,0,0,1,192.74,203.09Z"/><path class="cls-12" d="M207.67,208.85c.11-.15.2-.4.34-.43.33-.08.44.18.49.47Z"/><path class="cls-8" d="M182.66,148.13l-.17-.09.16.11Z"/><path class="cls-8" d="M326.77,276.09l.17.19-.19-.17Z"/><path class="cls-8" d="M135.84,276.11l-.19.17.17-.19Z"/><path class="cls-4" d="M358.64,114.65a44.25,44.25,0,0,1-13.1-10.53c-.77-.86-1.27-1.06-2.19-.08-2.07,2.21-5,2.33-7.75,3-10.25,2.46-20.75,2.77-31.19,3.64-16.34,1.36-32.68,2.57-49.11,2.61-9.54,0-19.09.57-28.62-.16-7.53-.58-15-.46-22.57-.37-11.45.15-22.82-1-34.18-2.2-7.55-.79-15.14-1.19-22.66-2.28-5.31-.78-10.65-1.41-15.91-2.55-4-.86-7,.2-9.75,3.4-3.84,4.52-8.86,7.81-13.32,11.7-8.5,7.4-15.37,16-19.55,26.5-1.28,3.24-2.21,6.62-3.31,9.93a40.78,40.78,0,0,1-2.87,6.43c-.85-1.44-.74-2.84-.87-4.66-1,1.22-1.7,2-2.3,3-5.47,8.48-9.23,17.59-9.84,27.79-.57,9.46-1.14,19,.34,28.38a127,127,0,0,0,14,40.56,22.74,22.74,0,0,1,2.67,6.49c-2.57-.62-3.95-2.72-5.29-4.65-3.69-5.34-6.11-11.35-8.28-17.43a113.2,113.2,0,0,1-6-22.52,70.78,70.78,0,0,1-.7-14.41c.25-3.89,0-7.81.14-11.7.34-12.39,3.6-23.83,11.24-33.8a4.78,4.78,0,0,1,.88-1.09c3.53-2.56,4.61-6.43,5.63-10.34a49.36,49.36,0,0,1,10.7-19.83c6.13-7.22,13.25-13.29,20.51-19.26a63.61,63.61,0,0,0,5-5,2,2,0,0,0,.19-3,7.12,7.12,0,0,1-.52-8,7.79,7.79,0,0,1,7.1-4.21,40.17,40.17,0,0,1,7.82.52c.87,2.16,2.79,2.66,4.75,2.66a31.16,31.16,0,0,1,7,.91c5.41,1.22,10.9,1.94,16.38,2.71,4.69.66,9.46.72,14.15,1.35a207.6,207.6,0,0,0,29.56,2.33c3.48,0,7-.24,10.43-.24,5.6,0,11.19.9,16.8,1,5.82.1,11.66.21,17.5-.26,6-.48,12.07.16,18.1-.45,4.39-.44,8.81-.49,13.21-.88,6.58-.58,13.13-1.6,19.72-1.9a138.89,138.89,0,0,0,22.54-3.39c.63-.13,1.58-.1,1.66-1.15.72-.58,1.87-.06,2.83-1.39-3.58.27-6.52,1.66-9.65,2A63.36,63.36,0,0,1,306.14,96c-5.28.21-10.5,1-15.77,1.34-7.72.48-15.42,1.58-23.15,1.86-7.23.27-14.48.34-21.72.45-7.57.12-15.13-.25-22.7-.62-12.23-.61-24.52.21-36.75-1.29-5.56-.68-11.12-1.36-16.71-1.82a97,97,0,0,1-15.42-2.24c-2.57-.64-5.25-.85-7.87-1.25a9.73,9.73,0,0,0-5.37-.81A6.52,6.52,0,0,1,135.47,90a7.9,7.9,0,0,1-2.19-8.93,7.34,7.34,0,0,1,7-4.79,27.93,27.93,0,0,1,7.18.71,2.6,2.6,0,0,0,2.47-.43c8.82-7.32,19.28-11.2,30.08-14.48a163.35,163.35,0,0,1,27.71-5.83,161.7,161.7,0,0,1,29.11-1.09q11.25.66,22.45,1.77A128.41,128.41,0,0,1,297,66.43a136.37,136.37,0,0,1,21.19,11.16,3.58,3.58,0,0,0,3,.51c2.91-.71,5.85-1.28,8.33,1.18a7.86,7.86,0,0,1,2.24,7.56c-.16.84-1.14,1.9-.12,2.58,1.27.85,2.39,2.25,4.23,1.93,5.55-1,9.79,2.85,9.8,7.51,0,.86.67,1.27,1.15,1.81a51.42,51.42,0,0,0,17,12.66c6.07,2.78,10.85,7.38,15,12.53,5.17,6.35,10.44,12.62,14.91,19.51a60.92,60.92,0,0,1,9.3,26.33,147.76,147.76,0,0,1,.69,19.5c0,.67-.17,1.33-.22,2-.19,2.46-.34,4.79,1.08,7.16,2.53,4.22,3.32,9.09,3.55,13.91.48,10.15-.73,20.21-2.23,30.24a129.47,129.47,0,0,1-5.1,22.52c-3.2,9.46-7.9,18.22-12.71,26.93-1.53,2.76-3,5.55-4.49,8.34a7.44,7.44,0,0,1-1.62,2.29c-.53.44-.88,1.47-1.72,1.08-.67-.3-.16-1.24-.37-1.86,2.76-7.33,7-13.92,10.64-20.77,7.32-13.64,11.43-28.2,13.3-43.48,1-7.93,2.12-15.85,2-23.88a52,52,0,0,0-1.68-12.54,4.25,4.25,0,0,0-1.27-2.63c-.57,2.38-.82,4.72-2,6.77-.35.63-.67,1.67-1.39,1.55-.89-.14-.85-1.26-.87-2,0-3.24.69-6.41,1-9.62,1.23-12.95,1.09-25.8-3.06-38.31-2.68-8.1-7.68-14.89-12.9-21.49-4.13-5.21-8-10.63-13-15.09a28.61,28.61,0,0,0-6.64-4.87A34.06,34.06,0,0,0,358.64,114.65Zm-57.27-42.2a9.47,9.47,0,0,0-2.88-1.34c-.6-.28-1.2-.58-1.81-.85a127.37,127.37,0,0,0-37.29-9.6c-17.54-1.95-35-3-52.65-.59A158.68,158.68,0,0,0,173,68.3l-2.48.85A51.82,51.82,0,0,0,154,78.3a606.35,606.35,0,0,0,160.27,1.27A81.16,81.16,0,0,0,301.37,72.45Z"/><path class="cls-2" d="M411.45,411.72c-5.74-7.61-12.38-14.48-18.22-22-10.29-13.26-15.86-28.31-18.09-44.81a147.91,147.91,0,0,1-.7-32.37,118.34,118.34,0,0,1,7-31.32,41.15,41.15,0,0,1,2.19-5.54c.63.29.37.93.54,1.4a148.54,148.54,0,0,0-6.89,26.9,10.71,10.71,0,0,0-.39,3.52,153.85,153.85,0,0,0-.87,21.89A127.06,127.06,0,0,0,379.37,354c3.23,14.18,9.86,26.55,19.08,37.69,3.79,4.59,7.78,9.05,11,14.1a30,30,0,0,1,2.25,4.72C411.89,411,412,411.4,411.45,411.72Z"/><path class="cls-2" d="M326.76,93.22c-.08,1-1,1-1.66,1.15a138.89,138.89,0,0,1-22.54,3.39c-6.59.3-13.14,1.32-19.72,1.9-4.4.39-8.82.44-13.21.88-6,.61-12.09,0-18.1.45-5.84.47-11.68.36-17.5.26-5.61-.09-11.2-1-16.8-1-3.46,0-6.95.22-10.43.24a207.6,207.6,0,0,1-29.56-2.33c-4.69-.63-9.46-.69-14.15-1.35-5.48-.77-11-1.49-16.38-2.71a31.16,31.16,0,0,0-7-.91c-2,0-3.88-.5-4.75-2.66l.46-.53a6.52,6.52,0,0,0,5.21,1.62,9.9,9.9,0,0,0,5.37.81c2.62.4,5.3.61,7.87,1.25a97,97,0,0,0,15.42,2.24c5.59.46,11.15,1.14,16.71,1.82,12.23,1.5,24.52.68,36.75,1.29,7.57.37,15.13.74,22.7.62,7.24-.11,14.49-.18,21.72-.45,7.73-.28,15.43-1.38,23.15-1.86,5.27-.33,10.49-1.13,15.77-1.34a63.36,63.36,0,0,0,13.8-2.15Z"/><path class="cls-15" d="M102.27,378.41c-.51-2.7,0-5.28.29-7.83,2-14.95,6.24-29.4,10.14-43.92.75-2.77,1.21-5.62,1.89-8.41.22-.93.44-2.24,1.75-2.09s1.27,1.44,1.35,2.54c.57,8.11-1.83,15.76-3.64,23.5-2,8.4-3.59,16.88-6.5,25A77.41,77.41,0,0,1,102.27,378.41Z"/><path class="cls-15" d="M110.54,268.29a1.6,1.6,0,0,1,.23.5c.45,9-.16,17.83-2.91,26.41q-6.47,20.12-13.26,40.11a185.68,185.68,0,0,1-9.84,23.54c-.26.51-.35,1.17-1,1.43-.55-.54,0-1,.11-1.45C88,347.66,91.53,336.25,95.43,325c3-8.8,6.36-17.51,9.52-26.27a92.26,92.26,0,0,0,4.27-18.11C109.81,276.52,110.06,272.42,110.54,268.29Z"/><path class="cls-15" d="M104.87,157.9a57.1,57.1,0,0,0-4.32,10.72c-3.26,10-3,20.09-.36,30.2,1.73,6.66,4.17,13.14,5.2,20a87.64,87.64,0,0,1,.52,14.56c-.67.14-.74-.23-.73-.55.12-9-2.79-17.38-5.49-25.8-2.64-8.26-4.79-16.63-4.2-25.41.57-8.35,2.79-16.2,7.92-23a10.63,10.63,0,0,0,.71-1.23Z"/><path class="cls-15" d="M393.2,251.36c-6.23,8.74-11.72,17.92-17.31,27a158.43,158.43,0,0,0-13.49,29C362.08,296.44,383.85,256.71,393.2,251.36Z"/><path class="cls-15" d="M375.41,168.43a3.68,3.68,0,0,1,2.63,1.95,51.5,51.5,0,0,1,5.28,12.56,91.54,91.54,0,0,1,4.39,30c0,.78.16,1.63-.79,2.34C385.53,199.06,383.15,183.15,375.41,168.43Z"/><path class="cls-15" d="M375.9,360.34c-.37-.06-.54,0-.62-.11-6-5.8-12.25-11.48-15.9-19.26a7.81,7.81,0,0,0-1.56-2.57.75.75,0,0,1-.2-1.07c.42-.48.87-.2,1.22.14a11,11,0,0,1,2,2.25c3.95,6.63,9,12.48,13.84,18.42A4.79,4.79,0,0,1,375.9,360.34Z"/><path class="cls-15" d="M344,353.16a35.3,35.3,0,0,0,7.17,12.66c3.11,3.64,6.61,7,9,11.26C355.14,374.9,342.69,361.52,344,353.16Z"/><path class="cls-9" d="M250.5,128.16c-4.83,2.57-10.25,3.94-14.7,7.28C239.42,130.46,244.69,128.77,250.5,128.16Z"/><path class="cls-9" d="M216.9,133.25a19,19,0,0,1,13.85,4.69c.31.26.9.6.46,1.13-.31.37-.77.1-1.09-.12-3.78-2.52-8.06-3.81-12.38-5C217.58,133.88,217.45,133.7,216.9,133.25Z"/><path class="cls-15" d="M106.79,137.6c-1-5.63,1.53-12,4.7-12.61C109.51,128.87,108.77,133.17,106.79,137.6Z"/><path class="cls-8" d="M384.17,277.07c-.17-.47.09-1.11-.54-1.4l5.88-15.38.54.2C388.26,266.07,386.47,271.66,384.17,277.07Z"/><path class="cls-15" d="M358.64,114.65a34.06,34.06,0,0,1,5.4,2.79c.44,1.89,2.4,2.68,3.15,4.35.23.5,1,1,.39,1.54s-1.07-.25-1.48-.65c-2.24-2.21-4.47-4.45-6.7-6.67A1.84,1.84,0,0,1,358.64,114.65Z"/><path class="cls-15" d="M215.31,127.7a23.69,23.69,0,0,1,10.65,3,12.61,12.61,0,0,1,4,2.7c.27.32.5.68.19,1.08s-.67.14-.89-.06C225.23,130.89,220.24,129.38,215.31,127.7Z"/><path class="cls-15" d="M236.34,139.1c1.24-2.8,9.83-6.63,12.76-5.81C244.93,135.09,240.49,136.26,236.34,139.1Z"/><path class="cls-15" d="M393.65,250c.12.05.29.08.32.16a.32.32,0,0,1-.14.31c-.08,0-.21-.08-.32-.13C393.56,250.24,393.6,250.13,393.65,250Z"/><path class="cls-14" d="M265.76,205l13.94,5.76-.18.48c-5-.89-9.41-3.47-14-5.46Z"/><path class="cls-14" d="M183.61,211c4.4-1.55,8.8-3.09,13.54-5C195.34,208.2,185.78,211.67,183.61,211Z"/><path class="cls-14" d="M271.53,204.83a19.16,19.16,0,0,1-5.43-1.36c-.44-.14-1.05-.25-.91-.85s.78-.44,1.19-.28C268.16,203,270.05,203.5,271.53,204.83Z"/><path class="cls-4" d="M215.87,235.56c-1.94,3.86-3.86,7.66-4.51,11.95-.07.5-.05,1.19-.86,1.05-.64-.12-.77-.69-.76-1.25a13.76,13.76,0,0,1,1.31-5.21C212.12,239.56,213.33,237,215.87,235.56Z"/><path d="M199.66,266c-.44-.07-1,.07-1.26-.42a4.85,4.85,0,0,1,2.66-.36C200.88,266,200.19,265.87,199.66,266Z"/><path class="cls-4" d="M233.53,338.06a61.58,61.58,0,0,1-.44,9.72c-.12.76-.12,1.84-1.24,1.65-.91-.16-.78-1.13-.67-1.86.74-4.71.56-9.47,1.07-14.2a17.78,17.78,0,0,0-.3-2.57c0-.55-.36-1.44.36-1.57s.67.76.82,1.31C233.86,333.18,233.41,335.88,233.53,338.06Z"/><path class="cls-4" d="M224.89,330.85a5.06,5.06,0,0,1,.13.94A80.27,80.27,0,0,0,225,344c.05.47.28,1.23-.47,1.33-.52.07-.67-.56-.8-1-1.34-4.59-.57-9.06.58-13.51Z"/><path class="cls-2" d="M238.73,331.61c1.4,4.71,2.4,9.45.7,14.29C239.34,341.13,238.88,336.38,238.73,331.61Z"/><path class="cls-4" d="M319,159.48a7.62,7.62,0,0,1-1.78,2.85c-3.71,3.78-8,6.91-11.91,10.45-1.09,1-2.18,2-3.34,2.87-.85.66-1.86,1-2.68,0s-.25-2,.48-2.66c1.86-1.73,3.8-3.37,5.75-5,3.42-2.88,6.79-5.83,10.43-8.44a3.62,3.62,0,0,1,2.19-.89C318.68,158.65,319.06,158.82,319,159.48Z"/><path class="cls-2" d="M232.91,399.89c-3.19,0-5.49-1.13-6.08-3s.48-3.93,2.91-5.73a6.48,6.48,0,0,1,1-.66c1.84-.83,3.73-1.84,5.68-.46a6.07,6.07,0,0,1,2.33,6.07c-.73,2.35-2.55,3.34-4.85,3.64Zm-.51-2.66c1.53-.18,3-.21,3.2-2.15.07-.76-1.74-3.8-2.21-3.83-1.24-.1-4.48,2.82-4.33,4C229.33,397.36,231.19,396.83,232.4,397.23Z"/><path class="cls-2" d="M232.72,439.46c-3.33-.12-5.5-1.25-5.91-3.12-.56-2.58,1.07-4.14,2.87-5.56a5.62,5.62,0,0,1,1.35-.86c1.79-.75,3.7-1.76,5.47-.24s2.9,3.46,2.27,5.9-2.46,3.39-4.77,3.71Zm-.41-2.72c2.18,0,3.34-.82,3.3-2.15,0-.86-1.77-3.78-2.27-3.78-1.34,0-4.48,2.86-4.28,4.06C229.4,436.93,231.23,436.41,232.31,436.74Z"/><path class="cls-5" d="M173,68.3a158.68,158.68,0,0,1,33.76-8.23c17.6-2.43,35.11-1.36,52.65.59a127.37,127.37,0,0,1,37.29,9.6c.61.27,1.21.57,1.81.85-.19,3.09,2.86,3.81,4.11,6.41.58-2.39-1.15-3.48-1.23-5.07a81.16,81.16,0,0,1,12.9,7.12A606.35,606.35,0,0,1,154,78.3a51.82,51.82,0,0,1,16.5-9.15c.08.95-.57,1.6-.93,2.38-.55,1.17-1.76,2.2-1.13,4A27,27,0,0,0,173,68.3Zm126.71,8.81.38-.45c-1-2.28-2.35-4.21-5-4.78a1.3,1.3,0,0,0-1.58.54.77.77,0,0,0,.4,1C295.79,74.68,297.75,75.89,299.69,77.11ZM172.91,74.49a8.74,8.74,0,0,0,5.24-2.8c.4-.38,1.13-.78.56-1.46s-1.18-.29-1.7.21C175.63,71.77,174.39,73.25,172.91,74.49Z"/><path class="cls-15" d="M173,68.3a27,27,0,0,1-4.54,7.26c-.63-1.83.58-2.86,1.13-4,.36-.78,1-1.43.93-2.38Z"/><path class="cls-15" d="M301.37,72.45c.08,1.59,1.81,2.68,1.23,5.07-1.25-2.6-4.3-3.32-4.11-6.41A9.47,9.47,0,0,1,301.37,72.45Z"/><path class="cls-14" d="M326.76,93.22l-6.82.64c3.13-.37,6.07-1.76,9.65-2C328.63,93.16,327.48,92.64,326.76,93.22Z"/><path class="cls-8" d="M146.05,92.44a9.9,9.9,0,0,1-5.37-.81A9.73,9.73,0,0,1,146.05,92.44Z"/><path class="cls-5" d="M232.4,397.23c-1.21-.4-3.07.13-3.34-2-.15-1.19,3.09-4.11,4.33-4,.47,0,2.28,3.07,2.21,3.83C235.43,397,233.93,397.05,232.4,397.23Z"/><path class="cls-5" d="M232.31,436.74c-1.08-.33-2.91.19-3.25-1.87-.2-1.2,2.94-4.09,4.28-4.06.5,0,2.25,2.92,2.27,3.78C235.65,435.92,234.49,436.73,232.31,436.74Z"/><path class="cls-15" d="M299.69,77.11c-1.94-1.22-3.9-2.43-5.83-3.68a.77.77,0,0,1-.4-1,1.3,1.3,0,0,1,1.58-.54c2.68.57,4,2.5,5,4.78Z"/><path class="cls-15" d="M172.91,74.49c1.48-1.24,2.72-2.72,4.1-4,.52-.5,1.11-.92,1.7-.21s-.16,1.08-.56,1.46A8.74,8.74,0,0,1,172.91,74.49Z"/><rect class="cls-16" x="40.83" y="-26.8" width="388.23" height="42.28" rx="6.81"/><path class="cls-12" d="M243.47,171s-4.62,26.24,1.81,45.66"/><rect class="cls-6" x="172.97" y="370.96" width="117.6" height="72.11"/><path class="cls-6" d="M302.17,334.48s-65.24,63.52-142.5,0l-2.58,24.89s80.27,70,151.94-1.71Z"/><path d="M302.17,334.48,309,357.66c-24.28,24.28-49.54,32.3-72.34,32.3-44.5,0-79.6-30.59-79.6-30.59l2.58-24.89c25.75,21.18,50.17,28.23,71.28,28.23,42.22,0,71.22-28.23,71.22-28.23m0-3.44a3.45,3.45,0,0,0-2.4,1c-.41.39-28.66,27.26-68.82,27.26-23.7,0-46.95-9.24-69.1-27.45a3.42,3.42,0,0,0-2.18-.79,3.52,3.52,0,0,0-1.31.26,3.44,3.44,0,0,0-2.11,2.83L153.68,359a3.42,3.42,0,0,0,1.16,2.94c1.47,1.28,36.58,31.44,81.85,31.44,27.51,0,52.67-11.21,74.77-33.32a3.45,3.45,0,0,0,.87-3.4l-6.87-23.18a3.42,3.42,0,0,0-2.43-2.34,3.19,3.19,0,0,0-.86-.12Z"/><circle class="cls-6" cx="231.78" cy="382.93" r="5.19"/><path d="M231.78,388.93a6,6,0,1,1,6-6A6,6,0,0,1,231.78,388.93Zm0-10.39a4.4,4.4,0,1,0,4.39,4.39A4.4,4.4,0,0,0,231.78,378.54Z"/><circle class="cls-6" cx="231.78" cy="370.06" r="5.19"/><path d="M231.78,376.05a6,6,0,1,1,6-6A6,6,0,0,1,231.78,376.05Zm0-10.39a4.4,4.4,0,1,0,4.39,4.4A4.4,4.4,0,0,0,231.78,365.66Z"/><rect x="222.82" y="390.71" width="1.6" height="52.36"/><rect x="239.99" y="390.71" width="1.6" height="52.36"/></g><rect class="cls-1" x="698.94" y="319.26" width="499.72" height="107.23" rx="24.56"/><path class="cls-6" d="M793,360.66h-9.78a4.66,4.66,0,0,0-1.91.38,5.06,5.06,0,0,0-1.55,1,4.62,4.62,0,0,0-1,1.55,5,5,0,0,0-.38,1.93v9.78h4.72a13.44,13.44,0,0,1,5.3,1,10.34,10.34,0,0,1,3.8,2.74,11.66,11.66,0,0,1,2.3,4.26,18.27,18.27,0,0,1,.78,5.5,16.47,16.47,0,0,1-6.21,13.32,19.15,19.15,0,0,1-6.34,3.34,24.32,24.32,0,0,1-7.29,1.11,24,24,0,0,1-7.23-1.11,19.54,19.54,0,0,1-6.33-3.32,16.53,16.53,0,0,1-4.47-5.53,16.9,16.9,0,0,1-1.69-7.73V360.14h7.56v28.74a9.06,9.06,0,0,0,1,4.45,9.64,9.64,0,0,0,2.76,3.18,12,12,0,0,0,3.9,1.91,15.76,15.76,0,0,0,9,0,12.63,12.63,0,0,0,3.94-1.95,9.85,9.85,0,0,0,2.78-3.2,9.06,9.06,0,0,0,1.05-4.45,7.3,7.3,0,0,0-1.17-4.29,4,4,0,0,0-3.48-1.67H770.81V365.57a11.93,11.93,0,0,1,1-4.84,12.41,12.41,0,0,1,2.67-4,12.66,12.66,0,0,1,4-2.66,12,12,0,0,1,4.83-1H793Zm-27.19,57.08a3.71,3.71,0,0,1,.3-1.49A4.1,4.1,0,0,1,767,415a3.89,3.89,0,0,1,1.24-.84,4,4,0,0,1,3,0,4,4,0,0,1,2.06,2.07,3.85,3.85,0,0,1,0,3,3.53,3.53,0,0,1-.83,1.21,4.07,4.07,0,0,1-1.23.82,3.85,3.85,0,0,1-3,0,4,4,0,0,1-1.24-.82,3.74,3.74,0,0,1-1.13-2.7Zm11.25,0a3.71,3.71,0,0,1,.3-1.49,3.93,3.93,0,0,1,.83-1.23,3.89,3.89,0,0,1,1.24-.84,3.7,3.7,0,0,1,1.49-.29,3.63,3.63,0,0,1,2.7,1.13,4.24,4.24,0,0,1,.81,1.23,3.84,3.84,0,0,1-.81,4.19,3.66,3.66,0,0,1-2.7,1.12,3.71,3.71,0,0,1-1.49-.3,4,4,0,0,1-1.24-.82,3.53,3.53,0,0,1-.83-1.21A3.71,3.71,0,0,1,777.09,417.74Z"/><path class="cls-6" d="M817.79,353.11v34.34a18.56,18.56,0,0,1-1.58,7.27,26.69,26.69,0,0,1-1.73,3.17,19.78,19.78,0,0,1-2.67,3.25,27.23,27.23,0,0,1-3.79,3.13,28.61,28.61,0,0,1-5.13,2.74l-2.9-7a21.21,21.21,0,0,0,3.51-1.81,19.81,19.81,0,0,0,2.61-2,13.93,13.93,0,0,0,1.83-2.05,16.39,16.39,0,0,0,1.19-2,10.41,10.41,0,0,0,1.11-4.45V353.11Z"/><path class="cls-6" d="M833.74,338.16V379.3a4.69,4.69,0,0,0,.37,1.87,4.88,4.88,0,0,0,1,1.53,4.64,4.64,0,0,0,1.53,1,4.49,4.49,0,0,0,1.86.38h3.54v7.51h-3.54a11.92,11.92,0,0,1-4.79-1,12.93,12.93,0,0,1-3.93-2.64,12.37,12.37,0,0,1-2.66-3.92,11.9,11.9,0,0,1-1-4.79V338.16Z"/><path class="cls-6" d="M838.74,391.62v-7.51h7.72V370.33a17,17,0,0,1,1.35-6.82,17.32,17.32,0,0,1,3.67-5.46,16.77,16.77,0,0,1,5.47-3.63,17.66,17.66,0,0,1,13.4,0,17.27,17.27,0,0,1,9.2,9,16.23,16.23,0,0,1,1.37,6.63v14h7.67v7.51ZM854,384.11h19.32v-14a9.07,9.07,0,0,0-.76-3.72,9.39,9.39,0,0,0-2.06-3,10,10,0,0,0-10.61-2,9.55,9.55,0,0,0-3.08,2,9.67,9.67,0,0,0-2.81,6.92Zm.2-42.1a3.92,3.92,0,0,1,.29-1.49,4,4,0,0,1,2.07-2.06,3.85,3.85,0,0,1,3,0,3.86,3.86,0,0,1,1.24.83,4.1,4.1,0,0,1,.83,1.23,3.88,3.88,0,0,1,0,3,3.89,3.89,0,0,1-.83,1.21,4.16,4.16,0,0,1-1.24.81,3.85,3.85,0,0,1-3,0,4.24,4.24,0,0,1-1.23-.81,3.76,3.76,0,0,1-.84-1.21A3.93,3.93,0,0,1,854.21,342Zm11.21,0a3.92,3.92,0,0,1,.29-1.49,4,4,0,0,1,2.07-2.06,3.85,3.85,0,0,1,3,0,3.67,3.67,0,0,1,1.22.83,4.24,4.24,0,0,1,.81,1.23,3.74,3.74,0,0,1,.3,1.49,3.79,3.79,0,0,1-3.82,3.82,3.74,3.74,0,0,1-1.49-.3,4.24,4.24,0,0,1-1.23-.81,3.76,3.76,0,0,1-.84-1.21A3.93,3.93,0,0,1,865.42,342Z"/><path class="cls-6" d="M935,391.62H885.29v-7.51H900.4a38.49,38.49,0,0,1-3.26-4.37,25.3,25.3,0,0,1-2.58-5.24,26.92,26.92,0,0,1-1.06-3.75,19.33,19.33,0,0,1-.38-3.79,16,16,0,0,1,.88-5.34,10.84,10.84,0,0,1,2.88-4.41,14.21,14.21,0,0,1,5.27-3,30.18,30.18,0,0,1,16.22,0,14.18,14.18,0,0,1,5.3,3,11,11,0,0,1,2.88,4.45,16.26,16.26,0,0,1,.88,5.4,19.07,19.07,0,0,1-.36,3.69,30.45,30.45,0,0,1-1,3.61,23,23,0,0,1-2.53,5.28,42.66,42.66,0,0,1-3.24,4.41H935Zm-33.39-19.71a22.34,22.34,0,0,0,1.84,3.81,28.78,28.78,0,0,0,2.32,3.3,31.45,31.45,0,0,0,2.44,2.69c.81.78,1.53,1.43,2.17,2,.63-.53,1.35-1.17,2.16-1.94a27.59,27.59,0,0,0,2.4-2.65,29.93,29.93,0,0,0,2.26-3.28A19.36,19.36,0,0,0,919,372a14.48,14.48,0,0,0,.92-4.89,6.36,6.36,0,0,0-.5-2.49,5,5,0,0,0-1.63-2,8.55,8.55,0,0,0-3-1.4,20.62,20.62,0,0,0-9.07,0,8.4,8.4,0,0,0-2.93,1.35,5.09,5.09,0,0,0-1.61,2,6.1,6.1,0,0,0-.49,2.43,12.35,12.35,0,0,0,.25,2.48A20.06,20.06,0,0,0,901.63,371.91Z"/><path class="cls-6" d="M947.58,338.16V379.3a11.89,11.89,0,0,1-1,4.79,12.38,12.38,0,0,1-6.58,6.56,12,12,0,0,1-4.81,1h-3.54v-7.51h3.52a4.61,4.61,0,0,0,1.88-.38,4.72,4.72,0,0,0,1.55-1,5,5,0,0,0,1-1.53,4.7,4.7,0,0,0,.38-1.87V338.16Z"/><path class="cls-6" d="M963.48,338.16v53.46h-7.55V338.16Z"/><path class="cls-6" d="M1031.86,391.62H1024a15.46,15.46,0,0,1-2.36,6.54,17.3,17.3,0,0,1-4.53,4.69,20.06,20.06,0,0,1-6,2.85,24.11,24.11,0,0,1-6.67.95,24.52,24.52,0,0,1-7.26-1.09,19.21,19.21,0,0,1-6.34-3.28,16.08,16.08,0,0,1-6.16-13.16V360.18h7.55v28.94a8.78,8.78,0,0,0,1.06,4.39,9.6,9.6,0,0,0,2.76,3.14,12,12,0,0,0,3.89,1.87,16.57,16.57,0,0,0,4.5.62,16.37,16.37,0,0,0,4.45-.62,11.9,11.9,0,0,0,3.89-1.87,9.74,9.74,0,0,0,2.77-3.14,8.92,8.92,0,0,0,1-4.4V338.16h7.55v45.95h7.68Z"/><path class="cls-6" d="M1049,353.11v31h7.71v7.51h-28.14v-7.51h12.88v-31Zm-19,49.68a3.83,3.83,0,0,1,1.13-2.72,3.93,3.93,0,0,1,1.23-.83,3.85,3.85,0,0,1,3,0,3.86,3.86,0,0,1,1.24.83,4.1,4.1,0,0,1,.83,1.23,3.85,3.85,0,0,1,0,3,3.83,3.83,0,0,1-.83,1.22,4.16,4.16,0,0,1-1.24.81,3.85,3.85,0,0,1-3,0,4.24,4.24,0,0,1-1.23-.81,3.53,3.53,0,0,1-.83-1.22A3.71,3.71,0,0,1,1029.91,402.79Zm11.25,0a3.74,3.74,0,0,1,.3-1.49,4,4,0,0,1,2.07-2.06,3.79,3.79,0,0,1,1.5-.3,3.72,3.72,0,0,1,1.5.3,3.67,3.67,0,0,1,1.22.83,4.07,4.07,0,0,1,.82,1.23,3.74,3.74,0,0,1,.3,1.49,3.67,3.67,0,0,1-1.12,2.71,3.72,3.72,0,0,1-2.72,1.11,3.79,3.79,0,0,1-1.5-.3,4.24,4.24,0,0,1-1.23-.81,3.74,3.74,0,0,1-1.14-2.71Z"/><path class="cls-6" d="M1069.18,338.16V379.3a11.89,11.89,0,0,1-1,4.79,12.38,12.38,0,0,1-6.58,6.56,12.06,12.06,0,0,1-4.81,1h-3.54v-7.51h3.52a4.86,4.86,0,0,0,3.42-1.41,4.85,4.85,0,0,0,1-1.53,4.7,4.7,0,0,0,.38-1.87V338.16Z"/><path class="cls-6" d="M1079.68,353.11a51.38,51.38,0,0,1,11.8,1.17,22.23,22.23,0,0,1,8,3.45,13.82,13.82,0,0,1,4.57,5.62,19,19,0,0,1,1.46,7.66v13.1h7.67v7.51h-35.66v-7.51H1098V371a9.23,9.23,0,0,0-1-4.43,8.64,8.64,0,0,0-3.24-3.26,17.37,17.37,0,0,0-5.67-2,44.21,44.21,0,0,0-8.34-.67Z"/><path class="cls-6" d="M1125.71,338.16V379.3a11.9,11.9,0,0,1-1,4.79,12.65,12.65,0,0,1-2.64,3.92,12.46,12.46,0,0,1-3.93,2.64,12.06,12.06,0,0,1-4.81,1h-3.54v-7.51h3.52a4.86,4.86,0,0,0,3.42-1.41,4.85,4.85,0,0,0,1-1.53,4.7,4.7,0,0,0,.38-1.87V338.16Z"/><path class="cls-6" d="M1141.61,338.16v53.46h-7.55V338.16Z"/></svg>