<svg xmlns="http://www.w3.org/2000/svg" xmlns:xlink="http://www.w3.org/1999/xlink" width="30" height="30" viewBox="0 0 30 30">
  <defs>
    <clipPath id="clip-path">
      <circle id="Ellipse_57" data-name="Ellipse 57" cx="15" cy="15" r="15" transform="translate(30 59)" fill="#fff" stroke="#707070" stroke-width="1"/>
    </clipPath>
    <clipPath id="clip-path-2">
      <path id="Path_174" data-name="Path 174" d="M28.407,51.12H51.413a3.718,3.718,0,0,0,3.707-3.707V24.407A3.718,3.718,0,0,0,51.413,20.7H28.407A3.718,3.718,0,0,0,24.7,24.407V47.413A3.718,3.718,0,0,0,28.407,51.12Z" transform="translate(-24.7 -20.7)"/>
    </clipPath>
  </defs>
  <g id="Mask_Group_1" data-name="Mask Group 1" transform="translate(-30 -59)" clip-path="url(#clip-path)">
    <g id="logo" transform="translate(30 59)">
      <g id="Group_2427" data-name="Group 2427" transform="translate(0)">
        <g id="Group_2426" data-name="Group 2426" transform="translate(0)">
          <path id="Path_54" data-name="Path 54" d="M28.407,51.12H51.413a3.718,3.718,0,0,0,3.707-3.707V24.407A3.718,3.718,0,0,0,51.413,20.7H28.407A3.718,3.718,0,0,0,24.7,24.407V47.413A3.718,3.718,0,0,0,28.407,51.12Z" transform="translate(-24.7 -20.7)" fill="#6598cb"/>
          <g id="Group_2425" data-name="Group 2425" clip-path="url(#clip-path-2)">
            <g id="Group_2419" data-name="Group 2419" transform="translate(-10.172 -8.333)">
              <path id="Path_55" data-name="Path 55" d="M148.739,125.353c-.007-.119-.059-.148-.163-.148a7.533,7.533,0,0,0-1.727.156,26.148,26.148,0,0,0-4.871,1.527.576.576,0,0,1-.482,0,24.647,24.647,0,0,0-5.056-1.564,6.749,6.749,0,0,0-1.683-.111c-.059.007-.126-.007-.133.082-.015.171-.044.341-.059.526.171-.089.171-.089.341,0a.462.462,0,0,0,.3.082c.171.022.334.052.5.074a12.337,12.337,0,0,1,1.994.593,13.428,13.428,0,0,0,2.254.7c.252.044.482.148.727.215a.186.186,0,0,1,.052.03c.185.089.2.148.067.3a.819.819,0,0,0-.163.252c-.215.526-.423,1.053-.645,1.572a1.623,1.623,0,0,1-.319.534,3.727,3.727,0,0,1-.942.8.163.163,0,0,0-.059.007.292.292,0,0,0-.156.044c-.015,0-.037.007-.052.007s-.059.007-.089.007a2.112,2.112,0,0,1-.83.119c-.163-.03-.334-.067-.5-.089a4.414,4.414,0,0,1-.816-.163,1.663,1.663,0,0,1-.986-.682,6.629,6.629,0,0,1-.734-1.772.228.228,0,0,0-.148-.3v.5a3.2,3.2,0,0,0-.007.534,4.836,4.836,0,0,0,0,.867,2.936,2.936,0,0,0,.015.571.484.484,0,0,0,.015.208,3.336,3.336,0,0,0,.007.386,21.5,21.5,0,0,1,.237,2.669,6.619,6.619,0,0,0,.007,1.668,6.274,6.274,0,0,1,.474-.89c.059-.082.119-.156.185-.237s.111-.126.163-.193a.933.933,0,0,1,.237-.215,6.266,6.266,0,0,1,1.253-.86,7.493,7.493,0,0,1,1.994-.652c.1-.022.126-.059.148-.163a1.419,1.419,0,0,1,.689-.964h.059a.5.5,0,0,1,.082.052.2.2,0,0,1-.089.26,1.7,1.7,0,0,0-.378.482c-.208.371.059.556.334.578.1.007.193.007.133-.148a.126.126,0,0,1,.089-.178.146.146,0,0,1,.185.089.608.608,0,0,1,.074.178c.044.259.245.341.452.423a1.219,1.219,0,0,0,.156.044,1.969,1.969,0,0,0,1.3-.015c.3-.119.608-.26.623-.66a.081.081,0,0,1,.044-.074.538.538,0,0,1,.059.282c-.015.185.1.267.282.185a1.365,1.365,0,0,0,.245-.178.39.39,0,0,0,.03-.675,2.873,2.873,0,0,1-.385-.348c-.015-.148.074-.148.171-.111a1.411,1.411,0,0,1,.526.356.574.574,0,0,1,.163.452c-.007.1.022.119.111.133a7.851,7.851,0,0,1,1.535.423,5.967,5.967,0,0,1,2.15,1.475,7.37,7.37,0,0,1,.882,1.55,3.857,3.857,0,0,0,.119-.489,6.347,6.347,0,0,0-.007-1.453,2.773,2.773,0,0,0-.03-.348,1.281,1.281,0,0,0,.037-.334,1.63,1.63,0,0,1,.037-.63c.045-.282.082-.571.119-.853a20.482,20.482,0,0,0,.126-2.432c0-.119-.037-.119-.126-.089a3.078,3.078,0,0,1-.452.1c-.156.022-.26.059-.245.245a.429.429,0,0,1-.052.156,2.443,2.443,0,0,1-1.179,1.075,3.39,3.39,0,0,1-1.246.215c-.222.015-.437-.052-.652-.044a1.7,1.7,0,0,1-.927-.274.67.67,0,0,0-.734-.082.045.045,0,0,1-.03.007c-.282.082-.341.044-.348-.252a4.626,4.626,0,0,0-.1-.9,1.437,1.437,0,0,1-.037-.534,2.41,2.41,0,0,0,.037-.519c-.044-.3-.03-.319.245-.43a5.331,5.331,0,0,0,.823-.267c.423-.133.86-.178,1.275-.3.682-.193,1.394-.237,2.091-.363a11.013,11.013,0,0,0,1.379-.259c.126,0,.178-.052.156-.185C148.828,126.265,148.776,125.813,148.739,125.353Z" transform="translate(-116.036 -109.116)" fill="#050505"/>
              <path id="Path_56" data-name="Path 56" d="M283.571,185.112a2.4,2.4,0,0,0,1.816-.69,1.318,1.318,0,0,0,.393-.623,16.017,16.017,0,0,0-1.928.534c-.148.037-.23.089-.23.259a.51.51,0,0,1-.23.386c-.059.045-.119.082-.193.133C283.341,185.112,283.452,185.12,283.571,185.112Z" transform="translate(-253.863 -163.374)" fill="#050505"/>
              <path id="Path_57" data-name="Path 57" d="M332,196.218c0,.111.022.133.133.089a1.306,1.306,0,0,0,.6-.615,2.069,2.069,0,0,0,.334-1.386,5.477,5.477,0,0,0-.245-1.031,1.487,1.487,0,0,0-.519-.675.217.217,0,0,0-.022.148c-.022.6-.067,1.194-.148,1.787A11.6,11.6,0,0,0,332,196.218Z" transform="translate(-299.045 -171.522)" fill="#050505"/>
              <path id="Path_58" data-name="Path 58" d="M142.017,167.942c-.593-.208-1.179-.445-1.794-.608-.1-.03-.156-.015-.126.1a6.178,6.178,0,0,0,.274.867c.111.252.259.5.385.741a.957.957,0,0,0,.363.386,2.529,2.529,0,0,0,1.053.348,5.861,5.861,0,0,0,1.016.133c-.734-.326-.778-.919-.111-1.646a.454.454,0,0,0-.156-.044A3.27,3.27,0,0,1,142.017,167.942Z" transform="translate(-121.362 -148.117)" fill="#050505"/>
              <path id="Path_59" data-name="Path 59" d="M264.4,196.968c.074.067.126.119.23.1C264.563,197,264.526,196.908,264.4,196.968Z" transform="translate(-236.457 -175.549)" fill="#050505"/>
              <path id="Path_60" data-name="Path 60" d="M278.9,192.426c.3.082.467-.007.549-.326C279.234,192.2,279.145,192.456,278.9,192.426Z" transform="translate(-249.882 -171.059)" fill="#050505"/>
              <path id="Path_61" data-name="Path 61" d="M258.646,151.424c-.571.148-1.157.215-1.742.311-.46.074-.927.119-1.379.215-.059.015-.126.007-.17.074a10.014,10.014,0,0,1-1.083,1.09.129.129,0,1,1-.178-.185c.1-.1.215-.193.311-.3.163-.163.311-.334.467-.5h-.082a9.853,9.853,0,0,0-1.72.474.1.1,0,0,0-.067.141,1.036,1.036,0,0,1,0,.371,1.648,1.648,0,0,0,.015.712c.037.119.037.252.067.378.037.171.007.341.037.519.067-.074.119-.133.171-.193.2-.215.445-.363.66-.556.163-.148.334-.282.5-.415.067-.052.156-.1.222,0s.007.156-.067.215c-.119.1-.237.193-.363.289-.193.156-.378.311-.571.474.007.007.007.015.015.022.171-.037.334-.089.5-.111a13.138,13.138,0,0,0,1.5-.319c.46-.119.9-.3,1.364-.43.6-.163,1.216-.252,1.816-.415.156-.044.163-.126.141-.237a4.079,4.079,0,0,1-.089-.949.532.532,0,0,0-.059-.259.744.744,0,0,1-.081-.3C258.8,151.4,258.75,151.394,258.646,151.424Z" transform="translate(-225.876 -133.386)" fill="#050505"/>
              <path id="Path_62" data-name="Path 62" d="M56.781,361.67a1.849,1.849,0,0,1-.6-.386,16.9,16.9,0,0,0-1.972-1.579c-.623-.378-1.134-.89-1.727-1.312a.167.167,0,0,0-.208-.022c-.289.148-.563.326-.853.467a25.81,25.81,0,0,0-2.78,1.512,40.688,40.688,0,0,0-3.648,2.6c-.282.23-.556.474-.83.712-.037.03-.1.059-.015.119a12.974,12.974,0,0,1,1.765,1.357.288.288,0,0,0,.215.067H56.685c.074,0,.156.03.156-.1-.007-1.1,0-2.2,0-3.307C56.863,361.73,56.855,361.693,56.781,361.67Z" transform="translate(-32.493 -324.978)" fill="#050505"/>
              <path id="Path_63" data-name="Path 63" d="M125.5,249.421c-.022.1-.074.215.111.23.022,0,.052.03.067.052a3.972,3.972,0,0,1,.956,1.564,7.008,7.008,0,0,1,.26,2.758,5.02,5.02,0,0,1,.689-.3c.037-.015.044-.044.052-.082.074-.526.259-1.023.378-1.535.052-.245.089-.245.341-.237a1.6,1.6,0,0,1,.193.007c.067.007.089-.03.1-.089a3.17,3.17,0,0,0-.163-1.661.739.739,0,0,1-.082-.267.145.145,0,0,0-.1-.148,5.716,5.716,0,0,1-.875-.571,2.8,2.8,0,0,1-.89-1.082c-.03-.074-.044-.171-.1-.215s-.141.037-.222.044a.65.65,0,0,0-.119.015c-.059.022-.111.03-.148-.022a.134.134,0,0,1,.007-.171,2.206,2.206,0,0,1,.2-.26.275.275,0,0,0,.052-.289,2.882,2.882,0,0,1-.1-1.038c.007-.126.015-.26.022-.385.007-.1-.2-.282-.3-.26-.03.007-.03.03-.037.059a1,1,0,0,0-.03.608,4.421,4.421,0,0,1,.052,1.764A13.327,13.327,0,0,1,125.5,249.421Z" transform="translate(-107.833 -220.476)" fill="#050505"/>
              <path id="Path_64" data-name="Path 64" d="M298.367,129.17c-.185-.408-.341-.83-.512-1.246a3.186,3.186,0,0,1-.23-.942.78.78,0,0,0-.26-.519,1.421,1.421,0,0,0-.667-.311c-.082-.015-.082.015-.074.074.052.489.067.986.163,1.468a17.5,17.5,0,0,1,.267,1.75,1.98,1.98,0,0,1,.044.415c-.007.067-.015.148-.074.171-.148.052-.119.163-.119.267,0,.082.007.171,0,.252a.267.267,0,0,0,.126.259,1.813,1.813,0,0,1,.63.749,4.648,4.648,0,0,1,.319,1.653,1.222,1.222,0,0,1-.111.512c-.1.237-.23.467-.349.69a1.3,1.3,0,0,1-.652.608c-.267.126-.237.052-.215.363a3.453,3.453,0,0,1-.148,1.505c-.045.126-.089.23.015.356.074.1,0,.215-.1.185s-.126.022-.156.1a2.536,2.536,0,0,1-.734.986,6.37,6.37,0,0,1-1.475.934.357.357,0,0,0-.222.289,3.588,3.588,0,0,0,.082,1.587.082.082,0,0,0,.1.074c.148-.007.3-.007.452-.007.081,0,.156.007.171.111.089.556.3,1.075.385,1.624a.118.118,0,0,0,.1.1,3.819,3.819,0,0,1,.779.341c.148.082.3.148.452.237.111.067.141.015.148-.082v-.133a12.052,12.052,0,0,1,.185-2.736,2.809,2.809,0,0,1,.838-1.742,1.157,1.157,0,0,0,.386-.845c.007-.052.015-.1.022-.148.044-.4.111-.8.119-1.2-.119.193-.23.386-.356.571-.022.037-.052.074-.1.044s0-.059.015-.089c.126-.319.245-.638.378-.956a21.9,21.9,0,0,0,1.127-3.321,2.088,2.088,0,0,0,0-1.149c-.111.623-.178.816-.311.927a6.964,6.964,0,0,1,.022-.882A5.53,5.53,0,0,0,298.367,129.17Z" transform="translate(-263.655 -109.998)" fill="#050505"/>
              <path id="Path_65" data-name="Path 65" d="M137.847,228.548c-.059.037-.111.081-.171.119h-.059c-.037-.059-.081-.015-.119-.007l-.853.245c-.222.059-.445.119-.667.185-.037.015-.148,0-.1.111a2.94,2.94,0,0,0,1.075,1.29,11.149,11.149,0,0,0,2.914,1.372c.074.022.1,0,.111-.067a1.85,1.85,0,0,1,.371-.719c.141-.178.156-.178.341-.044a1.952,1.952,0,0,0,.7.386,6.106,6.106,0,0,0,2.2.015,2.061,2.061,0,0,0,.875-.408c.082-.059.163-.082.245.007a2.042,2.042,0,0,1,.385.489,1.063,1.063,0,0,0,.141.326c.037.059.074.074.133.052l.741-.267c.267-.111.541-.23.808-.341a6.156,6.156,0,0,0,1.928-1.186,1.908,1.908,0,0,0,.534-.8c.037-.1-.052-.082-.1-.1a12.93,12.93,0,0,0-1.557-.467.989.989,0,0,0-.208-.022c-.044-.007-.067.022-.044.059a2.611,2.611,0,0,1,.267.741c-.022.163-.119.074-.185.044a24.32,24.32,0,0,0-2.358-.986,1.605,1.605,0,0,0-.556-.163,1.138,1.138,0,0,0-.378-.126c-.03-.037-.067-.022-.111-.015-.408.119-.808.245-1.216.348a1.09,1.09,0,0,1-.6.067c-.489-.126-.979-.267-1.461-.408a.431.431,0,0,0-.237.007c-.119.037-.222.156-.371.1.089-.119.252-.1.363-.208-.052-.037-.1-.067-.133-.1a.471.471,0,0,1-.185-.274c-.007-.037-.015-.089.03-.1.067-.022.044.044.059.074a.445.445,0,0,0,.067.1.924.924,0,0,0,.5.26c.371.1.749.17,1.112.282a1.491,1.491,0,0,0,.934-.022l.156-.044a9.685,9.685,0,0,0,1.038-.267.7.7,0,0,0,.408-.3c.015-.03,0-.1.067-.074.044.015.03.067.03.1a.221.221,0,0,1-.059.133,1.288,1.288,0,0,1-.274.252,2.115,2.115,0,0,0,.282.119,20.724,20.724,0,0,1,1.957.734c.3.133.608.274.912.408.044.022.133.067.1-.037-.089-.3-.126-.645-.445-.83-.037-.022-.089-.052-.067-.1s.082-.022.126-.007c.667.222,1.364.356,2.031.608a.95.95,0,0,0,.311.1l.015.015-.015-.015a4.693,4.693,0,0,1-.415-.786,3.666,3.666,0,0,0-.675-1.149,5.566,5.566,0,0,0-1.564-1.157,9.105,9.105,0,0,0-1.957-.667c-.082-.022-.111.015-.148.082a.988.988,0,0,1-.437.415c-.163.074-.163.1-.037.23a1.447,1.447,0,0,1,.326.578c.015.052.052.119-.022.141s-.082-.044-.1-.089a1.808,1.808,0,0,0-.26-.5c-.089-.126-.163-.289-.371-.267-.052.007-.1-.037-.156-.059s-.067-.03-.1,0c-.082.082-.2.111-.267.215-.007,0-.015.007-.022.015s-.037.007-.059.015a2.369,2.369,0,0,1-1.8-.007,1.074,1.074,0,0,1-.408-.237.233.233,0,0,0-.371-.007,3,3,0,0,0-.3.371,1.924,1.924,0,0,0-.245.475c-.015.044-.044.1-.1.082s-.037-.074-.022-.119a1.33,1.33,0,0,1,.163-.363,4.184,4.184,0,0,1,.415-.512.8.8,0,0,1-.586-.415c-.03-.044-.067-.022-.1-.015a7.855,7.855,0,0,0-2.239.838,4.482,4.482,0,0,0-1.564,1.438c-.289.467-.423,1.016-.741,1.468l-.015.015.015-.015a.5.5,0,0,0,.141-.037c.727-.289,1.5-.415,2.232-.675.022-.007.052-.015.067.007C137.891,228.5,137.884,228.526,137.847,228.548Z" transform="translate(-117.021 -201.902)" fill="#050505"/>
              <path id="Path_66" data-name="Path 66" d="M167.341,307.095a5.182,5.182,0,0,0,.756.445,14.687,14.687,0,0,1,1.809,1.045c.2.141.43.252.638.371a9.988,9.988,0,0,0,1.053.615.538.538,0,0,0,.519,0,7.515,7.515,0,0,0,.749-.43c.193-.111.386-.222.571-.334a24.265,24.265,0,0,1,2.246-1.3,4.261,4.261,0,0,0,.667-.393c.045-.037.074-.059.052-.133a3.489,3.489,0,0,1-.245-1.431,3.207,3.207,0,0,1,.082-.571c-.526.222-1.045.423-1.572.586-.074.022-.074.067-.067.126a1.362,1.362,0,0,1-.022.519,3.892,3.892,0,0,1-.734,1.342c-.037.03-.074.067-.111.1a3.154,3.154,0,0,1-2.1.8,3.194,3.194,0,0,1-1.587-.474,2.168,2.168,0,0,1-.8-1.394c-.022-.148-.052-.3-.074-.452a4.186,4.186,0,0,1-.022-.43c.007-.111-.037-.141-.126-.171a14.393,14.393,0,0,1-1.653-.645c-.111-.052-.222-.1-.371-.178a4,4,0,0,1,.274.623,3.507,3.507,0,0,1-.007,1.594A.153.153,0,0,0,167.341,307.095Z" transform="translate(-146.278 -275.311)" fill="#050505"/>
              <path id="Path_67" data-name="Path 67" d="M204.039,304.533c-.067-.059-.1-.067-.156-.015a1.935,1.935,0,0,1-.741.341,5.916,5.916,0,0,1-1.616.111,2.251,2.251,0,0,1-1.49-.467.087.087,0,0,0-.148.022,1.871,1.871,0,0,0-.319,1.112,7.025,7.025,0,0,0,.111.778,1.659,1.659,0,0,0,.816,1.194,3.66,3.66,0,0,0,1.349.363,2.792,2.792,0,0,0,.764-.148,3.273,3.273,0,0,0,1.09-.6,3.383,3.383,0,0,0,.712-1.127,1.073,1.073,0,0,0,.022-.816A1.7,1.7,0,0,0,204.039,304.533Z" transform="translate(-176.429 -275.1)" fill="#050505"/>
              <path id="Path_68" data-name="Path 68" d="M236.792,340.321a13.694,13.694,0,0,1,1.564-1.3c.749-.475,1.409-1.068,2.128-1.572.037-.03.089-.059.074-.119,0-.022-.007-.037-.007-.059-.111-.423-.215-.838-.319-1.26-.015-.074-.044-.074-.1-.045s-.1.052-.141.082c-.237.148-.46.319-.7.46-.467.274-.986.467-1.431.771-.512.341-1.045.66-1.572.979a6.262,6.262,0,0,1-.979.534c-.074.03-.044.059-.022.1.326.556.586,1.142.875,1.72.045.089.089.1.171.059A3.134,3.134,0,0,0,236.792,340.321Z" transform="translate(-209.479 -304.244)" fill="#050505"/>
              <path id="Path_69" data-name="Path 69" d="M163.648,338.887c-.007-.082-.141-.059-.208-.111-.03-.022-.074-.037-.1-.059-.519-.3-1.038-.615-1.557-.919a13.377,13.377,0,0,0-1.171-.719,9.866,9.866,0,0,1-1.631-.934c-.059-.044-.119-.074-.178-.111-.082-.052-.119-.037-.141.059-.059.267-.133.534-.2.793-.037.156-.082.319-.119.475-.022.082.037.111.082.141.111.089.23.178.348.259.452.326.86.719,1.327,1.016a4.831,4.831,0,0,1,.756.512c.423.393.9.734,1.312,1.134a1.736,1.736,0,0,0,.378.267c.1.059.163.059.222-.074.245-.512.5-1.016.764-1.527C163.567,339.027,163.655,338.953,163.648,338.887Z" transform="translate(-138.255 -304.293)" fill="#050505"/>
              <path id="Path_70" data-name="Path 70" d="M177.087,187.9a.542.542,0,0,0,.059.564.4.4,0,0,0,.437.081.417.417,0,0,1-.415-.445A.749.749,0,0,0,177.087,187.9Z" transform="translate(-155.571 -167.171)" fill="#050505"/>
              <path id="Path_71" data-name="Path 71" d="M261.752,363.011a34.977,34.977,0,0,0-4.322-3.2c-1.223-.815-2.573-1.394-3.855-2.105a.092.092,0,0,0-.119.015c-.133.111-.274.215-.415.319a16.817,16.817,0,0,1-1.816,1.335,1.488,1.488,0,0,0-.274.208c-.415.393-.89.727-1.3,1.127a1.553,1.553,0,0,1-.5.341.18.18,0,0,0-.141.2q.011,1.6,0,3.2c0,.141.044.163.171.163,1.757-.007,3.522,0,5.279,0H259.7a.494.494,0,0,0,.348-.126,11.778,11.778,0,0,1,1.683-1.29C261.848,363.123,261.848,363.093,261.752,363.011Z" transform="translate(-222.198 -324.377)" fill="#050505"/>
              <path id="Path_72" data-name="Path 72" d="M221.353,379.079c-.252-.437-.46-.9-.7-1.379-.044.074-.074.126-.1.17-.274.549-.549,1.1-.83,1.638a.348.348,0,0,0-.03.171v3.292c0,.111.015.148.141.148.541-.007,1.09-.007,1.631,0,.119,0,.133-.037.133-.141-.007-.919-.015-1.846,0-2.765A2.042,2.042,0,0,0,221.353,379.079Z" transform="translate(-195.071 -342.899)" fill="#050505"/>
              <path id="Path_73" data-name="Path 73" d="M126.93,193.431a7.52,7.52,0,0,1,.082,2.306.208.208,0,0,0,.222.215c.119-.007.052-.119.052-.178a8.419,8.419,0,0,0-.082-1.3,17.529,17.529,0,0,1-.185-2.246.328.328,0,0,0-.052-.03c-.082.089-.156.178-.237.267-.044.044-.03.089-.015.133A4.892,4.892,0,0,1,126.93,193.431Z" transform="translate(-108.966 -171.152)" fill="#050505"/>
              <path id="Path_74" data-name="Path 74" d="M197.156,187.407c-.111-.007-.2-.022-.3-.03-.045-.007-.067.007-.067.052a1.167,1.167,0,0,1-.215.556c-.067.074-.133.156-.178.215a.421.421,0,0,0,.222-.17A2.422,2.422,0,0,0,197.156,187.407Z" transform="translate(-173.498 -166.685)" fill="#050505"/>
              <path id="Path_75" data-name="Path 75" d="M130.369,136.957c-.1.2-.082.185.1.3a6,6,0,0,0,1.453.534c.319.1.63.215.934.341a5.609,5.609,0,0,0,.9.3,1.626,1.626,0,0,1,.363.089c.482.193.971.356,1.468.5a.39.39,0,0,0,.215.03,3.224,3.224,0,0,1-.348-.867,1.427,1.427,0,0,1-.1-.467c0-.067.022-.126.089-.141s.1.037.119.089a8.329,8.329,0,0,1,.393,1.312c.007.037,0,.074.044.082s.059-.03.074-.067c.074-.289.237-.549.334-.83a4.694,4.694,0,0,1,.437-.964c.037-.052.03-.067-.03-.089a5.317,5.317,0,0,0-.675-.178,4.093,4.093,0,0,1-1.142-.319,3.78,3.78,0,0,0-.8-.274,3.049,3.049,0,0,0,.237.5,3.5,3.5,0,0,1,.393.734c.03.1.03.185-.067.23s-.156-.03-.193-.119a4.424,4.424,0,0,0-.237-.452,3.8,3.8,0,0,1-.46-.979c-.015-.067-.059-.082-.111-.1a4.58,4.58,0,0,1-.541-.171,2.279,2.279,0,0,0-.474-.17c-.03-.007-.059-.015-.082.007s0,.052.015.082c.045.082.082.171.126.252a7.344,7.344,0,0,1,.586,1.186c.044.111.059.222-.074.274s-.185-.059-.222-.163a6.416,6.416,0,0,0-.445-.942,1.562,1.562,0,0,1-.3-.756.072.072,0,0,0-.082-.074c-.193-.007-.363-.089-.556-.1a1.1,1.1,0,0,1-.63-.148c-.022-.015-.059-.03-.074.015-.1.289-.289.549-.386.838A6.7,6.7,0,0,1,130.369,136.957Z" transform="translate(-112.309 -118.563)" fill="#050505"/>
              <path id="Path_76" data-name="Path 76" d="M119.023,127.116a.133.133,0,0,1-.03.067,1.83,1.83,0,0,0-.245,1.075,15.147,15.147,0,0,0,.489,2.914c.111-.089.193-.171.282-.237a.249.249,0,0,0,.111-.237c-.007-.5,0-.986.037-1.483.007-.126-.007-.185-.148-.215a.238.238,0,0,1-.148-.4,1.375,1.375,0,0,0,.082-.141,4.175,4.175,0,0,0,.378-1.431c.015-.245.052-.482.082-.727A1.032,1.032,0,0,0,119.023,127.116Z" transform="translate(-101.6 -110.138)" fill="#050505"/>
              <path id="Path_77" data-name="Path 77" d="M-62.263-91.7h-50.1c-.111,0-.141.022-.141.141V-38.3c0,.111.022.141.141.141h50.1c.111,0,.141-.022.141-.141V-91.567C-62.122-91.67-62.152-91.7-62.263-91.7ZM-88.138-51.583c0,.141-.082.1-.156.1H-98.851a.323.323,0,0,1-.215-.067A12.535,12.535,0,0,0-100.83-52.9c-.1-.052-.022-.089.015-.119.274-.237.549-.482.83-.712a43.406,43.406,0,0,1,3.648-2.6,26.52,26.52,0,0,1,2.78-1.512c.289-.141.563-.319.853-.467a.167.167,0,0,1,.208.022c.593.415,1.1.934,1.727,1.312A16.145,16.145,0,0,1-88.8-55.4a1.774,1.774,0,0,0,.6.386c.067.022.074.059.074.119C-88.138-53.785-88.138-52.68-88.138-51.583ZM-94.573-66.04a1,1,0,0,1,.03-.608c.007-.022.007-.052.037-.059.1-.022.3.156.3.26-.007.126-.015.259-.022.386a2.9,2.9,0,0,0,.1,1.038.275.275,0,0,1-.052.289c-.067.082-.133.171-.2.259a.134.134,0,0,0-.007.171c.037.052.089.044.148.022a.577.577,0,0,1,.119-.015c.074-.007.156-.1.222-.044s.067.141.1.215a2.749,2.749,0,0,0,.89,1.082,6.105,6.105,0,0,0,.875.571.145.145,0,0,1,.1.148.563.563,0,0,0,.082.267,3.177,3.177,0,0,1,.163,1.661c-.007.059-.03.089-.1.089s-.126,0-.193-.007c-.252-.015-.289-.007-.341.237-.111.519-.3,1.016-.378,1.535-.007.037-.007.067-.052.082a4.257,4.257,0,0,0-.689.3,6.886,6.886,0,0,0-.259-2.758,3.919,3.919,0,0,0-.956-1.564c-.022-.022-.044-.052-.067-.052-.178-.007-.126-.126-.111-.23a13.442,13.442,0,0,0,.3-1.52A4.384,4.384,0,0,0-94.573-66.04Zm17.215-2.714c.133-.111.2-.3.311-.927a2.088,2.088,0,0,1,0,1.149,22.75,22.75,0,0,1-1.127,3.321c-.133.319-.252.638-.378.956-.007.03-.059.059-.015.089s.074-.015.1-.044c.126-.185.237-.378.356-.571-.007.408-.074.8-.119,1.2-.007.052-.015.1-.022.148a1.145,1.145,0,0,1-.386.845,2.828,2.828,0,0,0-.838,1.742,12.111,12.111,0,0,0-.185,2.736v.133c-.007.1-.037.148-.148.082-.148-.089-.3-.156-.452-.237a4.272,4.272,0,0,0-.778-.341.118.118,0,0,1-.1-.1c-.1-.549-.3-1.075-.386-1.624-.015-.1-.089-.111-.171-.111-.148,0-.3,0-.452.007-.059,0-.089-.015-.1-.074a3.578,3.578,0,0,1-.082-1.587.358.358,0,0,1,.222-.289,6.529,6.529,0,0,0,1.475-.934,2.536,2.536,0,0,0,.734-.986c.03-.074.052-.126.156-.1s.178-.089.1-.185c-.1-.126-.059-.237-.015-.356a3.453,3.453,0,0,0,.148-1.505c-.022-.3-.059-.237.215-.363a1.369,1.369,0,0,0,.652-.608c.119-.23.245-.452.348-.69a1.222,1.222,0,0,0,.111-.512,4.681,4.681,0,0,0-.319-1.653,1.814,1.814,0,0,0-.63-.749.267.267,0,0,1-.126-.26c.007-.082,0-.171,0-.252,0-.1-.03-.222.119-.267.059-.022.074-.1.074-.171a1.975,1.975,0,0,0-.044-.415A17.482,17.482,0,0,0-79.382-74c-.1-.482-.111-.979-.163-1.468-.007-.059-.007-.1.074-.074a1.46,1.46,0,0,1,.667.311.749.749,0,0,1,.259.519,3.184,3.184,0,0,0,.23.942c.171.415.326.838.512,1.246a5.452,5.452,0,0,1,.46,2.891C-77.358-69.347-77.365-69.058-77.358-68.754ZM-91.5-61.7a3.408,3.408,0,0,0-.274-.623c.148.074.259.126.371.178a14.959,14.959,0,0,0,1.653.645c.1.03.133.067.126.171a4.173,4.173,0,0,0,.022.43c.022.148.059.3.074.452a2.09,2.09,0,0,0,.8,1.394,3.172,3.172,0,0,0,1.587.475,3.118,3.118,0,0,0,2.1-.8c.037-.03.074-.067.111-.1a3.825,3.825,0,0,0,.734-1.342,1.355,1.355,0,0,0,.022-.519c-.007-.059-.007-.1.067-.126.526-.163,1.045-.363,1.572-.586a3.207,3.207,0,0,0-.082.571,3.489,3.489,0,0,0,.245,1.431c.03.074,0,.1-.052.133a3.578,3.578,0,0,1-.667.393,23.3,23.3,0,0,0-2.246,1.3c-.185.119-.378.222-.571.334a6.765,6.765,0,0,1-.749.43.538.538,0,0,1-.519,0,9.3,9.3,0,0,1-1.053-.615c-.215-.126-.437-.237-.638-.371a15.685,15.685,0,0,0-1.809-1.045,5.945,5.945,0,0,1-.756-.445.159.159,0,0,1-.074-.185A3.693,3.693,0,0,0-91.5-61.7Zm-.141-3.425c-.015-.022-.045-.015-.067-.007-.734.26-1.505.386-2.232.675-.045.015-.1.022-.141.037l-.015.015.015-.015c.326-.452.452-1,.741-1.468a4.548,4.548,0,0,1,1.564-1.438,8.086,8.086,0,0,1,2.239-.838c.037-.007.082-.037.1.015a.8.8,0,0,0,.586.415,4.2,4.2,0,0,0-.415.512,1.442,1.442,0,0,0-.163.363c-.015.044-.037.1.022.119s.089-.03.1-.082a1.92,1.92,0,0,1,.245-.474,2.075,2.075,0,0,1,.3-.371.233.233,0,0,1,.371.007,1.036,1.036,0,0,0,.408.237,2.369,2.369,0,0,0,1.8.007c.015-.007.037-.007.059-.015s.007-.015.022-.015c.067-.1.185-.133.267-.215.03-.03.059-.015.1,0a.449.449,0,0,0,.156.059c.208-.022.282.141.371.267a1.806,1.806,0,0,1,.259.5c.015.052.044.1.1.089.074-.022.037-.089.022-.141a1.446,1.446,0,0,0-.326-.578c-.126-.141-.119-.156.037-.23a.987.987,0,0,0,.437-.415c.037-.067.074-.1.148-.082a8.717,8.717,0,0,1,1.957.667,5.566,5.566,0,0,1,1.564,1.157,3.751,3.751,0,0,1,.675,1.149,4.419,4.419,0,0,0,.415.786l.015.015-.015-.015a.948.948,0,0,1-.311-.1c-.66-.252-1.357-.386-2.031-.608-.044-.015-.1-.037-.126.007s.03.082.067.1c.319.185.356.526.445.83.03.1-.059.059-.1.037-.3-.133-.608-.282-.912-.408a16.315,16.315,0,0,0-1.957-.734,2.877,2.877,0,0,1-.282-.119.906.906,0,0,0,.274-.252.242.242,0,0,0,.059-.133c0-.037.015-.089-.03-.1-.067-.022-.044.045-.067.074a.678.678,0,0,1-.408.3,9.675,9.675,0,0,1-1.038.267,1.229,1.229,0,0,0-.156.044,1.491,1.491,0,0,1-.934.022c-.363-.111-.741-.185-1.112-.282a.924.924,0,0,1-.5-.259.282.282,0,0,1-.067-.1c-.015-.03,0-.1-.059-.074s-.037.067-.03.1a.471.471,0,0,0,.185.274.873.873,0,0,0,.133.1c-.1.1-.274.089-.363.208.148.052.245-.059.371-.1a.372.372,0,0,1,.237-.007c.489.141.971.282,1.461.408a1.172,1.172,0,0,0,.6-.067c.408-.1.816-.23,1.216-.348.037-.015.074-.03.111.015a1.138,1.138,0,0,1,.378.126,1.654,1.654,0,0,1,.556.163,25.127,25.127,0,0,1,2.358.986c.067.03.163.119.185-.044a2.609,2.609,0,0,0-.267-.741c-.03-.044-.007-.067.044-.059a1.962,1.962,0,0,1,.208.022c.519.148,1.053.267,1.557.467.037.015.133,0,.1.1a1.955,1.955,0,0,1-.534.8,6.022,6.022,0,0,1-1.928,1.186c-.267.111-.541.23-.808.341l-.741.267c-.059.022-.1.007-.133-.052a1.062,1.062,0,0,1-.141-.326,1.906,1.906,0,0,0-.386-.489.175.175,0,0,0-.245-.007,2.11,2.11,0,0,1-.875.408,5.943,5.943,0,0,1-2.2-.015,1.891,1.891,0,0,1-.7-.386c-.185-.133-.2-.133-.341.044a1.8,1.8,0,0,0-.371.719c-.015.067-.045.089-.111.067a11.147,11.147,0,0,1-2.914-1.372,2.94,2.94,0,0,1-1.075-1.29c-.044-.1.067-.1.1-.111.222-.074.445-.126.667-.185L-92-64.95c.037-.007.082-.052.119.007h.059c.059-.037.111-.082.171-.119A.053.053,0,0,0-91.644-65.128Zm7.132,4.419a3.1,3.1,0,0,1-.712,1.127,3.272,3.272,0,0,1-1.09.6,2.792,2.792,0,0,1-.764.148,3.659,3.659,0,0,1-1.349-.363,1.679,1.679,0,0,1-.816-1.194,5.624,5.624,0,0,1-.111-.778,1.76,1.76,0,0,1,.319-1.112.087.087,0,0,1,.148-.022,2.25,2.25,0,0,0,1.49.467,5.921,5.921,0,0,0,1.616-.111,1.988,1.988,0,0,0,.741-.341c.059-.052.089-.044.156.015a1.954,1.954,0,0,1,.4.741A1.128,1.128,0,0,1-84.512-60.71Zm5.264-9.912a1.438,1.438,0,0,1,.519.675,5.349,5.349,0,0,1,.245,1.031,2.069,2.069,0,0,1-.334,1.386,1.275,1.275,0,0,1-.6.615c-.111.044-.133.03-.133-.089a12.757,12.757,0,0,1,.126-1.683c.082-.593.126-1.186.148-1.787C-79.271-70.518-79.285-70.57-79.248-70.622Zm-.237-2.639a.533.533,0,0,1,.059.26,3.712,3.712,0,0,0,.089.949c.022.111.015.193-.141.237-.6.163-1.216.259-1.816.415-.46.126-.9.311-1.364.43a14.95,14.95,0,0,1-1.5.319c-.171.022-.341.074-.5.111-.007-.007-.007-.015-.015-.022.193-.156.378-.311.571-.475.119-.1.237-.193.363-.289.067-.059.133-.119.067-.215s-.156-.052-.222,0c-.171.133-.341.274-.5.415-.215.193-.46.348-.66.556-.052.059-.1.119-.171.193-.03-.178,0-.348-.037-.519-.03-.126-.03-.259-.067-.378a1.648,1.648,0,0,1-.015-.712,1.037,1.037,0,0,0,0-.371c-.015-.067-.007-.111.067-.141a9.85,9.85,0,0,1,1.72-.475.3.3,0,0,1,.082,0c-.156.163-.311.341-.467.5-.1.1-.208.2-.311.3a.125.125,0,0,0-.022.185c.059.074.133.052.2,0A10.02,10.02,0,0,0-83-73.076a.271.271,0,0,1,.171-.074c.46-.1.919-.141,1.379-.215.586-.1,1.171-.163,1.742-.311.1-.03.156-.022.163.1A.484.484,0,0,0-79.486-73.261ZM-82.97-70.1a.532.532,0,0,0,.23-.386c0-.171.082-.222.23-.26a16.02,16.02,0,0,1,1.928-.534,1.378,1.378,0,0,1-.393.623,2.4,2.4,0,0,1-1.816.69c-.119.007-.23,0-.363,0A2,2,0,0,0-82.97-70.1Zm-.512-.237c.245.022.326-.222.549-.326C-83.015-70.34-83.178-70.244-83.482-70.333Zm-.845.148c-.1.03-.156-.03-.23-.1C-84.431-70.34-84.394-70.244-84.327-70.185Zm4.515-3.729a11.019,11.019,0,0,1-1.379.259,19.878,19.878,0,0,0-2.091.363c-.423.119-.86.163-1.275.3a5.329,5.329,0,0,1-.823.267c-.274.111-.3.133-.245.43a1.735,1.735,0,0,1-.037.519,1.435,1.435,0,0,0,.037.534,3.716,3.716,0,0,1,.1.9c.007.289.067.334.348.252.007,0,.022-.007.03-.007a.658.658,0,0,1,.734.082,1.721,1.721,0,0,0,.927.274c.215-.007.43.059.652.044a3.391,3.391,0,0,0,1.246-.215,2.443,2.443,0,0,0,1.179-1.075.388.388,0,0,0,.052-.156c-.015-.185.1-.222.245-.245a3.078,3.078,0,0,0,.452-.1c.089-.022.133-.022.126.089a20.555,20.555,0,0,1-.126,2.432c-.037.282-.074.571-.119.853a1.98,1.98,0,0,0-.037.63c.022.119-.037.222-.037.334s.044.23.03.348a6.352,6.352,0,0,1,.007,1.453c-.03.156-.067.3-.119.489a7.51,7.51,0,0,0-.882-1.55,5.967,5.967,0,0,0-2.15-1.475,7.992,7.992,0,0,0-1.535-.423c-.089-.015-.126-.037-.111-.133a.574.574,0,0,0-.163-.452,1.472,1.472,0,0,0-.526-.356c-.1-.037-.185-.037-.171.111a2.158,2.158,0,0,0,.386.348.39.39,0,0,1-.03.675,1.477,1.477,0,0,1-.245.178c-.178.082-.3.007-.282-.185a.538.538,0,0,0-.059-.282.082.082,0,0,0-.044.074c-.015.4-.319.541-.623.66a1.969,1.969,0,0,1-1.3.015,1.226,1.226,0,0,1-.156-.044c-.208-.074-.408-.163-.452-.423a.607.607,0,0,0-.074-.178.146.146,0,0,0-.185-.089.133.133,0,0,0-.089.178c.059.156-.03.156-.133.148-.267-.015-.541-.208-.334-.578a1.7,1.7,0,0,1,.378-.482.213.213,0,0,0,.089-.259.5.5,0,0,1-.082-.052h-.059a1.459,1.459,0,0,0-.69.964c-.022.1-.052.141-.148.163a7.579,7.579,0,0,0-1.994.652,7.22,7.22,0,0,0-1.253.86,1.323,1.323,0,0,0-.237.215c-.052.067-.111.126-.163.193s-.119.156-.185.237a6.272,6.272,0,0,0-.475.89,6.618,6.618,0,0,1-.007-1.668,21.5,21.5,0,0,0-.237-2.669,3.346,3.346,0,0,1-.007-.386.494.494,0,0,1-.015-.208,2.941,2.941,0,0,1-.015-.571,4.845,4.845,0,0,1,0-.867,3.209,3.209,0,0,1,.007-.534v-.5c.163.067.163.178.148.3a6.63,6.63,0,0,0,.734,1.772,1.641,1.641,0,0,0,.986.682,4.413,4.413,0,0,0,.816.163l.5.089a2.257,2.257,0,0,0,.83-.119.361.361,0,0,1,.089-.007c.015,0,.037-.007.052-.007a.227.227,0,0,1,.156-.044.163.163,0,0,0,.059-.007,3.488,3.488,0,0,0,.942-.8,1.791,1.791,0,0,0,.319-.534c.222-.519.43-1.045.645-1.572a.918.918,0,0,1,.163-.252c.126-.156.119-.215-.067-.3a.186.186,0,0,1-.052-.03,6.27,6.27,0,0,0-.727-.215,13.218,13.218,0,0,1-2.254-.7,12.335,12.335,0,0,0-1.994-.593c-.163-.03-.334-.052-.5-.074a.462.462,0,0,1-.3-.082c-.171-.082-.163-.089-.341,0,.022-.185.044-.356.059-.526.007-.089.074-.074.133-.082a6.415,6.415,0,0,1,1.683.111,25.116,25.116,0,0,1,5.056,1.564.605.605,0,0,0,.482,0,25.438,25.438,0,0,1,4.871-1.527,7.5,7.5,0,0,1,1.727-.156c.1.007.156.03.163.148.037.46.089.912.141,1.372C-79.641-73.966-79.693-73.914-79.812-73.914Zm-10.854,4a5.077,5.077,0,0,1-1.016-.133,2.427,2.427,0,0,1-1.053-.348,1.006,1.006,0,0,1-.363-.386c-.133-.245-.274-.489-.386-.741a5.629,5.629,0,0,1-.274-.867c-.037-.119.022-.126.126-.1.608.163,1.194.408,1.794.608a3,3,0,0,0,.912.267,1.062,1.062,0,0,1,.156.044C-91.444-70.83-91.4-70.237-90.666-69.918Zm.178-.408a.4.4,0,0,1-.437-.082.54.54,0,0,1-.059-.563,1.046,1.046,0,0,1,.089.2A.407.407,0,0,0-90.488-70.325Zm.882.141c.052-.059.119-.141.178-.215a1.167,1.167,0,0,0,.215-.556c0-.044.022-.059.067-.052.1.007.185.022.3.03a2.434,2.434,0,0,1-.534.63A.443.443,0,0,1-89.606-70.185Zm-4.211-4.626c.015-.045.052-.03.074-.015a1.165,1.165,0,0,0,.63.148c.193.015.363.1.556.1a.072.072,0,0,1,.082.074,1.64,1.64,0,0,0,.3.756,5.737,5.737,0,0,1,.445.942c.037.1.082.208.222.163s.119-.163.074-.274a7.051,7.051,0,0,0-.586-1.186c-.044-.082-.089-.171-.126-.252-.015-.03-.037-.052-.015-.082s.052-.015.082-.007a2.131,2.131,0,0,1,.475.171,4.582,4.582,0,0,0,.541.171.134.134,0,0,1,.111.1,3.585,3.585,0,0,0,.46.979c.089.141.156.3.237.452.044.082.1.156.193.119s.1-.133.067-.23a4.352,4.352,0,0,0-.393-.734,3.052,3.052,0,0,1-.237-.5h0c-.007,0-.007-.007-.015-.007s.007.007.015.007h0a3.408,3.408,0,0,1,.8.274,3.646,3.646,0,0,0,1.142.319,5.313,5.313,0,0,1,.675.178c.067.022.067.03.03.089a4.524,4.524,0,0,0-.437.964c-.1.282-.259.534-.334.83a.073.073,0,0,1-.074.067c-.052,0-.044-.044-.044-.082a8.329,8.329,0,0,0-.393-1.312c-.015-.052-.052-.1-.119-.089s-.089.074-.089.141a1.26,1.26,0,0,0,.1.467,3.484,3.484,0,0,0,.348.867.379.379,0,0,1-.215-.03c-.5-.148-.986-.311-1.468-.5a2.89,2.89,0,0,0-.363-.089,6.453,6.453,0,0,1-.9-.3c-.311-.119-.615-.245-.934-.341a5.708,5.708,0,0,1-1.453-.534c-.185-.111-.2-.1-.1-.3a4.2,4.2,0,0,0,.237-.667C-94.106-74.262-93.921-74.522-93.817-74.811Zm-.445.007a4.133,4.133,0,0,1-.378,1.431.875.875,0,0,1-.082.141.239.239,0,0,0,.148.4c.141.03.156.089.148.215-.03.489-.044.986-.037,1.483a.249.249,0,0,1-.111.237c-.1.067-.178.148-.282.237a15.149,15.149,0,0,1-.489-2.914,1.83,1.83,0,0,1,.245-1.075.264.264,0,0,0,.03-.067,1,1,0,0,1,.9-.808C-94.21-75.285-94.247-75.041-94.262-74.8Zm-.474,4.426c.082-.089.156-.178.237-.267a.323.323,0,0,0,.052.03,20.7,20.7,0,0,0,.185,2.246,8.414,8.414,0,0,1,.082,1.3c0,.059.067.171-.052.178a.217.217,0,0,1-.222-.215,8.015,8.015,0,0,0-.082-2.306,4.483,4.483,0,0,0-.215-.823A.112.112,0,0,1-94.736-70.377Zm6.524,15.08a1.664,1.664,0,0,1-.378-.267c-.415-.4-.89-.741-1.312-1.134a4.836,4.836,0,0,0-.756-.512c-.474-.3-.882-.689-1.327-1.016-.119-.082-.23-.171-.348-.259-.044-.037-.111-.067-.082-.141.037-.156.082-.319.119-.474.067-.267.141-.526.2-.793.022-.1.059-.111.141-.059.059.037.119.067.178.111a9.874,9.874,0,0,0,1.631.934c.415.2.771.489,1.171.719.519.3,1.038.615,1.557.919.037.022.074.037.1.059.067.052.2.03.208.111s-.074.141-.119.222c-.252.5-.519,1.016-.764,1.527C-88.049-55.238-88.1-55.238-88.212-55.3Zm2.246,3.685c0,.1-.015.148-.133.141-.541-.007-1.09-.007-1.631,0-.126,0-.141-.037-.141-.148v-3.292a.333.333,0,0,1,.03-.171c.274-.549.549-1.09.83-1.639a1.5,1.5,0,0,1,.1-.171c.245.482.445.942.7,1.379a2.117,2.117,0,0,1,.252,1.142C-85.98-53.459-85.965-52.532-85.965-51.613Zm.126-3.722c-.289-.571-.549-1.164-.875-1.72-.022-.037-.052-.074.022-.1a5.945,5.945,0,0,0,.979-.534c.526-.319,1.06-.63,1.572-.979.452-.3.964-.489,1.431-.771.245-.141.467-.311.7-.46.044-.03.1-.052.141-.082s.082-.03.1.044c.1.423.215.838.319,1.26a.163.163,0,0,1,.007.059c.015.059-.037.089-.074.119-.719.512-1.379,1.1-2.128,1.572a14.374,14.374,0,0,0-1.564,1.3,2.216,2.216,0,0,1-.482.348C-85.758-55.238-85.795-55.245-85.839-55.334Zm10.847,3.863c-1.75-.007-3.5,0-5.249,0h-5.279c-.126,0-.171-.022-.171-.163q.011-1.6,0-3.2a.175.175,0,0,1,.141-.2,1.555,1.555,0,0,0,.5-.341c.415-.393.882-.734,1.3-1.127a1.482,1.482,0,0,1,.274-.208,15.252,15.252,0,0,0,1.816-1.335c.141-.1.282-.208.415-.319a.1.1,0,0,1,.119-.015c1.283.712,2.632,1.29,3.855,2.106a34.969,34.969,0,0,1,4.322,3.2c.1.082.089.119-.022.178a11.781,11.781,0,0,0-1.683,1.29A.448.448,0,0,1-74.993-51.472Zm5.116-.193c0,.141-.03.193-.185.193-1.379-.007-2.765-.007-4.144-.007h-.148a.8.8,0,0,1,.282-.267,14.8,14.8,0,0,1,1.216-.942,1.694,1.694,0,0,0,.245-.215c.082-.082.037-.156-.037-.215-.252-.222-.512-.445-.764-.667-.037-.03-.074-.044-.089-.1-.2-.119-.356-.282-.541-.415a46.445,46.445,0,0,0-4.508-2.98c-.259-.141-.519-.274-.786-.393-.1-.044-.1-.089-.082-.178a2.631,2.631,0,0,0,.022-.682,10.364,10.364,0,0,1,.371-3.018,2.414,2.414,0,0,1,.526-.942,4.422,4.422,0,0,0-.215,1.423c.052.015.059-.03.067-.059a1.368,1.368,0,0,0,.1-.215,15.116,15.116,0,0,0,.512-2.054c0-.022.015-.037.015-.059l.044-.512c.007-.222.015-.437.022-.66a.4.4,0,0,0-.015-.163c-.1-.178-.007-.326.067-.489a15.526,15.526,0,0,0,1.068-3.292,1.866,1.866,0,0,0-.171-1.379.282.282,0,0,1-.022-.133,5.735,5.735,0,0,0-.571-2.736,8.418,8.418,0,0,1-.638-1.72c-.022-.1-.015-.222-.037-.326a1.221,1.221,0,0,0-.9-.9c-.059-.022-.126-.037-.185-.059a.946.946,0,0,1-.245-.044,9.005,9.005,0,0,0-3.144.356,27.738,27.738,0,0,0-3.9,1.32.375.375,0,0,1-.3,0,26.06,26.06,0,0,0-4.967-1.55,6.038,6.038,0,0,0-2.128-.1,1.879,1.879,0,0,0-.816.3,1.35,1.35,0,0,0-.408.5,3.681,3.681,0,0,0-.274,2.306c.119.712.245,1.423.43,2.128a11.6,11.6,0,0,1,.393,1.668,6.1,6.1,0,0,1-.2,2.662.605.605,0,0,0-.037.282c.007.059-.007.148.1.074.067-.044.052.03.059.059a2.563,2.563,0,0,1,.067.578,8.383,8.383,0,0,1-.289,2.143,9.711,9.711,0,0,0-.2,1.394.249.249,0,0,0,0,.074c.007.074.037.141.126.141s.119-.052.126-.119c.03-.185.045-.363.067-.549.007-.037.007-.082.015-.119.052-.007.067.044.089.067a4.018,4.018,0,0,1,1.045,2.269,6.838,6.838,0,0,1,.037,1.905c-.007.089-.074.1-.126.126-.571.3-1.157.563-1.713.882a34.452,34.452,0,0,0-2.906,1.913c-.185.133-.193.133-.267-.082a11.669,11.669,0,0,1-.652-2.232,5.978,5.978,0,0,1,.445-3.477c.482-1.075.993-2.143,1.409-3.247A7.645,7.645,0,0,0-96.99-66.3a1.867,1.867,0,0,0-.563-1.676.692.692,0,0,0-.408-.185.109.109,0,0,0,.067.089,1.464,1.464,0,0,1,.727,1.2,4.539,4.539,0,0,1-.348,2,7.381,7.381,0,0,1-.378,1.023c-.452,1.12-1,2.2-1.453,3.329a5.121,5.121,0,0,0-.386,2.024,9.06,9.06,0,0,0,.623,2.966c.067.178.133.363.208.541.037.082.015.126-.059.178a16.848,16.848,0,0,0-1.431,1.082c-.245.2-.482.4-.7.623-.1.089-.089.163,0,.252.259.252.578.423.853.652s.549.452.83.682c-.052.052-.1.03-.141.03-1.379,0-2.765,0-4.144.007-.141,0-.171-.037-.171-.178V-85.309c0-.148.044-.178.185-.178h33.637c.156,0,.185.044.185.193Q-69.884-68.468-69.877-51.664Z" transform="translate(112.5 91.7)"/>
              <path id="Path_78" data-name="Path 78" d="M182.5,148c.007,0,.007.007.015.007h0C182.507,148.007,182.507,148.007,182.5,148Z" transform="translate(-160.629 -130.229)" fill="#050505"/>
            </g>
            <path id="Path_79" data-name="Path 79" d="M86.838,118.288c-.074.089-.148.185-.23.274a.756.756,0,0,1,.03-.259,10.788,10.788,0,0,1,.512-1.994c.171-.4.3-.816.437-1.231-.015-.007-.03-.007-.037-.015-.148.378-.289.764-.437,1.142a3.116,3.116,0,0,0-.163.408,8.625,8.625,0,0,0-.519,2.321,10.849,10.849,0,0,0,.052,2.4,6.746,6.746,0,0,0,1.342,3.321c.43.556.927,1.068,1.349,1.631.007.178.156.319.148.5-.2-.119-.356-.282-.541-.415a46.438,46.438,0,0,0-4.508-2.98c-.259-.141-.519-.274-.786-.393-.1-.044-.1-.089-.082-.178a2.629,2.629,0,0,0,.022-.682,10.364,10.364,0,0,1,.371-3.018,2.414,2.414,0,0,1,.526-.942,4.421,4.421,0,0,0-.215,1.423c.052.015.059-.03.067-.059a1.371,1.371,0,0,0,.1-.215,15.117,15.117,0,0,0,.512-2.054c0-.022.015-.037.015-.059.044-.015.052-.059.074-.089.437-.675.875-1.349,1.3-2.031a3.543,3.543,0,0,0,.534-1.179.9.9,0,0,0-.007-.593c-.015.015-.03.022-.03.03a4.186,4.186,0,0,1-.615,1.52c-.348.593-.756,1.142-1.1,1.735a.139.139,0,0,1-.111.089c.007-.222.015-.437.022-.66a.4.4,0,0,0-.015-.163c-.1-.178-.007-.326.067-.489a15.529,15.529,0,0,0,1.068-3.292,1.866,1.866,0,0,0-.171-1.379.282.282,0,0,1-.022-.133,5.735,5.735,0,0,0-.571-2.736,8.418,8.418,0,0,1-.638-1.72c-.022-.1-.015-.222-.037-.326a1.221,1.221,0,0,0-.9-.9c-.059-.022-.126-.037-.185-.059.007-.067.059-.059.1-.059a4.427,4.427,0,0,1,1.208.111c.148.037.289.082.46.141a.856.856,0,0,0-.675-.341c.059.052.148.044.2.126a.229.229,0,0,1-.074-.007,2.635,2.635,0,0,0-1.127-.074c-.111.007-.237-.022-.341.067a9.006,9.006,0,0,0-3.144.356,27.74,27.74,0,0,0-3.9,1.32.375.375,0,0,1-.3,0,26.061,26.061,0,0,0-4.967-1.55,6.039,6.039,0,0,0-2.128-.1,1.879,1.879,0,0,0-.816.3,1.35,1.35,0,0,0-.408.5,3.68,3.68,0,0,0-.274,2.306c.119.712.245,1.423.43,2.128a11.6,11.6,0,0,1,.393,1.668,6.1,6.1,0,0,1-.2,2.662.606.606,0,0,0-.037.282c.007.059-.007.148.1.074.067-.044.052.03.059.059a2.564,2.564,0,0,1,.067.578,8.384,8.384,0,0,1-.289,2.143,9.711,9.711,0,0,0-.2,1.394.249.249,0,0,0,0,.074c.007.074.037.141.126.141s.119-.052.126-.119c.03-.185.044-.363.067-.549.007-.037.007-.082.015-.119.052-.007.067.045.089.067a4.018,4.018,0,0,1,1.045,2.269,6.838,6.838,0,0,1,.037,1.905c-.007.089-.074.1-.126.126-.571.3-1.157.563-1.713.882a34.457,34.457,0,0,0-2.906,1.913c-.185.133-.193.133-.267-.082a11.671,11.671,0,0,1-.652-2.232,5.977,5.977,0,0,1,.445-3.477c.482-1.075.993-2.143,1.409-3.247a7.645,7.645,0,0,0,.534-2.106,1.867,1.867,0,0,0-.563-1.676.691.691,0,0,0-.408-.185.109.109,0,0,0,.067.089,1.464,1.464,0,0,1,.727,1.2,4.539,4.539,0,0,1-.348,2,2.37,2.37,0,0,0-.215-.378,1.7,1.7,0,0,0-.2-.482,9.25,9.25,0,0,1-1.038-3.01,9.518,9.518,0,0,1-.022-2.106,4.288,4.288,0,0,1,.727-2.061c.045-.067.1-.126.171-.222a.684.684,0,0,0,.067.348,2.948,2.948,0,0,0,.215-.475c.082-.245.148-.5.245-.734a5.139,5.139,0,0,1,1.453-1.965,8.506,8.506,0,0,0,.986-.867.678.678,0,0,1,.727-.252c.393.082.786.133,1.179.185.556.082,1.12.111,1.683.171a20.7,20.7,0,0,0,2.536.163c.556-.007,1.112-.015,1.676.03.7.052,1.416.015,2.12.015,1.216,0,2.432-.089,3.64-.193a16.253,16.253,0,0,0,2.313-.267,1.091,1.091,0,0,0,.578-.222c.067-.074.1-.059.163.007a3.285,3.285,0,0,0,.971.778.15.15,0,0,0,.059.1l.5.5c.03.03.067.082.111.052s-.015-.074-.03-.111c-.052-.126-.2-.185-.23-.319a1.953,1.953,0,0,1,.489.363,8.634,8.634,0,0,1,.964,1.12,5.369,5.369,0,0,1,.956,1.594,6.939,6.939,0,0,1,.23,2.84c-.022.237-.074.474-.074.712,0,.059,0,.141.067.148s.074-.067.1-.119a1.812,1.812,0,0,0,.148-.5c.074.059.074.133.1.193a3.931,3.931,0,0,1,.126.927,11.823,11.823,0,0,1-.148,1.772,9.157,9.157,0,0,1-.986,3.225A8.454,8.454,0,0,0,86.838,118.288ZM66.25,123.819a5.666,5.666,0,0,0,.393-.83,17.916,17.916,0,0,0,.482-1.854,5.775,5.775,0,0,0,.267-1.742c-.007-.082,0-.178-.1-.185s-.111.089-.133.156c-.052.208-.082.415-.141.623a25.854,25.854,0,0,0-.749,3.255A1.672,1.672,0,0,0,66.25,123.819Zm.608-8.163c-.037.3-.052.608-.1.912a6.431,6.431,0,0,1-.319,1.342c-.237.652-.482,1.3-.7,1.95-.289.838-.549,1.683-.86,2.506-.015.03-.052.067-.007.1.052-.022.059-.067.074-.1a13.721,13.721,0,0,0,.727-1.742c.334-.986.667-1.98.986-2.973a5.307,5.307,0,0,0,.215-1.957C66.88,115.678,66.865,115.671,66.857,115.656Zm-.415-8.185a.226.226,0,0,0-.052-.037.351.351,0,0,1-.052.089,3.147,3.147,0,0,0-.586,1.705,5.1,5.1,0,0,0,.311,1.883,6.045,6.045,0,0,1,.408,1.913c0,.022.007.052.052.044a6.634,6.634,0,0,0-.037-1.082A14.518,14.518,0,0,0,66.1,110.5a3.9,3.9,0,0,1,.03-2.239A3.459,3.459,0,0,1,66.442,107.471ZM87.817,114.4a9.157,9.157,0,0,0-2.283,4.159,11.822,11.822,0,0,1,1-2.15C86.949,115.73,87.357,115.048,87.817,114.4ZM86.5,108.25a8.956,8.956,0,0,1,.853,3.477.183.183,0,0,0,.059-.171,6.825,6.825,0,0,0-.326-2.224,3.68,3.68,0,0,0-.393-.934A.265.265,0,0,0,86.5,108.25Zm.037,14.227a.346.346,0,0,0-.089-.163,10.73,10.73,0,0,1-1.023-1.364.819.819,0,0,0-.148-.17c-.022-.022-.059-.044-.089-.007a.059.059,0,0,0,.015.082.644.644,0,0,1,.119.193,4.872,4.872,0,0,0,1.179,1.431Zm-2.365-.526c-.1.623.83,1.609,1.2,1.772a5.612,5.612,0,0,0-.667-.838A2.556,2.556,0,0,1,84.169,121.951Zm-6.932-16.681a1.422,1.422,0,0,0-1.09.541A7.1,7.1,0,0,1,77.237,105.269Zm-2.491.378a.227.227,0,0,1,.059.052,3.191,3.191,0,0,1,.919.371c.022.015.059.037.082.007s-.007-.067-.037-.082A1.342,1.342,0,0,0,74.746,105.647Zm-8.163.319c.148-.326.2-.645.348-.934C66.694,105.076,66.509,105.551,66.583,105.966Zm8.044-.734a2.844,2.844,0,0,1,1.031.5.047.047,0,0,0,.067.007.059.059,0,0,0-.015-.082.875.875,0,0,0-.3-.2A1.725,1.725,0,0,0,74.627,105.232Zm1.557.845a5.137,5.137,0,0,1,.949-.43A1.294,1.294,0,0,0,76.184,106.077Zm11.67,8.222c0,.007-.007.015-.007.022s.015.015.022.007a.014.014,0,0,0,.007-.022A.027.027,0,0,1,87.854,114.3Z" transform="translate(-60.496 -97.299)" fill="#fcfdff"/>
            <path id="Path_80" data-name="Path 80" d="M254.549,364.448H249.27c-.126,0-.17-.022-.17-.163q.011-1.6,0-3.2a.175.175,0,0,1,.141-.2,1.554,1.554,0,0,0,.5-.341c.415-.393.882-.734,1.3-1.127a1.485,1.485,0,0,1,.274-.208,15.255,15.255,0,0,0,1.816-1.334c.141-.1.282-.208.415-.319a.1.1,0,0,1,.119-.015c1.283.712,2.632,1.29,3.855,2.106a34.971,34.971,0,0,1,4.322,3.2c.1.082.089.119-.022.178a11.786,11.786,0,0,0-1.683,1.29.494.494,0,0,1-.348.126C258.049,364.448,256.3,364.448,254.549,364.448Z" transform="translate(-232.463 -332.553)" fill="#fff"/>
            <path id="Path_81" data-name="Path 81" d="M51.551,365.207H46.287a.323.323,0,0,1-.215-.067,12.531,12.531,0,0,0-1.765-1.357c-.1-.052-.022-.089.015-.119.274-.237.549-.482.83-.712a43.431,43.431,0,0,1,3.648-2.6,26.533,26.533,0,0,1,2.78-1.512c.289-.141.563-.319.853-.467a.167.167,0,0,1,.208.022c.593.415,1.1.934,1.727,1.312a16.147,16.147,0,0,1,1.972,1.579,1.774,1.774,0,0,0,.6.386c.067.022.074.059.074.119,0,1.1-.007,2.2,0,3.307,0,.141-.082.1-.156.1C55.087,365.207,53.322,365.207,51.551,365.207Z" transform="translate(-42.809 -333.312)" fill="#fff"/>
            <path id="Path_82" data-name="Path 82" d="M134.5,129.282a3.208,3.208,0,0,1,.007-.534c.052-.007.052-.052.059-.082s.007-.119.082-.126a6.632,6.632,0,0,0,.734,1.772,1.641,1.641,0,0,0,.986.682,4.412,4.412,0,0,0,.816.163l.5.089a2.256,2.256,0,0,0,.83-.119.361.361,0,0,1,.089-.007c-.03.1-.03.141.1.1s.26-.082.393-.133c.044-.015.111-.03.133-.1-.133.007-.23.089-.356.074a3.49,3.49,0,0,0,.942-.8,1.79,1.79,0,0,0,.319-.534c.222-.519.43-1.045.645-1.572a.916.916,0,0,1,.163-.252c.126-.156.119-.215-.067-.3a.186.186,0,0,1-.052-.03.82.82,0,0,0-.423-.193,4.361,4.361,0,0,1-.556-.141,16.544,16.544,0,0,1-1.631-.69,1.351,1.351,0,0,0-.378-.133,3.98,3.98,0,0,1-1.023-.3,2.254,2.254,0,0,0-1.238-.222c-.082.007-.185-.007-.222.1a.462.462,0,0,1-.3-.082c-.17-.082-.163-.089-.341,0,.022-.185.045-.356.059-.526.007-.089.074-.074.133-.082a6.415,6.415,0,0,1,1.683.111,25.116,25.116,0,0,1,5.056,1.564.605.605,0,0,0,.482,0,25.438,25.438,0,0,1,4.871-1.527,7.5,7.5,0,0,1,1.727-.156c.1.007.156.03.163.148.037.46.089.912.141,1.372.015.133-.037.185-.156.185.015-.141-.089-.141-.178-.126-.652.141-1.32.133-1.965.3-.452.111-.927.163-1.386.26a9.8,9.8,0,0,0-1.705.571c-.111.044-.252.059-.334.178-.274.111-.3.133-.245.43a1.734,1.734,0,0,1-.037.519,1.436,1.436,0,0,0,.037.534,3.713,3.713,0,0,1,.1.9c.007.289.067.334.348.252.007,0,.022-.007.03-.007a.658.658,0,0,1,.734.082,1.721,1.721,0,0,0,.927.274c.215-.007.43.059.652.045a3.39,3.39,0,0,0,1.246-.215,2.443,2.443,0,0,0,1.179-1.075.388.388,0,0,0,.052-.156c-.015-.185.1-.222.245-.245a3.078,3.078,0,0,0,.452-.1c.089-.022.133-.022.126.089a20.535,20.535,0,0,1-.126,2.432c-.037.282-.074.571-.119.853a1.981,1.981,0,0,0-.037.63c.022.119-.037.222-.037.334s.044.23.03.348c-.074-.007-.074-.074-.089-.126a3.676,3.676,0,0,1-.044-1.505c.022-.193.044-.386.067-.571.007-.074.007-.156-.074-.178s-.119.059-.148.111a5.038,5.038,0,0,0-.386.838,6.241,6.241,0,0,0-.259,1.7c0,.052.015.119-.067.126a5.967,5.967,0,0,0-2.15-1.475,7.99,7.99,0,0,0-1.535-.423c-.089-.015-.126-.037-.111-.133a.574.574,0,0,0-.163-.452,1.473,1.473,0,0,0-.526-.356c-.1-.037-.185-.037-.171.111-.044,0-.052.03-.067.067a.426.426,0,0,1-.178.215,1.492,1.492,0,0,1-.675.17,4.115,4.115,0,0,1-.853-.1,2.927,2.927,0,0,1-.608-.156c-.089-.044-.193-.1-.2-.2-.015-.148-.067-.289-.089-.437-.007-.037.015-.1-.037-.119s-.089.037-.126.082c-.1.1-.178.215-.334.237a.5.5,0,0,1-.082-.052.035.035,0,0,0-.037-.037c-.007,0-.015.022-.022.03a1.459,1.459,0,0,0-.69.964c-.022.1-.052.141-.148.163a7.58,7.58,0,0,0-1.994.652,7.222,7.222,0,0,0-1.253.86,1.321,1.321,0,0,0-.237.215c-.052-.007-.044-.037-.03-.074.052-.1.1-.2.163-.3a1.4,1.4,0,0,0,.193-.378,2.458,2.458,0,0,0-.259-1.7,9.453,9.453,0,0,1-.66-1.349,5.783,5.783,0,0,1-.452-1.208C134.551,129.289,134.521,129.289,134.5,129.282Zm9.727,1.913c-.007.022-.015.037-.022.059a4.8,4.8,0,0,0,1.038.408c.007-.015.007-.022.015-.037C144.916,131.476,144.567,131.335,144.226,131.194Zm-6.094.445a1.829,1.829,0,0,0,1-.371C138.784,131.409,138.458,131.521,138.132,131.639Zm6.517-.46a1.235,1.235,0,0,0-.386-.185c-.03-.015-.074-.022-.089.022s.037.052.067.067A1.359,1.359,0,0,0,144.649,131.18Z" transform="translate(-126.351 -117.53)" fill="#dbbaa5"/>
            <path id="Path_83" data-name="Path 83" d="M149.953,229.078a.948.948,0,0,1-.311-.1c-.66-.252-1.357-.386-2.032-.608-.045-.015-.1-.037-.126.007s.03.082.067.1c.319.185.356.526.445.83.03.1-.059.059-.1.037-.3-.133-.608-.282-.912-.408a16.291,16.291,0,0,0-1.957-.734,2.889,2.889,0,0,1-.282-.119.906.906,0,0,0,.274-.252.242.242,0,0,0,.059-.133c0-.037.015-.089-.03-.1-.067-.022-.044.044-.067.074a.678.678,0,0,1-.408.3,9.676,9.676,0,0,1-1.038.267,1.229,1.229,0,0,0-.156.044,1.49,1.49,0,0,1-.934.022c-.363-.111-.741-.185-1.112-.282a.924.924,0,0,1-.5-.259.283.283,0,0,1-.067-.1c-.015-.03,0-.1-.059-.074s-.037.067-.03.1a.471.471,0,0,0,.185.274.876.876,0,0,0,.133.1c-.1.1-.274.089-.363.208v-.007a.318.318,0,0,0-.2.03,1.144,1.144,0,0,0-.171.044,24.753,24.753,0,0,0-2.521,1.045,3.16,3.16,0,0,1,.193-.6c.037-.074.111-.126.111-.222.059-.037.111-.082.17-.119.03-.022.045-.045.022-.074s-.045-.015-.067-.007c-.734.259-1.505.385-2.232.675-.044.015-.1.022-.141.037h0c.326-.452.452-1,.741-1.468a4.547,4.547,0,0,1,1.564-1.438,8.085,8.085,0,0,1,2.239-.838c.037-.007.082-.037.1.015a.8.8,0,0,0,.586.415,4.192,4.192,0,0,0-.415.512,1.441,1.441,0,0,0-.163.363c-.015.044-.037.1.022.119s.089-.03.1-.082a1.918,1.918,0,0,1,.245-.474,2.072,2.072,0,0,1,.3-.371.233.233,0,0,1,.371.007,1.036,1.036,0,0,0,.408.237,2.369,2.369,0,0,0,1.8.007c.015-.007.037-.007.059-.015a2.6,2.6,0,0,1,.348.867c.007.037-.007.1.067.1s.067-.074.059-.119a1.3,1.3,0,0,0-.452-.86c.067-.1.185-.133.267-.215.03-.03.059-.015.1,0a.448.448,0,0,0,.156.059c.208-.022.282.141.371.267a1.807,1.807,0,0,1,.259.5c.015.052.044.1.1.089.074-.022.037-.089.022-.141a1.446,1.446,0,0,0-.326-.578c-.126-.141-.119-.156.037-.23a.988.988,0,0,0,.437-.415c.037-.067.074-.1.148-.082a8.711,8.711,0,0,1,1.957.667,5.566,5.566,0,0,1,1.564,1.157,3.752,3.752,0,0,1,.675,1.149,4.612,4.612,0,0,0,.4.786Zm-8.215-3a.921.921,0,0,0-.356.482.986.986,0,0,0-.1.386c0,.044.007.082.059.089s.059-.037.067-.074A2.539,2.539,0,0,1,141.739,226.076Z" transform="translate(-127.563 -210.143)" fill="#333"/>
            <path id="Path_84" data-name="Path 84" d="M297.755,136.784c-.007.408-.074.8-.119,1.2-.007.052-.015.1-.022.148a1.145,1.145,0,0,1-.386.845,2.828,2.828,0,0,0-.838,1.742,12.11,12.11,0,0,0-.185,2.736v.133c-.007.1-.037.148-.148.082-.148-.089-.3-.156-.452-.237a4.269,4.269,0,0,0-.779-.341.118.118,0,0,1-.1-.1c-.1-.549-.3-1.075-.385-1.624-.015-.1-.089-.111-.171-.111-.148,0-.3,0-.452.007-.059,0-.089-.015-.1-.074a3.579,3.579,0,0,1-.082-1.587.357.357,0,0,1,.223-.289,6.526,6.526,0,0,0,1.475-.934,2.534,2.534,0,0,0,.734-.986c.03-.074.052-.126.156-.1s.178-.089.1-.185c-.1-.126-.059-.237-.015-.356a3.451,3.451,0,0,0,.148-1.505c-.022-.3-.059-.237.215-.363a1.369,1.369,0,0,0,.653-.608c.119-.23.245-.452.348-.689a1.222,1.222,0,0,0,.111-.512,4.681,4.681,0,0,0-.319-1.653,1.813,1.813,0,0,0-.63-.749.267.267,0,0,1-.126-.259c.007-.082,0-.17,0-.252,0-.1-.03-.222.119-.267.059-.022.074-.1.074-.171a1.974,1.974,0,0,0-.044-.415,17.5,17.5,0,0,0-.267-1.75c-.1-.482-.111-.979-.163-1.468-.007-.059-.007-.1.074-.074a1.46,1.46,0,0,1,.667.311.75.75,0,0,1,.259.519,3.184,3.184,0,0,0,.23.942c.171.415.326.838.512,1.246a5.452,5.452,0,0,1,.46,2.891,5.841,5.841,0,0,0-.022.882c.134-.111.2-.3.311-.927a2.087,2.087,0,0,1,0,1.149,22.741,22.741,0,0,1-1.127,3.321c-.133.319-.252.638-.378.956-.007.03-.059.059-.015.089s.074-.015.1-.044A6.208,6.208,0,0,0,297.755,136.784Z" transform="translate(-273.549 -118.204)" fill="#d5d4d4"/>
            <path id="Path_85" data-name="Path 85" d="M149.786,263.9a1.139,1.139,0,0,1,.378.126c0,.037.022.052.052.067.43.215.86.445,1.3.638s.9.356,1.335.556a.837.837,0,0,0,.378.052.1.1,0,0,0,.1-.089c.015-.044.022-.1-.052-.119-.03-.1.111-.141.089-.245s-.03-.185-.052-.274c-.007-.03-.022-.059,0-.082s.067,0,.1.015a1.531,1.531,0,0,0,.4.148,1.607,1.607,0,0,1,.526.126,1.075,1.075,0,0,0,.549.111,1.954,1.954,0,0,1-.534.8,6.024,6.024,0,0,1-1.928,1.186c-.267.111-.541.23-.808.341a.142.142,0,0,1,.052-.1c.237-.134.482-.259.727-.371a5.093,5.093,0,0,0,1.572-.979c.044-.044.1-.082.067-.148s-.1-.007-.148.007a9.877,9.877,0,0,0-1.423.652c-.489.267-1.031.423-1.527.682a2.1,2.1,0,0,1-.348.156,1.907,1.907,0,0,0-.386-.489.175.175,0,0,0-.245-.007,2.11,2.11,0,0,1-.875.408,5.943,5.943,0,0,1-2.2-.015,1.89,1.89,0,0,1-.7-.386c-.185-.133-.2-.133-.341.045a1.8,1.8,0,0,0-.371.719c-.015.067-.045.089-.111.067a11.147,11.147,0,0,1-2.914-1.372,2.939,2.939,0,0,1-1.075-1.29c-.044-.1.067-.1.1-.111.222-.074.445-.126.667-.185l.853-.245c.037-.007.082-.052.119.007a1.633,1.633,0,0,0-.334.83c-.015.067.022.1.089.1.015.074.074.067.119.052a2.451,2.451,0,0,0,.393-.133c.46-.193.912-.393,1.364-.593.215-.089.43-.178.645-.259s.43-.089.63-.171a.725.725,0,0,1,.608,0h.015a1.751,1.751,0,0,1,.549.133,1.816,1.816,0,0,0,1.023.148,4.519,4.519,0,0,0,.682-.156A2.065,2.065,0,0,0,149.786,263.9Z" transform="translate(-132.711 -245.869)" fill="#dbbaa4"/>
            <path id="Path_86" data-name="Path 86" d="M201.923,307.974a3.659,3.659,0,0,1-1.349-.363,1.679,1.679,0,0,1-.816-1.194,5.624,5.624,0,0,1-.111-.778,1.761,1.761,0,0,1,.319-1.112.087.087,0,0,1,.148-.022,2.25,2.25,0,0,0,1.49.467,5.919,5.919,0,0,0,1.616-.111,1.987,1.987,0,0,0,.741-.341c.059-.052.089-.045.156.015a1.954,1.954,0,0,1,.4.741,1.074,1.074,0,0,1-.022.816,3.1,3.1,0,0,1-.712,1.127,3.274,3.274,0,0,1-1.09.6A2.646,2.646,0,0,1,201.923,307.974Zm.23-1.008a2.415,2.415,0,0,0-.03-.556c-.015-.037,0-.111-.059-.1s-.03.074-.03.119a1.7,1.7,0,0,1,.022.193c-.037.349-.022.7-.082,1.053-.007.052-.015.126.052.141s.082-.067.089-.126A3.881,3.881,0,0,0,202.152,306.965Zm-.638-.534h-.037a1.835,1.835,0,0,0-.044,1c.007.037.022.082.059.074.059-.007.037-.067.037-.1a6.146,6.146,0,0,1,0-.9A.327.327,0,0,1,201.515,306.431Zm1.023.052c.007.356.044.7.052,1.06A1.676,1.676,0,0,0,202.538,306.483Z" transform="translate(-186.672 -283.433)" fill="#333"/>
            <path id="Path_87" data-name="Path 87" d="M134,136.712a3.408,3.408,0,0,1,.8.274,3.646,3.646,0,0,0,1.142.319,5.313,5.313,0,0,1,.675.178c.067.022.067.03.03.089a4.524,4.524,0,0,0-.437.964c-.1.282-.259.534-.334.83a.073.073,0,0,1-.074.067c-.052,0-.044-.044-.044-.081a8.33,8.33,0,0,0-.393-1.312c-.015-.052-.052-.1-.119-.089s-.089.074-.089.141a1.26,1.26,0,0,0,.1.467,3.487,3.487,0,0,0,.348.867.379.379,0,0,1-.215-.03c-.5-.148-.986-.311-1.468-.5a2.89,2.89,0,0,0-.363-.089,6.453,6.453,0,0,1-.9-.3c-.311-.119-.615-.245-.934-.341a5.707,5.707,0,0,1-1.453-.534c-.185-.111-.2-.1-.1-.3a4.2,4.2,0,0,0,.237-.667c.1-.289.274-.549.386-.838.015-.044.052-.03.074-.015a1.166,1.166,0,0,0,.63.148c.193.015.363.1.556.1a.072.072,0,0,1,.082.074,1.64,1.64,0,0,0,.3.756,5.741,5.741,0,0,1,.445.942c.037.1.082.208.222.163s.119-.163.074-.274a7.049,7.049,0,0,0-.586-1.186c-.044-.082-.089-.171-.126-.252-.015-.03-.037-.052-.015-.082s.052-.015.082-.007a2.132,2.132,0,0,1,.474.17,4.573,4.573,0,0,0,.541.171.134.134,0,0,1,.111.1,3.585,3.585,0,0,0,.46.979c.089.141.156.3.237.452.045.082.1.156.193.119s.1-.133.067-.23a4.356,4.356,0,0,0-.393-.734c-.059-.185-.148-.341-.215-.519Z" transform="translate(-122.296 -127.267)" fill="#333"/>
            <path id="Path_88" data-name="Path 88" d="M253.879,154.333c.193-.156.378-.311.571-.475.119-.1.237-.193.363-.289.067-.059.133-.119.067-.215s-.156-.052-.222,0c-.171.133-.341.274-.5.415-.215.193-.46.348-.66.556-.052.059-.1.119-.171.193-.03-.178,0-.348-.037-.519-.03-.126-.03-.259-.067-.378a1.649,1.649,0,0,1-.015-.712,1.042,1.042,0,0,0,0-.371c-.015-.067-.007-.111.067-.141a9.85,9.85,0,0,1,1.72-.475.3.3,0,0,1,.081,0c-.156.163-.311.341-.467.5-.1.1-.208.2-.311.3a.125.125,0,0,0-.022.185c.059.074.133.052.2,0a10.013,10.013,0,0,0,1.082-1.09.271.271,0,0,1,.171-.074c.46-.1.919-.141,1.379-.215.586-.1,1.171-.163,1.742-.311.1-.03.156-.022.163.1a.682.682,0,0,0,.082.3.533.533,0,0,1,.059.26,3.716,3.716,0,0,0,.089.949c.022.111.015.193-.141.237-.6.163-1.216.26-1.816.415-.46.126-.9.311-1.364.43a14.958,14.958,0,0,1-1.5.319c-.171.022-.341.074-.5.111A.03.03,0,0,1,253.879,154.333Zm4.174-2.513c.007-.052-.022-.059-.067-.059a.267.267,0,0,0-.163.067c-.267.193-.519.415-.771.623-.141.119-.289.245-.423.371-.052.052-.1.126-.037.2s.133.052.2,0a2.3,2.3,0,0,0,.245-.215c.289-.26.608-.5.882-.771A.737.737,0,0,0,258.053,151.82Z" transform="translate(-236.234 -141.529)" fill="#333"/>
            <path id="Path_89" data-name="Path 89" d="M126.962,253.932a6.885,6.885,0,0,0-.259-2.758,3.92,3.92,0,0,0-.956-1.564c-.022-.022-.045-.052-.067-.052-.178-.007-.126-.126-.111-.23a13.447,13.447,0,0,0,.3-1.52,4.285,4.285,0,0,0-.052-1.765,1,1,0,0,1,.03-.608c.007-.022.007-.052.037-.059.1-.022.3.156.3.259-.007.126-.015.26-.022.386a2.9,2.9,0,0,0,.1,1.038.275.275,0,0,1-.052.289c-.067.082-.133.171-.2.259a.134.134,0,0,0-.007.171c.037.052.089.044.148.022a.572.572,0,0,1,.119-.015c.074-.007.156-.1.222-.044s.067.141.1.215a2.749,2.749,0,0,0,.89,1.082,6.1,6.1,0,0,0,.875.571.145.145,0,0,1,.1.148.563.563,0,0,0,.082.267,3.177,3.177,0,0,1,.163,1.661c-.007.059-.03.089-.1.089s-.126,0-.193-.007c-.252-.015-.289-.007-.341.237-.111.519-.3,1.016-.378,1.535-.007.037-.007.067-.052.082A6.208,6.208,0,0,0,126.962,253.932Z" transform="translate(-118.073 -228.717)" fill="#d5d4d4"/>
            <path id="Path_90" data-name="Path 90" d="M240.18,337.333c.015.059-.037.089-.074.118-.719.512-1.379,1.1-2.128,1.572a14.351,14.351,0,0,0-1.564,1.3,2.223,2.223,0,0,1-.482.348c-.082.044-.126.03-.171-.059-.289-.571-.549-1.164-.875-1.72-.022-.037-.052-.074.022-.1a5.952,5.952,0,0,0,.979-.534c.526-.319,1.06-.63,1.572-.979.452-.3.964-.489,1.431-.771.245-.141.467-.311.7-.46.044-.03.1-.052.141-.082s.082-.03.1.045c.1.423.215.838.319,1.26A.077.077,0,0,1,240.18,337.333Z" transform="translate(-219.28 -312.577)" fill="#fcfdff"/>
            <path id="Path_91" data-name="Path 91" d="M158.34,337.434c.037-.156.082-.319.119-.475.067-.267.141-.526.2-.793.022-.1.059-.111.141-.059.059.037.119.067.178.111a9.864,9.864,0,0,0,1.631.934c.415.2.771.489,1.171.719.519.3,1.038.615,1.557.919.037.022.074.037.1.059.067.052.2.03.208.111s-.074.141-.119.223c-.252.5-.519,1.016-.764,1.527-.059.126-.119.126-.222.074a1.662,1.662,0,0,1-.378-.267c-.415-.4-.89-.741-1.312-1.134a4.846,4.846,0,0,0-.756-.512c-.475-.3-.882-.689-1.327-1.016-.119-.082-.23-.171-.348-.259C158.377,337.538,158.317,337.508,158.34,337.434Z" transform="translate(-148.427 -312.694)" fill="#fcfdff"/>
            <path id="Path_92" data-name="Path 92" d="M220.656,377.7c.245.482.445.942.7,1.379a2.117,2.117,0,0,1,.252,1.142c-.015.919-.007,1.846,0,2.765,0,.1-.015.148-.134.141-.541-.007-1.09-.007-1.631,0-.126,0-.141-.037-.141-.148v-3.292a.333.333,0,0,1,.03-.17c.274-.549.549-1.09.83-1.639C220.582,377.826,220.612,377.782,220.656,377.7Zm.022,1.646c.015,0,.044-.007.074-.007a.383.383,0,0,0,.356-.267.461.461,0,0,0-.171-.452c-.148-.1-.282-.03-.423.037a.268.268,0,0,0-.074.052c-.178.133-.259.289-.215.423S220.441,379.346,220.679,379.346Zm-.015,2.936a.754.754,0,0,0,.1-.015.38.38,0,0,0,.356-.274.422.422,0,0,0-.171-.437c-.133-.111-.274-.037-.408.015a.58.58,0,0,0-.319.482C220.256,382.185,220.419,382.267,220.664,382.282Z" transform="translate(-205.243 -351.232)" fill="#fcfdff"/>
            <path id="Path_93" data-name="Path 93" d="M246.694,310.873a3.826,3.826,0,0,0,.734-1.342,1.355,1.355,0,0,0,.022-.519c-.007-.059-.007-.1.067-.126.526-.163,1.045-.363,1.572-.586a3.217,3.217,0,0,0-.082.571,3.488,3.488,0,0,0,.245,1.431c.03.074,0,.1-.052.133a3.579,3.579,0,0,1-.667.393,23.322,23.322,0,0,0-2.246,1.3c-.185.119-.378.222-.571.334-.067-.045-.007-.089.015-.126.126-.2.26-.4.386-.6a.965.965,0,0,1,.215-.245A1.233,1.233,0,0,0,246.694,310.873Z" transform="translate(-229.301 -286.977)" fill="#dab8a2"/>
            <path id="Path_94" data-name="Path 94" d="M172.533,313.793c.022.148.059.3.074.452a2.09,2.09,0,0,0,.8,1.394.283.283,0,0,0,.059.215,4.044,4.044,0,0,0,.46.66c.044.045.1.1-.015.126-.215-.126-.437-.237-.638-.371a15.7,15.7,0,0,0-1.809-1.045,5.962,5.962,0,0,1-.756-.445.159.159,0,0,1-.074-.185,3.729,3.729,0,0,0,.007-1.594,1.874,1.874,0,0,1,.608.3A2.5,2.5,0,0,0,172.533,313.793Z" transform="translate(-159.811 -291.329)" fill="#dab8a2"/>
            <path id="Path_95" data-name="Path 95" d="M202.948,205.486a.6.6,0,0,0,.334-.237c.037-.045.074-.1.126-.082s.03.082.037.119c.022.148.074.289.089.437.007.111.111.163.2.2a4.044,4.044,0,0,0,.608.156,4.116,4.116,0,0,0,.853.1,1.622,1.622,0,0,0,.675-.171.427.427,0,0,0,.178-.215c.015-.03.03-.067.067-.067a2.158,2.158,0,0,0,.386.348.39.39,0,0,1-.03.675,1.477,1.477,0,0,1-.245.178c-.178.082-.3.007-.282-.185a.538.538,0,0,0-.059-.282.082.082,0,0,0-.044.074c-.015.4-.319.541-.623.66a1.969,1.969,0,0,1-1.3.015,1.225,1.225,0,0,1-.156-.044c-.208-.074-.408-.163-.452-.423a.607.607,0,0,0-.074-.178.146.146,0,0,0-.185-.089.133.133,0,0,0-.089.178c.059.156-.03.156-.133.148-.267-.015-.541-.208-.334-.578a1.7,1.7,0,0,1,.378-.482A.2.2,0,0,0,202.948,205.486Z" transform="translate(-189.24 -191.489)" fill="#d6ae96"/>
            <path id="Path_96" data-name="Path 96" d="M143.042,168.243c-.667.727-.615,1.32.111,1.646a5.075,5.075,0,0,1-1.016-.133,2.427,2.427,0,0,1-1.053-.348,1.006,1.006,0,0,1-.363-.386c-.133-.245-.274-.489-.386-.741a5.625,5.625,0,0,1-.274-.867c-.037-.119.022-.126.126-.1.608.163,1.194.408,1.794.608a3,3,0,0,0,.912.267A.51.51,0,0,1,143.042,168.243Z" transform="translate(-131.498 -156.433)" fill="#fcfdff"/>
            <path id="Path_97" data-name="Path 97" d="M134.356,179.2c.022.007.052.007.059.037a5.394,5.394,0,0,0,.452,1.208,10.317,10.317,0,0,0,.66,1.349,2.457,2.457,0,0,1,.259,1.7,1.406,1.406,0,0,1-.193.378c-.052.1-.1.2-.163.3-.022.037-.022.067.03.074-.052.067-.111.126-.163.193-.111-.03-.208.1-.185.237a6.276,6.276,0,0,0-.474.89,6.62,6.62,0,0,1-.007-1.668c.052-.007.059-.044.059-.089a.4.4,0,0,1,.022-.208,1.5,1.5,0,0,0,.074-.808,5.853,5.853,0,0,0-.074-.63c-.022-.178.037-.363-.052-.534a1.2,1.2,0,0,1-.193-.615.2.2,0,0,0-.082-.171.493.493,0,0,1-.015-.208.606.606,0,0,0,0-.563h-.015A4.918,4.918,0,0,1,134.356,179.2Z" transform="translate(-126.208 -167.449)" fill="#d7b199"/>
            <path id="Path_98" data-name="Path 98" d="M119.338,131.364a15.151,15.151,0,0,1-.489-2.914,1.83,1.83,0,0,1,.245-1.075.263.263,0,0,0,.03-.067,1,1,0,0,1,.9-.808c-.03.245-.067.482-.082.727a4.132,4.132,0,0,1-.378,1.431.869.869,0,0,1-.082.141.239.239,0,0,0,.148.4c.141.03.156.089.148.215-.03.489-.045.986-.037,1.483a.249.249,0,0,1-.111.237A1.959,1.959,0,0,0,119.338,131.364Z" transform="translate(-111.865 -118.656)" fill="#d5d4d4"/>
            <path id="Path_99" data-name="Path 99" d="M208.556,344.324c.111-.03.059-.082.015-.126a4.044,4.044,0,0,1-.46-.66.274.274,0,0,1-.059-.215,3.173,3.173,0,0,0,1.587.475,3.118,3.118,0,0,0,2.1-.8c.037-.03.074-.067.111-.1a1.246,1.246,0,0,1-.371.63,1.129,1.129,0,0,0-.215.245c-.126.2-.26.4-.386.6-.022.037-.082.074-.015.126a6.751,6.751,0,0,1-.749.43.538.538,0,0,1-.519,0A9.227,9.227,0,0,1,208.556,344.324Z" transform="translate(-194.455 -319.012)" fill="#d6ae96"/>
            <path id="Path_100" data-name="Path 100" d="M332.2,192.6a1.438,1.438,0,0,1,.519.675,5.358,5.358,0,0,1,.245,1.031,2.069,2.069,0,0,1-.334,1.386,1.274,1.274,0,0,1-.6.615c-.111.045-.133.03-.133-.089a12.756,12.756,0,0,1,.126-1.683c.082-.593.126-1.186.148-1.787C332.182,192.7,332.167,192.652,332.2,192.6Z" transform="translate(-309.124 -179.855)" fill="#dab8a2"/>
            <path id="Path_101" data-name="Path 101" d="M315,214.849c.082-.015.067-.074.067-.126a6.593,6.593,0,0,1,.259-1.7,4.736,4.736,0,0,1,.385-.838c.022-.052.074-.126.148-.111s.082.1.074.178c-.022.193-.052.386-.067.571a3.673,3.673,0,0,0,.044,1.505c.015.044.007.119.089.126a6.358,6.358,0,0,1,.007,1.453c-.03.156-.067.3-.119.489A7.9,7.9,0,0,0,315,214.849Z" transform="translate(-293.477 -197.886)" fill="#d6ae96"/>
            <path id="Path_102" data-name="Path 102" d="M285.873,183.8a1.377,1.377,0,0,1-.393.623,2.4,2.4,0,0,1-1.816.69c-.119.007-.23,0-.363,0,.074-.052.134-.089.193-.133a.533.533,0,0,0,.23-.386c0-.171.081-.222.23-.259A15.532,15.532,0,0,1,285.873,183.8Z" transform="translate(-264.127 -171.708)" fill="#fcfdff"/>
            <path id="Path_103" data-name="Path 103" d="M266.1,288.51a2.942,2.942,0,0,0,.348-.156c.5-.259,1.031-.415,1.527-.682a9.882,9.882,0,0,1,1.423-.652c.044-.015.1-.074.148-.008s-.03.111-.067.148a4.957,4.957,0,0,1-1.572.979c-.252.111-.489.237-.727.371a.13.13,0,0,0-.052.1l-.741.267a.1.1,0,0,1-.134-.052A.713.713,0,0,1,266.1,288.51Z" transform="translate(-248.203 -267.239)" fill="#d6ae96"/>
            <path id="Path_104" data-name="Path 104" d="M169.08,305.923a2.586,2.586,0,0,1-1.3-.5,1.738,1.738,0,0,0-.608-.3,3.4,3.4,0,0,0-.274-.623c.148.074.259.126.371.178a14.969,14.969,0,0,0,1.653.645c.1.03.133.067.126.17C169.05,305.634,169.072,305.783,169.08,305.923Z" transform="translate(-156.357 -283.459)" fill="#d7b199"/>
            <path id="Path_105" data-name="Path 105" d="M253.3,147.771c.074-.126.215-.133.334-.178a9.81,9.81,0,0,1,1.705-.571c.46-.1.927-.148,1.386-.259.645-.156,1.32-.156,1.965-.3.089-.022.193-.022.178.126a11.013,11.013,0,0,1-1.379.259,19.885,19.885,0,0,0-2.091.363c-.423.119-.86.163-1.275.3A6.24,6.24,0,0,1,253.3,147.771Z" transform="translate(-236.352 -137.132)" fill="#d6ae96"/>
            <path id="Path_106" data-name="Path 106" d="M168.988,263.6a1.917,1.917,0,0,1-.86.334,4.526,4.526,0,0,1-.682.156,1.747,1.747,0,0,1-1.023-.148,2.2,2.2,0,0,0-.549-.134h-.015a.725.725,0,0,0-.608,0c-.2.082-.423.089-.63.171s-.437.171-.645.259c-.452.193-.912.4-1.364.593-.126.052-.26.089-.393.133-.044.015-.1.022-.119-.052.43-.222.882-.408,1.327-.6.475-.208.971-.371,1.453-.563.037-.007.089,0,.1-.059v.007c.148.052.245-.059.371-.1a.372.372,0,0,1,.237-.007c.489.141.971.282,1.461.408a1.173,1.173,0,0,0,.6-.067c.408-.1.816-.23,1.216-.348C168.921,263.577,168.958,263.562,168.988,263.6Z" transform="translate(-151.913 -245.568)" fill="#d0a991"/>
            <path id="Path_107" data-name="Path 107" d="M145.9,133.326c.037-.111.148-.1.222-.1a2.243,2.243,0,0,1,1.238.222,3.979,3.979,0,0,0,1.023.3,1.35,1.35,0,0,1,.378.133,16.532,16.532,0,0,0,1.631.69,4.7,4.7,0,0,0,.556.141.883.883,0,0,1,.423.193,6.271,6.271,0,0,0-.727-.215,13.216,13.216,0,0,1-2.254-.7,12.342,12.342,0,0,0-1.994-.593C146.234,133.371,146.07,133.349,145.9,133.326Z" transform="translate(-136.914 -124.874)" fill="#d0a991"/>
            <path id="Path_108" data-name="Path 108" d="M352.544,240.373c.059,0,.089-.044.111-.089.341-.593.749-1.142,1.1-1.735a4.188,4.188,0,0,0,.615-1.52c0-.007.015-.015.03-.03a.82.82,0,0,1,.007.593,3.683,3.683,0,0,1-.534,1.179c-.423.682-.868,1.357-1.3,2.031-.022.03-.03.074-.074.089C352.515,240.714,352.53,240.544,352.544,240.373Z" transform="translate(-328.197 -220.964)" fill="#e4e4e3"/>
            <path id="Path_109" data-name="Path 109" d="M126.883,192.422a20.706,20.706,0,0,0,.185,2.246,8.415,8.415,0,0,1,.082,1.3c0,.059.067.171-.052.178a.217.217,0,0,1-.222-.215,8.016,8.016,0,0,0-.082-2.306,4.479,4.479,0,0,0-.215-.823c-.022-.052-.03-.089.015-.134.082-.089.156-.178.237-.267A.111.111,0,0,1,126.883,192.422Z" transform="translate(-119.009 -179.67)" fill="#d6ae96"/>
            <path id="Path_110" data-name="Path 110" d="M263.314,266.7c.074.015.059.074.052.119a.11.11,0,0,1-.1.089.734.734,0,0,1-.378-.052c-.437-.2-.89-.363-1.334-.556s-.867-.423-1.3-.638c-.03-.015-.052-.03-.052-.067a1.653,1.653,0,0,1,.556.163,25.081,25.081,0,0,1,2.358.986c.067.03.163.119.185-.044Z" transform="translate(-242.74 -247.443)" fill="#d6ae96"/>
            <path id="Path_111" data-name="Path 111" d="M134.977,201.4a.183.183,0,0,1,.082.17,1.205,1.205,0,0,0,.193.615c.089.171.03.356.052.534a6.084,6.084,0,0,1,.074.63,1.5,1.5,0,0,1-.074.808.393.393,0,0,0-.022.208c0,.044-.007.082-.059.089a21.5,21.5,0,0,0-.237-2.669A3.312,3.312,0,0,1,134.977,201.4Z" transform="translate(-126.799 -188.003)" fill="#dab8a2"/>
            <path id="Path_112" data-name="Path 112" d="M298.423,270.483H298.4a2.61,2.61,0,0,0-.267-.741c-.03-.044-.007-.067.044-.059a1.992,1.992,0,0,1,.208.022c.519.148,1.053.267,1.557.467.037.015.133,0,.1.1a1.075,1.075,0,0,1-.549-.111,1.611,1.611,0,0,0-.526-.126,1.3,1.3,0,0,1-.4-.148c-.03-.015-.059-.052-.1-.015s-.007.052,0,.082c.015.089.03.185.052.274C298.534,270.342,298.394,270.387,298.423,270.483Z" transform="translate(-277.849 -251.222)" fill="#d0a991"/>
            <path id="Path_113" data-name="Path 113" d="M163.829,265.537c-.482.193-.979.356-1.453.563-.445.2-.9.378-1.327.6-.067,0-.1-.03-.089-.1a1.633,1.633,0,0,1,.334-.83h.059c0,.1-.074.148-.111.222a3,3,0,0,0-.193.6,26.21,26.21,0,0,1,2.521-1.045,1.437,1.437,0,0,1,.171-.044C163.755,265.545,163.792,265.537,163.829,265.537Z" transform="translate(-150.854 -247.351)" fill="#111"/>
            <path id="Path_114" data-name="Path 114" d="M331.2,120.622c.1-.089.23-.052.341-.067a2.757,2.757,0,0,1,1.127.074c.015.007.037,0,.074.007-.052-.082-.141-.067-.2-.126a.866.866,0,0,1,.675.341c-.171-.059-.311-.1-.46-.141a4.43,4.43,0,0,0-1.209-.111c-.044,0-.1-.007-.1.059A.653.653,0,0,1,331.2,120.622Z" transform="translate(-308.476 -113.105)" fill="#e4e4e3"/>
            <path id="Path_115" data-name="Path 115" d="M198.7,187.985a1.166,1.166,0,0,0,.215-.556c0-.044.022-.059.067-.052.1.007.185.022.3.03a2.433,2.433,0,0,1-.534.63A.325.325,0,0,0,198.7,187.985Z" transform="translate(-185.8 -175.018)" fill="#e4e4e3"/>
            <path id="Path_116" data-name="Path 116" d="M243.222,235.4a1.3,1.3,0,0,1,.452.86c.007.044.007.111-.059.119s-.059-.059-.067-.1a2.6,2.6,0,0,0-.348-.867C243.207,235.407,243.215,235.4,243.222,235.4Z" transform="translate(-227 -219.482)" fill="#050505"/>
            <path id="Path_117" data-name="Path 117" d="M177.584,188.545a.4.4,0,0,1-.437-.081.54.54,0,0,1-.059-.564,1.05,1.05,0,0,1,.089.2A.407.407,0,0,0,177.584,188.545Z" transform="translate(-165.743 -175.504)" fill="#e4e4e3"/>
            <path id="Path_118" data-name="Path 118" d="M279.449,192.2c-.082.319-.252.408-.549.326C279.145,192.548,279.234,192.3,279.449,192.2Z" transform="translate(-260.054 -179.485)" fill="#e4e4e3"/>
            <path id="Path_119" data-name="Path 119" d="M134.841,165.4c-.074.007-.067.081-.082.126s-.007.082-.059.082v-.5A.23.23,0,0,1,134.841,165.4Z" transform="translate(-126.545 -154.394)" fill="#d7b199"/>
            <path id="Path_120" data-name="Path 120" d="M189.983,202.074c.119.015.222-.067.356-.074-.022.074-.089.082-.134.1-.126.044-.267.082-.393.133s-.126,0-.1-.1c.015,0,.037-.007.052-.007.074.044.119.022.156-.044A.23.23,0,0,1,189.983,202.074Z" transform="translate(-177.469 -188.558)" fill="#d0a991"/>
            <path id="Path_121" data-name="Path 121" d="M134.5,190.9h.015a.628.628,0,0,1,0,.563A2.848,2.848,0,0,1,134.5,190.9Z" transform="translate(-126.356 -178.281)" fill="#dab8a2"/>
            <path id="Path_122" data-name="Path 122" d="M144.66,250.183c-.022-.141.074-.267.185-.237C144.786,250.02,144.727,250.1,144.66,250.183Z" transform="translate(-135.763 -232.945)" fill="#dbbaa5"/>
            <path id="Path_123" data-name="Path 123" d="M196.478,195.6l.044.045a.421.421,0,0,1-.222.171C196.352,195.756,196.419,195.682,196.478,195.6Z" transform="translate(-183.578 -182.633)" fill="#d5d4d4"/>
            <path id="Path_124" data-name="Path 124" d="M264.63,197.064c-.1.03-.156-.03-.23-.1C264.526,196.908,264.563,197,264.63,197.064Z" transform="translate(-246.629 -183.882)" fill="#d5d4d4"/>
            <path id="Path_125" data-name="Path 125" d="M190.756,203.085c-.037.067-.082.1-.156.044A.311.311,0,0,1,190.756,203.085Z" transform="translate(-178.3 -189.562)" fill="#dbbaa5"/>
            <path id="Path_126" data-name="Path 126" d="M207.7,208.511c.007-.015.015-.03.022-.03s.03.015.037.037A.183.183,0,0,0,207.7,208.511Z" transform="translate(-194.132 -194.558)" fill="#d6ae96"/>
            <path id="Path_127" data-name="Path 127" d="M182.515,148.007c-.007,0-.007-.007-.015-.007s.007.007.015.007Z" transform="translate(-170.801 -138.562)" fill="#333"/>
            <path id="Path_128" data-name="Path 128" d="M326.759,276.1l.015.015c-.007-.007-.015-.007-.015-.015Z" transform="translate(-304.361 -257.165)" fill="#333"/>
            <path id="Path_129" data-name="Path 129" d="M135.615,276.1l-.015.015c.007-.007.015-.007.015-.015Z" transform="translate(-127.378 -257.165)" fill="#333"/>
            <path id="Path_130" data-name="Path 130" d="M87.586,59.468a3.408,3.408,0,0,1-.971-.778c-.059-.067-.1-.082-.163-.007a1.068,1.068,0,0,1-.578.222,14.358,14.358,0,0,1-2.313.267c-1.208.1-2.424.193-3.64.193-.7,0-1.416.044-2.12-.015-.556-.044-1.112-.037-1.676-.03a22.279,22.279,0,0,1-2.536-.163c-.556-.059-1.119-.089-1.683-.171-.393-.059-.793-.1-1.179-.185a.682.682,0,0,0-.727.252,9.167,9.167,0,0,1-.986.867,5.139,5.139,0,0,0-1.453,1.965c-.1.237-.163.489-.245.734a2.684,2.684,0,0,1-.215.474.835.835,0,0,1-.067-.348,1.794,1.794,0,0,0-.171.222,4.212,4.212,0,0,0-.727,2.061,9.989,9.989,0,0,0,.022,2.106,9.31,9.31,0,0,0,1.038,3.01,1.838,1.838,0,0,1,.2.482A.689.689,0,0,1,67,70.285,5.433,5.433,0,0,1,66.389,69a8.653,8.653,0,0,1-.445-1.668,5.155,5.155,0,0,1-.052-1.068c.022-.289,0-.578.007-.867a4.185,4.185,0,0,1,.83-2.506A.357.357,0,0,1,66.8,62.8a1.245,1.245,0,0,0,.415-.764,3.638,3.638,0,0,1,.793-1.468,12.059,12.059,0,0,1,1.52-1.431,4.376,4.376,0,0,0,.371-.371.148.148,0,0,0,.015-.222.526.526,0,0,1-.037-.593.577.577,0,0,1,.526-.311,3.033,3.033,0,0,1,.578.037.339.339,0,0,0,.356.2,2.3,2.3,0,0,1,.512.067c.4.089.808.141,1.216.2.348.052.7.052,1.053.1a15.453,15.453,0,0,0,2.195.171c.259,0,.519-.015.771-.015.415,0,.83.067,1.246.074a12.631,12.631,0,0,0,1.3-.022c.445-.037.9.015,1.342-.037.326-.03.652-.037.979-.067.489-.044.971-.119,1.461-.141a9.638,9.638,0,0,0,1.668-.252c.044-.007.119-.007.126-.089.052-.044.141-.007.208-.1-.267.022-.482.126-.719.148a4.751,4.751,0,0,1-1.023.163c-.393.015-.778.074-1.171.1-.571.037-1.142.119-1.713.141-.534.022-1.075.022-1.609.037-.563.007-1.12-.022-1.683-.044-.9-.044-1.816.015-2.728-.1-.415-.052-.823-.1-1.238-.133a7.432,7.432,0,0,1-1.142-.163c-.193-.044-.386-.059-.586-.1a.737.737,0,0,0-.4-.059.485.485,0,0,1-.386-.119.592.592,0,0,1-.163-.66.54.54,0,0,1,.519-.356,2.173,2.173,0,0,1,.534.052.208.208,0,0,0,.185-.03,6.231,6.231,0,0,1,2.232-1.075,11.5,11.5,0,0,1,2.054-.43,11.651,11.651,0,0,1,2.157-.082c.556.03,1.112.074,1.661.133a9.769,9.769,0,0,1,4.367,1.535.265.265,0,0,0,.222.037.558.558,0,0,1,.778.652c-.015.059-.082.141-.007.193.1.067.178.171.311.141a.587.587,0,0,1,.727.556c0,.067.052.1.089.133a3.852,3.852,0,0,0,1.26.942,3.2,3.2,0,0,1,1.112.927,16.185,16.185,0,0,1,1.1,1.446,4.466,4.466,0,0,1,.69,1.95,10.476,10.476,0,0,1,.052,1.446c0,.052-.015.1-.015.148a.843.843,0,0,0,.082.534,2.169,2.169,0,0,1,.259,1.031,11.305,11.305,0,0,1-.163,2.239,9.205,9.205,0,0,1-.378,1.668,12.251,12.251,0,0,1-.942,1.994c-.111.208-.222.415-.334.615a.543.543,0,0,1-.119.171c-.037.03-.067.111-.126.082s-.015-.089-.03-.141a15.066,15.066,0,0,1,.786-1.542,9.112,9.112,0,0,0,.986-3.225,12.885,12.885,0,0,0,.148-1.772,3.93,3.93,0,0,0-.126-.927.284.284,0,0,0-.1-.193,1.889,1.889,0,0,1-.148.5c-.03.044-.052.126-.1.119s-.067-.1-.067-.148c0-.237.052-.474.074-.712a6.8,6.8,0,0,0-.23-2.84,5.37,5.37,0,0,0-.956-1.594,8.634,8.634,0,0,0-.964-1.12,2.153,2.153,0,0,0-.489-.363A.933.933,0,0,0,87.586,59.468ZM83.345,56.34a.565.565,0,0,0-.215-.1L83,56.177a9.385,9.385,0,0,0-2.765-.712,15.964,15.964,0,0,0-3.9-.044,12.233,12.233,0,0,0-2.506.608l-.185.067a3.958,3.958,0,0,0-1.223.675,45.223,45.223,0,0,0,11.885.1A5.86,5.86,0,0,0,83.345,56.34Z" transform="translate(-62.831 -52.499)" fill="#050505"/>
            <path id="Path_131" data-name="Path 131" d="M376.71,285.783c-.423-.563-.919-1.075-1.349-1.631a6.745,6.745,0,0,1-1.342-3.321,10.856,10.856,0,0,1-.052-2.4,8.629,8.629,0,0,1,.519-2.32,2.463,2.463,0,0,1,.163-.408c.044.022.03.067.037.1a10.8,10.8,0,0,0-.512,1.994.777.777,0,0,0-.03.26,11.889,11.889,0,0,0-.067,1.624,8.929,8.929,0,0,0,.252,1.824,6.675,6.675,0,0,0,1.416,2.8,10.129,10.129,0,0,1,.816,1.045,2.136,2.136,0,0,1,.163.348C376.74,285.731,376.748,285.761,376.71,285.783Z" transform="translate(-348.033 -256.794)" fill="#111"/>
            <path id="Path_132" data-name="Path 132" d="M149.22,90.33c-.007.082-.074.074-.126.089a10.534,10.534,0,0,1-1.668.252c-.489.022-.971.1-1.461.141-.326.03-.652.03-.979.067-.445.044-.9,0-1.342.037a12.627,12.627,0,0,1-1.3.022c-.415-.007-.83-.074-1.246-.074-.26,0-.519.015-.771.015a15.627,15.627,0,0,1-2.195-.171c-.348-.044-.7-.052-1.053-.1-.408-.059-.816-.111-1.216-.2a2.419,2.419,0,0,0-.512-.067.339.339,0,0,1-.356-.2c.015-.015.022-.03.037-.037a.46.46,0,0,0,.386.119.737.737,0,0,0,.4.059,5.357,5.357,0,0,1,.586.1,6.725,6.725,0,0,0,1.142.163c.415.037.83.082,1.238.133.9.111,1.816.052,2.728.1.563.03,1.12.052,1.683.044.534-.007,1.075-.015,1.609-.037.571-.022,1.142-.1,1.713-.141.393-.022.779-.082,1.171-.1a4.332,4.332,0,0,0,1.023-.163Z" transform="translate(-126.822 -84.955)" fill="#111"/>
            <path id="Path_133" data-name="Path 133" d="M102.084,320.806a1.673,1.673,0,0,1,.022-.578,25.862,25.862,0,0,1,.749-3.255c.052-.208.089-.415.141-.623.015-.067.03-.163.133-.156s.1.1.1.185a5.775,5.775,0,0,1-.267,1.742,17.428,17.428,0,0,1-.482,1.854A5.662,5.662,0,0,1,102.084,320.806Z" transform="translate(-96.331 -294.287)" fill="#e4e4e3"/>
            <path id="Path_134" data-name="Path 134" d="M85.443,268.3c.007.015.015.022.015.037a5.451,5.451,0,0,1-.215,1.957c-.319.993-.645,1.987-.986,2.973a14.388,14.388,0,0,1-.727,1.742c-.022.037-.022.089-.074.1-.045-.037,0-.074.007-.1.311-.83.571-1.676.86-2.506.23-.652.475-1.3.7-1.95a6.934,6.934,0,0,0,.319-1.342C85.391,268.908,85.414,268.6,85.443,268.3Z" transform="translate(-79.082 -249.943)" fill="#e4e4e3"/>
            <path id="Path_135" data-name="Path 135" d="M96.1,157.437a4.549,4.549,0,0,0-.319.793,3.9,3.9,0,0,0-.03,2.239,14.51,14.51,0,0,1,.386,1.483,6.609,6.609,0,0,1,.037,1.082c-.052.007-.052-.015-.052-.044a6.045,6.045,0,0,0-.408-1.913,5.1,5.1,0,0,1-.311-1.883,3.127,3.127,0,0,1,.586-1.705.554.554,0,0,0,.052-.089A.261.261,0,0,1,96.1,157.437Z" transform="translate(-90.159 -147.265)" fill="#e4e4e3"/>
            <path id="Path_136" data-name="Path 136" d="M364.681,251.4c-.46.645-.868,1.327-1.283,2a12.053,12.053,0,0,0-1,2.15A9.131,9.131,0,0,1,364.681,251.4Z" transform="translate(-337.36 -234.296)" fill="#e4e4e3"/>
            <path id="Path_137" data-name="Path 137" d="M375.4,168.4a.275.275,0,0,1,.193.141,3.836,3.836,0,0,1,.393.934,6.887,6.887,0,0,1,.326,2.224c0,.059.015.119-.059.17A9.019,9.019,0,0,0,375.4,168.4Z" transform="translate(-349.399 -157.45)" fill="#e4e4e3"/>
            <path id="Path_138" data-name="Path 138" d="M358.819,338.665c-.03-.007-.037,0-.044-.007a4.99,4.99,0,0,1-1.179-1.431.593.593,0,0,0-.119-.193.059.059,0,0,1-.015-.082c.03-.037.067-.015.089.007a.817.817,0,0,1,.148.17,12.361,12.361,0,0,0,1.023,1.364A.354.354,0,0,1,358.819,338.665Z" transform="translate(-332.781 -313.487)" fill="#e4e4e3"/>
            <path id="Path_139" data-name="Path 139" d="M343.912,353.2a2.587,2.587,0,0,0,.534.942,5.258,5.258,0,0,1,.667.838C344.735,354.809,343.816,353.815,343.912,353.2Z" transform="translate(-320.239 -328.549)" fill="#e4e4e3"/>
            <path id="Path_140" data-name="Path 140" d="M236.89,128.2a7.847,7.847,0,0,0-1.09.541A1.421,1.421,0,0,1,236.89,128.2Z" transform="translate(-220.149 -120.23)" fill="#d5d4d4"/>
            <path id="Path_141" data-name="Path 141" d="M216.9,133.269a1.4,1.4,0,0,1,1.031.348c.022.022.067.044.037.082s-.059.007-.082-.007a3.19,3.19,0,0,0-.919-.371C216.952,133.313,216.944,133.3,216.9,133.269Z" transform="translate(-202.65 -124.92)" fill="#d5d4d4"/>
            <path id="Path_142" data-name="Path 142" d="M106.593,125.934c-.074-.415.111-.89.348-.934C106.793,125.289,106.742,125.608,106.593,125.934Z" transform="translate(-100.506 -117.267)" fill="#e4e4e3"/>
            <path id="Path_143" data-name="Path 143" d="M383.737,261.546c-.015-.037.007-.082-.037-.1.148-.378.289-.764.437-1.142.015.007.03.007.037.015C384.041,260.73,383.908,261.145,383.737,261.546Z" transform="translate(-357.084 -242.536)" fill="#333"/>
            <path id="Path_144" data-name="Path 144" d="M358.6,114.7a2.551,2.551,0,0,1,.4.208c.03.141.178.2.23.319.015.037.074.082.03.111s-.082-.022-.111-.052c-.163-.163-.334-.326-.5-.5A.122.122,0,0,1,358.6,114.7Z" transform="translate(-333.845 -107.731)" fill="#e4e4e3"/>
            <path id="Path_145" data-name="Path 145" d="M215.3,127.7a1.726,1.726,0,0,1,.786.23.875.875,0,0,1,.3.2.059.059,0,0,1,.015.082c-.022.03-.052.007-.067-.007A2.844,2.844,0,0,0,215.3,127.7Z" transform="translate(-201.169 -119.767)" fill="#e4e4e3"/>
            <path id="Path_146" data-name="Path 146" d="M236.3,133.63a1.27,1.27,0,0,1,.949-.43A5.371,5.371,0,0,0,236.3,133.63Z" transform="translate(-220.612 -124.852)" fill="#e4e4e3"/>
            <path id="Path_147" data-name="Path 147" d="M393.607,250c.007,0,.022.007.022.015a.075.075,0,0,1-.007.022c-.007,0-.015-.007-.022-.007S393.6,250.007,393.607,250Z" transform="translate(-366.25 -233)" fill="#e4e4e3"/>
            <path id="Path_148" data-name="Path 148" d="M265.522,205c.341.141.689.282,1.031.43-.007.015-.007.022-.015.037a4.8,4.8,0,0,1-1.038-.408A.521.521,0,0,1,265.522,205Z" transform="translate(-247.647 -191.336)" fill="#d0a991"/>
            <path id="Path_149" data-name="Path 149" d="M183.6,206.371c.326-.119.652-.23,1-.371A1.83,1.83,0,0,1,183.6,206.371Z" transform="translate(-171.819 -192.262)" fill="#d0a991"/>
            <path id="Path_150" data-name="Path 150" d="M265.657,202.287a1.447,1.447,0,0,1-.4-.1c-.03-.007-.074-.022-.067-.067s.059-.03.089-.022A1.4,1.4,0,0,1,265.657,202.287Z" transform="translate(-247.359 -188.638)" fill="#d0a991"/>
            <path id="Path_151" data-name="Path 151" d="M210.16,235.6a3.007,3.007,0,0,0-.334.89c-.007.037-.007.089-.067.074a.081.081,0,0,1-.059-.089.985.985,0,0,1,.1-.386A.9.9,0,0,1,210.16,235.6Z" transform="translate(-195.984 -219.667)" fill="#050505"/>
            <path id="Path_152" data-name="Path 152" d="M198.5,265.173c-.03-.007-.074.007-.1-.03.067-.015.126-.052.2-.03C198.585,265.173,198.533,265.165,198.5,265.173Z" transform="translate(-185.522 -246.986)"/>
            <path id="Path_153" data-name="Path 153" d="M231.312,329.836a4.437,4.437,0,0,1-.03.719c-.007.059-.007.133-.089.126s-.059-.082-.052-.141c.052-.348.044-.7.082-1.053a1.92,1.92,0,0,0-.022-.193c0-.037-.03-.1.03-.119s.052.059.059.1A2.466,2.466,0,0,1,231.312,329.836Z" transform="translate(-215.832 -306.304)" fill="#050505"/>
            <path id="Path_154" data-name="Path 154" d="M223.143,330.807c0,.022.007.044.007.067a6.141,6.141,0,0,0,0,.9c0,.037.022.089-.037.1-.037.007-.052-.044-.059-.074a1.835,1.835,0,0,1,.044-1A.094.094,0,0,1,223.143,330.807Z" transform="translate(-208.3 -307.809)" fill="#050505"/>
            <path id="Path_155" data-name="Path 155" d="M238.7,331.6a1.676,1.676,0,0,1,.052,1.06C238.744,332.3,238.715,331.956,238.7,331.6Z" transform="translate(-222.834 -308.55)" fill="#111"/>
            <path id="Path_156" data-name="Path 156" d="M300.407,158.737a.651.651,0,0,1-.134.215c-.274.282-.593.512-.882.771-.082.074-.163.148-.245.215a.13.13,0,0,1-.2,0c-.059-.074-.015-.148.037-.2.141-.126.282-.252.423-.371.252-.215.5-.43.771-.623a.267.267,0,0,1,.163-.067C300.385,158.67,300.415,158.685,300.407,158.737Z" transform="translate(-278.588 -148.446)" fill="#050505"/>
            <path id="Path_157" data-name="Path 157" d="M227.1,390.153c-.237,0-.408-.081-.452-.222s.037-.289.215-.423a.63.63,0,0,1,.074-.052c.133-.059.274-.133.423-.037a.447.447,0,0,1,.171.452.383.383,0,0,1-.356.267A.428.428,0,0,1,227.1,390.153Zm-.037-.2c.111-.015.222-.015.237-.156a.528.528,0,0,0-.163-.282c-.089-.007-.334.208-.319.3C226.836,389.968,226.977,389.924,227.066,389.953Z" transform="translate(-211.667 -362.04)" fill="#111"/>
            <path id="Path_158" data-name="Path 158" d="M227.124,429.638c-.245-.007-.408-.089-.437-.23-.044-.193.082-.3.215-.415a.5.5,0,0,1,.1-.067c.133-.059.274-.133.408-.015a.436.436,0,0,1,.171.437.374.374,0,0,1-.356.274A.826.826,0,0,0,227.124,429.638Zm-.03-.208c.163,0,.245-.059.245-.163a.554.554,0,0,0-.171-.282c-.1,0-.334.215-.319.3C226.879,429.445,227.012,429.408,227.094,429.43Z" transform="translate(-211.703 -398.588)" fill="#111"/>
            <path id="Path_159" data-name="Path 159" d="M155.409,59.409a11.558,11.558,0,0,1,2.506-.608,15.6,15.6,0,0,1,3.9.044,9.384,9.384,0,0,1,2.765.712l.133.067c-.015.23.215.282.3.475.045-.178-.089-.259-.089-.378a5.86,5.86,0,0,1,.956.526A44.91,44.91,0,0,1,154,60.15a3.675,3.675,0,0,1,1.223-.675c.007.067-.044.119-.067.178-.037.089-.133.163-.082.3A2.321,2.321,0,0,0,155.409,59.409Zm9.394.652c.007-.015.022-.022.03-.037a.527.527,0,0,0-.371-.356.106.106,0,0,0-.119.037.061.061,0,0,0,.03.074C164.513,59.884,164.654,59.973,164.8,60.062Zm-9.4-.193a.62.62,0,0,0,.386-.208c.03-.03.082-.059.044-.111s-.089-.022-.126.015C155.6,59.669,155.512,59.772,155.4,59.869Z" transform="translate(-144.414 -55.88)" fill="#fcfdff"/>
            <path id="Path_160" data-name="Path 160" d="M168.682,68.3a2.32,2.32,0,0,1-.334.541c-.044-.133.044-.215.082-.3.03-.059.074-.1.067-.178Z" transform="translate(-157.687 -64.771)" fill="#e4e4e3"/>
            <path id="Path_161" data-name="Path 161" d="M298.706,71.3c.007.119.133.2.089.378-.1-.193-.319-.245-.3-.475A.62.62,0,0,1,298.706,71.3Z" transform="translate(-278.192 -67.456)" fill="#e4e4e3"/>
            <path id="Path_162" data-name="Path 162" d="M320.5,91.9l-.5.044c.23-.03.452-.133.719-.148C320.638,91.9,320.556,91.859,320.5,91.9Z" transform="translate(-298.106 -86.529)" fill="#d0a991"/>
            <path id="Path_163" data-name="Path 163" d="M141,91.63a.748.748,0,0,1-.4-.059A.814.814,0,0,1,141,91.63Z" transform="translate(-132.007 -86.314)" fill="#333"/>
            <path id="Path_164" data-name="Path 164" d="M229.337,391.642c-.089-.03-.23.007-.245-.148-.015-.089.23-.3.319-.3a.558.558,0,0,1,.163.282C229.559,391.628,229.448,391.635,229.337,391.642Z" transform="translate(-213.938 -363.729)" fill="#fcfdff"/>
            <path id="Path_165" data-name="Path 165" d="M229.329,431.145c-.082-.022-.215.015-.237-.141-.015-.089.215-.3.319-.3a.554.554,0,0,1,.17.282C229.573,431.086,229.492,431.145,229.329,431.145Z" transform="translate(-213.937 -400.303)" fill="#fcfdff"/>
            <path id="Path_166" data-name="Path 166" d="M293.9,72.179c-.141-.089-.289-.178-.43-.274a.061.061,0,0,1-.03-.074c.022-.052.074-.052.119-.037a.527.527,0,0,1,.371.356C293.914,72.157,293.907,72.172,293.9,72.179Z" transform="translate(-273.511 -67.998)" fill="#e4e4e3"/>
            <path id="Path_167" data-name="Path 167" d="M172.9,70.263c.111-.089.2-.2.3-.3.037-.037.082-.067.126-.015s-.015.082-.044.111A.649.649,0,0,1,172.9,70.263Z" transform="translate(-161.912 -66.274)" fill="#e4e4e3"/>
            <g id="Group_2420" data-name="Group 2420" transform="translate(1.194 -3.522)">
              <path id="Path_168" data-name="Path 168" d="M41.3-23.664H69.077a.51.51,0,0,0,.5-.5V-26.3a.51.51,0,0,0-.5-.5H41.3a.51.51,0,0,0-.5.5v2.128A.51.51,0,0,0,41.3-23.664Z" transform="translate(-40.8 26.8)" fill="#640a34"/>
            </g>
            <path id="Path_169" data-name="Path 169" d="M242.019,171a8.321,8.321,0,0,0,.133,3.388" transform="translate(-225.797 -159.857)" fill="#d6ae96"/>
            <g id="Group_2421" data-name="Group 2421" transform="translate(10.995 25.971)">
              <rect id="Rectangle_3" data-name="Rectangle 3" width="8.719" height="5.345" fill="#fff"/>
            </g>
            <g id="Group_2422" data-name="Group 2422" transform="translate(9.563 23.006)">
              <path id="Path_170" data-name="Path 170" d="M167.858,334.5a7.78,7.78,0,0,1-10.565,0l-.193,1.846s5.953,5.19,11.262-.126Z" transform="translate(-156.847 -334.24)" fill="#fff"/>
              <path id="Path_171" data-name="Path 171" d="M164.7,331.259l.512,1.72a7.408,7.408,0,0,1-5.36,2.395,10.043,10.043,0,0,1-5.9-2.269l.193-1.846a7.709,7.709,0,0,0,10.558,0m0-.259a.241.241,0,0,0-.178.074,7.448,7.448,0,0,1-10.224-.015.259.259,0,0,0-.163-.059.229.229,0,0,0-.1.022.251.251,0,0,0-.156.208l-.193,1.846a.241.241,0,0,0,.089.215,10.206,10.206,0,0,0,6.072,2.328,7.7,7.7,0,0,0,5.546-2.469.264.264,0,0,0,.067-.252l-.512-1.72a.244.244,0,0,0-.178-.171c-.037,0-.052-.007-.074-.007Z" transform="translate(-153.685 -331)"/>
            </g>
            <g id="Group_2423" data-name="Group 2423" transform="translate(14.91 26.409)">
              <circle id="Ellipse_1" data-name="Ellipse 1" cx="0.386" cy="0.386" r="0.386" transform="translate(0.059 0.059)" fill="#fff"/>
              <path id="Path_172" data-name="Path 172" d="M226.245,377.79a.445.445,0,1,1,.445-.445A.446.446,0,0,1,226.245,377.79Zm0-.771a.326.326,0,1,0,.326.326A.329.329,0,0,0,226.245,377.019Z" transform="translate(-225.8 -376.9)"/>
            </g>
            <g id="Group_2424" data-name="Group 2424" transform="translate(14.91 25.46)">
              <circle id="Ellipse_2" data-name="Ellipse 2" cx="0.386" cy="0.386" r="0.386" transform="translate(0.059 0.059)" fill="#fff"/>
              <path id="Path_173" data-name="Path 173" d="M226.245,364.99a.445.445,0,1,1,.445-.445A.446.446,0,0,1,226.245,364.99Zm0-.771a.326.326,0,1,0,.326.326A.329.329,0,0,0,226.245,364.219Z" transform="translate(-225.8 -364.1)"/>
            </g>
            <rect id="Rectangle_4" data-name="Rectangle 4" width="0.119" height="3.885" transform="translate(14.687 27.432)"/>
            <rect id="Rectangle_5" data-name="Rectangle 5" width="0.119" height="3.885" transform="translate(15.962 27.432)"/>
          </g>
        </g>
      </g>
    </g>
  </g>
</svg>
