<svg xmlns="http://www.w3.org/2000/svg" width="15.335" height="10.675" viewBox="-1525.667 2743.662 15.335 10.675"><g data-name="CompositeLayer"><path d="M-1511.472 2743.662c-.57 0-1.139.205-1.139.687v4.965l-2.366-4.512c-.555-1.066-.862-1.14-1.68-1.14-.57 0-1.139.22-1.139.701v9.273c0 .468.57.701 1.14.701s1.139-.233 1.139-.7v-4.966l2.775 5.053c.277.511.745.613 1.27.613.57 0 1.14-.233 1.14-.7v-9.288c0-.482-.57-.687-1.14-.687Z" fill="#8996a6" fill-rule="evenodd" data-name="Path 62336"/><path d="M-1519.475 2745.648c.438 0 .687-.467.687-1.007 0-.467-.205-.979-.687-.979h-5.2c-.496 0-.993.234-.993.701v9.273c0 .468.497.701.994.701h5.2c.481 0 .686-.51.686-.978 0-.54-.249-1.008-.687-1.008h-3.914v-2.482h2.19c.483 0 .687-.467.687-.862 0-.467-.248-.89-.686-.89h-2.191v-2.469h3.914Z" fill="#8996a6" fill-rule="evenodd" data-name="Path 62337"/></g></svg>