<svg id="share" xmlns="http://www.w3.org/2000/svg" width="40" height="40" viewBox="0 0 24 24">
  <rect id="Bounding_box" data-name="Bounding box" width="24" height="24" fill="rgba(255,255,255,0)"/>
  <g id="share-2" data-name="share" transform="translate(-36.364 0.453)">
    <path id="Path_1" data-name="Path 1" d="M96.782,5.365l1.353-1.473v11.68a1.05,1.05,0,1,0,2.093,0V3.892l1.353,1.473a.987.987,0,0,0,1.48,0,1.212,1.212,0,0,0,0-1.611L99.922.336Q99.885.3,99.845.26L99.81.231c-.015-.013-.031-.026-.047-.037s-.029-.02-.044-.029L99.675.136,99.629.112,99.582.089,99.537.071l-.051-.02L99.44.038,99.386.024,99.334.015,99.285.008c-.032,0-.065-.005-.1-.005h-.012a.965.965,0,0,0-.1.005l-.047.007-.054.009-.052.014-.047.013-.05.019-.047.019-.045.023-.048.025-.042.027c-.016.01-.031.02-.046.031s-.029.023-.044.035-.026.02-.038.031-.05.047-.073.072l0,0L95.3,3.753a1.212,1.212,0,0,0,0,1.611A.988.988,0,0,0,96.782,5.365Z" transform="translate(-50.818 0)" fill="#fff"/>
    <path id="Path_2" data-name="Path 2" d="M55.637,100H52.728a1.068,1.068,0,1,0,0,2.136h1.818v10.678H42.183V102.138H44A1.068,1.068,0,1,0,44,100H41.092A1.08,1.08,0,0,0,40,101.07v12.814a1.08,1.08,0,0,0,1.091,1.068H55.637a1.08,1.08,0,0,0,1.091-1.068V101.07A1.08,1.08,0,0,0,55.637,100Z" transform="translate(0 -92.405)" fill="#fff"/>
  </g>
</svg>
