<svg id="sign_in" xmlns="http://www.w3.org/2000/svg" width="35" height="35" viewBox="0 0 35 35">
  <rect id="Bounding_box" data-name="Bounding box" width="35" height="35" fill="rgba(255,255,255,0)"/>
  <path id="Icon_color" data-name="Icon color" d="M24,27H15.75A.751.751,0,0,1,15,26.249v-1.5A.751.751,0,0,1,15.75,24H24V3H15.75A.751.751,0,0,1,15,2.25V.751A.751.751,0,0,1,15.75,0H24a3,3,0,0,1,3,3V24A3,3,0,0,1,24,27Zm-13-6a.667.667,0,0,1-.471-.2l-.944-.93a.663.663,0,0,1,0-.944l4.582-4.568H.664A.665.665,0,0,1,0,13.694V12.366A.665.665,0,0,1,.664,11.7H14.172L9.59,7.132a.654.654,0,0,1-.2-.464.647.647,0,0,1,.2-.466l.944-.942a.662.662,0,0,1,.942,0L18.3,12.073a1.019,1.019,0,0,1,.293.7v.5a1,1,0,0,1-.293.7L11.476,20.8A.667.667,0,0,1,11.005,21Z" transform="translate(4 4)" fill="#656565"/>
</svg>
