<svg xmlns="http://www.w3.org/2000/svg" width="20.001" height="19" viewBox="0 0 20.001 19">
  <g id="time" transform="translate(0.001)">
    <path id="Icon_color" data-name="Icon color" d="M9.5,19A9.5,9.5,0,1,1,19,9.5,9.511,9.511,0,0,1,9.5,19Zm0-17.1a7.6,7.6,0,1,0,7.6,7.6A7.609,7.609,0,0,0,9.5,1.9Zm3.444,12.021a.483.483,0,0,1-.338-.137l-3.8-3.8a.506.506,0,0,1-.143-.333V4.275A.476.476,0,0,1,9.139,3.8h.722a.476.476,0,0,1,.475.475V9.158l3.448,3.448a.482.482,0,0,1,0,.675l-.5.5A.481.481,0,0,1,12.944,13.921Z" transform="translate(-0.001 0)" fill="#ececec"/>
  </g>
</svg>
