<?xml version="1.0" encoding="UTF-8" standalone="no"?>
<svg
   width="23.672"
   height="19.368"
   viewBox="0 0 23.672 19.368"
   version="1.1"
   id="svg3"
   sodipodi:docname="twitter-white.svg"
   inkscape:version="1.2.2 (b0a8486541, 2022-12-01)"
   xmlns:inkscape="http://www.inkscape.org/namespaces/inkscape"
   xmlns:sodipodi="http://sodipodi.sourceforge.net/DTD/sodipodi-0.dtd"
   xmlns="http://www.w3.org/2000/svg"
   xmlns:svg="http://www.w3.org/2000/svg">
  <defs
     id="defs7" />
  <sodipodi:namedview
     id="namedview5"
     pagecolor="#ffffff"
     bordercolor="#000000"
     borderopacity="0.25"
     inkscape:showpageshadow="2"
     inkscape:pageopacity="0.0"
     inkscape:pagecheckerboard="0"
     inkscape:deskcolor="#d1d1d1"
     showgrid="false"
     inkscape:zoom="38.362247"
     inkscape:cx="11.847585"
     inkscape:cy="9.684"
     inkscape:window-width="1920"
     inkscape:window-height="1008"
     inkscape:window-x="0"
     inkscape:window-y="0"
     inkscape:window-maximized="1"
     inkscape:current-layer="svg3" />
  <path
     id="Icon_simple-twitter"
     data-name="Icon simple-twitter"
     d="M23.625,5.675a9.812,9.812,0,0,1-2.786.769,4.917,4.917,0,0,0,2.133-2.7,9.983,9.983,0,0,1-3.084,1.176,4.818,4.818,0,0,0-3.542-1.548,4.868,4.868,0,0,0-4.852,4.882,5.031,5.031,0,0,0,.125,1.116,13.713,13.713,0,0,1-10-5.089A4.812,4.812,0,0,0,.961,6.735,4.894,4.894,0,0,0,3.119,10.8a4.813,4.813,0,0,1-2.2-.612v.061a4.88,4.88,0,0,0,3.892,4.793,4.866,4.866,0,0,1-2.182.084A4.873,4.873,0,0,0,7.172,18.52a9.692,9.692,0,0,1-6.018,2.09A10.232,10.232,0,0,1,0,20.543,13.8,13.8,0,0,0,21.26,8.851c0-.208,0-.417-.015-.625A9.836,9.836,0,0,0,23.672,5.7l-.046-.02Z"
     transform="translate(0 -3.369)"
     fill="#9c9eae" />
  <path
     style="fill:#ffffff;stroke:#241f1c;stroke-width:0.0260673"
     d="M 6.6341265,19.326031 C 4.7630617,19.208041 2.9736222,18.72699 1.3154598,17.896224 0.83254049,17.654274 0.06567029,17.221291 0.08529895,17.201662 c 0.0039114,-0.0039 0.13588041,0.0051 0.29326438,0.02004 0.3856405,0.03659 1.61002937,0.01106 1.99356047,-0.04157 1.6411625,-0.225227 3.1498929,-0.818241 4.4505326,-1.749307 0.1810319,-0.129592 0.3332881,-0.248039 0.338347,-0.263215 0.00583,-0.0175 -0.088568,-0.034 -0.2580709,-0.04511 C 6.333122,15.08516 5.6519205,14.895945 5.1114571,14.624892 4.0252647,14.080147 3.1951901,13.172756 2.7468834,12.040074 c -0.053233,-0.134497 -0.091873,-0.249456 -0.085866,-0.255462 0.00601,-0.006 0.069564,0.0018 0.1412376,0.0174 0.071674,0.01558 0.3942472,0.02922 0.71683,0.03032 0.5887351,0.002 0.8848262,-0.02895 1.2074436,-0.126238 l 0.1089548,-0.03286 -0.1173028,-0.03101 C 3.8212579,11.40514 3.1959575,11.078808 2.546844,10.509044 1.5980866,9.6762656 0.94162446,8.2686048 0.93890017,7.061108 L 0.93842261,6.8494406 1.1670104,6.9611843 C 1.631576,7.1882838 2.2104884,7.3545622 2.7528221,7.4166693 3.1598092,7.4632771 3.1717863,7.4551027 2.9433703,7.2866198 2.685606,7.0964892 2.222352,6.6447693 2.0192088,6.3854677 1.0048764,5.0907268 0.7088241,3.3846956 1.2277681,1.8247106 1.3319854,1.5114255 1.5605589,0.99886083 1.6095507,0.96858226 c 0.01434,-0.008863 0.095698,0.0687028 0.1807944,0.17236794 0.7721547,0.9406401 1.8670126,1.9105395 2.9799698,2.6398591 1.9324218,1.2663143 4.116884,2.0133464 6.4454691,2.2041918 0.211652,0.017347 0.391166,0.025195 0.398919,0.017442 0.0078,-0.00775 -0.0041,-0.1121996 -0.02643,-0.2321031 -0.104749,-0.5634402 -0.100281,-1.2881428 0.01131,-1.8341786 0.30947,-1.51432 1.266551,-2.754359 2.646778,-3.42928973 1.712457,-0.83739094 3.74247,-0.58082146 5.212879,0.65884593 0.129033,0.1087848 0.27503,0.239977 0.324438,0.2915384 0.04941,0.051561 0.114114,0.093748 0.143791,0.093748 0.103591,0 0.786258,-0.1844532 1.200077,-0.3242551 0.518465,-0.1751542 0.933255,-0.35175359 1.417591,-0.60354792 0.206194,-0.10719523 0.3787,-0.19109829 0.383347,-0.18645125 0.01933,0.019332 -0.221127,0.57214207 -0.348611,0.80144677 C 22.213138,1.8978433 21.653192,2.5128354 21.050281,2.918156 20.926634,3.00128 20.83079,3.0746142 20.837296,3.0811196 20.860476,3.1043006 21.6817,2.9527939 22.07342,2.853068 22.533024,2.73606 22.88415,2.6219371 23.315223,2.4494573 c 0.167687,-0.067094 0.310301,-0.1165725 0.316922,-0.1099518 0.01518,0.015181 -0.231201,0.3606043 -0.514116,0.7207808 -0.298562,0.3800969 -1.110564,1.185006 -1.527788,1.5144436 l -0.345392,0.2727192 v 0.6045248 c 0,1.6109672 -0.221242,2.9948382 -0.716174,4.4796654 -0.552125,1.6564127 -1.365268,3.1139307 -2.501366,4.4835747 -0.345576,0.416617 -1.11518,1.196328 -1.561032,1.581535 -1.904371,1.645338 -4.239975,2.743465 -6.7250514,3.161908 -1.0181726,0.171442 -2.1099449,0.230254 -3.1070951,0.167374 z"
     id="path374" />
</svg>
