<svg xmlns="http://www.w3.org/2000/svg" width="23.672" height="19.368" viewBox="0 0 23.672 19.368">
  <path id="Icon_simple-twitter" data-name="Icon simple-twitter" d="M23.625,5.675a9.812,9.812,0,0,1-2.786.769,4.917,4.917,0,0,0,2.133-2.7,9.983,9.983,0,0,1-3.084,1.176,4.818,4.818,0,0,0-3.542-1.548,4.868,4.868,0,0,0-4.852,4.882,5.031,5.031,0,0,0,.125,1.116,13.713,13.713,0,0,1-10-5.089A4.812,4.812,0,0,0,.961,6.735,4.894,4.894,0,0,0,3.119,10.8a4.813,4.813,0,0,1-2.2-.612v.061a4.88,4.88,0,0,0,3.892,4.793,4.866,4.866,0,0,1-2.182.084A4.873,4.873,0,0,0,7.172,18.52a9.692,9.692,0,0,1-6.018,2.09A10.232,10.232,0,0,1,0,20.543,13.8,13.8,0,0,0,21.26,8.851c0-.208,0-.417-.015-.625A9.836,9.836,0,0,0,23.672,5.7l-.046-.02Z" transform="translate(0 -3.369)" fill="#9c9eae"/>
</svg>
