<svg xmlns="http://www.w3.org/2000/svg" width="24.224" height="19.577" viewBox="0 0 24.224 19.577">
  <path id="twitter" d="M23.088,2.524c-1.452.067-1.421.061-1.585.075l.86-2.456S19.679,1.13,19,1.307A5.387,5.387,0,0,0,12.654.8a4.394,4.394,0,0,0-2.112,4.518A11.719,11.719,0,0,1,2.949,1.041L2.312.276l-.476.874a5.282,5.282,0,0,0-.563,3.556,5.109,5.109,0,0,0,.495,1.388l-.546-.212-.065.913a4.871,4.871,0,0,0,.826,2.9,5.149,5.149,0,0,0,.643.794l-.282-.043.345,1.046A5.086,5.086,0,0,0,5.3,14.516c-1.219.517-2.2.847-3.823,1.38L0,16.383l1.368.748a14.359,14.359,0,0,0,4.186,1.523c4.048.635,8.605.118,11.674-2.645,2.584-2.327,3.432-5.638,3.256-9.084a2.153,2.153,0,0,1,.4-1.4c.573-.765,2.2-2.995,2.2-3ZM19.8,4.713a3.506,3.506,0,0,0-.67,2.281c.178,3.475-.768,6.17-2.811,8.01C13.936,17.153,10.087,18,5.763,17.319A10.472,10.472,0,0,1,3.5,16.646a35.876,35.876,0,0,0,4.1-1.684l2.363-1.118-2.609-.167a3.689,3.689,0,0,1-2.93-1.669,4.679,4.679,0,0,0,.993-.166L7.9,11.149,5.4,10.535A3.737,3.737,0,0,1,3.113,8.947a3.827,3.827,0,0,1-.495-1.091,6.263,6.263,0,0,0,1.018.162l2.322.23L4.118,6.813A3.873,3.873,0,0,1,2.651,2.732a13.459,13.459,0,0,0,9.484,4.082A8.01,8.01,0,0,0,12,5.667a3.106,3.106,0,0,1,1.365-3.718,4.04,4.04,0,0,1,4.767.395,1.21,1.21,0,0,0,1.111.3,9.349,9.349,0,0,0,.915-.278l-.583,1.666h.745l-.512.685Zm0,0" transform="translate(0.626 0.399)" fill="#656565" stroke="#656565" stroke-width="0.5"/>
</svg>
