<?xml version="1.0" encoding="iso-8859-1"?>
<!-- Uploaded to: SVG Repo, www.svgrepo.com, Generator: SVG Repo Mixer Tools -->
<svg version="1.1" id="Layer_1" xmlns="http://www.w3.org/2000/svg" xmlns:xlink="http://www.w3.org/1999/xlink" 
	 viewBox="0 0 495 495" xml:space="preserve">
<g>
	<polygon style="fill:#999FED;" points="247.5,415 247.5,294.047 206.878,317.5 206.878,177.5 247.5,200.953 247.5,80 0,80 0,415 	
		"/>
	<polygon style="fill:#7C84E8;" points="247.5,80 247.5,200.953 328.122,247.5 247.5,294.047 247.5,415 495,415 495,80 	"/>
	<rect x="424.29" y="415" style="fill:#3D1952;" width="70.71" height="80"/>
	<rect x="353.57" y="415" style="fill:#6D2C93;" width="70.72" height="80"/>
	<rect x="282.86" y="415" style="fill:#3D1952;" width="70.71" height="80"/>
	<rect x="212.14" y="415" style="fill:#6D2C93;" width="70.72" height="80"/>
	<rect x="141.43" y="415" style="fill:#3D1952;" width="70.71" height="80"/>
	<rect x="70.71" y="415" style="fill:#6D2C93;" width="70.72" height="80"/>
	<rect y="415" style="fill:#3D1952;" width="70.71" height="80"/>
	<polygon style="fill:#3D1952;" points="206.878,317.5 247.5,294.047 328.122,247.5 247.5,200.953 206.878,177.5 	"/>
	<rect x="424.29" style="fill:#3D1952;" width="70.71" height="80"/>
	<rect x="353.57" style="fill:#6D2C93;" width="70.72" height="80"/>
	<rect x="282.86" style="fill:#3D1952;" width="70.71" height="80"/>
	<rect x="212.14" style="fill:#6D2C93;" width="70.72" height="80"/>
	<rect x="141.43" style="fill:#3D1952;" width="70.71" height="80"/>
	<rect x="70.71" style="fill:#6D2C93;" width="70.72" height="80"/>
	<rect style="fill:#3D1952;" width="70.71" height="80"/>
</g>
</svg>