<svg xmlns="http://www.w3.org/2000/svg" width="25.383" height="25.4" viewBox="0 -0.033 25.383 25.4"><path d="M25.352 12.35c0 6.82-5.572 12.35-12.447 12.35-2.181 0-4.23-.559-6.015-1.536L0 25.352l2.246-6.627a12.224 12.224 0 0 1-1.785-6.376C.462 5.53 6.032 0 12.907 0c6.874.002 12.445 5.53 12.445 12.35ZM12.905 1.97c-5.77 0-10.463 4.657-10.463 10.382 0 2.272.74 4.375 1.993 6.087L3.13 22.293l4.02-1.277a10.46 10.46 0 0 0 5.756 1.716c5.77 0 10.464-4.656 10.464-10.382.001-5.723-4.694-10.38-10.464-10.38Zm6.286 13.225c-.078-.125-.281-.201-.586-.353-.303-.152-1.805-.884-2.084-.983-.28-.102-.484-.153-.687.15-.201.304-.787.985-.966 1.188-.178.203-.355.228-.66.079-.306-.154-1.29-.472-2.455-1.502-.907-.804-1.52-1.794-1.696-2.097-.18-.303-.019-.466.133-.617.136-.136.305-.353.458-.531.153-.176.203-.301.305-.504.1-.202.05-.378-.026-.531-.076-.152-.685-1.64-.94-2.246-.254-.606-.508-.505-.687-.505-.177 0-.38-.025-.584-.025-.204 0-.534.073-.813.377-.278.303-1.067 1.035-1.067 2.524 0 1.492 1.092 2.93 1.245 3.131.154.201 2.111 3.358 5.212 4.57 3.103 1.211 3.103.807 3.662.756.56-.052 1.805-.732 2.058-1.438.255-.71.255-1.317.178-1.443Z" fill="#6598cb" fill-rule="evenodd" data-name="Path 62229"/></svg>