<svg id="whatsapp-logo-variant" xmlns="http://www.w3.org/2000/svg" width="31.503" height="31.503" viewBox="0 0 31.503 31.503">
  <path id="Path_62229" data-name="Path 62229" d="M31.5,15.346A15.493,15.493,0,0,1,8.562,28.784L0,31.5l2.791-8.236A15.19,15.19,0,0,1,.573,15.345a15.465,15.465,0,0,1,30.93,0ZM16.035,2.447a12.966,12.966,0,0,0-13,12.9,12.763,12.763,0,0,0,2.477,7.563L3.888,27.7l4.995-1.587A13.017,13.017,0,0,0,29.039,15.346,12.965,12.965,0,0,0,16.035,2.447Zm7.811,16.434c-.1-.155-.349-.25-.727-.439s-2.244-1.1-2.59-1.221-.6-.19-.855.187-.977,1.223-1.2,1.476-.442.284-.821.1a10.452,10.452,0,0,1-3.05-1.867A11.317,11.317,0,0,1,12.5,14.51c-.223-.376-.023-.579.165-.766.169-.169.379-.44.569-.661a2.508,2.508,0,0,0,.379-.626.7.7,0,0,0-.032-.661c-.095-.189-.852-2.038-1.169-2.791s-.631-.628-.853-.628-.474-.031-.726-.031a1.388,1.388,0,0,0-1.01.468,4.21,4.21,0,0,0-1.326,3.137,7.272,7.272,0,0,0,1.547,3.89c.191.25,2.624,4.173,6.477,5.679s3.855,1,4.55.939a3.824,3.824,0,0,0,2.558-1.786A3.126,3.126,0,0,0,23.847,18.881Z" fill="#4caf50"/>
</svg>
